<svg xmlns="http://www.w3.org/2000/svg" xmlns:xlink="http://www.w3.org/1999/xlink" width="505" height="507" viewBox="0 0 505 507">
  <defs>
    <clipPath id="clip-path">
      <rect id="Rect치ngulo_409885" data-name="Rect치ngulo 409885" width="505" height="507" transform="translate(915 290)" fill="#fff" stroke="#707070" stroke-width="1" opacity="0.7"/>
    </clipPath>
    <clipPath id="clip-path-2">
      <rect id="Rect치ngulo_409869" data-name="Rect치ngulo 409869" width="630" height="630" transform="translate(-0.445 -0.445)"/>
    </clipPath>
  </defs>
  <g id="Enmascarar_grupo_1098770" data-name="Enmascarar grupo 1098770" transform="translate(-915 -290)" clip-path="url(#clip-path)">
    <g id="Grupo_1162644" data-name="Grupo 1162644" transform="translate(0 9)">
      <path id="Trazado_996620" data-name="Trazado 996620" d="M41.944,310.234C20.892,290.455-15.819,230.725,7.469,170.85s39.321-43.5,41.669-86.317S104.147-16.482,210.63,6.478,318.638-9.329,372.44,2.192,480.934,39.353,472.2,113.5s2.381,64.574,5.687,99.029-31.171,168.6-207.84,146.668S67.394,334.144,41.944,310.234Z" transform="matrix(0.961, 0.276, -0.276, 0.961, 982.536, 294.383)" fill="#fecfb9" opacity="0.7"/>
      <g id="Grupo_1162643" data-name="Grupo 1162643" transform="translate(1600.951 -1301.015)">
        <g id="Grupo_1162608" data-name="Grupo 1162608" transform="translate(-760.506 1551.46)">
          <g id="Grupo_1162607" data-name="Grupo 1162607" transform="translate(0 0)" clip-path="url(#clip-path-2)">
            <path id="Trazado_996516" data-name="Trazado 996516" d="M160.94-58.9S51.338,33.7,85.353,105.507s92.094,173.85,7.559,241.88S57.51,549.48,170.9,531.842c102.544-15.951,154.39-103.643,265.937-72.965,75.587,20.788,67.9,121.788,137.947,113.381,94.484-11.339,116.434-259.63,9.347-385.615C523.327,115.114,344.756.186,164.6,83.336c-304.954,140.748-188.16,448.4-94.361,532.385,77.983,69.823,232.893,74.106,312.315,47.146,137.324-46.614,228.033-173.859,186.458-346.459-19.345-80.307-124.618-156.1-79.265-248.694s209.029,58.457,209.029,58.457" transform="translate(-8.888 -15.781)" fill="none" stroke="#0093cf" stroke-linecap="round" stroke-miterlimit="10" stroke-width="2.409" stroke-dasharray="4.015" opacity="0.1"/>
            <circle id="Elipse_11761" data-name="Elipse 11761" cx="7.559" cy="7.559" r="7.559" transform="translate(76.99 100.383)" fill="#c2e1f0"/>
            <ellipse id="Elipse_11762" data-name="Elipse 11762" cx="8" cy="7.5" rx="8" ry="7.5" transform="translate(461.555 80.555)" fill="#c2e1f0"/>
            <circle id="Elipse_11763" data-name="Elipse 11763" cx="7.5" cy="7.5" r="7.5" transform="translate(82.555 496.555)" fill="#c2e1f0"/>
            <ellipse id="Elipse_11764" data-name="Elipse 11764" cx="7.5" cy="7" rx="7.5" ry="7" transform="translate(512.555 533.555)" fill="#c2e1f0"/>
            <ellipse id="Elipse_11765" data-name="Elipse 11765" cx="7" cy="8" rx="7" ry="8" transform="translate(60.555 597.555)" fill="#c2e1f0"/>
            <ellipse id="Elipse_11766" data-name="Elipse 11766" cx="7" cy="8" rx="7" ry="8" transform="translate(88.555 307.555)" fill="#c2e1f0"/>
            <ellipse id="Elipse_11767" data-name="Elipse 11767" cx="7.5" cy="8" rx="7.5" ry="8" transform="translate(556.555 330.555)" fill="#c2e1f0"/>
          </g>
        </g>
        <g id="Grupo_1162637" data-name="Grupo 1162637" transform="translate(-688.171 1587.362)">
          <ellipse id="Elipse_11768" data-name="Elipse 11768" cx="198.138" cy="198.137" rx="198.138" ry="198.137" transform="matrix(0.2, -0.98, 0.98, 0.2, 7.636, 402.708)" fill="none" stroke="#0093cf" stroke-linecap="round" stroke-miterlimit="10" stroke-width="2.801" stroke-dasharray="4.669" opacity="0.4"/>
          <g id="Grupo_1162609" data-name="Grupo 1162609" transform="translate(127.257 134.103)">
            <path id="Trazado_996517" data-name="Trazado 996517" d="M387.289,249.561a114.25,114.25,0,1,1-117.376-114.2c1.039-.034,2.1-.045,3.148-.045A114.222,114.222,0,0,1,387.289,249.561Z" transform="translate(-158.832 -135.32)" fill="#0093cf"/>
            <path id="Trazado_996518" data-name="Trazado 996518" d="M230.881,168.652c-9.841,7.729-12.008,23.6-23.65,28.038-6.127,2.336-14.589.362-21.087,1.465a73.114,73.114,0,0,0-19.869,6.85A114.257,114.257,0,0,1,268.35,135.357C270.811,154.256,241.936,159.976,230.881,168.652Zm79.983-26.38c-10.369,12.738-29.753,30.532-9.513,38.442,12.607,4.931,48.449,10.041,60.288,2.313a20.71,20.71,0,0,0,1.784-1.3A114.464,114.464,0,0,0,310.864,142.272Zm-17.2,190.217c-2.067-8.439.538-19.487-9.174-23.307-12.232-4.833-34.448,9.012-47.3,9.826-19.506,1.232-27.1-9.013-39.218-21.889C187.507,286,178.223,285.9,164.851,290.53a114.307,114.307,0,0,0,155.415,62.339C308.538,344.651,297.744,349.155,293.659,332.489Zm55.578-44.257c-13.543,10.371-22.989,6.207-34.132,19.039s6.2,30.047,27.554,18.534C360.989,315.925,363.422,277.374,349.238,288.232Z" transform="translate(-157.268 -135.31)" fill="#77cdd1"/>
          </g>
          <g id="Grupo_1162610" data-name="Grupo 1162610" transform="translate(78.654 124.014)" opacity="0.5">
            <path id="Trazado_996519" data-name="Trazado 996519" d="M390.273,375.959c-2.254-93.223-140.057-257.017-213.08-248.314" transform="translate(-105.457 -127.311)" fill="none" stroke="#006382" stroke-linecap="round" stroke-miterlimit="10" stroke-width="3.211" stroke-dasharray="5.352"/>
            <path id="Trazado_996520" data-name="Trazado 996520" d="M120.253,235.529c89.475,63.459,302.079,33.268,325.666,0" transform="translate(-120.253 -99.191)" fill="none" stroke="#006382" stroke-linecap="round" stroke-miterlimit="10" stroke-width="2.984" stroke-dasharray="4.973"/>
            <path id="Trazado_996521" data-name="Trazado 996521" d="M155.388,341.81C168.356,265.727,276.783,128,413.88,155.01" transform="translate(-111.123 -121.013)" fill="none" stroke="#006382" stroke-linecap="round" stroke-miterlimit="10" stroke-width="2.984" stroke-dasharray="4.973"/>
          </g>
          <path id="Trazado_996522" data-name="Trazado 996522" d="M302.155,105.3a49.122,49.122,0,0,0,4.587-31.974c-5.514-28.005-34.362-45.908-64.43-39.988-26.7,5.259-45.368,27.533-45.36,52.065-1.193-.089-2.394-.154-3.609-.163-27.319-.2-49.618,20.257-49.808,45.7a43.782,43.782,0,0,0,9.314,27.246c1.93,2.5-16.323,2.124-16.323,2.124s23.131,19.732,56.129,17.071c26.317-2.125,48.1-19.063,49.71-43.164a73.841,73.841,0,0,0,19.918.535c36.926-3.943,58.311-30.519,58.311-30.519S300.548,108.449,302.155,105.3Z" transform="translate(-37.371 -28.011)" fill="#bcbec0" opacity="0.3"/>
          <g id="Grupo_1162611" data-name="Grupo 1162611" transform="translate(159.983 0)">
            <path id="Trazado_996523" data-name="Trazado 996523" d="M185.726,91.436c5.514,28.005,33.957,43.242,64.429,39.986,36.928-3.943,58.311-30.519,58.311-30.519s-20.044,4.215-18.437,1.063a49.121,49.121,0,0,0,4.587-31.974c-5.516-28.005-34.362-45.906-64.43-39.986S180.21,63.431,185.726,91.436Z" transform="translate(-184.808 -28.876)" fill="#16b8b3"/>
            <path id="Trazado_996524" data-name="Trazado 996524" d="M232.9,70.941c-7.768-17.95-40.211,1.654-16.959,17.118,12.854,8.549,27.947,9.677,27.947,9.677s9.954-11.4,13.108-26.512C262.69,43.891,225.823,52.7,232.9,70.941Z" transform="translate(-178.864 -22.388)" fill="#df6c53"/>
          </g>
          <g id="Grupo_1162612" data-name="Grupo 1162612" transform="translate(94.542 50.515)">
            <path id="Trazado_996525" data-name="Trazado 996525" d="M238.8,115.414c-.19,25.443-22.578,43.5-49.808,45.7-33,2.662-56.129-17.071-56.129-17.071s18.253.372,16.321-2.125a43.775,43.775,0,0,1-9.313-27.244c.19-25.445,22.49-45.906,49.808-45.7S238.991,89.97,238.8,115.414Z" transform="translate(-132.864 -68.972)" fill="#fff"/>
            <path id="Trazado_996526" data-name="Trazado 996526" d="M173.8,85.088a27.979,27.979,0,1,0,36.276,15.8A27.978,27.978,0,0,0,173.8,85.088Zm-7.948,24a4.521,4.521,0,1,1,5.863,2.555A4.523,4.523,0,0,1,165.853,109.089Zm22.968,14.2a11.726,11.726,0,0,1-15.205-6.624l21.829-8.582A11.728,11.728,0,0,1,188.821,123.29Zm4.593-20.176a4.521,4.521,0,1,1,2.554-5.863A4.521,4.521,0,0,1,193.415,103.114Z" transform="translate(-126.838 -65.29)" fill="#f9bb13"/>
          </g>
          <path id="Trazado_996527" data-name="Trazado 996527" d="M425.2,198.056a5.654,5.654,0,0,0-.583-.66,16.879,16.879,0,0,0,.241-14.162c-.125-.26-.249-.519-.38-.787-.168-.335-.354-.663-.547-.989,1.557-3.873,1.781-8.292.481-11.422q-2.253-5.533-4.595-11.067c-1.779-4.12-5.174-4.615-8.578-2.028-.682-1.917-1.337-3.927-1.945-6.04-1.873-6.53.815-29.285,2.227-39.935.066-.176.135-.357.189-.53.136-.427.246-.84.334-1.243.035-.155.058-.3.084-.456.054-.3.092-.6.116-.888.01-.125.026-.253.03-.377a6.962,6.962,0,0,0-.038-1.11c-.013-.078-.031-.149-.045-.224a.071.071,0,0,1,0-.016c.067-.464.107-.737.107-.737l-.226.161c-.023-.082-.06-.156-.087-.237s-.062-.183-.1-.27a4.577,4.577,0,0,0-.479-.889c-4.76-6.6-27.406,1.615-50.583,18.335s-38.123,35.624-33.365,42.22a4.3,4.3,0,0,0,.693.736q.11.091.223.178c.068.052.13.111.2.159l-.227.163.736.131a.228.228,0,0,0,.025.014c.062.033.117.072.183.1a6.572,6.572,0,0,0,1.063.4c.1.03.208.052.315.078a9.01,9.01,0,0,0,.947.183c.135.02.268.042.411.057.413.044.844.072,1.3.077.179,0,.373-.006.561-.011,10.551,2.016,33,6.641,38.6,10.483,2.123,1.458,4.089,2.93,5.926,4.392-.892,1.929-.519,4.062,1.439,6.038.294.295.591.583.886.877l-12.61,9.095a5.87,5.87,0,0,0-2.241,5.695l-.028-.011a6.364,6.364,0,0,0,.141.7c.009.033.013.068.02.1a7.063,7.063,0,0,0,.383,1.046c.04.089.083.179.127.267a7.347,7.347,0,0,0,.6,1.015,7.011,7.011,0,0,0,1.323,1.357,6.047,6.047,0,0,0,7.345.469l14.855-10.714a13.886,13.886,0,0,0,1.449.626,16.593,16.593,0,0,0,3.449.857c.116.171.223.348.344.515a17.057,17.057,0,0,0,1.734,2.042c.2.207.416.4.622.6a16.863,16.863,0,0,0,13.518,4.244,5.442,5.442,0,0,0,8.147,2.038l4.057-2.928c.03-.023.054-.052.084-.076a5.029,5.029,0,0,0,.616-.547c.1-.1.185-.2.275-.3.034-.043.077-.081.111-.123l-.024.005A5.51,5.51,0,0,0,425.2,198.056Z" transform="translate(12.015 -9.909)" fill="#bcbec0" opacity="0.3"/>
          <g id="Grupo_1162613" data-name="Grupo 1162613" transform="translate(341.112 83.155)">
            <path id="Trazado_996528" data-name="Trazado 996528" d="M361.046,182.812c2.118,2.934,6,3.753,8.669,1.827l18.335-13.223c2.67-1.928,3.116-5.87,1-8.8h0c-2.116-2.937-6-3.754-8.673-1.829l-18.328,13.223c-2.675,1.926-3.123,5.87-1,8.806Z" transform="translate(-320.489 -78.026)" fill="#f8b20d"/>
            <path id="Trazado_996529" data-name="Trazado 996529" d="M361.032,182.672c2.114,2.93,6,3.747,8.672,1.819l18.319-13.217c2.677-1.929,3.126-5.872,1.01-8.8a7,7,0,0,0-2.56-2.191,5.914,5.914,0,0,1-2.279,5.683l-18.323,13.217a5.9,5.9,0,0,1-6.109.368A7.04,7.04,0,0,0,361.032,182.672Z" transform="translate(-320.475 -77.886)" fill="#e0a10b" opacity="0.4"/>
            <path id="Trazado_996530" data-name="Trazado 996530" d="M396.775,181.069a5.521,5.521,0,0,0,7.7,1.274l4.057-2.927a5.522,5.522,0,0,0,1.223-7.712h0a5.523,5.523,0,0,0-7.705-1.276l-4.058,2.928a5.518,5.518,0,0,0-1.22,7.713Z" transform="translate(-311.132 -75.517)" fill="#f14e38"/>
            <path id="Trazado_996531" data-name="Trazado 996531" d="M396.782,181a5.508,5.508,0,0,0,7.69,1.27l4.063-2.93a5.122,5.122,0,0,0,1.083-1.047,5.541,5.541,0,0,1-6.226-8.636,5.18,5.18,0,0,0-1.337.7l-4.063,2.933A5.51,5.51,0,0,0,396.782,181Z" transform="translate(-311.131 -75.449)" fill="#f14e38" opacity="0.3"/>
            <path id="Trazado_996532" data-name="Trazado 996532" d="M329.986,158.223s36.755,6.438,44.139,11.509a105,105,0,0,1,17.488,15.075,79.206,79.206,0,0,1,5.28,6.284c.2.329.417.648.643.961a17.074,17.074,0,0,0,1.733,2.043c.2.205.417.4.622.6a16.744,16.744,0,0,0,26.6-19.179c-.125-.26-.248-.519-.379-.787a16.78,16.78,0,0,0-1.391-2.289c-.227-.314-.459-.62-.711-.915a78.888,78.888,0,0,1-4.3-6.991,105.312,105.312,0,0,1-8.789-21.351c-2.472-8.616,3.007-45.517,3.007-45.517Z" transform="translate(-328.213 -94.155)" fill="#f8b20d"/>
            <path id="Trazado_996533" data-name="Trazado 996533" d="M329.986,146.95s36.755,6.438,44.139,11.509a105,105,0,0,1,17.488,15.075,79.2,79.2,0,0,1,5.28,6.284c.2.329.417.648.643.961a17.08,17.08,0,0,0,1.733,2.043c.2.205.417.4.622.6a16.776,16.776,0,0,0,24.759-2.336,16.86,16.86,0,0,1-16.58-3.563c-.208-.2-.426-.4-.622-.6a16.72,16.72,0,0,1-1.735-2.041c-.227-.314-.442-.631-.644-.961a79.2,79.2,0,0,0-5.277-6.284,105.081,105.081,0,0,0-17.487-15.074c-7.39-5.072-44.143-11.509-44.143-11.509Z" transform="translate(-328.213 -82.882)" fill="#e0a10b" opacity="0.4"/>
            <path id="Trazado_996534" data-name="Trazado 996534" d="M329.461,157.714c3.54,4.907,16.982,1.62,33.187-7.277.107-.063.214-.118.329-.186a170.246,170.246,0,0,0,17.076-10.879,169.225,169.225,0,0,0,15.693-12.76c.1-.084.2-.17.3-.263,13.552-12.563,20.908-24.282,17.37-29.188-4.757-6.6-27.406,1.614-50.584,18.336S324.705,151.118,329.461,157.714Z" transform="translate(-328.578 -94.88)" fill="#f14e38"/>
            <path id="Trazado_996535" data-name="Trazado 996535" d="M329.461,157.714c1.241,1.721,3.714,2.44,7.085,2.237a34.014,34.014,0,0,0,7.649-1.474,96.088,96.088,0,0,0,18.453-8.042c.107-.063.214-.118.329-.186a170.244,170.244,0,0,0,17.076-10.879,169.226,169.226,0,0,0,15.693-12.76c.1-.084.2-.17.3-.263a96.768,96.768,0,0,0,13.468-14.971,34.244,34.244,0,0,0,3.8-6.8c1.242-3.137,1.344-5.7.1-7.422-4.757-6.6-27.406,1.614-50.584,18.336S324.705,151.118,329.461,157.714Z" transform="translate(-328.578 -94.88)" fill="#f14e38"/>
            <path id="Trazado_996536" data-name="Trazado 996536" d="M340.975,155.134a96.089,96.089,0,0,0,18.453-8.042c.107-.063.214-.118.329-.186a170.238,170.238,0,0,0,17.076-10.879,169.224,169.224,0,0,0,15.693-12.76c.1-.084.2-.17.3-.263a96.766,96.766,0,0,0,13.468-14.971c-10.017-1.562-25.322,3.417-39.7,13.792S342.668,145.124,340.975,155.134Z" transform="translate(-325.357 -91.535)" fill="#f14e38" opacity="0.3"/>
            <path id="Trazado_996537" data-name="Trazado 996537" d="M356.032,144.3a170.239,170.239,0,0,0,17.076-10.879,169.23,169.23,0,0,0,15.693-12.76c-5.629-4.412-15.378-3.742-23.421,2.064S353.623,137.562,356.032,144.3Z" transform="translate(-321.633 -88.927)" fill="#ae0c16"/>
            <path id="Trazado_996538" data-name="Trazado 996538" d="M356.032,143.715a170.247,170.247,0,0,0,17.076-10.879c1.094-.79,2.169-1.576,3.216-2.382-4.707,3.245-9.354,6.123-13.8,8.578-2.08-5.809.388-13.32,6.269-19a28.428,28.428,0,0,0-3.412,2.112C357.323,127.948,353.623,136.98,356.032,143.715Z" transform="translate(-321.633 -88.345)" fill="#9b0b14" opacity="0.4"/>
            <path id="Trazado_996539" data-name="Trazado 996539" d="M374.96,159.449c-5.509,2.418-7.379,6.692-3.7,10.409q4.01,4.012,8.054,7.977c3.688,3.657,11.671,4.9,17.2,1.841a78.914,78.914,0,0,0,14.913-10.507c4.743-4.17,6.425-12.247,4.389-17.152q-2.253-5.533-4.595-11.068c-2.123-4.921-6.557-4.685-10.552-.184A75.163,75.163,0,0,1,374.96,159.449Z" transform="translate(-317.983 -83.851)" fill="#f14e38"/>
            <path id="Trazado_996540" data-name="Trazado 996540" d="M371.267,165.641q4.012,4.014,8.049,7.974c3.688,3.662,11.669,4.9,17.194,1.844.973-.528,1.943-1.077,2.893-1.66a19.933,19.933,0,0,1-8.129-5.117q-5.131-5.478-10.249-11.034a11.3,11.3,0,0,1-2.516-4.093c-1.175.582-2.356,1.148-3.552,1.676C369.453,157.646,367.581,161.927,371.267,165.641Z" transform="translate(-317.982 -79.634)" fill="#f14e38" opacity="0.3"/>
          </g>
          <path id="Trazado_996541" data-name="Trazado 996541" d="M333.482,330.063a50.305,50.305,0,0,1,94.85,30.03l8.188,4.011a1.48,1.48,0,1,1-1.3,2.657l-7.468-3.662a50.453,50.453,0,0,1-1.989,6.714L435.94,374.8a3.7,3.7,0,1,1-3.258,6.639l-10.017-4.91a50.294,50.294,0,0,1-5.657,8.213l13.1,6.423a3.205,3.205,0,1,1-2.822,5.756l-14.986-7.346a50.218,50.218,0,0,1-12.4,8.2l9.121,4.472a3.452,3.452,0,0,1-3.039,6.2L390.8,401.006a50.291,50.291,0,0,1-57.319-70.943Zm82.913,69.486a2.714,2.714,0,0,0,1.241,3.63l6.2,3.038a2.712,2.712,0,1,0,2.387-4.869l-6.2-3.041A2.713,2.713,0,0,0,416.395,399.548Z" transform="translate(12.47 42.068)" fill="#bcbec0" opacity="0.3"/>
          <g id="Grupo_1162614" data-name="Grupo 1162614" transform="translate(342.061 332.64)">
            <path id="Trazado_996542" data-name="Trazado 996542" d="M401.785,298.055A50.32,50.32,0,0,1,429.33,351.1l8.188,4.011a1.48,1.48,0,1,1-1.3,2.657l-7.468-3.66a50.516,50.516,0,0,1-1.988,6.711l10.18,4.993a3.7,3.7,0,1,1-3.255,6.642l-10.018-4.911a50.634,50.634,0,0,1-5.656,8.214l13.105,6.423a3.206,3.206,0,0,1-2.823,5.756L413.3,380.595a50.239,50.239,0,0,1-12.4,8.2l9.121,4.471a3.452,3.452,0,0,1-3.039,6.2L391.8,392.019a50.3,50.3,0,1,1,9.986-93.965Zm15.608,92.507a2.715,2.715,0,0,0,1.242,3.63l6.2,3.036a2.71,2.71,0,0,0,3.63-1.236h0a2.717,2.717,0,0,0-1.242-3.632l-6.2-3.041a2.714,2.714,0,0,0-3.63,1.243Z" transform="translate(-329.331 -292.908)" fill="#ffb81b"/>
            <path id="Trazado_996543" data-name="Trazado 996543" d="M338.968,344.908a4.04,4.04,0,0,0,1.968,2.018l51.8,24.916a4.194,4.194,0,0,0,1.687.413,3.511,3.511,0,0,0,3.316-1.931L414.2,336.1a3.406,3.406,0,0,0,.028-2.836,4.035,4.035,0,0,0-1.968-2.021l-51.8-24.917a4.2,4.2,0,0,0-1.688-.41,3.5,3.5,0,0,0-3.315,1.929L339,342.072A3.42,3.42,0,0,0,338.968,344.908Zm18.788-35.063c2.089,4.961,7.853,18.652,10.844,25.647l-26.483,6.869Zm3.175-.029,48.3,23.232c-6.624,1.876-22.008,6.225-28,7.88-5.152,1.422-6.851.549-9.1-4.663C369.7,330.631,363.575,316.1,360.93,309.816ZM392.5,368.471l-48.818-23.485,26.1-6.769c1.973,4.238,4.171,6.151,7.6,6.238a15.049,15.049,0,0,0,3.887-.513Zm3.055-.379-11.408-24.927c7.458-2.077,21.875-6.156,27.067-7.628Z" transform="translate(-326.903 -289.527)" fill="#fff"/>
          </g>
          <path id="Trazado_996544" data-name="Trazado 996544" d="M321.8,359.737c-5.314,6.353-9.4,10.147-10.423,7.594-6.833-17.084-24.229-29.293-44.7-29.444-26.588-.2-48.292,20.015-48.479,45.145S239.413,428.7,266,428.9s48.291-20.014,48.478-45.145C314.5,380.865,324.691,375.933,321.8,359.737Z" transform="translate(-16.148 51.42)" fill="#bcbec0" opacity="0.3"/>
          <g id="Grupo_1162616" data-name="Grupo 1162616" transform="translate(198.278 380.501)">
            <path id="Trazado_996545" data-name="Trazado 996545" d="M311.482,376.766C311.3,401.9,289.591,422.11,263,421.909s-47.986-20.732-47.8-45.865S237.1,330.7,263.686,330.9c20.471.151,37.87,12.362,44.7,29.445,1.02,2.55,5.109-1.242,10.422-7.594C321.7,368.944,311.506,373.873,311.482,376.766Z" transform="translate(-215.204 -330.897)" fill="#77cdd1"/>
            <g id="Grupo_1162615" data-name="Grupo 1162615" transform="translate(25.1 19.612)">
              <path id="Trazado_996546" data-name="Trazado 996546" d="M269.335,389.518a33.9,33.9,0,0,1-3.594,1.9,31.282,31.282,0,0,1-5.313,1.788q-9.334,2.377-15.613-1.151t-8.767-13.29a26.23,26.23,0,0,1-.607-10.837,24.1,24.1,0,0,1,3.49-9.223,24.7,24.7,0,0,1,6.849-7.014,29.262,29.262,0,0,1,9.451-4.241,28.2,28.2,0,0,1,9.108-.92,19.475,19.475,0,0,1,7.526,2.043,16.488,16.488,0,0,1,5.638,4.771,19.9,19.9,0,0,1,3.375,7.221,22.015,22.015,0,0,1,.743,7.6,15.641,15.641,0,0,1-1.623,5.77,11.583,11.583,0,0,1-3.3,3.953,11.913,11.913,0,0,1-4.25,2.1,9.976,9.976,0,0,1-3.026.354,7,7,0,0,1-2.278-.494,5.194,5.194,0,0,1-1.652-1.092,6.46,6.46,0,0,1-1.1-1.436,11.827,11.827,0,0,1-.855,1.771,10.3,10.3,0,0,1-1.417,1.9,10.545,10.545,0,0,1-2.022,1.683,8.818,8.818,0,0,1-2.622,1.13,7.567,7.567,0,0,1-7.033-1.28,13.318,13.318,0,0,1-4.125-7.286,17.179,17.179,0,0,1-.5-6.646,12.533,12.533,0,0,1,5.788-9.1,18.31,18.31,0,0,1,5.41-2.319,24.033,24.033,0,0,1,5.823-.7c2.074-.008,4.994-.068,5.939,1.6,1.238,2.209,3.741,13.926,3.741,13.926a.933.933,0,0,0,.461.64.958.958,0,0,0,.683.077q.988-.251,1.262-2.775a19.536,19.536,0,0,0-.772-6.619q-1.674-6.59-6.4-8.785t-11.776-.4a20.016,20.016,0,0,0-6.876,3.124,16.353,16.353,0,0,0-6.806,11.583,20.48,20.48,0,0,0,.573,7.548,18.328,18.328,0,0,0,2.56,6.011,11.113,11.113,0,0,0,3.776,3.482,10.594,10.594,0,0,0,4.738,1.265,19.459,19.459,0,0,0,5.516-.651,38.3,38.3,0,0,0,5.363-1.688,16.6,16.6,0,0,0,2.928-1.524s2.841-1.718,4.057,1.7C272.657,387.38,269.335,389.518,269.335,389.518Zm-12.315-13.653c.566.307,3.791,1.3,5.222-2.859l-2.518-9.894a4.635,4.635,0,0,0-4.895,2C252.363,369.93,255.01,374.763,257.019,375.865Z" transform="translate(-235.127 -346.464)" fill="#fff"/>
            </g>
          </g>
          <path id="Trazado_996547" data-name="Trazado 996547" d="M152.163,247.684l-8.721-27.97a12.212,12.212,0,0,0-15.29-8.021l-16.9,5.27-2.633-8.45a6.715,6.715,0,1,0-12.82,4s3.079,17.9,2.445,18.1l-6.04,1.883A10.917,10.917,0,0,0,81.156,229.7L65.5,234.582a10.93,10.93,0,0,0-7.184,13.687l8.134,26.088a10.928,10.928,0,0,0,13.686,7.182l15.655-4.881a10.9,10.9,0,0,0,6.455-5.424l7.9-2.459a12.143,12.143,0,0,0,1.812-.743A12.174,12.174,0,0,0,122.58,269.7l21.561-6.72A12.215,12.215,0,0,0,152.163,247.684Z" transform="translate(-57.822 16.577)" fill="#bcbec0" opacity="0.3"/>
          <g id="Grupo_1162617" data-name="Grupo 1162617" transform="translate(2.517 212.824)">
            <path id="Trazado_996548" data-name="Trazado 996548" d="M126.348,205.7l-16.9,5.269-2.634-8.449a6.714,6.714,0,0,0-12.82,4s3.08,17.9,2.445,18.1l-13.4,4.178a12.208,12.208,0,0,0-8.023,15.286l4.634,14.862a12.2,12.2,0,0,0,15.287,8.02l13.4-4.175a12.343,12.343,0,0,0,1.81-.745,12.182,12.182,0,0,0,10.624,1.664l21.56-6.723a12.207,12.207,0,0,0,8.024-15.286l-8.721-27.972A12.206,12.206,0,0,0,126.348,205.7Z" transform="translate(-56.016 -197.804)" fill="#fdcf9f"/>
            <path id="Trazado_996549" data-name="Trazado 996549" d="M104.973,251.734a10.928,10.928,0,0,1-7.182,13.687L82.137,270.3a10.927,10.927,0,0,1-13.687-7.184l-8.132-26.085A10.929,10.929,0,0,1,67.5,223.347l15.651-4.879a10.931,10.931,0,0,1,13.69,7.181Z" transform="translate(-59.82 -192.564)" fill="#00bfc8"/>
          </g>
          <path id="Trazado_996550" data-name="Trazado 996550" d="M136.737,181.995c-.923-1.552-5.386-.706-11.031,1.82,1.652-9.929-2.44-25.663-6.311-32.171a18.6,18.6,0,1,0-31.97,19.019c3.872,6.507,15.746,17.611,25.259,20.9-4.913,3.754-7.787,7.271-6.864,8.823,1.269,2.134,9.22-.252,17.758-5.33S138.005,184.129,136.737,181.995ZM107.9,168.706a8.79,8.79,0,1,1,3.06-12.045A8.789,8.789,0,0,1,107.9,168.706Z" transform="translate(-50.81 0.662)" fill="#bcbec0" opacity="0.3"/>
          <g id="Grupo_1162618" data-name="Grupo 1162618" transform="translate(33.997 136.921)">
            <path id="Trazado_996551" data-name="Trazado 996551" d="M132.438,169.027c1.269,2.134-4.624,7.981-13.159,13.06s-16.488,7.466-17.758,5.33,4.622-7.982,13.158-13.061S131.167,166.893,132.438,169.027Z" transform="translate(-80.508 -129.582)" fill="#f9bb13"/>
            <path id="Trazado_996552" data-name="Trazado 996552" d="M93.9,140.174a18.6,18.6,0,0,0-6.476,25.5c5.252,8.827,25.235,26.132,34.063,20.881s3.158-31.07-2.093-39.9A18.6,18.6,0,0,0,93.9,140.174Zm14,23.539a8.79,8.79,0,1,1,3.06-12.047A8.788,8.788,0,0,1,107.9,163.713Z" transform="translate(-84.807 -137.557)" fill="#f14e38"/>
          </g>
          <path id="Trazado_996553" data-name="Trazado 996553" d="M455.813,238.821a44.482,44.482,0,0,0-62.034-10l-2.057,1.485a21.256,21.256,0,0,0-28.587,27.372,37.4,37.4,0,0,0,.5,37.837,5.21,5.21,0,1,0,1.906-1.676,34.891,34.891,0,0,1-1.044-33.406c.33.558.679,1.11,1.066,1.644l34.5-24.921c-.411-.571-.85-1.11-1.306-1.626a36.13,36.13,0,0,1,50.3,8.178c11.418,15.809,7.56,37.452-8.774,49.312-.346-.595-.723-1.182-1.134-1.752l-34.5,24.92a21.27,21.27,0,0,0,38.38-14.855l2.057-1.488C465.284,285.257,470,258.451,455.813,238.821Z" transform="translate(20.242 20.898)" fill="#bcbec0" opacity="0.3"/>
          <g id="Grupo_1162623" data-name="Grupo 1162623" transform="translate(374.701 236.29)">
            <g id="Grupo_1162619" data-name="Grupo 1162619" transform="translate(3.293 7.916)">
              <path id="Trazado_996554" data-name="Trazado 996554" d="M366.673,226.744a21.275,21.275,0,0,0-4.787,29.709l34.495-24.922A21.279,21.279,0,0,0,366.673,226.744Z" transform="translate(-357.853 -222.713)" fill="#00bfc8"/>
              <path id="Trazado_996555" data-name="Trazado 996555" d="M421.789,302.373a21.276,21.276,0,0,1-29.706-4.79l34.495-24.92A21.279,21.279,0,0,1,421.789,302.373Z" transform="translate(-348.959 -209.734)" fill="#00bfc8"/>
            </g>
            <g id="Grupo_1162620" data-name="Grupo 1162620" transform="translate(12.038)">
              <path id="Trazado_996556" data-name="Trazado 996556" d="M416.1,312.834l-4.889-6.767,23.505-16.979c16.4-11.848,20.294-33.538,8.853-49.375a36.132,36.132,0,0,0-50.386-8.12l-23.5,16.98-4.888-6.763L388.3,224.829a44.484,44.484,0,0,1,62.036,10c14.182,19.63,9.468,46.434-10.729,61.026Z" transform="translate(-364.794 -216.43)" fill="#00bfc8"/>
            </g>
            <g id="Grupo_1162622" data-name="Grupo 1162622" transform="translate(0 25.485)">
              <g id="Grupo_1162621" data-name="Grupo 1162621">
                <path id="Trazado_996557" data-name="Trazado 996557" d="M362.3,288.79a37.378,37.378,0,0,1,8.4-52.131l1.464,2.028a34.877,34.877,0,0,0-7.836,48.64Z" transform="translate(-355.239 -236.659)" fill="#00bfc8"/>
              </g>
            </g>
            <path id="Trazado_996558" data-name="Trazado 996558" d="M367.052,283.676a5.215,5.215,0,1,1,1.173-7.278A5.212,5.212,0,0,1,367.052,283.676Z" transform="translate(-354.318 -201.41)" fill="#00bfc8"/>
          </g>
          <g id="Grupo_1162624" data-name="Grupo 1162624" transform="translate(35.212 295.424)" opacity="0.3">
            <path id="Trazado_996559" data-name="Trazado 996559" d="M99.336,340.348a5.428,5.428,0,0,0-.6,7.632l34.825,40.736a5.434,5.434,0,0,0,7.635.6l62.952-53.821a5.431,5.431,0,0,0,.6-7.633l-34.83-40.739a5.425,5.425,0,0,0-7.63-.6Z" transform="translate(-82.738 -257.686)" fill="#bcbec0"/>
            <path id="Trazado_996560" data-name="Trazado 996560" d="M134.513,264.631l-.137-.2-.871,1.271-.005.008-3.583,5.231-.214.318h0l-17.877,26.11-1.8,2.629h0l-5.154,7.528h0l-4.675,6.83h0l-8.9,13.009-.93,1.356h0l-3.651,5.333a5.429,5.429,0,0,0,1.407,7.525l5.638,3.859a5.415,5.415,0,0,0,7.31-1.153l.019.029.193-.281s0,0,0,0l9.634-14.071h0l4.674-6.825h0l5.163-7.539h0l4.674-6.826v0l5.163-7.54h0l2.435-3.557L143.4,282.515l1.7-2.479h0l2.978-4.35a5.431,5.431,0,0,0-1.408-7.526l-5.638-3.86A5.421,5.421,0,0,0,134.513,264.631Z" transform="translate(-85.772 -263.367)" fill="#bcbec0"/>
          </g>
          <g id="Grupo_1162626" data-name="Grupo 1162626" transform="translate(26.494 294.187)">
            <path id="Trazado_996561" data-name="Trazado 996561" d="M197.83,326.885a5.429,5.429,0,0,1-.6,7.632l-62.951,53.821a5.433,5.433,0,0,1-7.635-.6L91.818,347a5.426,5.426,0,0,1,.6-7.631l62.955-53.823a5.428,5.428,0,0,1,7.632.6Z" transform="translate(-75.818 -256.702)" fill="#f14e38"/>
            <path id="Trazado_996562" data-name="Trazado 996562" d="M141.283,344.444c-.568,1.771-2.02,2.069-3.23.654l-17.41-20.368c-1.209-1.415-.7-2.807,1.145-3.087l24.788-3.806c1.838-.285,2.883.939,2.318,2.711Z" transform="translate(-68.162 -247.987)" fill="#fff"/>
            <g id="Grupo_1162625" data-name="Grupo 1162625">
              <path id="Trazado_996563" data-name="Trazado 996563" d="M126.58,264.737a5.429,5.429,0,0,1,7.525-1.41l5.637,3.859a5.432,5.432,0,0,1,1.41,7.528l-46.79,68.344a5.426,5.426,0,0,1-7.524,1.409L81.2,340.608a5.43,5.43,0,0,1-1.406-7.525Z" transform="translate(-78.851 -262.386)" fill="#f14e38"/>
              <path id="Trazado_996564" data-name="Trazado 996564" d="M82.5,327.527l10.723,15.594,4.666-6.817-10.723-15.6Zm9.833-14.366,10.72,15.6,4.674-6.826L97.006,306.331Zm9.828-14.357,10.725,15.6,4.675-6.827-10.719-15.6ZM112,284.43l10.723,15.6,4.67-6.823-10.724-15.594Zm9.836-14.367,10.719,15.6,4.675-6.825-10.719-15.6Z" transform="translate(-77.904 -262.165)" fill="#fff"/>
            </g>
          </g>
          <g id="Grupo_1162627" data-name="Grupo 1162627" transform="translate(143.123 404.901)" opacity="0.3">
            <path id="Trazado_996565" data-name="Trazado 996565" d="M182.682,368.631a9.287,9.287,0,1,0-11.044-7.112A9.289,9.289,0,0,0,182.682,368.631Z" transform="translate(-171.425 -350.265)" fill="#bcbec0"/>
            <path id="Trazado_996566" data-name="Trazado 996566" d="M216.939,377.131a11.271,11.271,0,0,0-19.863-4.595,13.2,13.2,0,0,0-24.417,9.24l2.026,9.351s3.868,2.324,13.608-.035a40.335,40.335,0,0,0,8.015-2.735l.333,1.534s3.3,1.987,11.621-.028c8.334-2.017,10.409-4.747,10.409-4.747Z" transform="translate(-171.183 -346.233)" fill="#bcbec0"/>
            <path id="Trazado_996567" data-name="Trazado 996567" d="M198.87,370.172a7.93,7.93,0,1,0-9.43-6.07A7.93,7.93,0,0,0,198.87,370.172Z" transform="translate(-166.791 -349.167)" fill="#bcbec0"/>
          </g>
          <g id="Grupo_1162628" data-name="Grupo 1162628" transform="translate(292.072 40.601)" opacity="0.3">
            <path id="Trazado_996568" data-name="Trazado 996568" d="M301.061,74.271A6.662,6.662,0,1,0,296,66.325,6.66,6.66,0,0,0,301.061,74.271Z" transform="translate(-288.046 -61.103)" fill="#bcbec0"/>
            <path id="Trazado_996569" data-name="Trazado 996569" d="M315.244,80.262a8.052,8.052,0,0,0-5.42.689,9.47,9.47,0,0,0-18.686-1.309l-1.485,6.7s1.823,2.676,8.876,4.063a28.859,28.859,0,0,0,6.045.622l-.241,1.1s1.556,2.285,7.582,3.468,8.208.03,8.208.03L321.39,89.9A8.086,8.086,0,0,0,315.244,80.262Z" transform="translate(-289.653 -58.214)" fill="#bcbec0"/>
            <path id="Trazado_996570" data-name="Trazado 996570" d="M313.51,69.092a5.69,5.69,0,1,0,4.321,6.786A5.692,5.692,0,0,0,313.51,69.092Z" transform="translate(-285.253 -59.063)" fill="#bcbec0"/>
          </g>
          <g id="Grupo_1162631" data-name="Grupo 1162631" transform="translate(144.383 399.87)">
            <g id="Grupo_1162629" data-name="Grupo 1162629">
              <path id="Trazado_996571" data-name="Trazado 996571" d="M190.789,353.592a9.286,9.286,0,1,1-11.041-7.108A9.289,9.289,0,0,1,190.789,353.592Zm8.907,22.626a13.2,13.2,0,0,0-25.8,5.595l2.027,9.351s3.869,2.326,13.608-.033c9.76-2.362,12.19-5.56,12.19-5.56Z" transform="translate(-172.425 -346.271)" fill="#006f9d"/>
            </g>
            <g id="Grupo_1162630" data-name="Grupo 1162630" transform="translate(22.467 5.322)">
              <path id="Trazado_996572" data-name="Trazado 996572" d="M205.941,356.746a7.931,7.931,0,1,1-9.43-6.071A7.934,7.934,0,0,1,205.941,356.746Zm7.6,19.325a11.27,11.27,0,1,0-22.028,4.775l1.731,7.984s3.3,1.987,11.62-.029c8.335-2.017,10.409-4.746,10.409-4.746Z" transform="translate(-190.258 -350.495)" fill="#77cdd1"/>
            </g>
          </g>
          <g id="Grupo_1162634" data-name="Grupo 1162634" transform="translate(290.815 36.829)">
            <g id="Grupo_1162632" data-name="Grupo 1162632">
              <path id="Trazado_996573" data-name="Trazado 996573" d="M309.616,66.215a6.663,6.663,0,1,1-5.065-7.947A6.66,6.66,0,0,1,309.616,66.215Zm-.985,17.417a9.47,9.47,0,0,0-18.492-4.1l-1.484,6.7s1.823,2.676,8.876,4.062c7.07,1.391,9.614.035,9.614.035Z" transform="translate(-288.655 -58.109)" fill="#006f9d"/>
            </g>
            <g id="Grupo_1162633" data-name="Grupo 1162633" transform="translate(14.677 9.893)">
              <path id="Trazado_996574" data-name="Trazado 996574" d="M318.2,72.881a5.689,5.689,0,1,1-4.323-6.784A5.688,5.688,0,0,1,318.2,72.881Zm-.842,14.876a8.086,8.086,0,0,0-15.79-3.5l-1.269,5.723s1.56,2.285,7.582,3.468,8.208.03,8.208.03Z" transform="translate(-300.305 -65.961)" fill="#77cdd1"/>
            </g>
          </g>
          <g id="Grupo_1162635" data-name="Grupo 1162635" transform="translate(21.319 73.757)" opacity="0.3">
            <path id="Trazado_996575" data-name="Trazado 996575" d="M409.226,206.265a4.429,4.429,0,1,1-.6-6.234A4.433,4.433,0,0,1,409.226,206.265Zm17.926,14.8A27.71,27.71,0,0,0,423.43,182.1a2.215,2.215,0,1,0-2.82,3.417,23.274,23.274,0,0,1,3.129,32.73,2.213,2.213,0,1,0,3.413,2.818Zm-6.4-5.285a19.4,19.4,0,0,0-2.607-27.275,2.214,2.214,0,1,0-2.82,3.414,14.962,14.962,0,0,1,2.011,21.039,2.215,2.215,0,1,0,3.415,2.821ZM415.2,211.2a12.188,12.188,0,0,0-1.638-17.143,2.214,2.214,0,1,0-2.82,3.414,7.763,7.763,0,0,1,1.043,10.913A2.213,2.213,0,1,0,415.2,211.2Z" transform="translate(10.133 -62.949)" fill="#bcbec0"/>
            <path id="Trazado_996576" data-name="Trazado 996576" d="M341.709,364.35a2.877,2.877,0,0,0-5.087-.1l-15.744,28.463a10.461,10.461,0,1,0-13.757,14.971c5.056,2.8,10.495,2.806,14.647-4.7l17.128-30.955c3.255,7.874,5.061,15.936,3,17.957A3.373,3.373,0,0,1,339.6,391.2a3.675,3.675,0,0,1-2.061-1.616,2.875,2.875,0,0,0-4.951,2.925c.234.4,2.4,3.883,6.249,4.391,1.695.222,4.3-.081,7.078-2.8C352.787,387.359,343.618,368.134,341.709,364.35Z" transform="translate(-15.764 -15.871)" fill="#bcbec0"/>
            <path id="Trazado_996577" data-name="Trazado 996577" d="M363.391,89.125a2.473,2.473,0,0,0-4.312-.738l-17.061,22.187a9,9,0,1,0-13.63,10.968c3.94,3.029,8.568,3.733,13.067-2.118l18.556-24.132c1.756,7.118,2.254,14.209.237,15.664a2.9,2.9,0,0,1-2.108.737,3.177,3.177,0,0,1-1.547-1.639,2.474,2.474,0,1,0-4.587,1.853,8.074,8.074,0,0,0,4.75,4.539c1.414.408,3.67.481,6.386-1.475C369.853,110.125,364.529,92.59,363.391,89.125Z" transform="translate(-9.749 -87.42)" fill="#bcbec0"/>
            <path id="Trazado_996578" data-name="Trazado 996578" d="M304.629,102.353a1.762,1.762,0,0,0-3.031.726l-4.959,19.331a6.419,6.419,0,1,0-5.86,11.014c3.433.881,6.662.047,7.971-5.053l5.4-21.027c3.145,4.175,5.458,8.683,4.546,10.2-.273.456-.7,1.012-1.177,1.076a2.243,2.243,0,0,1-1.47-.641,1.764,1.764,0,0,0-2.487,2.5,5.737,5.737,0,0,0,4.387,1.642,5.148,5.148,0,0,0,3.771-2.758C314.759,114.306,306.348,104.306,304.629,102.353Z" transform="translate(-19.862 -83.696)" fill="#bcbec0"/>
            <path id="Trazado_996579" data-name="Trazado 996579" d="M97.513,284.093v-4.64H95.441a9.172,9.172,0,0,0-1.054-2.477l1.47-1.435L92.5,272.261,91.034,273.7A9.537,9.537,0,0,0,88.5,272.67v-2.03H83.758v2.03a9.579,9.579,0,0,0-2.535,1.028l-1.466-1.436L76.4,275.541l1.47,1.435a9.067,9.067,0,0,0-1.051,2.477H74.744v4.64h2.077a9.054,9.054,0,0,0,1.051,2.476L76.4,288l3.355,3.279,1.466-1.436a9.617,9.617,0,0,0,2.535,1.027V292.9H88.5v-2.028a9.662,9.662,0,0,0,2.535-1.027l1.468,1.436L95.857,288l-1.47-1.435a9.188,9.188,0,0,0,1.054-2.477Zm-11.383,3.363a5.683,5.683,0,1,1,5.813-5.682A5.75,5.75,0,0,1,86.131,287.455Z" transform="translate(-74.744 -39.81)" fill="#bcbec0"/>
            <path id="Trazado_996580" data-name="Trazado 996580" d="M330.42,313.991v-3.14h-1.368a6.362,6.362,0,0,0-.7-1.673l.973-.971-2.221-2.217-.971.971a6.082,6.082,0,0,0-1.676-.7V304.89h-3.134v1.376a6.075,6.075,0,0,0-1.674.7l-.971-.971-2.219,2.217.971.971a6.148,6.148,0,0,0-.694,1.673h-1.374v3.14h1.374a6.14,6.14,0,0,0,.694,1.674l-.971.97,2.219,2.219.971-.971a6.236,6.236,0,0,0,1.674.7v1.371h3.134v-1.371a6.243,6.243,0,0,0,1.676-.7l.971.971,2.221-2.219-.973-.97a6.351,6.351,0,0,0,.7-1.674Zm-7.525,2.274a3.843,3.843,0,1,1,3.844-3.844A3.845,3.845,0,0,1,322.895,316.265Z" transform="translate(-12.219 -30.911)" fill="#bcbec0"/>
            <path id="Trazado_996581" data-name="Trazado 996581" d="M164.758,178.79v-4.745h-2.072a9.556,9.556,0,0,0-1.053-2.534l1.469-1.468-3.355-3.355-1.468,1.469a9.474,9.474,0,0,0-2.535-1.052V165.03H151v2.076a9.5,9.5,0,0,0-2.535,1.052L147,166.689l-3.356,3.355,1.47,1.468a9.412,9.412,0,0,0-1.052,2.534h-2.076v4.745h2.076a9.291,9.291,0,0,0,1.052,2.532l-1.47,1.47L147,186.146l1.466-1.469A9.5,9.5,0,0,0,151,185.729V187.8h4.742v-2.074a9.452,9.452,0,0,0,2.535-1.052l1.468,1.469,3.355-3.354-1.469-1.468a9.5,9.5,0,0,0,1.053-2.534h2.072Zm-11.384,3.439a5.812,5.812,0,1,1,5.812-5.812A5.814,5.814,0,0,1,153.374,182.229Z" transform="translate(-57.271 -67.253)" fill="#bcbec0"/>
          </g>
          <g id="Grupo_1162636" data-name="Grupo 1162636" transform="translate(16.484 69.981)">
            <path id="Trazado_996582" data-name="Trazado 996582" d="M407.227,203.271a4.429,4.429,0,1,1-.6-6.235A4.429,4.429,0,0,1,407.227,203.271Zm17.929,14.8a27.709,27.709,0,0,0-3.723-38.965,2.216,2.216,0,1,0-2.822,3.417,23.274,23.274,0,0,1,3.129,32.73,2.214,2.214,0,1,0,3.415,2.818Zm-6.4-5.285a19.4,19.4,0,0,0-2.609-27.274,2.214,2.214,0,1,0-2.818,3.414,14.962,14.962,0,0,1,2.009,21.04,2.216,2.216,0,0,0,3.418,2.821ZM413.2,208.2a12.19,12.19,0,0,0-1.637-17.144,2.214,2.214,0,1,0-2.818,3.414,7.764,7.764,0,0,1,1.042,10.913A2.213,2.213,0,1,0,413.2,208.2Z" transform="translate(14.449 -59.952)" fill="#fff"/>
            <path id="Trazado_996583" data-name="Trazado 996583" d="M339.712,361.354a2.878,2.878,0,0,0-5.086-.1L318.879,389.72a10.461,10.461,0,1,0-13.756,14.971c5.057,2.8,10.495,2.806,14.648-4.7L336.9,369.03c3.255,7.873,5.061,15.936,3,17.958A3.4,3.4,0,0,1,337.6,388.2a3.692,3.692,0,0,1-2.061-1.616,2.875,2.875,0,0,0-4.951,2.924c.233.4,2.394,3.883,6.246,4.391,1.695.223,4.3-.083,7.079-2.8C350.791,384.365,341.619,365.14,339.712,361.354Z" transform="translate(-11.448 -12.874)" fill="#ffb81b"/>
            <path id="Trazado_996584" data-name="Trazado 996584" d="M361.394,86.129a2.473,2.473,0,0,0-4.314-.738l-17.06,22.187a9,9,0,1,0-13.632,10.967c3.94,3.029,8.568,3.734,13.067-2.118l18.558-24.132c1.755,7.118,2.251,14.209.234,15.664a2.89,2.89,0,0,1-2.109.737,3.172,3.172,0,0,1-1.545-1.639,2.474,2.474,0,1,0-4.588,1.852,8.058,8.058,0,0,0,4.751,4.539c1.412.407,3.669.483,6.385-1.475C367.857,107.13,362.532,89.6,361.394,86.129Z" transform="translate(-5.433 -84.424)" fill="#006f9d"/>
            <path id="Trazado_996585" data-name="Trazado 996585" d="M302.633,99.358a1.764,1.764,0,0,0-3.034.726l-4.958,19.331a6.419,6.419,0,1,0-5.858,11.014c3.433.881,6.663.045,7.971-5.055l5.4-21.027c3.145,4.174,5.46,8.683,4.547,10.2-.273.455-.7,1.012-1.177,1.076a2.26,2.26,0,0,1-1.471-.643,1.764,1.764,0,1,0-2.487,2.5,5.743,5.743,0,0,0,4.388,1.642,5.15,5.15,0,0,0,3.771-2.759C312.761,111.311,304.352,101.309,302.633,99.358Z" transform="translate(-15.545 -80.699)" fill="#6bcdc4"/>
            <path id="Trazado_996586" data-name="Trazado 996586" d="M93.677,282.672v-4.748H91.605a9.586,9.586,0,0,0-1.054-2.535l1.47-1.465-3.356-3.355L87.2,272.04a9.388,9.388,0,0,0-2.535-1.053v-2.075H79.92v2.075a9.422,9.422,0,0,0-2.535,1.053l-1.466-1.471-3.356,3.355,1.47,1.465a9.352,9.352,0,0,0-1.049,2.535H70.906v4.748h2.077a9.359,9.359,0,0,0,1.049,2.53l-1.47,1.468,3.356,3.355,1.466-1.469a9.511,9.511,0,0,0,2.535,1.052v2.074h4.742v-2.074a9.495,9.495,0,0,0,2.535-1.052l1.468,1.469,3.356-3.355-1.47-1.466a9.56,9.56,0,0,0,1.054-2.531ZM82.293,286.11a5.81,5.81,0,1,1,5.813-5.81A5.813,5.813,0,0,1,82.293,286.11Z" transform="translate(-70.906 -36.484)" fill="#77cdd1"/>
            <path id="Trazado_996587" data-name="Trazado 996587" d="M328.424,310.995v-3.139h-1.369a6.318,6.318,0,0,0-.7-1.673l.974-.971-2.222-2.217-.968.971a6.18,6.18,0,0,0-1.676-.7v-1.373H319.33v1.373a6.178,6.178,0,0,0-1.678.7l-.97-.971-2.219,2.217.971.971a6.18,6.18,0,0,0-.694,1.673h-1.374v3.139h1.374a6.123,6.123,0,0,0,.694,1.674l-.971.968,2.219,2.221.97-.971a6.34,6.34,0,0,0,1.678.7v1.371h3.134v-1.371a6.321,6.321,0,0,0,1.676-.7l.968.971,2.222-2.221-.974-.968a6.273,6.273,0,0,0,.7-1.674Zm-7.526,2.274a3.842,3.842,0,1,1,3.843-3.842A3.844,3.844,0,0,1,320.9,313.269Z" transform="translate(-7.903 -27.914)" fill="#f6b750"/>
            <path id="Trazado_996588" data-name="Trazado 996588" d="M162.759,175.794v-4.745h-2.071a9.551,9.551,0,0,0-1.055-2.532l1.469-1.468-3.355-3.355-1.468,1.468a9.462,9.462,0,0,0-2.535-1.049v-2.077H149v2.077a9.58,9.58,0,0,0-2.535,1.049L145,163.694l-3.355,3.355,1.47,1.468a9.354,9.354,0,0,0-1.051,2.532H139.99v4.745h2.076a9.328,9.328,0,0,0,1.051,2.532l-1.47,1.469L145,183.149l1.466-1.468A9.585,9.585,0,0,0,149,182.733v2.074h4.742v-2.074a9.533,9.533,0,0,0,2.535-1.052l1.468,1.468L161.1,179.8l-1.469-1.468a9.525,9.525,0,0,0,1.055-2.534Zm-11.384,3.439a5.811,5.811,0,1,1,5.813-5.813A5.812,5.812,0,0,1,151.375,179.233Z" transform="translate(-52.955 -64.256)" fill="#f6b750"/>
          </g>
        </g>
      </g>
    </g>
  </g>
</svg>
