<svg xmlns="http://www.w3.org/2000/svg" xmlns:xlink="http://www.w3.org/1999/xlink" width="108" height="108" viewBox="0 0 108 108">
  <defs>
    <filter id="Trazado_982547" x="0" y="0" width="108" height="108" filterUnits="userSpaceOnUse">
      <feOffset dy="3" input="SourceAlpha"/>
      <feGaussianBlur stdDeviation="3" result="blur"/>
      <feFlood flood-opacity="0.161"/>
      <feComposite operator="in" in2="blur"/>
      <feComposite in="SourceGraphic"/>
    </filter>
  </defs>
  <g id="Grupo_1159847" data-name="Grupo 1159847" transform="translate(-173 -1221)">
    <g id="Grupo_1153207" data-name="Grupo 1153207" transform="translate(12 -231)">
      <g id="Grupo_1153117" data-name="Grupo 1153117" transform="translate(-93 939)">
        <g id="Grupo_1149598" data-name="Grupo 1149598" transform="translate(80 315)">
          <g id="Grupo_1148770" data-name="Grupo 1148770" transform="translate(-27 -2583)">
            <g id="Grupo_1146954" data-name="Grupo 1146954" transform="translate(-415 -1202)">
              <g transform="matrix(1, 0, 0, 1, 616, 3983)" filter="url(#Trazado_982547)">
                <g id="Trazado_982547-2" data-name="Trazado 982547" transform="translate(9 6)" fill="#eff5f8">
                  <path d="M 45 88.5 C 39.12687683105469 88.5 33.43022537231445 87.35007476806641 28.06830024719238 85.08217620849609 C 22.88852500915527 82.89131164550781 18.23629951477051 79.75458526611328 14.2408504486084 75.75914764404297 C 10.24541282653809 71.76370239257812 7.108687400817871 67.11147308349609 4.917825222015381 61.93170166015625 C 2.649924993515015 56.56977462768555 1.5 50.87312316894531 1.5 45 C 1.5 39.12687683105469 2.649924993515015 33.43022537231445 4.917825222015381 28.06830024719238 C 7.108687400817871 22.88852500915527 10.24541282653809 18.23629951477051 14.2408504486084 14.2408504486084 C 18.23629951477051 10.24541282653809 22.88852500915527 7.108687400817871 28.06830024719238 4.917825222015381 C 33.43022537231445 2.649924993515015 39.12687683105469 1.5 45 1.5 C 50.87312316894531 1.5 56.56977462768555 2.649924993515015 61.93170166015625 4.917825222015381 C 67.11147308349609 7.108687400817871 71.76370239257812 10.24541282653809 75.75914764404297 14.2408504486084 C 79.75458526611328 18.23629951477051 82.89131164550781 22.88852500915527 85.08217620849609 28.06830024719238 C 87.35007476806641 33.43022537231445 88.5 39.12687683105469 88.5 45 C 88.5 50.87312316894531 87.35007476806641 56.56977462768555 85.08217620849609 61.93170166015625 C 82.89131164550781 67.11147308349609 79.75458526611328 71.76370239257812 75.75914764404297 75.75914764404297 C 71.76370239257812 79.75458526611328 67.11147308349609 82.89131164550781 61.93170166015625 85.08217620849609 C 56.56977462768555 87.35007476806641 50.87312316894531 88.5 45 88.5 Z" stroke="none"/>
                  <path d="M 45 3 C 39.32871246337891 3 33.82865524291992 4.110054016113281 28.65262985229492 6.299339294433594 C 23.65165710449219 8.414573669433594 19.15968322753906 11.44334411621094 15.301513671875 15.301513671875 C 11.44334411621094 19.15968322753906 8.414573669433594 23.65165710449219 6.299339294433594 28.65262985229492 C 4.110054016113281 33.82865524291992 3 39.32871246337891 3 45 C 3 50.67128753662109 4.110054016113281 56.17134475708008 6.299339294433594 61.34737396240234 C 8.414573669433594 66.34834289550781 11.44334411621094 70.84031677246094 15.301513671875 74.698486328125 C 19.15968322753906 78.55665588378906 23.65165710449219 81.58542633056641 28.65262985229492 83.70066070556641 C 33.82865524291992 85.88994598388672 39.32871246337891 87 45 87 C 50.67128753662109 87 56.17134475708008 85.88994598388672 61.34737396240234 83.70066070556641 C 66.34834289550781 81.58542633056641 70.84031677246094 78.55665588378906 74.698486328125 74.698486328125 C 78.55665588378906 70.84031677246094 81.58542633056641 66.34834289550781 83.70066070556641 61.34737396240234 C 85.88994598388672 56.17134475708008 87 50.67128753662109 87 45 C 87 39.32871246337891 85.88994598388672 33.82865524291992 83.70066070556641 28.65262985229492 C 81.58542633056641 23.65165710449219 78.55665588378906 19.15968322753906 74.698486328125 15.301513671875 C 70.84031677246094 11.44334411621094 66.34834289550781 8.414573669433594 61.34737396240234 6.299339294433594 C 56.17134475708008 4.110054016113281 50.67128753662109 3 45 3 M 45 0 C 69.85281372070312 0 90 20.14718627929688 90 45 C 90 69.85281372070312 69.85281372070312 90 45 90 C 20.14718627929688 90 0 69.85281372070312 0 45 C 0 20.14718627929688 20.14718627929688 0 45 0 Z" stroke="none" fill="#3b596a"/>
                </g>
              </g>
            </g>
          </g>
        </g>
      </g>
    </g>
    <g id="teacher_6928041_1_" data-name="teacher_6928041 (1)" transform="translate(201.022 1239.787)">
      <g id="Grupo_1161168" data-name="Grupo 1161168" transform="translate(1.039 1.039)">
        <g id="Grupo_1161154" data-name="Grupo 1161154" transform="translate(12.469)">
          <path id="Trazado_995107" data-name="Trazado 995107" d="M112.313,24.626h-2.078a4.157,4.157,0,0,0-4.156,4.156V21.509L104,22.548V22a7.521,7.521,0,0,1,4.156-6.726L106.078,13.2l.674-.843A11.6,11.6,0,0,1,121,9.225l1.707.853s1.433-.716,2.615-1.308A7.318,7.318,0,0,1,128.595,8h.051a7.107,7.107,0,0,1,4.27,1.424l1.333,1A12.716,12.716,0,0,1,139.33,20.6v.117a12.144,12.144,0,0,1-1.161,5.181,4.145,4.145,0,0,0-3-1.274H133.1a9.506,9.506,0,0,0-6.635-5.068l-.639-.127-1.039,3.117-.522-.13a9.7,9.7,0,0,1-5.713-4.027,13.949,13.949,0,0,1-6.235,6.235Z" transform="translate(-104 -8)" fill="#656d78"/>
        </g>
        <g id="Grupo_1161155" data-name="Grupo 1161155" transform="translate(2.541 33.252)">
          <path id="Trazado_995108" data-name="Trazado 995108" d="M58.271,284.782H56.193v-7.274a1.039,1.039,0,0,0-1.039-1.039H49.165a3.759,3.759,0,0,0-3.363,2.078,3.759,3.759,0,0,0-3.363-2.078H36.45a1.039,1.039,0,0,0-1.039,1.039v3.117L31.7,279.388a4.154,4.154,0,0,1-2.816-3.484L27.56,264h7.435l2.494,6.235,11.056-3.159,3.491,5.237,4.156-4.156,4.156,4.156,3.491-5.237.051-.239,3.614.774a9.355,9.355,0,0,1,7.392,9.146v10.1a6.235,6.235,0,0,1-6.235,6.235H58.271Z" transform="translate(-27.56 -264)" fill="#b4dd7f"/>
        </g>
        <g id="Grupo_1161156" data-name="Grupo 1161156" transform="translate(29.095 54.034)">
          <path id="Trazado_995109" data-name="Trazado 995109" d="M236.156,424v8.313H232V424h4.156Z" transform="translate(-232 -424)" fill="#a0d468"/>
        </g>
        <g id="Grupo_1161157" data-name="Grupo 1161157" transform="translate(2.078 29.095)">
          <path id="Trazado_995110" data-name="Trazado 995110" d="M30.235,232l1.663,4.156H24.462L24,232Z" transform="translate(-24 -232)" fill="#a0d468"/>
        </g>
        <g id="Grupo_1161158" data-name="Grupo 1161158" transform="translate(31.174 35.33)">
          <path id="Trazado_995111" data-name="Trazado 995111" d="M255.7,280.759l-.051.239-3.491,5.237L248,282.078,252.156,280Z" transform="translate(-248 -280)" fill="#a0d468"/>
        </g>
        <g id="Grupo_1161159" data-name="Grupo 1161159" transform="translate(23.526 35.33)">
          <path id="Trazado_995112" data-name="Trazado 995112" d="M196.768,282.078l-4.156,4.156L189.12,281l3.491-1Z" transform="translate(-189.12 -280)" fill="#a0d468"/>
        </g>
        <g id="Grupo_1161160" data-name="Grupo 1161160" transform="translate(20.782 45.721)">
          <path id="Trazado_995113" data-name="Trazado 995113" d="M178.391,361.039v7.274h-2.078l-1.648-1.648a1.47,1.47,0,0,0-2.508,1.039v.609h-2.078A2.078,2.078,0,0,0,168,370.391v-8.313A3.759,3.759,0,0,1,171.363,360h5.989A1.039,1.039,0,0,1,178.391,361.039Z" transform="translate(-168 -360)" fill="#e6e9ed"/>
        </g>
        <g id="Grupo_1161161" data-name="Grupo 1161161" transform="translate(10.391 45.721)">
          <path id="Trazado_995114" data-name="Trazado 995114" d="M100.469,376.626H89.039A1.039,1.039,0,0,1,88,375.587V361.039A1.039,1.039,0,0,1,89.039,360h5.989a3.759,3.759,0,0,1,3.363,2.078v12.469A2.078,2.078,0,0,0,100.469,376.626Z" transform="translate(-88 -360)" fill="#e6e9ed"/>
        </g>
        <g id="Grupo_1161162" data-name="Grupo 1161162" transform="translate(20.782 51.956)">
          <path id="Trazado_995115" data-name="Trazado 995115" d="M176.313,410.078v8.313h-6.235A2.078,2.078,0,0,1,168,416.313v-4.156a2.078,2.078,0,0,1,2.078-2.078h2.078v-.609a1.47,1.47,0,0,1,2.508-1.039Z" transform="translate(-168 -408)" fill="#f0d0b4"/>
        </g>
        <g id="Grupo_1161163" data-name="Grupo 1161163" transform="translate(41.558 16.626)">
          <path id="Trazado_995116" data-name="Trazado 995116" d="M333.03,137.274a4.156,4.156,0,0,1-3,7.039H327.95c0-.112.006-.225.006-.338V136h2.078A4.145,4.145,0,0,1,333.03,137.274Z" transform="translate(-327.95 -136)" fill="#f0d0b4"/>
        </g>
        <g id="Grupo_1161164" data-name="Grupo 1161164" transform="translate(20.782 10.391)">
          <path id="Trazado_995117" data-name="Trazado 995117" d="M188.782,100.469v1.741c0,.113,0,.226-.007.338a9.117,9.117,0,0,1-6.228,8.313v2.078l-4.156,2.078-4.156-2.078v-2.078a9.117,9.117,0,0,1-6.228-8.313c0-.112-.007-.225-.007-.338V94.235A13.949,13.949,0,0,0,174.235,88a9.7,9.7,0,0,0,5.713,4.027l.522.13,1.039-3.117.639.127a9.506,9.506,0,0,1,6.635,5.068Z" transform="translate(-168 -88)" fill="#f0d0b4"/>
        </g>
        <g id="Grupo_1161165" data-name="Grupo 1161165" transform="translate(14.548 16.626)">
          <path id="Trazado_995118" data-name="Trazado 995118" d="M126.235,142.235v1.741c0,.113,0,.226.006.338h-2.085a4.156,4.156,0,1,1,0-8.313h2.078Z" transform="translate(-120 -136)" fill="#f0d0b4"/>
        </g>
        <g id="Grupo_1161166" data-name="Grupo 1161166" transform="translate(0 14.548)">
          <path id="Trazado_995119" data-name="Trazado 995119" d="M12.156,128.313V121.4a1.4,1.4,0,0,1,2.5-.877l2.808,3.508a4.239,4.239,0,0,1,.765,3.808l-1.916,6.7H10.078A7.1,7.1,0,0,1,8,129.53v-1.217a2.078,2.078,0,1,1,4.156,0Z" transform="translate(-8 -120)" fill="#f0d0b4"/>
        </g>
        <g id="Grupo_1161167" data-name="Grupo 1161167" transform="translate(0 10.391)">
          <path id="Trazado_995120" data-name="Trazado 995120" d="M12.156,93.561v6.909a2.078,2.078,0,1,0-4.156,0V89.039A1.039,1.039,0,0,1,9.039,88h2.078a1.039,1.039,0,0,1,1.039,1.039Z" transform="translate(-8 -88)" fill="#69d6f4"/>
        </g>
      </g>
      <g id="Grupo_1161169" data-name="Grupo 1161169" transform="translate(0 0)">
        <ellipse id="Elipse_11747" data-name="Elipse 11747" cx="1" cy="1.5" rx="1" ry="1.5" transform="translate(26.978 18.213)"/>
        <ellipse id="Elipse_11748" data-name="Elipse 11748" cx="1" cy="1.5" rx="1" ry="1.5" transform="translate(34.978 18.213)"/>
        <path id="Trazado_995121" data-name="Trazado 995121" d="M220.891,216a4.378,4.378,0,0,0,3.937-2.433l.11-.219-1.859-.93-.11.219a2.324,2.324,0,0,1-4.156,0l-.11-.219-1.859.93.11.219A4.377,4.377,0,0,0,220.891,216Z" transform="translate(-188.678 -184.83)"/>
        <path id="Trazado_995122" data-name="Trazado 995122" d="M223.5,152.009l1.47-1.469-1.39-1.39a8.073,8.073,0,0,0,1.694-4.971V144H223.2v.178a6.017,6.017,0,0,1-1.774,4.282l-.735.735Z" transform="translate(-192.022 -125.296)"/>
        <path id="Trazado_995123" data-name="Trazado 995123" d="M49.646,40.514a10.424,10.424,0,0,0-5.9-3.628l-6.334-1.357V35.01a10.141,10.141,0,0,0,6.14-7.993h1.134a5.192,5.192,0,0,0,4.2-8.244,13.284,13.284,0,0,0,.992-5.015v-.117a13.826,13.826,0,0,0-5.5-11.011l-1.333-1A8.206,8.206,0,0,0,38.154,0H38.1a8.4,8.4,0,0,0-3.74.88l-2.15,1.075L30.97,1.334A12.638,12.638,0,0,0,15.449,4.743L14.194,6.312l1.8,1.8a8.5,8.5,0,0,0-3.526,6.925v2.23l2.078-1.039v5.593a5.2,5.2,0,0,0,5.2,5.2h1.134a10.141,10.141,0,0,0,6.14,7.993v.575L14.125,39.269l-3.676-9.191,1.818-6.362a5.274,5.274,0,0,0-.953-4.743L8.507,15.464a2.409,2.409,0,0,0-2.272-.887V12.469a2.081,2.081,0,0,0-2.078-2.078H2.078A2.081,2.081,0,0,0,0,12.469V25.117A8.075,8.075,0,0,0,2.123,30.6L3.869,46.31A5.211,5.211,0,0,0,7.39,50.665l3,1V62.347a2.081,2.081,0,0,0,2.078,2.078H44.682a7.282,7.282,0,0,0,7.274-7.274v-10.1a10.423,10.423,0,0,0-2.31-6.533Zm-11.352-2.67-2.086,3.129-2.241-2.241,2.541-1.27Zm6.389-12.905H43.643V24.33l2.813-2.813-1.47-1.469-1.343,1.343V18.7h1.039a3.117,3.117,0,1,1,0,6.235ZM18.13,9.242,19.419,8.6l-2.44-2.44.093-.116A10.56,10.56,0,0,1,30.041,3.193l2.172,1.086,3.08-1.54A6.229,6.229,0,0,1,38.1,2.078h.051A6.115,6.115,0,0,1,41.8,3.293l1.333,1A11.739,11.739,0,0,1,47.8,13.641v.117a11.181,11.181,0,0,1-.579,3.533,5.163,5.163,0,0,0-2.539-.665H43.643v-3.3A8.082,8.082,0,0,0,41.26,7.578l-1.469,1.47a6.017,6.017,0,0,1,1.774,4.283v1.128a10.483,10.483,0,0,0-5.392-2.881l-1.538-.308-1.022,3.065a8.633,8.633,0,0,1-4.692-3.482l-.993-1.49-.8,1.6a12.991,12.991,0,0,1-4.266,4.881V13.33a6.017,6.017,0,0,1,1.774-4.282l-1.469-1.47a8.081,8.081,0,0,0-2.383,5.752v3.3H19.743a5.168,5.168,0,0,0-3.117,1.042v-4.8l-1.971.985A6.44,6.44,0,0,1,18.13,9.242Zm-1.5,12.579A3.121,3.121,0,0,1,19.743,18.7h1.039v2.687l-1.343-1.343-1.47,1.469,2.813,2.813v.609H19.743a3.121,3.121,0,0,1-3.117-3.117Zm6.235,3.819V18.289a15.11,15.11,0,0,0,5.332-5,10.706,10.706,0,0,0,5.325,3.177l1.455.364,1.052-3.156a8.4,8.4,0,0,1,5.54,4.252v7.716a8.069,8.069,0,0,1-5.524,7.664l-.71.237v2.185l-3.117,1.559L29.1,35.727V33.542l-.71-.237A8.069,8.069,0,0,1,22.861,25.641Zm5.092,11.839,2.505,1.253-2.241,2.241-2-3ZM4.278,31.174h4.37l.831,2.078H4.509Zm-.122-18.7v8.492a3.11,3.11,0,0,0-2.078,0V12.469ZM2.078,25.117V23.9a1.039,1.039,0,1,1,2.078,0v1.039H6.235V16.99a.364.364,0,0,1,.649-.228l2.807,3.509a3.195,3.195,0,0,1,.577,2.874l-1.7,5.95h-5A6.01,6.01,0,0,1,2.078,25.117Zm31.174,31v6.235H31.174V56.113Zm-2.078-2.078h-.609l-1.343-1.343a2.509,2.509,0,0,0-4.246,1.343H23.9a3.1,3.1,0,0,0-1.039.179V49.107A2.7,2.7,0,0,1,25.184,47.8h5.989ZM20.782,61.308a3.1,3.1,0,0,0,.179,1.039H12.469V47.8h5.989a2.7,2.7,0,0,1,2.324,1.307Zm2.078,0V57.152A1.04,1.04,0,0,1,23.9,56.113h3.117V54.465a.43.43,0,0,1,.735-.3L29.1,55.5v6.843H23.9A1.04,1.04,0,0,1,22.861,61.308Zm27.017-4.156a5.2,5.2,0,0,1-5.2,5.2H35.33V56.113h6.844l1.774,1.774,1.47-1.469-1.774-1.774V45.721H41.565v8.313H33.252V47.8a2.081,2.081,0,0,0-2.078-2.078H25.184A4.771,4.771,0,0,0,21.822,47.1a4.771,4.771,0,0,0-3.363-1.374H12.469A2.081,2.081,0,0,0,10.391,47.8v1.676l-2.344-.781a3.126,3.126,0,0,1-2.112-2.613L4.74,35.33h5.571l1.978,4.945L10.7,41.869l1.47,1.469,1.888-1.888,10.068-2.877,3.774,5.661,4.318-4.318,4.318,4.318,3.948-5.922,2.828.606a8.356,8.356,0,0,1,6.571,8.129Z" transform="translate(0 0)"/>
      </g>
    </g>
  </g>
</svg>
