<svg xmlns="http://www.w3.org/2000/svg" xmlns:xlink="http://www.w3.org/1999/xlink" width="108" height="108" viewBox="0 0 108 108">
  <defs>
    <filter id="Trazado_904820" x="0" y="0" width="108" height="108" filterUnits="userSpaceOnUse">
      <feOffset dy="3" input="SourceAlpha"/>
      <feGaussianBlur stdDeviation="3" result="blur"/>
      <feFlood flood-opacity="0.161"/>
      <feComposite operator="in" in2="blur"/>
      <feComposite in="SourceGraphic"/>
    </filter>
  </defs>
  <g id="Grupo_1161207" data-name="Grupo 1161207" transform="translate(-201 -741)">
    <g id="Icono" transform="translate(210 747)">
      <g transform="matrix(1, 0, 0, 1, -9, -6)" filter="url(#Trazado_904820)">
        <g id="Trazado_904820-2" data-name="Trazado 904820" transform="translate(9 6)" fill="#fff9ee">
          <path d="M 45 88.5 C 39.12687683105469 88.5 33.43022537231445 87.35007476806641 28.06830024719238 85.08217620849609 C 22.88852500915527 82.89131164550781 18.23629951477051 79.75458526611328 14.2408504486084 75.75914764404297 C 10.24541282653809 71.76370239257812 7.108687400817871 67.11147308349609 4.917825222015381 61.93170166015625 C 2.649924993515015 56.56977462768555 1.5 50.87312316894531 1.5 45 C 1.5 39.12687683105469 2.649924993515015 33.43022537231445 4.917825222015381 28.06830024719238 C 7.108687400817871 22.88852500915527 10.24541282653809 18.23629951477051 14.2408504486084 14.2408504486084 C 18.23629951477051 10.24541282653809 22.88852500915527 7.108687400817871 28.06830024719238 4.917825222015381 C 33.43022537231445 2.649924993515015 39.12687683105469 1.5 45 1.5 C 50.87312316894531 1.5 56.56977462768555 2.649924993515015 61.93170166015625 4.917825222015381 C 67.11147308349609 7.108687400817871 71.76370239257812 10.24541282653809 75.75914764404297 14.2408504486084 C 79.75458526611328 18.23629951477051 82.89131164550781 22.88852500915527 85.08217620849609 28.06830024719238 C 87.35007476806641 33.43022537231445 88.5 39.12687683105469 88.5 45 C 88.5 50.87312316894531 87.35007476806641 56.56977462768555 85.08217620849609 61.93170166015625 C 82.89131164550781 67.11147308349609 79.75458526611328 71.76370239257812 75.75914764404297 75.75914764404297 C 71.76370239257812 79.75458526611328 67.11147308349609 82.89131164550781 61.93170166015625 85.08217620849609 C 56.56977462768555 87.35007476806641 50.87312316894531 88.5 45 88.5 Z" stroke="none"/>
          <path d="M 45 3 C 39.32871246337891 3 33.82865524291992 4.110054016113281 28.65262985229492 6.299339294433594 C 23.65165710449219 8.414573669433594 19.15968322753906 11.44334411621094 15.301513671875 15.301513671875 C 11.44334411621094 19.15968322753906 8.414573669433594 23.65165710449219 6.299339294433594 28.65262985229492 C 4.110054016113281 33.82865524291992 3 39.32871246337891 3 45 C 3 50.67128753662109 4.110054016113281 56.17134475708008 6.299339294433594 61.34737396240234 C 8.414573669433594 66.34834289550781 11.44334411621094 70.84031677246094 15.301513671875 74.698486328125 C 19.15968322753906 78.55665588378906 23.65165710449219 81.58542633056641 28.65262985229492 83.70066070556641 C 33.82865524291992 85.88994598388672 39.32871246337891 87 45 87 C 50.67128753662109 87 56.17134475708008 85.88994598388672 61.34737396240234 83.70066070556641 C 66.34834289550781 81.58542633056641 70.84031677246094 78.55665588378906 74.698486328125 74.698486328125 C 78.55665588378906 70.84031677246094 81.58542633056641 66.34834289550781 83.70066070556641 61.34737396240234 C 85.88994598388672 56.17134475708008 87 50.67128753662109 87 45 C 87 39.32871246337891 85.88994598388672 33.82865524291992 83.70066070556641 28.65262985229492 C 81.58542633056641 23.65165710449219 78.55665588378906 19.15968322753906 74.698486328125 15.301513671875 C 70.84031677246094 11.44334411621094 66.34834289550781 8.414573669433594 61.34737396240234 6.299339294433594 C 56.17134475708008 4.110054016113281 50.67128753662109 3 45 3 M 45 0 C 69.85281372070312 0 90 20.14718627929688 90 45 C 90 69.85281372070312 69.85281372070312 90 45 90 C 20.14718627929688 90 0 69.85281372070312 0 45 C 0 20.14718627929688 20.14718627929688 0 45 0 Z" stroke="none" fill="#ffc965"/>
        </g>
      </g>
    </g>
    <g id="Filled_outline" data-name="Filled outline" transform="translate(227.348 764.348)">
      <path id="Trazado_995216" data-name="Trazado 995216" d="M36,3V26.942l6.841-5.13H57.377V3Z" transform="translate(-4.928 -0.145)" fill="#5f79ba"/>
      <path id="Trazado_995217" data-name="Trazado 995217" d="M3,3V16.681H20.956l4.275,7.7v-7.7H27.8V3Z" transform="translate(-0.145 -0.145)" fill="#5f79ba"/>
      <path id="Trazado_995218" data-name="Trazado 995218" d="M3,35H52.594V57.232H3Z" transform="translate(-0.145 -4.783)" fill="#f4f4e6"/>
      <circle id="Elipse_11750" data-name="Elipse 11750" cx="2.5" cy="2.5" r="2.5" transform="translate(6.652 6.652)" fill="#ffd782"/>
      <circle id="Elipse_11751" data-name="Elipse 11751" cx="2.5" cy="2.5" r="2.5" transform="translate(14.652 6.652)" fill="#ffd782"/>
      <path id="Trazado_995219" data-name="Trazado 995219" d="M12.13,18.13H7L7.855,13h3.42Z" transform="translate(-0.725 -1.594)" fill="#e4544f"/>
      <path id="Trazado_995220" data-name="Trazado 995220" d="M22.13,18.13H17L17.855,13h3.42Z" transform="translate(-2.174 -1.594)" fill="#e4544f"/>
      <path id="Trazado_995221" data-name="Trazado 995221" d="M49.174,35H3V57.232H6.42V38.42H49.174V57.232h3.42V35Z" transform="translate(-0.145 -4.783)" fill="#143441"/>
      <path id="Trazado_995222" data-name="Trazado 995222" d="M7,39H37.782V57.811H7Z" transform="translate(-0.725 -5.363)" fill="#f9bb4b"/>
      <g id="Grupo_1161206" data-name="Grupo 1161206" transform="translate(9.696 37.058)">
        <path id="Trazado_995223" data-name="Trazado 995223" d="M11,43h3.42V58.391H11Z" transform="translate(-11 -43)" fill="#b11e48"/>
        <path id="Trazado_995224" data-name="Trazado 995224" d="M19,45h3.42V58.681H19Z" transform="translate(-12.159 -43.29)" fill="#b11e48"/>
        <path id="Trazado_995225" data-name="Trazado 995225" d="M27,47h3.42V58.971H27Z" transform="translate(-13.319 -43.58)" fill="#b11e48"/>
        <path id="Trazado_995226" data-name="Trazado 995226" d="M35,49h3.42V59.261H35Z" transform="translate(-14.478 -43.87)" fill="#b11e48"/>
      </g>
      <path id="Trazado_995227" data-name="Trazado 995227" d="M42.748,17.971h.777v1.71h1.71v-1.71h3.42v1.71h1.71v-1.71h.855a.855.855,0,0,0,.848-.749l.855-6.841a.78.78,0,0,0,.007-.106V7.71h1.71V6H52.076a.855.855,0,0,0-.855.855V9.42H41.582a.855.855,0,0,0-.843,1l1.166,6.841a.855.855,0,0,0,.843.711Zm6.763-6.841h1.6l-.641,5.13h-.955Zm-3.42,0H47.8v5.13h-1.71Zm-1.71,0v5.13H43.47L42.6,11.13Z" transform="translate(-5.613 -0.58)"/>
      <path id="Trazado_995228" data-name="Trazado 995228" d="M57.232,2H35.855A.855.855,0,0,0,35,2.855V26.8a.855.855,0,0,0,1.368.684l6.612-4.959H57.232a.855.855,0,0,0,.855-.855V2.855A.855.855,0,0,0,57.232,2Zm-.855,18.811H42.7a.855.855,0,0,0-.513.171l-5.472,4.1V3.71H56.377Z" transform="translate(-4.783)"/>
      <path id="Trazado_995229" data-name="Trazado 995229" d="M2.855,17.391H20.309l4.031,7.255a.855.855,0,0,0,.747.44.885.885,0,0,0,.215-.027.855.855,0,0,0,.64-.828V17.391h1.71a.855.855,0,0,0,.855-.855V2.855A.855.855,0,0,0,27.652,2H2.855A.855.855,0,0,0,2,2.855V16.536A.855.855,0,0,0,2.855,17.391Zm4.43-1.71.569-3.42H9.826l.569,3.42Zm1.555-5.13a1.71,1.71,0,1,1,1.71-1.71A1.71,1.71,0,0,1,8.841,10.551Zm7,5.13.569-3.42h1.972l.569,3.42Zm1.555-5.13a1.71,1.71,0,1,1,1.71-1.71A1.71,1.71,0,0,1,17.391,10.551ZM3.71,3.71H26.8V15.681h-1.71a.855.855,0,0,0-.855.855v4.4l-2.673-4.811a.855.855,0,0,0-.747-.44h-.131s-.765-4.5-.779-4.532a3.42,3.42,0,1,0-5.021,0c-.014.041-.779,4.536-.779,4.536H12.13s-.765-4.5-.779-4.532a3.42,3.42,0,1,0-5.021,0c-.014.032-.779,4.528-.779,4.528H3.71Z"/>
      <path id="Trazado_995230" data-name="Trazado 995230" d="M26,6h2.565V7.71H26Z" transform="translate(-3.478 -0.58)"/>
      <path id="Trazado_995231" data-name="Trazado 995231" d="M26,10h2.565v1.71H26Z" transform="translate(-3.478 -1.159)"/>
      <path id="Trazado_995232" data-name="Trazado 995232" d="M26,14h2.565v1.71H26Z" transform="translate(-3.478 -1.739)"/>
      <path id="Trazado_995233" data-name="Trazado 995233" d="M52.449,34H2.855A.855.855,0,0,0,2,34.855V57.087a.855.855,0,0,0,.855.855H52.449a.855.855,0,0,0,.855-.855V34.855A.855.855,0,0,0,52.449,34ZM12.261,56.232h-1.71V42.551h1.71Zm6.841,0h-1.71V44.261H19.1Zm6.841,0h-1.71V45.971h1.71Zm6.841,0h-1.71V47.681h1.71Zm3.42,0h-1.71V46.826a.855.855,0,0,0-.855-.855h-3.42a.855.855,0,0,0-.855.855v9.406h-1.71V45.116a.855.855,0,0,0-.855-.855h-3.42a.855.855,0,0,0-.855.855V56.232h-1.71V43.406a.855.855,0,0,0-.855-.855h-3.42a.855.855,0,0,0-.855.855V56.232h-1.71V41.7a.855.855,0,0,0-.855-.855H9.7a.855.855,0,0,0-.855.855V56.232H7.13V39.13H36.2Zm11.971,0H37.913V39.13H48.174Zm3.42,0h-1.71V38.275a.855.855,0,0,0-.855-.855H6.275a.855.855,0,0,0-.855.855V56.232H3.71V35.71H51.594Z" transform="translate(0 -4.638)"/>
      <path id="Trazado_995234" data-name="Trazado 995234" d="M46,42h6.841v1.71H46Z" transform="translate(-6.377 -5.797)"/>
      <path id="Trazado_995235" data-name="Trazado 995235" d="M46,46h6.841v1.71H46Z" transform="translate(-6.377 -6.377)"/>
      <path id="Trazado_995236" data-name="Trazado 995236" d="M50,50h3.42v1.71H50Z" transform="translate(-6.957 -6.957)"/>
      <path id="Trazado_995237" data-name="Trazado 995237" d="M46,54h1.71v1.71H46Z" transform="translate(-6.377 -7.537)"/>
      <path id="Trazado_995238" data-name="Trazado 995238" d="M50,54h3.42v1.71H50Z" transform="translate(-6.957 -7.537)"/>
    </g>
  </g>
</svg>
