<svg xmlns="http://www.w3.org/2000/svg" xmlns:xlink="http://www.w3.org/1999/xlink" width="108" height="108" viewBox="0 0 108 108">
  <defs>
    <filter id="Trazado_904820" x="0" y="0" width="108" height="108" filterUnits="userSpaceOnUse">
      <feOffset dy="3" input="SourceAlpha"/>
      <feGaussianBlur stdDeviation="3" result="blur"/>
      <feFlood flood-opacity="0.161"/>
      <feComposite operator="in" in2="blur"/>
      <feComposite in="SourceGraphic"/>
    </filter>
  </defs>
  <g id="Grupo_1161231" data-name="Grupo 1161231" transform="translate(-621 -2124)">
    <g id="Icono" transform="translate(630 2130)">
      <g transform="matrix(1, 0, 0, 1, -9, -6)" filter="url(#Trazado_904820)">
        <g id="Trazado_904820-2" data-name="Trazado 904820" transform="translate(9 6)" fill="#eff5f8">
          <path d="M 45 88.5 C 39.12687683105469 88.5 33.43022537231445 87.35007476806641 28.06830024719238 85.08217620849609 C 22.88852500915527 82.89131164550781 18.23629951477051 79.75458526611328 14.2408504486084 75.75914764404297 C 10.24541282653809 71.76370239257812 7.108687400817871 67.11147308349609 4.917825222015381 61.93170166015625 C 2.649924993515015 56.56977462768555 1.5 50.87312316894531 1.5 45 C 1.5 39.12687683105469 2.649924993515015 33.43022537231445 4.917825222015381 28.06830024719238 C 7.108687400817871 22.88852500915527 10.24541282653809 18.23629951477051 14.2408504486084 14.2408504486084 C 18.23629951477051 10.24541282653809 22.88852500915527 7.108687400817871 28.06830024719238 4.917825222015381 C 33.43022537231445 2.649924993515015 39.12687683105469 1.5 45 1.5 C 50.87312316894531 1.5 56.56977462768555 2.649924993515015 61.93170166015625 4.917825222015381 C 67.11147308349609 7.108687400817871 71.76370239257812 10.24541282653809 75.75914764404297 14.2408504486084 C 79.75458526611328 18.23629951477051 82.89131164550781 22.88852500915527 85.08217620849609 28.06830024719238 C 87.35007476806641 33.43022537231445 88.5 39.12687683105469 88.5 45 C 88.5 50.87312316894531 87.35007476806641 56.56977462768555 85.08217620849609 61.93170166015625 C 82.89131164550781 67.11147308349609 79.75458526611328 71.76370239257812 75.75914764404297 75.75914764404297 C 71.76370239257812 79.75458526611328 67.11147308349609 82.89131164550781 61.93170166015625 85.08217620849609 C 56.56977462768555 87.35007476806641 50.87312316894531 88.5 45 88.5 Z" stroke="none"/>
          <path d="M 45 3 C 39.32871246337891 3 33.82865524291992 4.110054016113281 28.65262985229492 6.299339294433594 C 23.65165710449219 8.414573669433594 19.15968322753906 11.44334411621094 15.301513671875 15.301513671875 C 11.44334411621094 19.15968322753906 8.414573669433594 23.65165710449219 6.299339294433594 28.65262985229492 C 4.110054016113281 33.82865524291992 3 39.32871246337891 3 45 C 3 50.67128753662109 4.110054016113281 56.17134475708008 6.299339294433594 61.34737396240234 C 8.414573669433594 66.34834289550781 11.44334411621094 70.84031677246094 15.301513671875 74.698486328125 C 19.15968322753906 78.55665588378906 23.65165710449219 81.58542633056641 28.65262985229492 83.70066070556641 C 33.82865524291992 85.88994598388672 39.32871246337891 87 45 87 C 50.67128753662109 87 56.17134475708008 85.88994598388672 61.34737396240234 83.70066070556641 C 66.34834289550781 81.58542633056641 70.84031677246094 78.55665588378906 74.698486328125 74.698486328125 C 78.55665588378906 70.84031677246094 81.58542633056641 66.34834289550781 83.70066070556641 61.34737396240234 C 85.88994598388672 56.17134475708008 87 50.67128753662109 87 45 C 87 39.32871246337891 85.88994598388672 33.82865524291992 83.70066070556641 28.65262985229492 C 81.58542633056641 23.65165710449219 78.55665588378906 19.15968322753906 74.698486328125 15.301513671875 C 70.84031677246094 11.44334411621094 66.34834289550781 8.414573669433594 61.34737396240234 6.299339294433594 C 56.17134475708008 4.110054016113281 50.67128753662109 3 45 3 M 45 0 C 69.85281372070312 0 90 20.14718627929688 90 45 C 90 69.85281372070312 69.85281372070312 90 45 90 C 20.14718627929688 90 0 69.85281372070312 0 45 C 0 20.14718627929688 20.14718627929688 0 45 0 Z" stroke="none" fill="#6da4c3"/>
        </g>
      </g>
    </g>
    <g id="analysis_4079379" transform="translate(644 2144)">
      <g id="Grupo_1161229" data-name="Grupo 1161229">
        <g id="Grupo_1161208" data-name="Grupo 1161208">
          <circle id="Elipse_11752" data-name="Elipse 11752" cx="2" cy="2" r="2" transform="translate(53 56)" fill="#ff826e"/>
        </g>
        <g id="Grupo_1161209" data-name="Grupo 1161209">
          <circle id="Elipse_11753" data-name="Elipse 11753" cx="2" cy="2" r="2" transform="translate(45 56)" fill="#ff826e"/>
        </g>
        <g id="Grupo_1161210" data-name="Grupo 1161210">
          <circle id="Elipse_11754" data-name="Elipse 11754" cx="2" cy="2" r="2" transform="translate(37 56)" fill="#ff826e"/>
        </g>
        <g id="Grupo_1161211" data-name="Grupo 1161211">
          <path id="Trazado_995239" data-name="Trazado 995239" d="M57,41v3l-1.35.45a8.908,8.908,0,0,1-.8,1.94l.64,1.27-2.83,2.83-1.27-.64a8.908,8.908,0,0,1-1.94.8L49,52H45l-.45-1.35a8.908,8.908,0,0,1-1.94-.8l-1.27.64-2.83-2.83.64-1.27a8.908,8.908,0,0,1-.8-1.94L37,44V41h5.1a4.712,4.712,0,0,0-.1,1,5,5,0,0,0,10,0,4.712,4.712,0,0,0-.1-1Z" fill="#fcd770"/>
        </g>
        <g id="Grupo_1161212" data-name="Grupo 1161212">
          <path id="Trazado_995240" data-name="Trazado 995240" d="M42,11a9.881,9.881,0,0,1-.84,4l-.16.35a9.981,9.981,0,0,1-6.61,5.36,17.706,17.706,0,0,1,2.38,6.46A4.935,4.935,0,0,1,38,27a5,5,0,1,1,0,10,4.931,4.931,0,0,1-2.2-.54A17.949,17.949,0,0,1,33.24,41H61V11Z" fill="#aab2bd"/>
        </g>
        <g id="Grupo_1161213" data-name="Grupo 1161213">
          <path id="Trazado_995241" data-name="Trazado 995241" d="M57,15v4H41V15.35c.01,0,.01,0,0-.01a2.11,2.11,0,0,0,.16-.34Z" fill="#ff826e"/>
        </g>
        <g id="Grupo_1161214" data-name="Grupo 1161214">
          <path id="Trazado_995242" data-name="Trazado 995242" d="M36.89,32H43a5,5,0,0,1-5,5,4.931,4.931,0,0,1-2.2-.54A17.435,17.435,0,0,0,36.89,32Z" fill="#69d6f4"/>
        </g>
        <g id="Grupo_1161215" data-name="Grupo 1161215">
          <path id="Trazado_995243" data-name="Trazado 995243" d="M43,32H36.89A18.851,18.851,0,0,0,37,30a17.621,17.621,0,0,0-.23-2.83A4.935,4.935,0,0,1,38,27,5,5,0,0,1,43,32Z" fill="#fcd770"/>
        </g>
        <g id="Grupo_1161216" data-name="Grupo 1161216">
          <path id="Trazado_995244" data-name="Trazado 995244" d="M55.53,35.53l.01.01a5.022,5.022,0,0,1-7.08,0L52,32Z" fill="#69d6f4"/>
        </g>
        <g id="Grupo_1161217" data-name="Grupo 1161217">
          <path id="Trazado_995245" data-name="Trazado 995245" d="M52,27v5l-3.54,3.54A5.006,5.006,0,0,1,52,27Z" fill="#fcd770"/>
        </g>
        <g id="Grupo_1161218" data-name="Grupo 1161218">
          <path id="Trazado_995246" data-name="Trazado 995246" d="M52,27a5.006,5.006,0,0,1,3.54,8.54l-.01-.01L52,32Z" fill="#ff826e"/>
        </g>
        <g id="Grupo_1161219" data-name="Grupo 1161219">
          <circle id="Elipse_11755" data-name="Elipse 11755" cx="18" cy="18" r="18" transform="translate(1 12)" fill="#e6e9ed"/>
        </g>
        <g id="Grupo_1161220" data-name="Grupo 1161220">
          <circle id="Elipse_11756" data-name="Elipse 11756" cx="14" cy="14" r="14" transform="translate(5 16)" fill="#69d6f4"/>
        </g>
        <g id="Grupo_1161221" data-name="Grupo 1161221">
          <path id="Trazado_995247" data-name="Trazado 995247" d="M23,52v5a4,4,0,0,1-8,0V52Z" fill="#969faa"/>
        </g>
        <g id="Grupo_1161222" data-name="Grupo 1161222">
          <path id="Trazado_995248" data-name="Trazado 995248" d="M23,51v1H15V51a3.992,3.992,0,0,1,1.58-3.17,17.31,17.31,0,0,0,4.84,0A3.992,3.992,0,0,1,23,51Z" fill="#ccd1d9"/>
        </g>
        <g id="Grupo_1161223" data-name="Grupo 1161223">
          <path id="Trazado_995249" data-name="Trazado 995249" d="M34.39,20.71A9.962,9.962,0,0,1,32,21a9.786,9.786,0,0,1-2.61-.35,9.688,9.688,0,0,1-3.04-1.4,10.04,10.04,0,0,1-4.26-6.97A9.075,9.075,0,0,1,22,11a10,10,0,0,1,20,0,9.881,9.881,0,0,1-.84,4,2.11,2.11,0,0,1-.16.34c.01.01.01.01,0,.01a9.981,9.981,0,0,1-6.61,5.36Z" fill="#fcd770"/>
        </g>
        <g id="Grupo_1161224" data-name="Grupo 1161224">
          <path id="Trazado_995250" data-name="Trazado 995250" d="M29,26V39.79a13.971,13.971,0,0,1-3.93,2.83L25,42V26Z" fill="#ff826e"/>
        </g>
        <g id="Grupo_1161225" data-name="Grupo 1161225">
          <path id="Trazado_995251" data-name="Trazado 995251" d="M21,43.84v.02a14.356,14.356,0,0,1-4,0V36h4Z" fill="#ff826e"/>
        </g>
        <g id="Grupo_1161226" data-name="Grupo 1161226">
          <path id="Trazado_995252" data-name="Trazado 995252" d="M13,32V42.63l-.01.02A14.067,14.067,0,0,1,9,39.79V32Z" fill="#ff826e"/>
        </g>
        <g id="Grupo_1161227" data-name="Grupo 1161227">
          <path id="Trazado_995253" data-name="Trazado 995253" d="M20.13,28.35A2,2,0,1,1,17,30a1.914,1.914,0,0,1,.21-.89,2,2,0,0,1,2.92-.76Z" fill="#ff826e"/>
        </g>
        <g id="Grupo_1161228" data-name="Grupo 1161228">
          <path id="Trazado_995254" data-name="Trazado 995254" d="M11,24a2.006,2.006,0,0,1,2,2,1.914,1.914,0,0,1-.21.89A2,2,0,1,1,11,24Z" fill="#ff826e"/>
        </g>
      </g>
      <g id="Grupo_1161230" data-name="Grupo 1161230">
        <path id="Trazado_995255" data-name="Trazado 995255" d="M33,14H31a1,1,0,0,1-1-1H28a3,3,0,0,0,3,3v2h2V16a3,3,0,0,0,0-6H31a1,1,0,0,1,0-2h2a1,1,0,0,1,1,1h2a3,3,0,0,0-3-3V4H31V6a3,3,0,0,0,0,6h2a1,1,0,0,1,0,2Z"/>
        <path id="Trazado_995256" data-name="Trazado 995256" d="M62,10H42.949A11,11,0,0,0,21,11c0,.044.006.086.007.13A18.152,18.152,0,0,0,19,11a18.991,18.991,0,0,0-4.309,37.488A4.929,4.929,0,0,0,14,51v6a5,5,0,0,0,10,0V51a4.929,4.929,0,0,0-.691-2.512A19.015,19.015,0,0,0,33.715,42H36v2.721l1.544.515a9.943,9.943,0,0,0,.48,1.166L37.3,47.855,41.145,51.7l1.453-.727a9.773,9.773,0,0,0,1.166.48L44.279,53H49.72l.515-1.544a10.266,10.266,0,0,0,1.166-.48l1.453.727L56.7,47.855,55.975,46.4a9.773,9.773,0,0,0,.48-1.166L58,44.721V42h4Zm-6,6v2H54V16Zm-4,2H50V16h2Zm-4,0H46V16h2Zm-4,0H42V16h2ZM32,2a9,9,0,1,1-9,9A9.011,9.011,0,0,1,32,2ZM28,39.359a13.052,13.052,0,0,1-2,1.578V27h2ZM24,25V42a12.985,12.985,0,0,1-2,.64V35H16v7.637A12.771,12.771,0,0,1,14,42V31H8v5.9A12.959,12.959,0,0,1,23.349,17.771a11.1,11.1,0,0,0,1.643,1.7l-5.227,7.64a2.9,2.9,0,0,0-2.841.732l-2.96-1.48A3.077,3.077,0,0,0,14,26a3.015,3.015,0,1,0-.924,2.157l2.96,1.48A3.077,3.077,0,0,0,16,30a3,3,0,1,0,5.417-1.761l5.227-7.64a10.871,10.871,0,0,0,2.185.93A12.9,12.9,0,0,1,30,36.9V25ZM20,42.949c-.331.026-.662.051-1,.051s-.669-.025-1-.051V37h2Zm-8-2.012a13.052,13.052,0,0,1-2-1.578V33h2ZM20,30a1,1,0,1,1-1-1A1,1,0,0,1,20,30Zm-8-4a1,1,0,1,1-1-1A1,1,0,0,1,12,26Zm7,34a3,3,0,0,1-3-3V53h6v4A3,3,0,0,1,19,60Zm3-9H16a2.943,2.943,0,0,1,.924-2.119,18.168,18.168,0,0,0,4.152,0A2.943,2.943,0,0,1,22,51Zm-3-4a17,17,0,0,1,0-34,16.418,16.418,0,0,1,2.218.175,10.96,10.96,0,0,0,.654,2.116A14.751,14.751,0,0,0,19,15a15.056,15.056,0,1,0,12.652,6.982c.116,0,.23.018.348.018a11.044,11.044,0,0,0,1.876-.172A16.955,16.955,0,0,1,19,47ZM37.883,28.009c.038,0,.08-.009.117-.009a4,4,0,0,1,3.858,3H37.949c.018-.333.051-.662.051-1A18.613,18.613,0,0,0,37.883,28.009ZM37.739,33h4.119A4,4,0,0,1,38,36a3.739,3.739,0,0,1-.94-.127A18.775,18.775,0,0,0,37.739,33ZM56,43.279l-1.165.388-.144.51A7.925,7.925,0,0,1,53.98,45.9l-.259.462.547,1.1L52.459,49.27l-1.1-.547-.462.258a8.021,8.021,0,0,1-1.726.713l-.509.144L48.279,51H45.72l-.388-1.164-.509-.144a8.021,8.021,0,0,1-1.726-.713l-.462-.258-1.1.547-1.809-1.809.547-1.1-.259-.462a7.884,7.884,0,0,1-.711-1.725l-.144-.51L38,43.279V42h3a6,6,0,0,0,12,0h3ZM51,42a4,4,0,1,1-8,0Zm9-2H35.125a18.938,18.938,0,0,0,1.209-2.258A5.755,5.755,0,0,0,38,38a6,6,0,0,0,0-12c-.141,0-.286.018-.429.03a19.044,19.044,0,0,0-1.707-4.744A11.024,11.024,0,0,0,40,18.527V20H58V14H42.574a11.006,11.006,0,0,0,.376-2H60Z"/>
        <path id="Trazado_995257" data-name="Trazado 995257" d="M52,26a6,6,0,1,0,6,6A6.006,6.006,0,0,0,52,26Zm4,6a3.957,3.957,0,0,1-.567,2.019L53,31.586V28.142A4,4,0,0,1,56,32Zm-5-3.858v3.444l-2.433,2.433A3.947,3.947,0,0,1,48,32,4,4,0,0,1,51,28.142Zm-1.019,7.291L52,33.414l2.019,2.019a3.878,3.878,0,0,1-4.038,0Z"/>
        <path id="Trazado_995258" data-name="Trazado 995258" d="M39,22h2v2H39Z"/>
        <path id="Trazado_995259" data-name="Trazado 995259" d="M43,22H58v2H43Z"/>
        <path id="Trazado_995260" data-name="Trazado 995260" d="M39,55a3,3,0,1,0,3,3A3,3,0,0,0,39,55Zm0,4a1,1,0,1,1,1-1A1,1,0,0,1,39,59Z"/>
        <path id="Trazado_995261" data-name="Trazado 995261" d="M47,55a3,3,0,1,0,3,3A3,3,0,0,0,47,55Zm0,4a1,1,0,1,1,1-1A1,1,0,0,1,47,59Z"/>
        <path id="Trazado_995262" data-name="Trazado 995262" d="M55,55a3,3,0,1,0,3,3A3,3,0,0,0,55,55Zm0,4a1,1,0,1,1,1-1A1,1,0,0,1,55,59Z"/>
      </g>
    </g>
  </g>
</svg>
