<svg xmlns="http://www.w3.org/2000/svg" xmlns:xlink="http://www.w3.org/1999/xlink" width="549" height="299" viewBox="0 0 549 299">
  <defs>
    <clipPath id="clip-path">
      <rect id="Rectángulo_409922" data-name="Rectángulo 409922" width="549" height="299" transform="translate(135.999 4472)" fill="#fff" stroke="#707070" stroke-width="1"/>
    </clipPath>
    <clipPath id="clip-path-2">
      <path id="Trazado_997448" data-name="Trazado 997448" d="M55.992,392.335,43.272,372.8,8.524,151.107l240.975-.969L297.972,395.47,179.5,365.993l3.7,25.373a3.587,3.587,0,0,1-3.549,4.1H59.55A3.586,3.586,0,0,1,55.992,392.335Z" transform="translate(-8.524 -150.138)"/>
    </clipPath>
  </defs>
  <g id="Enmascarar_grupo_1098776" data-name="Enmascarar grupo 1098776" transform="translate(-135.999 -4472)" clip-path="url(#clip-path)">
    <g id="Grupo_1162873" data-name="Grupo 1162873" transform="translate(-4437.273 -1165.087)">
      <path id="Trazado_997408" data-name="Trazado 997408" d="M540.5,14.316c-11.418,5.107-21.527,12.27-29.318,22.437C497.552,54.537,494.227,77.818,487.8,99.279c-2.369,7.909-6.153,16.645-14,19.222-10.992,3.611-21.567-7.112-33.1-7.987-12.755-.967-22.911,9.909-31.214,19.64C395.29,146.791,376.5,164.321,354.9,160.891c-19.483-3.094-32.458-22.218-50.927-29.149-22.639-8.5-48.922,3.827-63.718,22.951s-20.568,43.559-25.22,67.288c-1.418,7.231-2.9,14.769-7.378,20.617s-12.982,9.346-19.439,5.8c-4.467-2.455-7.061-7.664-11.77-9.613-10.118-4.189-18.388,8.615-27.879,14.077-12.044,6.93-27.54,1.362-38.774-6.814s-20.909-19-33.878-23.985c-26.955-10.365-56.645,8.4-74.791,30.866-3.405,4.216-6.594,8.585-9.633,13.059V450.811c.744-.889,1.5-1.769,2.282-2.632C9.039,431.325,35.06,420.77,54.723,432.187c7.547,4.382,13.138,11.377,19.011,17.832,48.663,53.487,129.336,75.289,198.318,53.6,19.754-6.213,39.082-16.15,51.882-32.428,20.22-25.714,20.337-61.163,25.693-93.433s22.5-68.482,54.836-73.413c4.435-.676,9.167-.768,12.973-3.145,4.46-2.785,6.64-8.124,7.628-13.288,2.925-15.292-2.2-30.957-1.819-46.521s10.26-33.574,25.819-33c10.886.4,19.02,9.6,26.786,17.242a137.578,137.578,0,0,0,64.646,35.29Z" transform="translate(4581.778 5509.123)" fill="#f4af3d"/>
      <g id="Grupo_1162872" data-name="Grupo 1162872" transform="translate(4701.313 5645.857)">
        <g id="Grupo_1162857" data-name="Grupo 1162857" transform="translate(0 5.555)">
          <path id="Trazado_997409" data-name="Trazado 997409" d="M194.554,402.529l-34.72-237.985a5.978,5.978,0,0,0-5.915-5.115H22.534a5.96,5.96,0,0,0-5.064,2.815L10.1,170.521a5.95,5.95,0,0,0-1.531,4.792L38.739,413.3a5.977,5.977,0,0,0,5.931,5.226H180.607a5.947,5.947,0,0,0,4.482-2.026h0l.005-.006.06-.069,7.562-8.659h0A5.963,5.963,0,0,0,194.554,402.529Z" transform="translate(-8.523 -159.43)" fill="#433959"/>
          <path id="Trazado_997410" data-name="Trazado 997410" d="M194.044,409.37H58.106a5.978,5.978,0,0,1-5.931-5.226L22.009,166.159a5.978,5.978,0,0,1,5.931-6.729H159.324a5.978,5.978,0,0,1,5.915,5.115l34.72,237.985A5.978,5.978,0,0,1,194.044,409.37Z" transform="translate(-13.928 -159.43)" fill="#9575ad"/>
          <path id="Trazado_997411" data-name="Trazado 997411" d="M68.939,402.909l-28.2-222.442a3.587,3.587,0,0,1,3.558-4.038H160.146A3.587,3.587,0,0,1,163.7,179.5L196.148,401.94a3.587,3.587,0,0,1-3.549,4.1H72.5A3.586,3.586,0,0,1,68.939,402.909Z" transform="translate(-21.471 -166.267)" fill="#4aacd1"/>
        </g>
        <g id="Grupo_1162864" data-name="Grupo 1162864" transform="translate(0 0)">
          <g id="Grupo_1162863" data-name="Grupo 1162863" clip-path="url(#clip-path-2)">
            <path id="Trazado_997412" data-name="Trazado 997412" d="M218.838,518.9h-96.7V446.384h94.9Z" transform="translate(-54.223 -269.295)" fill="#514769"/>
            <path id="Trazado_997413" data-name="Trazado 997413" d="M185.022,387.559h46.9l-9.649-108.844-13.016-6.733-24.237,8.977Z" transform="translate(-79.516 -199.146)" fill="#fcf3ed"/>
            <path id="Trazado_997414" data-name="Trazado 997414" d="M211.222,286.064l-6.983,101.5H238.1l-19.14-100.932,2.44-6.081-4.408-8.564-8.309,6.761Z" transform="translate(-87.245 -199.146)" fill="#f6c05c"/>
            <g id="Grupo_1162858" data-name="Grupo 1162858" transform="translate(157.475 160.43)">
              <path id="Trazado_997415" data-name="Trazado 997415" d="M271.959,457.609l44.619,22.965,8.519-42.559-53.138-19.5Z" transform="translate(-271.959 -418.516)" fill="#433959"/>
              <ellipse id="Elipse_11841" data-name="Elipse 11841" cx="21.862" cy="8.584" rx="21.862" ry="8.584" transform="matrix(0.231, -0.973, 0.973, 0.231, 36.251, 60.082)" fill="#9575ad"/>
            </g>
            <path id="Trazado_997416" data-name="Trazado 997416" d="M236.6,263.739l7.99,118.481,5.162,64.631s17.576,3.591,26.777-2.244l-12.118-76.076s6-54.569,2.884-74.43a8.909,8.909,0,0,0-2.764-5.156Z" transform="translate(-100.262 -195.831)" fill="#433959"/>
            <path id="Trazado_997417" data-name="Trazado 997417" d="M247.078,279.878s4.512,13.682,5.185,20.414l-4.039,2.693,5.386,5.386s4.039,45.915-8.977,59.762-6.085,6.889-6.085,6.889" transform="translate(-100.303 -202.322)" fill="none" stroke="#9575ad" stroke-linecap="round" stroke-linejoin="round" stroke-miterlimit="10" stroke-width="1"/>
            <path id="Trazado_997418" data-name="Trazado 997418" d="M239.477,470.929s7.293-11.782,5.61-28.949-6.452-12.287-6.452-12.287l-3.871.637v42.09Z" transform="translate(-99.523 -262.324)" fill="#9575ad"/>
            <path id="Trazado_997419" data-name="Trazado 997419" d="M201.183,230.508s-4.632-1.851-8,0l-5.723,7.91s4.241,20.366,9.61,27.266l13.168-10.716,6.816,13.24s3.058-11.445,2.637-18.177a49.632,49.632,0,0,0-2.637-12.666Z" transform="translate(-80.497 -182.134)" fill="#fcf3ed"/>
            <g id="Grupo_1162859" data-name="Grupo 1162859" transform="translate(149.828 119.864)">
              <path id="Trazado_997420" data-name="Trazado 997420" d="M296.643,479.131l-37.477-26.664v-4.247l97.4-1.837v4.247Z" transform="translate(-259.166 -389.159)" fill="#fcf3ed"/>
              <path id="Trazado_997421" data-name="Trazado 997421" d="M296.643,459.95l-37.477-26.664L322.6,409.254l33.96,22.2Z" transform="translate(-259.166 -374.224)" fill="#9575ad"/>
              <path id="Trazado_997422" data-name="Trazado 997422" d="M289.45,446.172l47.728-20.183,19.378,11.368-47.129,22.417Z" transform="translate(-271.347 -380.955)" fill="none" stroke="#433959" stroke-linecap="round" stroke-linejoin="round" stroke-miterlimit="10" stroke-width="1"/>
              <path id="Trazado_997423" data-name="Trazado 997423" d="M321.86,436.38,333.978,370.4l60.143-19.748-12.343,57.225Z" transform="translate(-284.383 -350.654)" fill="#fcf3ed"/>
            </g>
            <g id="Grupo_1162860" data-name="Grupo 1162860" transform="translate(135.24 150.704)">
              <path id="Trazado_997424" data-name="Trazado 997424" d="M234.764,434.564s9.594,3.7,15.989,1.683,13.3-10.183,13.3-10.183,9.341,2.356,13.3,1.262c0,0,2.861-.757,2.02-2.188-.73-1.242-12.455-4.161-15.569-5.592,0,0,17,1.3,19.1-1.309s-2.1-3.03-2.1-3.03,3.2-.673,2.356-2.693S272.8,407.8,272.8,407.8s-3.366-5.47-5.638-5.554a21.968,21.968,0,0,0-12.371,4.6c-2.789,2.237-16.158,12.063-16.158,12.063l-3.871.637v15.016Z" transform="translate(-234.763 -402.245)" fill="#c3848e"/>
              <path id="Trazado_997425" data-name="Trazado 997425" d="M289.2,411.372a35.833,35.833,0,0,0-13.675,1.01" transform="translate(-251.156 -405.815)" fill="none" stroke="#433959" stroke-linecap="round" stroke-linejoin="round" stroke-miterlimit="10" stroke-width="1"/>
              <path id="Trazado_997426" data-name="Trazado 997426" d="M298.238,422.9s-10.772-2.609-20.113-1.01" transform="translate(-252.204 -409.939)" fill="none" stroke="#433959" stroke-linecap="round" stroke-linejoin="round" stroke-miterlimit="10" stroke-width="1"/>
            </g>
            <path id="Trazado_997427" data-name="Trazado 997427" d="M142.255,244.3l-40.226,16.551S87.386,271.9,81.663,295.631s-12.286,107.718,2.02,112.431c0,0,5.723,2.188,9.425,1.851L89.237,435.5s34.5,10.1,68.166,4.208l1.346-37.87,16.494-5.217s-3.871-30.127-.842-41.236l-12.118,1.346S151.512,258.1,142.255,244.3Z" transform="translate(-35.29 -188.011)" fill="#433959"/>
            <path id="Trazado_997428" data-name="Trazado 997428" d="M207.478,206.661,199.287,226.3A30.839,30.839,0,0,0,215,245.709s4.543-1.683,6.816-8.976l5.078-12.679Z" transform="translate(-85.253 -172.873)" fill="#c3848e"/>
            <path id="Trazado_997429" data-name="Trazado 997429" d="M216.92,226.436s.616,13.4,11.645,19.248l5.418-13.678Z" transform="translate(-92.346 -180.827)" fill="#514769"/>
            <g id="Grupo_1162861" data-name="Grupo 1162861" transform="translate(116.575 4.377)">
              <path id="Trazado_997430" data-name="Trazado 997430" d="M235.688,158.2c-4.544-2.02-14.9.421-19.1,3.282s-2.693,18.009-2.693,18.009l.757,10.688c.757,10.183,1.767,19.608,12.034,21.123s13.381-9.173,15.484-11.866,1.262-5.891,1.262-8.416,1.767-3.871,2.272-5.975a38.365,38.365,0,0,0,.155-6.94,4.6,4.6,0,0,0,4.053-3.748C250.919,169.984,240.232,160.222,235.688,158.2Z" transform="translate(-207.596 -157.461)" fill="#433959"/>
              <path id="Trazado_997431" data-name="Trazado 997431" d="M245.234,207.752c2.1-2.693,1.263-5.891,1.263-8.415s1.767-3.871,2.272-5.975a38.369,38.369,0,0,0,.155-6.94v-4.085a47.744,47.744,0,0,1-8.318-.505c-4.292-.673-12.539-3.7-12.539-3.7A12.327,12.327,0,0,1,221.25,188.4v9.678s.926,6.9,3.618,9.089L226.6,203.7a4.39,4.39,0,0,1,3-2.349,12.223,12.223,0,0,1,6.122.338c4.965,1.515,8.163,2.9,7.9,8.805A20.519,20.519,0,0,1,245.234,207.752Z" transform="translate(-210.663 -165.774)" fill="#c3848e"/>
              <path id="Trazado_997432" data-name="Trazado 997432" d="M211.6,193.839s-1.6-4.965-5.386-3.618-4.544,15.316,4.376,13.044A20.75,20.75,0,0,0,211.6,193.839Z" transform="translate(-203.539 -170.544)" fill="#c3848e"/>
              <path id="Trazado_997433" data-name="Trazado 997433" d="M242.617,211.155s1.59,3.923,3.665,3.586,1.178-4.544.953-7.181a10.213,10.213,0,0,1,.954-4.941Z" transform="translate(-219.257 -175.624)" fill="#c3848e"/>
              <path id="Trazado_997434" data-name="Trazado 997434" d="M248.189,202.619a10.213,10.213,0,0,0-.954,4.941c.224,2.637,1.122,6.845-.953,7.181s-3.665-3.586-3.665-3.586" transform="translate(-219.257 -175.624)" fill="none" stroke="#433959" stroke-linecap="round" stroke-linejoin="round" stroke-miterlimit="10" stroke-width="1"/>
              <path id="Trazado_997435" data-name="Trazado 997435" d="M237.728,225.032s1.815,2.02,4.021,1.627" transform="translate(-217.29 -184.639)" fill="none" stroke="#fcf3ed" stroke-linecap="round" stroke-linejoin="round" stroke-miterlimit="10" stroke-width="1"/>
              <path id="Trazado_997436" data-name="Trazado 997436" d="M237.245,202.838a.923.923,0,1,1-.7-1.27A1.039,1.039,0,0,1,237.245,202.838Z" transform="translate(-216.376 -175.197)" fill="#433959"/>
              <path id="Trazado_997437" data-name="Trazado 997437" d="M255.675,208.118a.923.923,0,1,1-.309-1.415A1.038,1.038,0,0,1,255.675,208.118Z" transform="translate(-223.803 -177.238)" fill="#433959"/>
              <path id="Trazado_997438" data-name="Trazado 997438" d="M235.89,192.642s4.488-.561,6.564,2.076" transform="translate(-216.551 -171.591)" fill="none" stroke="#433959" stroke-linecap="round" stroke-linejoin="round" stroke-miterlimit="10" stroke-width="2"/>
              <path id="Trazado_997439" data-name="Trazado 997439" d="M256.35,200.1s3.516-.673,4.881,1.122" transform="translate(-224.781 -174.562)" fill="none" stroke="#433959" stroke-linecap="round" stroke-linejoin="round" stroke-miterlimit="10" stroke-width="2"/>
              <path id="Trazado_997440" data-name="Trazado 997440" d="M208.485,195.492a6.544,6.544,0,0,1,3.647,5.61" transform="translate(-205.528 -172.758)" fill="none" stroke="#433959" stroke-linecap="round" stroke-linejoin="round" stroke-miterlimit="10" stroke-width="1"/>
              <path id="Trazado_997441" data-name="Trazado 997441" d="M210.523,197.735a3.826,3.826,0,0,0-.67,5.336" transform="translate(-205.743 -173.66)" fill="none" stroke="#433959" stroke-linecap="round" stroke-linejoin="round" stroke-miterlimit="10" stroke-width="1"/>
            </g>
            <path id="Trazado_997442" data-name="Trazado 997442" d="M190.353,396.251l-43.7,3.983-1.8-57.674" transform="translate(-63.359 -227.535)" fill="none" stroke="#9575ad" stroke-linecap="round" stroke-linejoin="round" stroke-miterlimit="10" stroke-width="1"/>
            <path id="Trazado_997443" data-name="Trazado 997443" d="M136.4,439.041s-13.914,18.851-16.606,17.5,8.3-11.894,8.3-11.894" transform="translate(-53.107 -266.341)" fill="none" stroke="#9575ad" stroke-linecap="round" stroke-linejoin="round" stroke-miterlimit="10" stroke-width="1"/>
            <path id="Trazado_997444" data-name="Trazado 997444" d="M169.579,250.688s-4.738,26.194-3.168,33.824l6.957,2.917-5.162,3.591,30.253,64.412" transform="translate(-71.902 -190.582)" fill="none" stroke="#9575ad" stroke-linecap="round" stroke-linejoin="round" stroke-miterlimit="10" stroke-width="1"/>
            <g id="Grupo_1162862" data-name="Grupo 1162862" transform="translate(209.123 165.81)">
              <path id="Trazado_997445" data-name="Trazado 997445" d="M358.468,460.466s7.069-19.945,9.341-20.786,1.435,2,1.634,1.909,1.142-5.612,2.826-5.948,1.683.842,1.683.842.589-1.6,1.936-1.347,3.535,4.965,3.956,7.069,0,7.658,0,7.658l3.1-10.015s-5.29-7.574-2.6-11.445,3.535,6,7.49,9.187a4.636,4.636,0,0,1,.673,4.615c-1.01,2.777-1.454,10.015-5.566,15.232S356.617,468.376,358.468,460.466Z" transform="translate(-358.359 -427.516)" fill="#c3848e"/>
              <line id="Línea_711" data-name="Línea 711" x1="4.51" y2="22.741" transform="translate(6.575 14.072)" fill="none" stroke="#433959" stroke-linecap="round" stroke-linejoin="round" stroke-miterlimit="10" stroke-width="1"/>
              <path id="Trazado_997446" data-name="Trazado 997446" d="M383.584,442.514s.4,18.554-1.282,26.361" transform="translate(-367.989 -433.549)" fill="none" stroke="#433959" stroke-linecap="round" stroke-linejoin="round" stroke-miterlimit="10" stroke-width="1"/>
              <line id="Línea_712" data-name="Línea 712" x1="0.698" y2="9.264" transform="translate(20.876 20.908)" fill="none" stroke="#433959" stroke-linecap="round" stroke-linejoin="round" stroke-miterlimit="10" stroke-width="1"/>
            </g>
            <path id="Trazado_997447" data-name="Trazado 997447" d="M215.92,295.084s4.094-1.848,7.735.563" transform="translate(-91.943 -208.166)" fill="none" stroke="#433959" stroke-linecap="round" stroke-linejoin="round" stroke-miterlimit="10" stroke-width="1"/>
          </g>
        </g>
        <g id="Grupo_1162867" data-name="Grupo 1162867" transform="translate(251.789 117.395)">
          <circle id="Elipse_11842" data-name="Elipse 11842" cx="18.122" cy="18.122" r="18.122" transform="matrix(0.125, -0.992, 0.992, 0.125, 0, 35.962)" fill="#d164a5"/>
          <g id="Grupo_1162866" data-name="Grupo 1162866" transform="translate(12.311 8.924)">
            <g id="Grupo_1162865" data-name="Grupo 1162865">
              <path id="Trazado_997449" data-name="Trazado 997449" d="M466.173,369.376a7.924,7.924,0,1,0-12.228,6.651,1.608,1.608,0,0,1,.732,1.349v1.786h7.145v-1.786a1.6,1.6,0,0,1,.726-1.344A7.915,7.915,0,0,0,466.173,369.376Z" transform="translate(-450.327 -361.452)" fill="#4aacd1"/>
              <path id="Trazado_997450" data-name="Trazado 997450" d="M464.75,389.407h-7.145v3.43a.733.733,0,0,0,.36.631l.881.519c.04.763,1.068,1.374,2.332,1.374s2.292-.611,2.332-1.374l.881-.519a.732.732,0,0,0,.36-.631v-3.43Z" transform="translate(-453.254 -372.696)" fill="#fcf3ed"/>
            </g>
          </g>
        </g>
        <g id="Grupo_1162868" data-name="Grupo 1162868" transform="translate(291.42 126.815)">
          <circle id="Elipse_11843" data-name="Elipse 11843" cx="23.084" cy="23.084" r="23.084" transform="translate(0 44.225) rotate(-73.327)" fill="#d164a5"/>
          <rect id="Rectángulo_409915" data-name="Rectángulo 409915" width="8.528" height="17.168" transform="translate(13.218 23.314)" fill="#4aacd1"/>
          <path id="Trazado_997451" data-name="Trazado 997451" d="M535.882,411.776V394.889a8.1,8.1,0,0,1,4.208-3.478c2.637-.729-.056-5.779,3.029-6.62s3.759,3.759,2.637,7.35c0,0,10.547-1.178,10.6,2.076a6.048,6.048,0,0,1-2.581,4.937s1.908,12.9-4.881,13.633A38.922,38.922,0,0,1,535.882,411.776Z" transform="translate(-512.06 -371.295)" fill="#fcf3ed"/>
        </g>
        <g id="Grupo_1162869" data-name="Grupo 1162869" transform="translate(243.504 168.485)">
          <circle id="Elipse_11844" data-name="Elipse 11844" cx="18.346" cy="18.346" r="18.346" fill="#d164a5"/>
          <path id="Trazado_997452" data-name="Trazado 997452" d="M450.189,446.424l-12.183-.033,2.13,2.874c-2.655,2.427-8.078,9.15-1.036,19.145,0,0,0-8.894,5.373-13.292l2.634,3.555Z" transform="translate(-423.82 -437.783)" fill="#fcf3ed"/>
        </g>
        <g id="Grupo_1162871" data-name="Grupo 1162871" transform="translate(177.737 116.259)">
          <path id="Trazado_997453" data-name="Trazado 997453" d="M344.149,379.944H311.11a5.256,5.256,0,0,1-5.256-5.256V349.879a5.256,5.256,0,0,1,5.256-5.256h33.039a5.256,5.256,0,0,1,5.256,5.256v24.809A5.256,5.256,0,0,1,344.149,379.944Z" transform="translate(-305.854 -344.623)" fill="#d164a5"/>
          <g id="Grupo_1162870" data-name="Grupo 1162870" transform="translate(7.736 7.07)">
            <rect id="Rectángulo_409916" data-name="Rectángulo 409916" width="6.907" height="14.667" transform="translate(0 8.09)" fill="#4aacd1"/>
            <rect id="Rectángulo_409917" data-name="Rectángulo 409917" width="6.907" height="19.923" transform="translate(10.586 2.834)" fill="#fcf3ed"/>
            <rect id="Rectángulo_409918" data-name="Rectángulo 409918" width="6.907" height="22.757" transform="translate(21.172)" fill="#4aacd1"/>
          </g>
        </g>
      </g>
      <rect id="Rectángulo_409919" data-name="Rectángulo 409919" width="241.832" height="22.717" transform="translate(4759.279 5612.855)" fill="none"/>
      <rect id="Rectángulo_409921" data-name="Rectángulo 409921" width="165.372" height="45.515" transform="translate(4888.99 5726.728)" fill="none"/>
    </g>
  </g>
</svg>
