<svg xmlns="http://www.w3.org/2000/svg" xmlns:xlink="http://www.w3.org/1999/xlink" width="108" height="108" viewBox="0 0 108 108">
  <defs>
    <filter id="Trazado_904820" x="0" y="0" width="108" height="108" filterUnits="userSpaceOnUse">
      <feOffset dy="3" input="SourceAlpha"/>
      <feGaussianBlur stdDeviation="3" result="blur"/>
      <feFlood flood-opacity="0.161"/>
      <feComposite operator="in" in2="blur"/>
      <feComposite in="SourceGraphic"/>
    </filter>
  </defs>
  <g id="Grupo_1161153" data-name="Grupo 1161153" transform="translate(-201 -2394)">
    <g id="Icono" transform="translate(210 2400)">
      <g transform="matrix(1, 0, 0, 1, -9, -6)" filter="url(#Trazado_904820)">
        <g id="Trazado_904820-2" data-name="Trazado 904820" transform="translate(9 6)" fill="#fff9ee">
          <path d="M 45 88.5 C 39.12687683105469 88.5 33.43022537231445 87.35007476806641 28.06830024719238 85.08217620849609 C 22.88852500915527 82.89131164550781 18.23629951477051 79.75458526611328 14.2408504486084 75.75914764404297 C 10.24541282653809 71.76370239257812 7.108687400817871 67.11147308349609 4.917825222015381 61.93170166015625 C 2.649924993515015 56.56977462768555 1.5 50.87312316894531 1.5 45 C 1.5 39.12687683105469 2.649924993515015 33.43022537231445 4.917825222015381 28.06830024719238 C 7.108687400817871 22.88852500915527 10.24541282653809 18.23629951477051 14.2408504486084 14.2408504486084 C 18.23629951477051 10.24541282653809 22.88852500915527 7.108687400817871 28.06830024719238 4.917825222015381 C 33.43022537231445 2.649924993515015 39.12687683105469 1.5 45 1.5 C 50.87312316894531 1.5 56.56977462768555 2.649924993515015 61.93170166015625 4.917825222015381 C 67.11147308349609 7.108687400817871 71.76370239257812 10.24541282653809 75.75914764404297 14.2408504486084 C 79.75458526611328 18.23629951477051 82.89131164550781 22.88852500915527 85.08217620849609 28.06830024719238 C 87.35007476806641 33.43022537231445 88.5 39.12687683105469 88.5 45 C 88.5 50.87312316894531 87.35007476806641 56.56977462768555 85.08217620849609 61.93170166015625 C 82.89131164550781 67.11147308349609 79.75458526611328 71.76370239257812 75.75914764404297 75.75914764404297 C 71.76370239257812 79.75458526611328 67.11147308349609 82.89131164550781 61.93170166015625 85.08217620849609 C 56.56977462768555 87.35007476806641 50.87312316894531 88.5 45 88.5 Z" stroke="none"/>
          <path d="M 45 3 C 39.32871246337891 3 33.82865524291992 4.110054016113281 28.65262985229492 6.299339294433594 C 23.65165710449219 8.414573669433594 19.15968322753906 11.44334411621094 15.301513671875 15.301513671875 C 11.44334411621094 19.15968322753906 8.414573669433594 23.65165710449219 6.299339294433594 28.65262985229492 C 4.110054016113281 33.82865524291992 3 39.32871246337891 3 45 C 3 50.67128753662109 4.110054016113281 56.17134475708008 6.299339294433594 61.34737396240234 C 8.414573669433594 66.34834289550781 11.44334411621094 70.84031677246094 15.301513671875 74.698486328125 C 19.15968322753906 78.55665588378906 23.65165710449219 81.58542633056641 28.65262985229492 83.70066070556641 C 33.82865524291992 85.88994598388672 39.32871246337891 87 45 87 C 50.67128753662109 87 56.17134475708008 85.88994598388672 61.34737396240234 83.70066070556641 C 66.34834289550781 81.58542633056641 70.84031677246094 78.55665588378906 74.698486328125 74.698486328125 C 78.55665588378906 70.84031677246094 81.58542633056641 66.34834289550781 83.70066070556641 61.34737396240234 C 85.88994598388672 56.17134475708008 87 50.67128753662109 87 45 C 87 39.32871246337891 85.88994598388672 33.82865524291992 83.70066070556641 28.65262985229492 C 81.58542633056641 23.65165710449219 78.55665588378906 19.15968322753906 74.698486328125 15.301513671875 C 70.84031677246094 11.44334411621094 66.34834289550781 8.414573669433594 61.34737396240234 6.299339294433594 C 56.17134475708008 4.110054016113281 50.67128753662109 3 45 3 M 45 0 C 69.85281372070312 0 90 20.14718627929688 90 45 C 90 69.85281372070312 69.85281372070312 90 45 90 C 20.14718627929688 90 0 69.85281372070312 0 45 C 0 20.14718627929688 20.14718627929688 0 45 0 Z" stroke="none" fill="#ffc965"/>
        </g>
      </g>
    </g>
    <g id="lamp_1108637" transform="translate(221.976 2411.341)">
      <path id="Trazado_995067" data-name="Trazado 995067" d="M128.878,108.2a20.2,20.2,0,1,1-20.2-20.2A20.2,20.2,0,0,1,128.878,108.2Zm0,0" transform="translate(-75.657 -75.657)" fill="#fff98e"/>
      <path id="Trazado_995068" data-name="Trazado 995068" d="M136.193,120s-15.709,0-15.709,16.831S150.779,120,136.193,120Zm0,0" transform="translate(-103.169 -103.169)" fill="#fffdd9"/>
      <path id="Trazado_995069" data-name="Trazado 995069" d="M98.206,283.949c0-.011-.012-.011-.012-.022a.583.583,0,0,1-.067-.18c-.018-.036-.029-.071-.045-.106.089.224.184.449.281.673-.041-.1-.086-.192-.123-.291C98.228,284.005,98.217,283.972,98.206,283.949Zm0,0" transform="translate(-83.909 -243.858)" fill="#fff98e"/>
      <path id="Trazado_995070" data-name="Trazado 995070" d="M103.97,296.7c-.261-.44-.511-.89-.736-1.358C103.462,295.807,103.709,296.259,103.97,296.7Zm0,0" transform="translate(-88.338 -253.919)" fill="#fff98e"/>
      <path id="Trazado_995071" data-name="Trazado 995071" d="M93.676,270.223q.236.856.545,1.683c-.1-.257-.193-.513-.275-.777C93.845,270.823,93.759,270.523,93.676,270.223Zm0,0" transform="translate(-80.121 -232.322)" fill="#fff98e"/>
      <path id="Trazado_995072" data-name="Trazado 995072" d="M110.378,308.239l-.03-.048Zm0,0" transform="translate(-94.455 -264.965)" fill="#fff98e"/>
      <path id="Trazado_995073" data-name="Trazado 995073" d="M88.866,235.9a.634.634,0,0,1-.033-.2c-.067-.347-.124-.707-.169-1.066a.161.161,0,0,1-.011-.1c-.012-.044-.012-.1-.022-.146-.045-.359-.078-.718-.1-1.088-.034-.427-.045-.864-.045-1.3a20.177,20.177,0,0,0,.691,5.234,3.26,3.26,0,0,1-.112-.443C88.989,236.5,88.922,236.208,88.866,235.9Zm0,0" transform="translate(-75.657 -199.461)" fill="#fff98e"/>
      <path id="Trazado_995074" data-name="Trazado 995074" d="M371.764,234.39c-.011.045-.011.1-.022.146a.161.161,0,0,1-.012.1.149.149,0,0,1-.011.067c0,.033-.012.056-.012.09a8.08,8.08,0,0,1-.146.908c-.022.146-.056.3-.09.449a5.784,5.784,0,0,1-.135.606c-.045.213-.1.437-.168.65a.168.168,0,0,1-.005.024A20.266,20.266,0,0,0,371.91,232c0,.438-.011.875-.045,1.3C371.842,233.672,371.809,234.031,371.764,234.39Zm0,0" transform="translate(-318.689 -199.46)" fill="#fff98e"/>
      <path id="Trazado_995075" data-name="Trazado 995075" d="M116.293,316.878c-.247-.292-.471-.595-.7-.909-.009-.009-.016-.02-.027-.031a20.332,20.332,0,0,0,1.73,2.081c-.076-.083-.158-.159-.233-.244C116.8,317.484,116.54,317.181,116.293,316.878Zm0,0" transform="translate(-98.945 -271.625)" fill="#fff98e"/>
      <path id="Trazado_995076" data-name="Trazado 995076" d="M114.358,314.184c-.012-.016-.021-.033-.033-.048.022.031.043.064.064.1l-.008-.014C114.37,314.207,114.358,314.2,114.358,314.184Zm0,0" transform="translate(-97.873 -270.077)" fill="#fff98e"/>
      <path id="Trazado_995077" data-name="Trazado 995077" d="M100.941,290.437a.889.889,0,0,1-.043-.085c.076.169.15.337.23.507a1.812,1.812,0,0,1-.12-.276C100.986,290.538,100.964,290.482,100.941,290.437Zm0,0" transform="translate(-86.33 -249.628)" fill="#fff98e"/>
      <path id="Trazado_995078" data-name="Trazado 995078" d="M367.684,272.914c.17-.466.324-.937.46-1.417-.064.248-.14.49-.225.73s-.156.462-.236.687Zm0,0" transform="translate(-315.697 -233.417)" fill="#fff98e"/>
      <path id="Trazado_995079" data-name="Trazado 995079" d="M177.974,352H156.722l.045.348v.022l.561,4.118.072.528.8,5.958a8.538,8.538,0,0,0,.759,1.369h16.786a8.536,8.536,0,0,0,.763-1.369l.8-5.958.628-4.645v-.022Zm0,0" transform="translate(-134.324 -302.63)" fill="#a0815c"/>
      <g id="Grupo_1161152" data-name="Grupo 1161152" transform="translate(13.518 37.776)">
        <path id="Trazado_995080" data-name="Trazado 995080" d="M152.484,351.725h.067a.234.234,0,0,1-.067-.045Zm0,0" transform="translate(-144.198 -340.13)" fill="#fff98e"/>
        <path id="Trazado_995081" data-name="Trazado 995081" d="M366.925,281.861c.032-.079.056-.164.085-.244-.035.1-.067.194-.1.29Zm0,0" transform="translate(-328.547 -279.894)" fill="#fff98e"/>
        <path id="Trazado_995082" data-name="Trazado 995082" d="M93.415,269.35c.01.037.022.073.033.112-.012-.042-.025-.084-.037-.127Zm0,0" transform="translate(-93.41 -269.336)" fill="#fff98e"/>
        <path id="Trazado_995083" data-name="Trazado 995083" d="M370.957,270.748a.061.061,0,0,1,.005-.021c-.01.037-.021.073-.033.112C370.938,270.807,370.95,270.779,370.957,270.748Zm0,0" transform="translate(-332.006 -270.532)" fill="#fff98e"/>
        <path id="Trazado_995084" data-name="Trazado 995084" d="M127.906,330.777c.2.214.4.428.608.632.292.28.595.549.9.819a17.374,17.374,0,0,0,1.941,1.481V333.7a20.442,20.442,0,0,1-3.447-2.921Zm0,0" transform="translate(-123.068 -322.159)" fill="#fff98e"/>
        <path id="Trazado_995085" data-name="Trazado 995085" d="M102.565,294.029c.021.046.049.087.072.133-.031-.065-.067-.128-.1-.193C102.55,293.989,102.555,294.009,102.565,294.029Zm0,0" transform="translate(-101.259 -290.513)" fill="#fff98e"/>
        <path id="Trazado_995086" data-name="Trazado 995086" d="M97.624,282.36l.011.028c-.026-.067-.048-.137-.073-.2C97.584,282.242,97.6,282.3,97.624,282.36Zm0,0" transform="translate(-96.98 -280.381)" fill="#fff98e"/>
        <path id="Trazado_995087" data-name="Trazado 995087" d="M108.607,305.224c.048.074.093.145.138.217-.091-.145-.174-.3-.261-.449C108.528,305.07,108.562,305.151,108.607,305.224Zm0,0" transform="translate(-106.37 -299.991)" fill="#fff98e"/>
        <path id="Trazado_995088" data-name="Trazado 995088" d="M100.2,288.709a.244.244,0,0,1,.013.027c-.039-.088-.076-.176-.112-.264C100.131,288.551,100.161,288.631,100.2,288.709Zm0,0" transform="translate(-99.16 -285.788)" fill="#fff98e"/>
        <path id="Trazado_995089" data-name="Trazado 995089" d="M110.685,308.73c.135.2.263.393.4.591-.181-.259-.359-.518-.528-.786C110.607,308.6,110.643,308.668,110.685,308.73Zm0,0" transform="translate(-108.156 -303.037)" fill="#fff98e"/>
        <path id="Trazado_995090" data-name="Trazado 995090" d="M114.842,314.927a.3.3,0,0,0,.04.047c-.038-.053-.074-.106-.112-.157C114.791,314.848,114.811,314.886,114.842,314.927Zm0,0" transform="translate(-111.774 -308.438)" fill="#fff98e"/>
        <path id="Trazado_995091" data-name="Trazado 995091" d="M153.043,352a6.126,6.126,0,0,0,.561.37v-.022C153.413,352.236,153.223,352.112,153.043,352Zm0,0" transform="translate(-144.679 -340.406)" fill="#fff98e"/>
        <path id="Trazado_995092" data-name="Trazado 995092" d="M152.484,351.613a.233.233,0,0,0,.067.045h.011c-.022-.022-.056-.033-.078-.056Zm0,0" transform="translate(-144.198 -340.063)" fill="#fff98e"/>
      </g>
      <path id="Trazado_995093" data-name="Trazado 995093" d="M225.606,8.976a1.122,1.122,0,0,0,1.122-1.122V1.122a1.122,1.122,0,0,0-2.244,0V7.854A1.122,1.122,0,0,0,225.606,8.976Zm0,0" transform="translate(-192.582)" fill="#231f20"/>
      <path id="Trazado_995094" data-name="Trazado 995094" d="M115.977,37.454a1.122,1.122,0,1,0,1.943-1.122L114.554,30.5a1.122,1.122,0,1,0-1.943,1.122Zm0,0" transform="translate(-96.267 -25.732)" fill="#231f20"/>
      <path id="Trazado_995095" data-name="Trazado 995095" d="M31.091,114.116l5.834,3.366a1.122,1.122,0,0,0,1.122-1.944l-5.834-3.366a1.122,1.122,0,0,0-1.122,1.944Zm0,0" transform="translate(-25.837 -96.313)" fill="#231f20"/>
      <path id="Trazado_995096" data-name="Trazado 995096" d="M9.461,225.122A1.122,1.122,0,0,0,8.339,224H1.606a1.122,1.122,0,0,0,0,2.244H8.339A1.122,1.122,0,0,0,9.461,225.122Zm0,0" transform="translate(0 -192.583)" fill="#231f20"/>
      <path id="Trazado_995097" data-name="Trazado 995097" d="M36.816,312.127l-5.834,3.366a1.122,1.122,0,1,0,1.122,1.944l5.834-3.366a1.122,1.122,0,1,0-1.122-1.944Zm0,0" transform="translate(-25.732 -268.217)" fill="#231f20"/>
      <path id="Trazado_995098" data-name="Trazado 995098" d="M384.353,315.493l-5.835-3.366a1.122,1.122,0,1,0-1.122,1.944l5.835,3.366a1.122,1.122,0,0,0,1.122-1.944Zm0,0" transform="translate(-323.559 -268.217)" fill="#231f20"/>
      <path id="Trazado_995099" data-name="Trazado 995099" d="M408.338,224h-6.732a1.122,1.122,0,0,0,0,2.244h6.732a1.122,1.122,0,0,0,0-2.244Zm0,0" transform="translate(-343.897 -192.583)" fill="#231f20"/>
      <path id="Trazado_995100" data-name="Trazado 995100" d="M378.036,117.632a1.125,1.125,0,0,0,.561-.15l5.835-3.366a1.122,1.122,0,0,0-1.122-1.944l-5.835,3.366a1.122,1.122,0,0,0,.561,2.094Zm0,0" transform="translate(-323.633 -96.313)" fill="#231f20"/>
      <path id="Trazado_995101" data-name="Trazado 995101" d="M313.043,37.865a1.121,1.121,0,0,0,1.532-.411l3.366-5.834A1.122,1.122,0,1,0,316,30.5l-3.366,5.834a1.122,1.122,0,0,0,.411,1.533Zm0,0" transform="translate(-268.238 -25.732)" fill="#231f20"/>
      <path id="Trazado_995102" data-name="Trazado 995102" d="M113.606,129.953a1.122,1.122,0,0,0,1.122-1.122,14.6,14.6,0,0,1,14.587-14.587,1.122,1.122,0,1,0,0-2.244,16.85,16.85,0,0,0-16.831,16.831A1.122,1.122,0,0,0,113.606,129.953Zm0,0" transform="translate(-96.291 -96.291)" fill="#231f20"/>
      <path id="Trazado_995103" data-name="Trazado 995103" d="M181.037,444.488A10.081,10.081,0,0,0,189.43,440H172.644a10.08,10.08,0,0,0,8.393,4.488Zm0,0" transform="translate(-148.013 -378.287)" fill="#544028"/>
      <path id="Trazado_995104" data-name="Trazado 995104" d="M160.484,384h20.2v2.244h-20.2Zm0,0" transform="translate(-137.559 -330.141)" fill="#64513a"/>
      <path id="Trazado_995105" data-name="Trazado 995105" d="M160.484,352h20.2v2.244h-20.2Zm0,0" transform="translate(-137.559 -302.63)" fill="#64513a"/>
      <path id="Trazado_995106" data-name="Trazado 995106" d="M122.336,106.783v-.006c.036-.112.068-.233.1-.343.041-.155.074-.311.112-.467s.074-.312.1-.437a21.319,21.319,0,1,0-42.156-4.464c0,.5.021,1,.056,1.488.018.272.045.55.078.84.063.572.144,1.14.253,1.7.009.046.013.093.025.139.049.257.112.506.172.756.035.145.068.289.105.433.017.061.026.112.045.182.045.167.1.325.147.489.053.182.1.363.162.543l.007.021c.1.327.215.644.353,1,.026.068.053.136.079.2a1.427,1.427,0,0,0,.1.243l.006.013c.075.2.162.4.25.585l.015.028c.056.127.112.252.173.379.028.062.055.132.083.19a19.39,19.39,0,0,0,1,1.847l.1.166c.067.112.136.225.2.32l.138.2c.067.1.137.2.205.3.049.072.1.144.146.214.025.041.048.08.079.123s.049.062.074.094c.044.06.089.112.133.171.184.249.37.5.561.737l.014.018c.036.043.073.083.112.126.225.271.449.541.69.8h.005c.2.225.412.436.623.649.067.066.129.137.2.2.029.028.055.06.084.088.3.292.617.571.928.847a18.377,18.377,0,0,0,1.86,1.432,1.129,1.129,0,0,0,.425.3l.439,3.268a1.038,1.038,0,0,0-.031.183,1.105,1.105,0,0,0,.127.495l.826,6.14a1.087,1.087,0,0,0,.087.306,9.624,9.624,0,0,0,.855,1.535v.008l.009.01a11.21,11.21,0,0,0,18.62,0l.009-.01.005-.008a9.583,9.583,0,0,0,.855-1.535,1.087,1.087,0,0,0,.087-.306l1.357-10.086a1.1,1.1,0,0,0,.224-.1,21.334,21.334,0,0,0,8.678-12.006.067.067,0,0,0,.017-.041ZM101.8,81.992a19.1,19.1,0,0,1,19.075,19.075c0,.407-.01.816-.043,1.234-.021.346-.053.68-.094,1.016v.026a1.341,1.341,0,0,0-.028.186v.022c-.007.034-.012.067-.016.1s-.007.056-.01.086a.739.739,0,0,1-.014.1c-.025.174-.05.346-.081.519-.015.078-.026.151-.045.24-.018.119-.046.247-.088.438v.02c-.028.134-.058.269-.089.4-.011.045-.019.083-.032.134a5.55,5.55,0,0,1-.141.546c-.021.079-.045.159-.067.239-.055.2-.112.4-.188.619-.092.287-.183.574-.3.849l-.044.112q-.079.219-.179.428a.977.977,0,0,0-.062.151l-.022.05c-.1.251-.211.491-.354.785-.081.182-.171.353-.26.525l-.136.268a19.017,19.017,0,0,1-5.983,6.63,1.018,1.018,0,0,0-.178-.02h-6.137v-9.432l.09.064a1.122,1.122,0,0,0,1.309,0l2.621-1.883A1.122,1.122,0,1,0,109,103.7l-1.968,1.412-1.967-1.412a1.122,1.122,0,0,0-1.311,0l-1.961,1.411L99.835,103.7a1.123,1.123,0,0,0-1.312,0l-1.96,1.411L94.605,103.7a1.122,1.122,0,0,0-1.313,1.821l2.614,1.884a1.123,1.123,0,0,0,1.312,0l.1-.07v9.438H91.177a1.235,1.235,0,0,0-.142.01,19.212,19.212,0,0,1-3.316-2.878c-.214-.233-.422-.48-.631-.733-.038-.046-.079-.091-.118-.138-.19-.225-.363-.462-.536-.7-.066-.09-.137-.176-.2-.267v-.007c-.009-.013-.017-.026-.026-.037l-.037-.055c-.029-.038-.053-.077-.081-.112-.262-.38-.505-.77-.739-1.166-.225-.377-.427-.756-.616-1.14-.076-.149-.153-.3-.225-.449-.021-.053-.047-.112-.061-.145l-.055-.112-.014-.027v-.006a18.754,18.754,0,0,1-.721-1.873c-.02-.06-.039-.124-.06-.186-.1-.327-.2-.656-.283-.991a.256.256,0,0,0-.014-.053,1.225,1.225,0,0,0-.027-.134c-.02-.076-.035-.156-.053-.232-.054-.233-.112-.466-.155-.7a.466.466,0,0,0-.01-.077c-.06-.306-.112-.624-.15-.942a.872.872,0,0,0-.027-.206.8.8,0,0,0-.014-.1c-.042-.336-.072-.664-.094-1.027-.036-.407-.046-.816-.046-1.223A19.1,19.1,0,0,1,101.8,81.992Zm8.065,46.565c-.089.191-.186.378-.291.561H94.028c-.1-.182-.2-.369-.29-.561l-.679-5.049h17.488Zm.911-7.293H92.757l-.3-2.244h18.7l-.3,2.258c-.024,0-.044-.014-.067-.014ZM99.559,106.269l1.581,1.138a1.122,1.122,0,0,0,1.312,0l1.6-1.149v10.517H99.559Zm-3.683,25.093h11.853A8.949,8.949,0,0,1,95.876,131.362Zm0,0" transform="translate(-68.779 -68.527)" fill="#231f20"/>
    </g>
  </g>
</svg>
