<svg xmlns="http://www.w3.org/2000/svg" xmlns:xlink="http://www.w3.org/1999/xlink" width="108" height="108" viewBox="0 0 108 108">
  <defs>
    <filter id="Trazado_982547" x="0" y="0" width="108" height="108" filterUnits="userSpaceOnUse">
      <feOffset dy="3" input="SourceAlpha"/>
      <feGaussianBlur stdDeviation="3" result="blur"/>
      <feFlood flood-opacity="0.161"/>
      <feComposite operator="in" in2="blur"/>
      <feComposite in="SourceGraphic"/>
    </filter>
  </defs>
  <g id="Grupo_1162679" data-name="Grupo 1162679" transform="translate(-173 -822)">
    <g id="Grupo_1160956" data-name="Grupo 1160956" transform="translate(0 -5690)">
      <g id="Grupo_1159770" data-name="Grupo 1159770" transform="translate(12 5060)">
        <g id="Grupo_1153117" data-name="Grupo 1153117" transform="translate(-93 939)">
          <g id="Grupo_1149598" data-name="Grupo 1149598" transform="translate(80 315)">
            <g id="Grupo_1148770" data-name="Grupo 1148770" transform="translate(-27 -2583)">
              <g id="Grupo_1146954" data-name="Grupo 1146954" transform="translate(-415 -1202)">
                <g transform="matrix(1, 0, 0, 1, 616, 3983)" filter="url(#Trazado_982547)">
                  <g id="Trazado_982547-2" data-name="Trazado 982547" transform="translate(9 6)" fill="#fef2ec">
                    <path d="M 45 88.5 C 39.12687683105469 88.5 33.43022537231445 87.35007476806641 28.06830024719238 85.08217620849609 C 22.88852500915527 82.89131164550781 18.23629951477051 79.75458526611328 14.2408504486084 75.75914764404297 C 10.24541282653809 71.76370239257812 7.108687400817871 67.11147308349609 4.917825222015381 61.93170166015625 C 2.649924993515015 56.56977462768555 1.5 50.87312316894531 1.5 45 C 1.5 39.12687683105469 2.649924993515015 33.43022537231445 4.917825222015381 28.06830024719238 C 7.108687400817871 22.88852500915527 10.24541282653809 18.23629951477051 14.2408504486084 14.2408504486084 C 18.23629951477051 10.24541282653809 22.88852500915527 7.108687400817871 28.06830024719238 4.917825222015381 C 33.43022537231445 2.649924993515015 39.12687683105469 1.5 45 1.5 C 50.87312316894531 1.5 56.56977462768555 2.649924993515015 61.93170166015625 4.917825222015381 C 67.11147308349609 7.108687400817871 71.76370239257812 10.24541282653809 75.75914764404297 14.2408504486084 C 79.75458526611328 18.23629951477051 82.89131164550781 22.88852500915527 85.08217620849609 28.06830024719238 C 87.35007476806641 33.43022537231445 88.5 39.12687683105469 88.5 45 C 88.5 50.87312316894531 87.35007476806641 56.56977462768555 85.08217620849609 61.93170166015625 C 82.89131164550781 67.11147308349609 79.75458526611328 71.76370239257812 75.75914764404297 75.75914764404297 C 71.76370239257812 79.75458526611328 67.11147308349609 82.89131164550781 61.93170166015625 85.08217620849609 C 56.56977462768555 87.35007476806641 50.87312316894531 88.5 45 88.5 Z" stroke="none"/>
                    <path d="M 45 3 C 39.32871246337891 3 33.82865524291992 4.110054016113281 28.65262985229492 6.299339294433594 C 23.65165710449219 8.414573669433594 19.15968322753906 11.44334411621094 15.301513671875 15.301513671875 C 11.44334411621094 19.15968322753906 8.414573669433594 23.65165710449219 6.299339294433594 28.65262985229492 C 4.110054016113281 33.82865524291992 3 39.32871246337891 3 45 C 3 50.67128753662109 4.110054016113281 56.17134475708008 6.299339294433594 61.34737396240234 C 8.414573669433594 66.34834289550781 11.44334411621094 70.84031677246094 15.301513671875 74.698486328125 C 19.15968322753906 78.55665588378906 23.65165710449219 81.58542633056641 28.65262985229492 83.70066070556641 C 33.82865524291992 85.88994598388672 39.32871246337891 87 45 87 C 50.67128753662109 87 56.17134475708008 85.88994598388672 61.34737396240234 83.70066070556641 C 66.34834289550781 81.58542633056641 70.84031677246094 78.55665588378906 74.698486328125 74.698486328125 C 78.55665588378906 70.84031677246094 81.58542633056641 66.34834289550781 83.70066070556641 61.34737396240234 C 85.88994598388672 56.17134475708008 87 50.67128753662109 87 45 C 87 39.32871246337891 85.88994598388672 33.82865524291992 83.70066070556641 28.65262985229492 C 81.58542633056641 23.65165710449219 78.55665588378906 19.15968322753906 74.698486328125 15.301513671875 C 70.84031677246094 11.44334411621094 66.34834289550781 8.414573669433594 61.34737396240234 6.299339294433594 C 56.17134475708008 4.110054016113281 50.67128753662109 3 45 3 M 45 0 C 69.85281372070312 0 90 20.14718627929688 90 45 C 90 69.85281372070312 69.85281372070312 90 45 90 C 20.14718627929688 90 0 69.85281372070312 0 45 C 0 20.14718627929688 20.14718627929688 0 45 0 Z" stroke="none" fill="#8a4a2d"/>
                  </g>
                </g>
              </g>
            </g>
          </g>
        </g>
      </g>
    </g>
    <g id="globalizacion" transform="translate(195 841)">
      <g id="Grupo_1162645" data-name="Grupo 1162645">
        <circle id="Elipse_11769" data-name="Elipse 11769" cx="30" cy="30" r="30" transform="translate(2 2)" fill="#3d98f7"/>
      </g>
      <g id="Grupo_1162646" data-name="Grupo 1162646">
        <path id="Trazado_996621" data-name="Trazado 996621" d="M33.036,7.036l1.929,1.929A3.534,3.534,0,0,1,36,11.464,3.536,3.536,0,0,0,39.536,15a3.531,3.531,0,0,1,2.5,1.036l2.929,2.929A3.536,3.536,0,0,1,46,21.465v1.071a3.531,3.531,0,0,0,1.036,2.5l1.929,1.929A3.536,3.536,0,0,0,51.466,28h2.071a3.531,3.531,0,0,0,2.5-1.036l.929-.929A3.536,3.536,0,0,1,59.466,25h1.706A30.009,30.009,0,0,0,32,2V4.536a3.535,3.535,0,0,0,1.036,2.5Z" fill="#78b75b"/>
      </g>
      <g id="Grupo_1162647" data-name="Grupo 1162647">
        <path id="Trazado_996622" data-name="Trazado 996622" d="M13.414,24.414A4.828,4.828,0,0,1,12,21V20a4.828,4.828,0,0,0-1.414-3.414L8,14a29.984,29.984,0,0,0-.418,35.418l0,0A4.828,4.828,0,0,0,9,46a4.828,4.828,0,0,1,1.414-3.414l1.172-1.172A4.828,4.828,0,0,0,13,38V37a4.828,4.828,0,0,1,1.414-3.414l.172-.172A4.828,4.828,0,0,0,16,30V29a4.828,4.828,0,0,0-1.414-3.414Z" fill="#78b75b"/>
      </g>
      <g id="Grupo_1162648" data-name="Grupo 1162648">
        <circle id="Elipse_11770" data-name="Elipse 11770" cx="3" cy="3" r="3" transform="translate(5 28)" fill="#fff"/>
      </g>
      <g id="Grupo_1162649" data-name="Grupo 1162649">
        <circle id="Elipse_11771" data-name="Elipse 11771" cx="3" cy="3" r="3" transform="translate(20 9)" fill="#fff"/>
      </g>
      <g id="Grupo_1162650" data-name="Grupo 1162650">
        <circle id="Elipse_11772" data-name="Elipse 11772" cx="3" cy="3" r="3" transform="translate(25 30)" fill="#fff"/>
      </g>
      <g id="Grupo_1162651" data-name="Grupo 1162651">
        <circle id="Elipse_11773" data-name="Elipse 11773" cx="3" cy="3" r="3" transform="translate(20 46)" fill="#fff"/>
      </g>
      <g id="Grupo_1162652" data-name="Grupo 1162652">
        <circle id="Elipse_11774" data-name="Elipse 11774" cx="3" cy="3" r="3" transform="translate(43 33)" fill="#fff"/>
      </g>
      <g id="Grupo_1162653" data-name="Grupo 1162653">
        <circle id="Elipse_11775" data-name="Elipse 11775" cx="3" cy="3" r="3" transform="translate(48 15)" fill="#fff"/>
      </g>
      <g id="Grupo_1162654" data-name="Grupo 1162654">
        <path id="Trazado_996623" data-name="Trazado 996623" d="M32,62A29.981,29.981,0,0,0,57.985,46.985l-2.217-2.217a6.036,6.036,0,0,0-8.536,0l-2.464,2.464A6.036,6.036,0,0,1,40.5,49a6.036,6.036,0,0,0-4.268,1.768l-.464.464A6.036,6.036,0,0,0,34,55.5a6.036,6.036,0,0,1-1.768,4.268l-2.164,2.164c.64.04,1.282.068,1.932.068Z" fill="#78b75b"/>
      </g>
      <g id="Grupo_1162655" data-name="Grupo 1162655">
        <path id="Trazado_996624" data-name="Trazado 996624" d="M32,63A31,31,0,1,1,63,32,31.034,31.034,0,0,1,32,63ZM32,3A29,29,0,1,0,61,32,29.033,29.033,0,0,0,32,3Z"/>
      </g>
      <g id="Grupo_1162656" data-name="Grupo 1162656">
        <path id="Trazado_996625" data-name="Trazado 996625" d="M53.535,29h-2.07a4.5,4.5,0,0,1-3.207-1.329l-1.93-1.928A4.508,4.508,0,0,1,45,22.536V21.465a2.521,2.521,0,0,0-.742-1.793l-2.93-2.929A2.52,2.52,0,0,0,39.535,16,4.54,4.54,0,0,1,35,11.464a2.521,2.521,0,0,0-.742-1.793l-1.93-1.928A4.508,4.508,0,0,1,31,4.536V2h2V4.536a2.521,2.521,0,0,0,.742,1.793l1.93,1.928A4.508,4.508,0,0,1,37,11.464,2.539,2.539,0,0,0,39.535,14a4.5,4.5,0,0,1,3.207,1.329l2.93,2.929A4.5,4.5,0,0,1,47,21.464v1.071a2.521,2.521,0,0,0,.742,1.793l1.93,1.928A2.517,2.517,0,0,0,51.465,27h2.07a2.521,2.521,0,0,0,1.793-.743l.93-.929A4.508,4.508,0,0,1,59.465,24H61v2H59.465a2.521,2.521,0,0,0-1.793.743l-.93.929A4.508,4.508,0,0,1,53.535,29Z"/>
      </g>
      <g id="Grupo_1162657" data-name="Grupo 1162657">
        <path id="Trazado_996626" data-name="Trazado 996626" d="M30.707,62.707l-1.414-1.414,2.232-2.232A5,5,0,0,0,33,55.5a6.986,6.986,0,0,1,2.061-4.975l.465-.465A6.985,6.985,0,0,1,40.5,48a5,5,0,0,0,3.561-1.475l2.465-2.465a7.035,7.035,0,0,1,9.949,0l2.232,2.232-1.414,1.414-2.232-2.232a5.036,5.036,0,0,0-7.122,0L45.474,47.94A6.985,6.985,0,0,1,40.5,50a5,5,0,0,0-3.561,1.475l-.465.465A5,5,0,0,0,35,55.5a6.986,6.986,0,0,1-2.061,4.975Z"/>
      </g>
      <g id="Grupo_1162658" data-name="Grupo 1162658">
        <path id="Trazado_996627" data-name="Trazado 996627" d="M8.207,50.207,6.793,48.793l.086-.086A3.853,3.853,0,0,0,8,46a5.868,5.868,0,0,1,1.707-4.121l1.172-1.172A3.853,3.853,0,0,0,12,38V37a5.868,5.868,0,0,1,1.707-4.121l.172-.172A3.8,3.8,0,0,0,15,30V29a3.8,3.8,0,0,0-1.121-2.707l-1.172-1.172A5.787,5.787,0,0,1,11,21V20a3.8,3.8,0,0,0-1.121-2.707L7.293,14.707l1.414-1.414,2.586,2.586A5.787,5.787,0,0,1,13,20v1a3.8,3.8,0,0,0,1.121,2.707l1.172,1.172A5.787,5.787,0,0,1,17,29v1a5.787,5.787,0,0,1-1.707,4.121l-.172.172A3.853,3.853,0,0,0,14,37v1a5.868,5.868,0,0,1-1.707,4.121l-1.172,1.172A3.853,3.853,0,0,0,10,46a5.868,5.868,0,0,1-1.707,4.121Z"/>
      </g>
      <g id="Grupo_1162659" data-name="Grupo 1162659">
        <path id="Trazado_996628" data-name="Trazado 996628" d="M8,35a4,4,0,1,1,4-4A4,4,0,0,1,8,35Zm0-6a2,2,0,1,0,2,2A2,2,0,0,0,8,29Z"/>
      </g>
      <g id="Grupo_1162660" data-name="Grupo 1162660">
        <path id="Trazado_996629" data-name="Trazado 996629" d="M23,16a4,4,0,1,1,4-4A4,4,0,0,1,23,16Zm0-6a2,2,0,1,0,2,2A2,2,0,0,0,23,10Z"/>
      </g>
      <g id="Grupo_1162661" data-name="Grupo 1162661">
        <path id="Trazado_996630" data-name="Trazado 996630" d="M28,37a4,4,0,1,1,4-4A4,4,0,0,1,28,37Zm0-6a2,2,0,1,0,2,2A2,2,0,0,0,28,31Z"/>
      </g>
      <g id="Grupo_1162662" data-name="Grupo 1162662">
        <path id="Trazado_996631" data-name="Trazado 996631" d="M23,53a4,4,0,1,1,4-4A4,4,0,0,1,23,53Zm0-6a2,2,0,1,0,2,2A2,2,0,0,0,23,47Z"/>
      </g>
      <g id="Grupo_1162663" data-name="Grupo 1162663">
        <path id="Trazado_996632" data-name="Trazado 996632" d="M46,40a4,4,0,1,1,4-4A4,4,0,0,1,46,40Zm0-6a2,2,0,1,0,2,2A2,2,0,0,0,46,34Z"/>
      </g>
      <g id="Grupo_1162664" data-name="Grupo 1162664">
        <path id="Trazado_996633" data-name="Trazado 996633" d="M51,22a4,4,0,1,1,4-4A4,4,0,0,1,51,22Zm0-6a2,2,0,1,0,2,2A2,2,0,0,0,51,16Z"/>
      </g>
      <g id="Grupo_1162665" data-name="Grupo 1162665">
        <path id="Trazado_996634" data-name="Trazado 996634" d="M6.6,20H24.4v2H6.6Z" transform="translate(-10.589 20.214) rotate(-51.823)"/>
      </g>
      <g id="Grupo_1162666" data-name="Grupo 1162666">
        <path id="Trazado_996635" data-name="Trazado 996635" d="M24.5,14.851h2v15.3h-2Z" transform="matrix(0.981, -0.196, 0.196, 0.981, -3.917, 5.438)"/>
      </g>
      <g id="Grupo_1162667" data-name="Grupo 1162667">
        <path id="Trazado_996636" data-name="Trazado 996636" d="M19.615,40h10.77v2H19.615Z" transform="translate(-22.349 49.002) rotate(-68.23)"/>
      </g>
      <g id="Grupo_1162668" data-name="Grupo 1162668">
        <path id="Trazado_996637" data-name="Trazado 996637" d="M36,28.315h2V40.684H36Z" transform="translate(-5.444 62.028) rotate(-75.936)"/>
      </g>
      <g id="Grupo_1162669" data-name="Grupo 1162669">
        <path id="Trazado_996638" data-name="Trazado 996638" d="M41.675,26H54.324v2H41.675Z" transform="translate(7.195 63.986) rotate(-71.529)"/>
      </g>
      <g id="Grupo_1162670" data-name="Grupo 1162670">
        <path id="Trazado_996639" data-name="Trazado 996639" d="M17,24.929h2V39.071H17Z" transform="translate(-16.224 45.293) rotate(-81.837)"/>
      </g>
      <g id="Grupo_1162671" data-name="Grupo 1162671">
        <path id="Trazado_996640" data-name="Trazado 996640" d="M13.5,32.1h2V49.9h-2Z" transform="translate(-22.232 17.719) rotate(-38.177)"/>
      </g>
      <g id="Grupo_1162672" data-name="Grupo 1162672">
        <path id="Trazado_996641" data-name="Trazado 996641" d="M24.452,42.5H45.547v2H24.452Z" transform="translate(-17.546 24.628) rotate(-31.416)"/>
      </g>
      <g id="Grupo_1162673" data-name="Grupo 1162673">
        <path id="Trazado_996642" data-name="Trazado 996642" d="M34,9.858h2V38.142H34Z" transform="translate(-6.719 31.778) rotate(-45)"/>
      </g>
      <g id="Grupo_1162674" data-name="Grupo 1162674">
        <path id="Trazado_996643" data-name="Trazado 996643" d="M18.469,55h8.062v2H18.469Z" transform="translate(-35.858 71.38) rotate(-82.875)"/>
      </g>
      <g id="Grupo_1162675" data-name="Grupo 1162675">
        <path id="Trazado_996644" data-name="Trazado 996644" d="M2,30H5v2H2Z"/>
      </g>
      <g id="Grupo_1162676" data-name="Grupo 1162676">
        <path id="Trazado_996645" data-name="Trazado 996645" d="M22,3h2V9H22Z"/>
      </g>
      <g id="Grupo_1162677" data-name="Grupo 1162677">
        <path id="Trazado_996646" data-name="Trazado 996646" d="M49,35H62v2H49Z"/>
      </g>
      <g id="Grupo_1162678" data-name="Grupo 1162678">
        <path id="Trazado_996647" data-name="Trazado 996647" d="M49.307,11.5h5.385v2H49.307Z" transform="translate(21.078 56.136) rotate(-68.156)"/>
      </g>
    </g>
  </g>
</svg>
