<svg xmlns="http://www.w3.org/2000/svg" xmlns:xlink="http://www.w3.org/1999/xlink" width="108" height="108" viewBox="0 0 108 108">
  <defs>
    <filter id="Trazado_982547" x="0" y="0" width="108" height="108" filterUnits="userSpaceOnUse">
      <feOffset dy="3" input="SourceAlpha"/>
      <feGaussianBlur stdDeviation="3" result="blur"/>
      <feFlood flood-opacity="0.161"/>
      <feComposite operator="in" in2="blur"/>
      <feComposite in="SourceGraphic"/>
    </filter>
  </defs>
  <g id="Grupo_1162700" data-name="Grupo 1162700" transform="translate(-202 -308)">
    <g id="Grupo_1161114" data-name="Grupo 1161114" transform="translate(29 -6204)">
      <g id="Grupo_1159770" data-name="Grupo 1159770" transform="translate(12 5060)">
        <g id="Grupo_1153117" data-name="Grupo 1153117" transform="translate(-93 939)">
          <g id="Grupo_1149598" data-name="Grupo 1149598" transform="translate(80 315)">
            <g id="Grupo_1148770" data-name="Grupo 1148770" transform="translate(-27 -2583)">
              <g id="Grupo_1146954" data-name="Grupo 1146954" transform="translate(-415 -1202)">
                <g transform="matrix(1, 0, 0, 1, 616, 3983)" filter="url(#Trazado_982547)">
                  <g id="Trazado_982547-2" data-name="Trazado 982547" transform="translate(9 6)" fill="#fff9ee">
                    <path d="M 45 88.5 C 39.12687683105469 88.5 33.43022537231445 87.35007476806641 28.06830024719238 85.08217620849609 C 22.88852500915527 82.89131164550781 18.23629951477051 79.75458526611328 14.2408504486084 75.75914764404297 C 10.24541282653809 71.76370239257812 7.108687400817871 67.11147308349609 4.917825222015381 61.93170166015625 C 2.649924993515015 56.56977462768555 1.5 50.87312316894531 1.5 45 C 1.5 39.12687683105469 2.649924993515015 33.43022537231445 4.917825222015381 28.06830024719238 C 7.108687400817871 22.88852500915527 10.24541282653809 18.23629951477051 14.2408504486084 14.2408504486084 C 18.23629951477051 10.24541282653809 22.88852500915527 7.108687400817871 28.06830024719238 4.917825222015381 C 33.43022537231445 2.649924993515015 39.12687683105469 1.5 45 1.5 C 50.87312316894531 1.5 56.56977462768555 2.649924993515015 61.93170166015625 4.917825222015381 C 67.11147308349609 7.108687400817871 71.76370239257812 10.24541282653809 75.75914764404297 14.2408504486084 C 79.75458526611328 18.23629951477051 82.89131164550781 22.88852500915527 85.08217620849609 28.06830024719238 C 87.35007476806641 33.43022537231445 88.5 39.12687683105469 88.5 45 C 88.5 50.87312316894531 87.35007476806641 56.56977462768555 85.08217620849609 61.93170166015625 C 82.89131164550781 67.11147308349609 79.75458526611328 71.76370239257812 75.75914764404297 75.75914764404297 C 71.76370239257812 79.75458526611328 67.11147308349609 82.89131164550781 61.93170166015625 85.08217620849609 C 56.56977462768555 87.35007476806641 50.87312316894531 88.5 45 88.5 Z" stroke="none"/>
                    <path d="M 45 3 C 39.32871246337891 3 33.82865524291992 4.110054016113281 28.65262985229492 6.299339294433594 C 23.65165710449219 8.414573669433594 19.15968322753906 11.44334411621094 15.301513671875 15.301513671875 C 11.44334411621094 19.15968322753906 8.414573669433594 23.65165710449219 6.299339294433594 28.65262985229492 C 4.110054016113281 33.82865524291992 3 39.32871246337891 3 45 C 3 50.67128753662109 4.110054016113281 56.17134475708008 6.299339294433594 61.34737396240234 C 8.414573669433594 66.34834289550781 11.44334411621094 70.84031677246094 15.301513671875 74.698486328125 C 19.15968322753906 78.55665588378906 23.65165710449219 81.58542633056641 28.65262985229492 83.70066070556641 C 33.82865524291992 85.88994598388672 39.32871246337891 87 45 87 C 50.67128753662109 87 56.17134475708008 85.88994598388672 61.34737396240234 83.70066070556641 C 66.34834289550781 81.58542633056641 70.84031677246094 78.55665588378906 74.698486328125 74.698486328125 C 78.55665588378906 70.84031677246094 81.58542633056641 66.34834289550781 83.70066070556641 61.34737396240234 C 85.88994598388672 56.17134475708008 87 50.67128753662109 87 45 C 87 39.32871246337891 85.88994598388672 33.82865524291992 83.70066070556641 28.65262985229492 C 81.58542633056641 23.65165710449219 78.55665588378906 19.15968322753906 74.698486328125 15.301513671875 C 70.84031677246094 11.44334411621094 66.34834289550781 8.414573669433594 61.34737396240234 6.299339294433594 C 56.17134475708008 4.110054016113281 50.67128753662109 3 45 3 M 45 0 C 69.85281372070312 0 90 20.14718627929688 90 45 C 90 69.85281372070312 69.85281372070312 90 45 90 C 20.14718627929688 90 0 69.85281372070312 0 45 C 0 20.14718627929688 20.14718627929688 0 45 0 Z" stroke="none" fill="#ffc965"/>
                  </g>
                </g>
              </g>
            </g>
          </g>
        </g>
      </g>
    </g>
    <g id="marketing_3_" data-name="marketing (3)" transform="translate(227 330)">
      <g id="Grupo_1162698" data-name="Grupo 1162698" transform="translate(0.946 0.946)">
        <g id="Grupo_1162680" data-name="Grupo 1162680" transform="translate(53.001)">
          <path id="Trazado_996648" data-name="Trazado 996648" d="M60.786,1.946V13.3a.949.949,0,0,1-.946.946H57V1.946A.949.949,0,0,1,57.946,1h1.893A.949.949,0,0,1,60.786,1.946Z" transform="translate(-57 -1)" fill="#ff826e"/>
        </g>
        <g id="Grupo_1162681" data-name="Grupo 1162681" transform="translate(46.376 3.786)">
          <path id="Trazado_996649" data-name="Trazado 996649" d="M53.786,5.946v8.518H50V5.946A.949.949,0,0,1,50.946,5h1.893A.949.949,0,0,1,53.786,5.946Z" transform="translate(-50 -5)" fill="#ff826e"/>
        </g>
        <g id="Grupo_1162682" data-name="Grupo 1162682" transform="translate(39.751 7.572)">
          <path id="Trazado_996650" data-name="Trazado 996650" d="M46.786,9.946v4.732H43.946A.949.949,0,0,1,43,13.732V9.946A.949.949,0,0,1,43.946,9h1.893A.949.949,0,0,1,46.786,9.946Z" transform="translate(-43 -9)" fill="#ff826e"/>
        </g>
        <g id="Grupo_1162683" data-name="Grupo 1162683" transform="translate(0 5.679)">
          <path id="Trazado_996651" data-name="Trazado 996651" d="M14.629,10.029A7.572,7.572,0,0,1,8.572,22.143a7.3,7.3,0,0,1-2.461-.416,7.569,7.569,0,1,1,8.518-11.7Z" transform="translate(-1 -7)" fill="#e6e9ed"/>
        </g>
        <g id="Grupo_1162684" data-name="Grupo 1162684" transform="translate(4.732 9.464)">
          <path id="Trazado_996652" data-name="Trazado 996652" d="M11.811,13.357a1.662,1.662,0,0,1,0,2.858L8.243,18.363a1.517,1.517,0,0,1-.757.208A1.482,1.482,0,0,1,6,17.086v-4.6A1.482,1.482,0,0,1,7.486,11a1.517,1.517,0,0,1,.757.208Z" transform="translate(-6 -11)" fill="#ff826e"/>
        </g>
        <g id="Grupo_1162685" data-name="Grupo 1162685" transform="translate(26.5 11.357)">
          <path id="Trazado_996653" data-name="Trazado 996653" d="M32.786,14.893a1.907,1.907,0,0,1-1.893,1.893A1.9,1.9,0,0,1,29,14.893V13h3.786Z" transform="translate(-29 -13)" fill="#aab2bd"/>
        </g>
        <g id="Grupo_1162686" data-name="Grupo 1162686" transform="translate(22.715 0)">
          <path id="Trazado_996654" data-name="Trazado 996654" d="M30.679,12.357H28.786L26.079,8.969A4.884,4.884,0,0,1,25,5.9a3.659,3.659,0,0,1,.028-.454A4.884,4.884,0,0,1,29.9,1h1.552a4.9,4.9,0,0,1,4.874,4.439,3.7,3.7,0,0,1,.028.464,4.884,4.884,0,0,1-1.079,3.066l-2.707,3.388Z" transform="translate(-25 -1)" fill="#ffeaa7"/>
        </g>
        <g id="Grupo_1162687" data-name="Grupo 1162687" transform="translate(26.5 3.786)">
          <circle id="Elipse_11776" data-name="Elipse 11776" cx="1.893" cy="1.893" r="1.893" fill="#fcd770"/>
        </g>
        <g id="Grupo_1162688" data-name="Grupo 1162688" transform="translate(37.858 24.608)">
          <path id="Trazado_996655" data-name="Trazado 996655" d="M42.95,27.483a2.43,2.43,0,0,1,0,4.713L41,32.679V27Z" transform="translate(-41 -27)" fill="#fcd770"/>
        </g>
        <g id="Grupo_1162689" data-name="Grupo 1162689" transform="translate(22.715 32.179)">
          <path id="Trazado_996656" data-name="Trazado 996656" d="M28.786,35v6.625a.949.949,0,0,1-.946.946H25.946A.949.949,0,0,1,25,41.625V35Z" transform="translate(-25 -35)" fill="#969faa"/>
        </g>
        <g id="Grupo_1162690" data-name="Grupo 1162690" transform="translate(22.715 20.822)">
          <path id="Trazado_996657" data-name="Trazado 996657" d="M36.357,23V36.25a6.469,6.469,0,0,0-4.571-1.893H25V24.893h6.786A6.469,6.469,0,0,0,36.357,23Z" transform="translate(-25 -23)" fill="#e6e9ed"/>
        </g>
        <g id="Grupo_1162691" data-name="Grupo 1162691" transform="translate(34.072 18.929)">
          <path id="Trazado_996658" data-name="Trazado 996658" d="M40.786,32.357V37.09a.949.949,0,0,1-.946.946H37.946A.949.949,0,0,1,37,37.09V21.946A.949.949,0,0,1,37.946,21h1.893a.949.949,0,0,1,.946.946V32.357Z" transform="translate(-37 -21)" fill="#ff826e"/>
        </g>
        <g id="Grupo_1162692" data-name="Grupo 1162692" transform="translate(17.036 22.715)">
          <path id="Trazado_996659" data-name="Trazado 996659" d="M24.679,25v9.464h-.946a4.732,4.732,0,0,1,0-9.464Z" transform="translate(-19 -25)" fill="#ff826e"/>
        </g>
        <g id="Grupo_1162693" data-name="Grupo 1162693" transform="translate(47.322 26.5)">
          <path id="Trazado_996660" data-name="Trazado 996660" d="M59.991,32.757l.473,3.814H51l.473-3.814a4.292,4.292,0,0,1,8.518,0Z" transform="translate(-51 -29)" fill="#b4dd7f"/>
        </g>
        <g id="Grupo_1162694" data-name="Grupo 1162694" transform="translate(48.269 18.929)">
          <path id="Trazado_996661" data-name="Trazado 996661" d="M55.786,21a3.81,3.81,0,1,1-.9.114,3.494,3.494,0,0,1,.9-.114Z" transform="translate(-52 -21)" fill="#f0d0b4"/>
        </g>
        <g id="Grupo_1162695" data-name="Grupo 1162695" transform="translate(37.858 39.751)">
          <path id="Trazado_996662" data-name="Trazado 996662" d="M52.689,44.221A7.567,7.567,0,1,1,48.572,43,7.548,7.548,0,0,1,52.689,44.221Z" transform="translate(-41 -43)" fill="#fcd770"/>
        </g>
        <g id="Grupo_1162696" data-name="Grupo 1162696" transform="translate(13.25 45.429)">
          <path id="Trazado_996663" data-name="Trazado 996663" d="M30.143,49.946v5.679a.93.93,0,0,1-.8.928.392.392,0,0,1-.151.019H24.464l-.719,2.868a1.209,1.209,0,0,1-2.347,0l-.719-2.868H15.946A.949.949,0,0,1,15,55.625V49.946A.949.949,0,0,1,15.946,49H29.2A.949.949,0,0,1,30.143,49.946Z" transform="translate(-15 -49)" fill="#e6e9ed"/>
        </g>
        <g id="Grupo_1162697" data-name="Grupo 1162697" transform="translate(0 26.5)">
          <path id="Trazado_996664" data-name="Trazado 996664" d="M8.572,29a7.572,7.572,0,0,1,.085,15.143H8.572A7.566,7.566,0,0,1,4.8,30.013V30A7.564,7.564,0,0,1,8.572,29Z" transform="translate(-1 -29)" fill="#69d6f4"/>
        </g>
      </g>
      <g id="Grupo_1162699" data-name="Grupo 1162699" transform="translate(0)">
        <path id="Trazado_996665" data-name="Trazado 996665" d="M13.518,14.732a2.632,2.632,0,0,0-1.271-2.245L8.678,10.346A2.428,2.428,0,0,0,5,12.429v4.606a2.428,2.428,0,0,0,3.678,2.083l3.569-2.141a2.632,2.632,0,0,0,1.271-2.245Zm-2.245.622L7.7,17.495a.552.552,0,0,1-.811-.459V12.43a.535.535,0,0,1,.811-.46l3.569,2.141a.725.725,0,0,1,0,1.244Z" transform="translate(-0.268 -0.536)"/>
        <path id="Trazado_996666" data-name="Trazado 996666" d="M51.72,41.645a25.372,25.372,0,0,0,2.288-5.681h4.8l-.61-4.879a5.221,5.221,0,0,0-2.31-3.7A4.714,4.714,0,0,0,53,18.929c-.109,0-.211.025-.318.032a25.61,25.61,0,0,0-2.1-3.818h6.2a1.9,1.9,0,0,0,1.893-1.893V1.893A1.9,1.9,0,0,0,56.787,0H54.894A1.9,1.9,0,0,0,53,1.893V13.25h-.946V5.679a1.9,1.9,0,0,0-1.893-1.893H48.269a1.9,1.9,0,0,0-1.893,1.893V13.25h-.946V9.464a1.9,1.9,0,0,0-1.893-1.893h-.823a25.386,25.386,0,0,0-6.876-2.934A5.862,5.862,0,0,0,30.113,0H28.566a5.859,5.859,0,0,0-5.72,4.627,25.263,25.263,0,0,0-8.12,3.755A8.508,8.508,0,1,0,4.9,21.9,25.435,25.435,0,0,0,3.84,27.908,8.505,8.505,0,0,0,8.094,43.515a25.584,25.584,0,0,0,5.156,5.659V53a1.9,1.9,0,0,0,1.893,1.893h3.994l.538,2.151a2.158,2.158,0,0,0,4.187,0l.538-2.15h3.994c.046,0,.089-.01.134-.013.271.009.539.013.812.013a25.341,25.341,0,0,0,9.9-2A8.511,8.511,0,1,0,51.72,41.645ZM54.894,1.893h1.893V13.25H54.894Zm1.423,29.428.344,2.751h-7.32l.344-2.751a3.342,3.342,0,0,1,6.633,0Zm-.477-7.66A2.839,2.839,0,1,1,53,20.822,2.843,2.843,0,0,1,55.84,23.661ZM48.269,5.679h1.893V13.25H48.269ZM41.643,9.464h1.893V13.25H41.643ZM28.566,1.893h1.547A3.958,3.958,0,0,1,33.2,8.324l-2.427,3.033h-.491V9.29a2.839,2.839,0,1,0-1.893,0v2.067H27.9L25.475,8.323a3.957,3.957,0,0,1,3.091-6.43ZM28.393,13.25h1.893V14.2a.946.946,0,1,1-1.893,0Zm0-6.625a.946.946,0,1,1,.946.946A.947.947,0,0,1,28.393,6.625ZM1.893,14.2a6.625,6.625,0,1,1,6.625,6.625A6.633,6.633,0,0,1,1.893,14.2Zm0,20.822a6.583,6.583,0,0,1,.279-1.893H3.967a10,10,0,0,0,0,3.786H2.172a6.583,6.583,0,0,1-.279-1.893Zm3.786,0a8.236,8.236,0,0,1,.228-1.893H11.13a8.288,8.288,0,0,1,.227,1.893,8.236,8.236,0,0,1-.228,1.893H5.907A8.236,8.236,0,0,1,5.679,35.018Zm2.839-6.233.44.44a8.226,8.226,0,0,1,1.473,2.008H6.605a8.226,8.226,0,0,1,1.473-2.008ZM10.431,38.8a8.2,8.2,0,0,1-1.473,2.007l-.44.44-.44-.44A8.2,8.2,0,0,1,6.605,38.8Zm2.084,0h1.432a6.655,6.655,0,0,1-2.716,2.252A9.963,9.963,0,0,0,12.515,38.8Zm2.628-3.786a6.583,6.583,0,0,1-.279,1.893H13.069a10,10,0,0,0,0-3.786h1.794A6.583,6.583,0,0,1,15.143,35.018Zm-2.628-3.786a10,10,0,0,0-1.283-2.252,6.66,6.66,0,0,1,2.715,2.252Zm-7.994,0H3.089A6.658,6.658,0,0,1,5.8,28.981,10,10,0,0,0,4.521,31.233ZM3.089,38.8H4.521a9.963,9.963,0,0,0,1.284,2.252A6.655,6.655,0,0,1,3.089,38.8ZM28.393,53h-5.47l-.9,3.584a.277.277,0,0,1-.516,0L20.614,53h-5.47V47.322h13.25Zm1.893-.028v-5.65a1.9,1.9,0,0,0-1.893-1.893H15.143a1.889,1.889,0,0,0-1.8,1.338,23.658,23.658,0,0,1-3.055-3.419A8.515,8.515,0,1,0,5.8,26.951,23.534,23.534,0,0,1,6.7,22.513,8.5,8.5,0,0,0,15.86,9.9a23.386,23.386,0,0,1,6.919-3.3A5.863,5.863,0,0,0,24,9.506l2.5,3.13V14.2a2.839,2.839,0,0,0,5.679,0V12.636l2.5-3.129A5.859,5.859,0,0,0,35.9,6.62,23.348,23.348,0,0,1,40.165,8.3a1.867,1.867,0,0,0-.415,1.166V13.25a1.9,1.9,0,0,0,1.893,1.893h6.614a23.674,23.674,0,0,1,2.582,4.333,4.686,4.686,0,0,0-.722,7.91,5.218,5.218,0,0,0-2.31,3.7l-.61,4.879h4.849a23.524,23.524,0,0,1-1.926,4.664A8.5,8.5,0,0,0,38.389,51.2a23.64,23.64,0,0,1-8.1,1.773Zm9.464-4.7a6.63,6.63,0,0,1,5.679-6.549v1.817H43.536v2.839a2.843,2.843,0,0,0,2.839,2.839.947.947,0,0,1,.946.946v.946h-.946a.947.947,0,0,1-.946-.946v-.946H43.536v.946a2.835,2.835,0,0,0,1.893,2.665v1.991A6.63,6.63,0,0,1,39.751,48.269Zm7.572,6.549V53h1.893V50.161a2.843,2.843,0,0,0-2.839-2.839.947.947,0,0,1-.946-.946v-.946h.946a.947.947,0,0,1,.946.946v.946h1.893v-.946a2.835,2.835,0,0,0-1.893-2.665V41.719a6.616,6.616,0,0,1,0,13.1Z" transform="translate(0)"/>
        <path id="Trazado_996667" data-name="Trazado 996667" d="M40.715,37.036V33.042l1.232-.308a3.37,3.37,0,0,0,0-6.54l-1.232-.309V21.893A1.9,1.9,0,0,0,38.822,20H36.929a1.9,1.9,0,0,0-1.893,1.893v.529a5.476,5.476,0,0,1-3.623,1.364H23.679a5.679,5.679,0,0,0,0,11.357v5.679a1.9,1.9,0,0,0,1.893,1.893h1.893a1.9,1.9,0,0,0,1.893-1.893V35.143h2.056a5.553,5.553,0,0,1,3.623,1.365v.528a1.9,1.9,0,0,0,1.893,1.893h1.893A1.9,1.9,0,0,0,40.715,37.036ZM19.893,29.464a3.79,3.79,0,0,1,3.786-3.786V33.25A3.79,3.79,0,0,1,19.893,29.464Zm7.572,11.357H25.572V35.143h1.893Zm3.949-7.572H25.572V25.679h5.841a7.36,7.36,0,0,0,3.623-.949v9.478A7.452,7.452,0,0,0,31.413,33.25Zm10.075-5.22a1.478,1.478,0,0,1,0,2.868l-.773.194V27.837Zm-4.559-6.138h1.893l0,15.143H36.929Z" transform="translate(-0.964 -1.071)"/>
        <path id="Trazado_996668" data-name="Trazado 996668" d="M28,29h1.893v1.893H28Z" transform="translate(-1.5 -1.553)"/>
        <path id="Trazado_996669" data-name="Trazado 996669" d="M32,29h1.893v1.893H32Z" transform="translate(-1.714 -1.553)"/>
        <path id="Trazado_996670" data-name="Trazado 996670" d="M18,52h1.893v1.893H18Z" transform="translate(-0.964 -2.785)"/>
        <path id="Trazado_996671" data-name="Trazado 996671" d="M22,52h1.893v1.893H22Z" transform="translate(-1.178 -2.785)"/>
        <path id="Trazado_996672" data-name="Trazado 996672" d="M26,52h1.893v1.893H26Z" transform="translate(-1.392 -2.785)"/>
      </g>
    </g>
  </g>
</svg>
