<svg xmlns="http://www.w3.org/2000/svg" xmlns:xlink="http://www.w3.org/1999/xlink" width="113" height="113" viewBox="0 0 113 113">
  <defs>
    <filter id="Trazado_982547" x="0" y="0" width="113" height="113" filterUnits="userSpaceOnUse">
      <feOffset dy="3" input="SourceAlpha"/>
      <feGaussianBlur stdDeviation="3" result="blur"/>
      <feFlood flood-opacity="0.161"/>
      <feComposite operator="in" in2="blur"/>
      <feComposite in="SourceGraphic"/>
    </filter>
  </defs>
  <g id="Grupo_1162735" data-name="Grupo 1162735" transform="translate(-1163 -5335)">
    <g id="Grupo_1161175" data-name="Grupo 1161175" transform="translate(0 -377)">
      <g id="Grupo_1159769" data-name="Grupo 1159769" transform="translate(0 1505)">
        <g id="Grupo_1158170" data-name="Grupo 1158170" transform="translate(-1 -1314)">
          <g id="Grupo_1152578" data-name="Grupo 1152578" transform="translate(0.046 1205.621)">
            <g id="Grupo_1148635" data-name="Grupo 1148635" transform="translate(908.908 600.047)">
              <g id="Grupo_1148525" data-name="Grupo 1148525" transform="translate(264.046 3721.333)">
                <g transform="matrix(1, 0, 0, 1, -9, -6)" filter="url(#Trazado_982547)">
                  <g id="Trazado_982547-2" data-name="Trazado 982547" transform="translate(9 6)" fill="#fef2ec">
                    <path d="M 47.5 93.5 C 41.28937149047852 93.5 35.26533508300781 92.28397369384766 29.59518623352051 89.88570404052734 C 24.11771965026855 87.56893157958984 19.19813346862793 84.25196075439453 14.97309303283691 80.02691650390625 C 10.74804019927979 75.80186462402344 7.431066513061523 70.88229370117188 5.114293098449707 65.40481567382812 C 2.716026782989502 59.73468017578125 1.5 53.71062850952148 1.5 47.5 C 1.5 41.28937149047852 2.716026782989502 35.26533508300781 5.114293098449707 29.59518623352051 C 7.431066513061523 24.11771965026855 10.74804019927979 19.19813346862793 14.97309303283691 14.97309303283691 C 19.19813346862793 10.74804019927979 24.11771965026855 7.431066513061523 29.59518623352051 5.114293098449707 C 35.26533508300781 2.716026782989502 41.28937149047852 1.5 47.5 1.5 C 53.71062850952148 1.5 59.73468017578125 2.716026782989502 65.40481567382812 5.114293098449707 C 70.88229370117188 7.431066513061523 75.80186462402344 10.74804019927979 80.02691650390625 14.97309303283691 C 84.25196075439453 19.19813346862793 87.56893157958984 24.11771965026855 89.88570404052734 29.59518623352051 C 92.28397369384766 35.26533508300781 93.5 41.28937149047852 93.5 47.5 C 93.5 53.71062850952148 92.28397369384766 59.73468017578125 89.88570404052734 65.40481567382812 C 87.56893157958984 70.88229370117188 84.25196075439453 75.80186462402344 80.02691650390625 80.02691650390625 C 75.80186462402344 84.25196075439453 70.88229370117188 87.56893157958984 65.40481567382812 89.88570404052734 C 59.73468017578125 92.28397369384766 53.71062850952148 93.5 47.5 93.5 Z" stroke="none"/>
                    <path d="M 47.5 3 C 41.49121475219727 3 35.66376876831055 4.176155090332031 30.17950439453125 6.495796203613281 C 24.88084411621094 8.736953735351562 20.12152099609375 11.94598388671875 16.03375244140625 16.03375244140625 C 11.94598388671875 20.12152099609375 8.736953735351562 24.88084411621094 6.495796203613281 30.17950439453125 C 4.176155090332031 35.66376876831055 3 41.49121475219727 3 47.5 C 3 53.50878524780273 4.176155090332031 59.33623123168945 6.495796203613281 64.82049560546875 C 8.736953735351562 70.11915588378906 11.94598388671875 74.87847900390625 16.03375244140625 78.96624755859375 C 20.12152099609375 83.05401611328125 24.88084411621094 86.26304626464844 30.17950439453125 88.50419616699219 C 35.66376876831055 90.82384490966797 41.49121475219727 92 47.5 92 C 53.50878524780273 92 59.33623123168945 90.82384490966797 64.82049560546875 88.50419616699219 C 70.11915588378906 86.26304626464844 74.87847900390625 83.05401611328125 78.96624755859375 78.96624755859375 C 83.05401611328125 74.87847900390625 86.26304626464844 70.11915588378906 88.50419616699219 64.82049560546875 C 90.82384490966797 59.33623123168945 92 53.50878524780273 92 47.5 C 92 41.49121475219727 90.82384490966797 35.66376876831055 88.50419616699219 30.17950439453125 C 86.26304626464844 24.88084411621094 83.05401611328125 20.12152099609375 78.96624755859375 16.03375244140625 C 74.87847900390625 11.94598388671875 70.11915588378906 8.736953735351562 64.82049560546875 6.495796203613281 C 59.33623123168945 4.176155090332031 53.50878524780273 3 47.5 3 M 47.5 0 C 73.7335205078125 0 95 21.2664794921875 95 47.5 C 95 73.7335205078125 73.7335205078125 95 47.5 95 C 21.2664794921875 95 0 73.7335205078125 0 47.5 C 0 21.2664794921875 21.2664794921875 0 47.5 0 Z" stroke="none" fill="#fe8953"/>
                  </g>
                </g>
              </g>
            </g>
          </g>
        </g>
      </g>
    </g>
    <g id="Online-Delivery-Shopping-Browser-Logistic" transform="translate(1187 5356)">
      <path id="Trazado_997109" data-name="Trazado 997109" d="M39,15V39a2.006,2.006,0,0,1-2,2H5a2.006,2.006,0,0,1-2-2V15Z" fill="#5aaae7"/>
      <path id="Trazado_997110" data-name="Trazado 997110" d="M39,16.92V39a2.006,2.006,0,0,1-2,2H13.54C22.21,35.27,31.92,27.26,39,16.92Z" fill="#3d9ae2"/>
      <path id="Trazado_997111" data-name="Trazado 997111" d="M37,7H5A2.006,2.006,0,0,0,3,9v6H39V9a2.006,2.006,0,0,0-2-2Z" fill="#ff5023"/>
      <path id="Trazado_997112" data-name="Trazado 997112" d="M53,49.01a1,1,0,0,1-1-1l.01-3a1,1,0,0,1,1-1h2.37l-3.37-3H48V49H29v5.99a2,2,0,0,0,1.99,2H33V57H56.989v.01h2a2.014,2.014,0,0,0,2.01-2v-6Z" fill="#3d9ae2"/>
      <path id="Trazado_997113" data-name="Trazado 997113" d="M61,49.01H53a1,1,0,0,1-1-1l.01-3a1,1,0,0,1,1-1h2.37Z" fill="#e6e7e8"/>
      <path id="Trazado_997114" data-name="Trazado 997114" d="M53,53.01a3.984,3.984,0,1,1-2.836,1.16A4,4,0,0,1,53,53.01Z" fill="#57565c"/>
      <path id="Trazado_997115" data-name="Trazado 997115" d="M38,52.99a4,4,0,1,1-2.835,1.168A4,4,0,0,1,38,52.99Z" fill="#57565c"/>
      <path id="Trazado_997116" data-name="Trazado 997116" d="M39,31H29V49H48V31Z" fill="#ff9811"/>
      <path id="Trazado_997117" data-name="Trazado 997117" d="M35,17v9a1,1,0,0,0,1,1H48a1,1,0,0,0,1-1V17Z" fill="#00ccb3"/>
      <path id="Trazado_997118" data-name="Trazado 997118" d="M47,11H37l-3,4H50Z" fill="#ed1c24"/>
      <path id="Trazado_997119" data-name="Trazado 997119" d="M23,27l-1.65,7.43A2.007,2.007,0,0,1,19.4,36H12.6a2.007,2.007,0,0,1-1.95-1.57L9,27Z" fill="#3d9ae2"/>
      <path id="Trazado_997120" data-name="Trazado 997120" d="M39,15H34v2a2,2,0,0,0,4,0,2,2,0,0,0,4,0,2,2,0,0,0,4,0,2,2,0,0,0,4,0V15Z" fill="#ff5023"/>
      <path id="Trazado_997121" data-name="Trazado 997121" d="M40,23h4v4H40Z" fill="#e6e7e8"/>
      <path id="Trazado_997122" data-name="Trazado 997122" d="M21,25l-1.65,7.43A2.007,2.007,0,0,1,17.4,34H10.6a2.007,2.007,0,0,1-1.95-1.57L7,25Z" fill="#ff9811"/>
      <path id="Trazado_997123" data-name="Trazado 997123" d="M6,10H8v2H6Z"/>
      <path id="Trazado_997124" data-name="Trazado 997124" d="M10,10h2v2H10Z"/>
      <path id="Trazado_997125" data-name="Trazado 997125" d="M14,10h2v2H14Z"/>
      <path id="Trazado_997126" data-name="Trazado 997126" d="M18,56h8v2H18Z"/>
      <path id="Trazado_997127" data-name="Trazado 997127" d="M14,56h2v2H14Z"/>
      <path id="Trazado_997128" data-name="Trazado 997128" d="M20,52h6v2H20Z"/>
      <path id="Trazado_997129" data-name="Trazado 997129" d="M22,48h4v2H22Z"/>
      <path id="Trazado_997130" data-name="Trazado 997130" d="M16,52h2v2H16Z"/>
      <path id="Trazado_997131" data-name="Trazado 997131" d="M51.995,56.006h2v2h-2Z"/>
      <path id="Trazado_997132" data-name="Trazado 997132" d="M36.995,55.994h2v2h-2Z"/>
      <path id="Trazado_997133" data-name="Trazado 997133" d="M61.665,48.263l-8.99-8a1,1,0,0,0-.665-.253H49V34.474A17.024,17.024,0,0,0,58.8,21.5l1.011,1.2,1.531-1.285L58.771,18.35a1,1,0,0,0-1.409-.123L54.3,20.8l1.285,1.531L56.8,21.309A15.023,15.023,0,0,1,49,32.257V31a1,1,0,0,0-1-1H40V28h8a2,2,0,0,0,2-2V19.22A2.985,2.985,0,0,0,51,17V15a1,1,0,0,0-.2-.6l-3-4A1,1,0,0,0,47,10H40V9a3,3,0,0,0-3-3H34.548a14.973,14.973,0,0,1,22,9.312l1.939-.491A16.984,16.984,0,0,0,31.068,6H5A3,3,0,0,0,2,9V39a3,3,0,0,0,3,3H28V54.99a3,3,0,0,0,2.99,3H33.1a5,5,0,0,0,9.8,0h5.2a5,5,0,0,0,9.794,0h1.1a3.009,3.009,0,0,0,3.01-3v-6a1,1,0,0,0-.339-.727ZM53.008,45.01H55l3.372,3H53ZM47,48H30V32h1.059A16.967,16.967,0,0,0,47,35.247Zm0-14.875A14.863,14.863,0,0,1,34.529,32H47ZM43,26H41V24h2Zm5,0H45V23a1,1,0,0,0-1-1H40a1,1,0,0,0-1,1v3H36V20a2.981,2.981,0,0,0,2-.78,2.954,2.954,0,0,0,4,0,2.954,2.954,0,0,0,4,0A2.981,2.981,0,0,0,48,20Zm0-8a1,1,0,0,1-1-1H45a1,1,0,1,1-2,0H41a1,1,0,1,1-2,0H37a1,1,0,1,1-2,0V16H49v1A1,1,0,0,1,48,18Zm0-4H36l1.5-2h9ZM5,40a1,1,0,0,1-1-1V16H21V14H4V9A1,1,0,0,1,5,8H29.062a16.919,16.919,0,0,0-3.857,8.5L24.2,15.3l-1.532,1.285,2.571,3.065a1,1,0,0,0,.679.353A.844.844,0,0,0,26,20a1,1,0,0,0,.643-.234l3.064-2.572-1.286-1.531L27.2,16.69A14.962,14.962,0,0,1,31.836,8H37a1,1,0,0,1,1,1v1H37a1,1,0,0,0-.8.4l-3,4a1,1,0,0,0-.2.6v2a2.985,2.985,0,0,0,1,2.22V26a2,2,0,0,0,2,2h2v2H31.8a14.945,14.945,0,0,1-4.328-7.249l-1.936.5A16.9,16.9,0,0,0,29.048,30H29a1,1,0,0,0-1,1v9ZM40.114,59.117a3,3,0,1,1,.651-3.269,2.977,2.977,0,0,1-.651,3.269Zm15,.012a3,3,0,1,1,.656-3.269,2.981,2.981,0,0,1-.656,3.269ZM58.99,56.01H57.9a5.01,5.01,0,0,0-4.9-4h0a5.007,5.007,0,0,0-4.9,4h-5.2a5.009,5.009,0,0,0-4.9-4h0a5.008,5.008,0,0,0-4.9,4h-2.1a1,1,0,0,1-.99-1V50H48a1,1,0,0,0,1-1V42.01h2.629l1.15,1.023a2,2,0,0,0-1.771,1.972l-.008,3a2,2,0,0,0,2,2h7v5a1.019,1.019,0,0,1-1.01,1.005Z"/>
      <path id="Trazado_997134" data-name="Trazado 997134" d="M21,24H18.22l.76-3.8-1.96-.4L16.18,24H11.82l-.84-4.2-1.96.4L9.78,24H7a1,1,0,0,0-.976,1.217L7.676,32.65A2.982,2.982,0,0,0,10.6,35h6.8a2.982,2.982,0,0,0,2.928-2.35l1.652-7.433A1,1,0,0,0,21,24Zm-2.628,8.217A.994.994,0,0,1,17.4,33H10.6a.994.994,0,0,1-.976-.783L8.247,26H19.753Z"/>
      <path id="Trazado_997135" data-name="Trazado 997135" d="M11,28h2v3H11Z"/>
      <path id="Trazado_997136" data-name="Trazado 997136" d="M15,28h2v3H15Z"/>
    </g>
  </g>
</svg>
