<svg xmlns="http://www.w3.org/2000/svg" width="82.194" height="83.699" viewBox="0 0 82.194 83.699">
  <g id="target-marketing_16862792" transform="translate(-19.902 -15.6)">
    <g id="Grupo_1161201" data-name="Grupo 1161201" transform="translate(21.475 21.306)">
      <g id="Grupo_1161198" data-name="Grupo 1161198" transform="translate(32.377 0)">
        <path id="Trazado_995173" data-name="Trazado 995173" d="M235.382,48.242a21.269,21.269,0,1,1-21.269,21.269A21.268,21.268,0,0,1,235.382,48.242Z" transform="translate(-214.113 -48.242)" fill="#fe646f" fill-rule="evenodd"/>
        <path id="Trazado_995174" data-name="Trazado 995174" d="M330.784,48.26q.435-.018.874-.018a21.269,21.269,0,0,1,0,42.539q-.439,0-.874-.018a21.27,21.27,0,0,0,0-42.5Z" transform="translate(-310.389 -48.242)" fill="#fd4755" fill-rule="evenodd"/>
      </g>
      <g id="Grupo_1161199" data-name="Grupo 1161199" transform="translate(0 40.278)">
        <path id="Trazado_995175" data-name="Trazado 995175" d="M92.828,422.89,89.5,410.48l-4.677,1.253,2.546,9.5a3.593,3.593,0,0,0,4.394,2.537l.654-.175A.577.577,0,0,0,92.828,422.89Z" transform="translate(-75.05 -387.435)" fill="#8192a5" fill-rule="evenodd"/>
        <path id="Trazado_995176" data-name="Trazado 995176" d="M92.828,422.89,89.5,410.48l-4.677,1.253,4.023-1.078,3.325,12.41a.579.579,0,0,1-.408.706l.654-.175A.577.577,0,0,0,92.828,422.89Z" transform="translate(-75.05 -387.435)" fill="#65788e" fill-rule="evenodd"/>
        <path id="Trazado_995177" data-name="Trazado 995177" d="M206.4,335.6a3.858,3.858,0,0,0-4.724-2.728c-.06.016-.562.151-.622.17l1.995,7.444c.061-.014.564-.145.624-.162A3.858,3.858,0,0,0,206.4,335.6Z" transform="translate(-170.96 -323.288)" fill="#8192a5" fill-rule="evenodd"/>
        <path id="Trazado_995178" data-name="Trazado 995178" d="M206.4,335.6a3.858,3.858,0,0,0-4.724-2.728c-.06.016-.562.151-.622.17l.23.859c.06-.019.561-.156.621-.172a3.86,3.86,0,0,1,4.586,2.306,3.94,3.94,0,0,0-.091-.435Z" transform="translate(-170.96 -323.288)" fill="#65788e" fill-rule="evenodd"/>
        <path id="Trazado_995179" data-name="Trazado 995179" d="M43.746,303.158l-6.627,1.776a6.529,6.529,0,0,1-3.38-12.612l6.627-1.776c5.32-2.667,9.731-7.561,13.581-11.324a1.982,1.982,0,0,1,3.3.9l6.26,23.364A1.982,1.982,0,0,1,61,305.9C55.568,304.2,49.819,302.576,43.746,303.158Z" transform="translate(-28.901 -278.653)" fill="#ffe177" fill-rule="evenodd"/>
        <path id="Trazado_995180" data-name="Trazado 995180" d="M29.458,301.264a6.4,6.4,0,0,1-.336-.949,6.547,6.547,0,0,1,4.617-7.993l6.627-1.776c5.32-2.667,9.731-7.561,13.581-11.324a1.982,1.982,0,0,1,3.3.9l6.262,23.37-5.742-21.43a1.982,1.982,0,0,0-3.3-.9c-3.85,3.763-8.262,8.654-13.582,11.322l-6.627,1.776a6.554,6.554,0,0,0-4.8,7.006Z" transform="translate(-28.901 -278.653)" fill="#ffd064" fill-rule="evenodd"/>
        <path id="Trazado_995181" data-name="Trazado 995181" d="M172.566,303.49l-6.26-23.364a1.982,1.982,0,0,0-3.3-.9c-.632.617-1.28,1.267-1.944,1.932l6.42,23.958c.868.255,1.728.52,2.579.785a1.982,1.982,0,0,0,2.506-2.406Z" transform="translate(-137.958 -278.653)" fill="#fe646f" fill-rule="evenodd"/>
        <path id="Trazado_995182" data-name="Trazado 995182" d="M166.824,282.062l-.519-1.937a1.982,1.982,0,0,0-3.3-.9c-.632.617-1.28,1.267-1.944,1.932l.519,1.937c.665-.663,1.313-1.312,1.945-1.929a1.982,1.982,0,0,1,3.3.9Z" transform="translate(-137.958 -278.653)" fill="#fd4755" fill-rule="evenodd"/>
        <path id="Trazado_995183" data-name="Trazado 995183" d="M43.746,359.3l-3.379-12.612-6.627,1.776a6.529,6.529,0,0,0,3.38,12.612Z" transform="translate(-28.901 -334.795)" fill="#fe646f" fill-rule="evenodd"/>
        <path id="Trazado_995184" data-name="Trazado 995184" d="M40.885,348.625l-.519-1.937-6.627,1.776a6.547,6.547,0,0,0-4.617,7.993,6.4,6.4,0,0,0,.336.949,6.554,6.554,0,0,1,4.8-7.006Z" transform="translate(-28.901 -334.795)" fill="#fd4755" fill-rule="evenodd"/>
      </g>
      <g id="Grupo_1161200" data-name="Grupo 1161200" transform="translate(39.306 6.929)">
        <path id="Trazado_995185" data-name="Trazado 995185" d="M268.092,116.559a14.339,14.339,0,1,1,14.34-14.338A14.367,14.367,0,0,1,268.092,116.559Z" transform="translate(-253.752 -87.881)" fill="#eceff1" fill-rule="evenodd"/>
        <path id="Trazado_995186" data-name="Trazado 995186" d="M256.3,102.221A14.337,14.337,0,0,0,269.367,116.5q-.63.056-1.275.056a14.412,14.412,0,0,1-2.053-.146c-.087-.012-.173-.026-.258-.039a14.341,14.341,0,0,1,2.31-28.494q.645,0,1.275.056A14.34,14.34,0,0,0,256.3,102.221Z" transform="translate(-253.752 -87.881)" fill="#d1d1d6" fill-rule="evenodd"/>
        <path id="Trazado_995187" data-name="Trazado 995187" d="M288.79,177.819a10.018,10.018,0,0,1,9.957,8.937,14.336,14.336,0,0,1-19.912,0A10.014,10.014,0,0,1,288.79,177.819Z" transform="translate(-274.45 -162.097)" fill="#8ac9fe" fill-rule="evenodd"/>
        <path id="Trazado_995188" data-name="Trazado 995188" d="M290.064,177.9c-5.96.757-8.361,5.267-8.914,10.672a14.248,14.248,0,0,1-2.315-1.816,10.014,10.014,0,0,1,9.955-8.937A9.873,9.873,0,0,1,290.064,177.9Z" transform="translate(-274.45 -162.097)" fill="#60b7ff" fill-rule="evenodd"/>
        <path id="Trazado_995189" data-name="Trazado 995189" d="M311.879,130.7a5.062,5.062,0,1,1,5.062-5.062A5.073,5.073,0,0,1,311.879,130.7Z" transform="translate(-297.539 -114.856)" fill="#f6dccd" fill-rule="evenodd"/>
        <path id="Trazado_995190" data-name="Trazado 995190" d="M308.1,125.633a5.064,5.064,0,0,0,4.425,5.023,5.281,5.281,0,0,1-.637.039,5.062,5.062,0,1,1,0-10.124,5.248,5.248,0,0,1,.637.039A5.064,5.064,0,0,0,308.1,125.633Z" transform="translate(-297.547 -114.856)" fill="#f1cbbc" fill-rule="evenodd"/>
      </g>
    </g>
    <path id="Trazado_995191" data-name="Trazado 995191" d="M52.5,43.974H49.327a1.4,1.4,0,0,1,0-2.8H52.5A22.669,22.669,0,0,1,73.723,19.95V17a1.4,1.4,0,1,1,2.8,0V19.95A22.668,22.668,0,0,1,97.759,41.4H100.7a1.4,1.4,0,0,1,0,2.8H97.732A22.669,22.669,0,0,1,76.3,65.213V68.37a1.4,1.4,0,0,1-2.8,0V65.186A22.669,22.669,0,0,1,52.5,43.974ZM73.723,22.753A19.872,19.872,0,0,0,55.3,41.177h4.145A15.741,15.741,0,0,1,73.723,26.9ZM94.958,41.4A19.872,19.872,0,0,0,76.52,22.753V26.9a15.74,15.74,0,0,1,14.3,14.5ZM76.3,62.412a19.873,19.873,0,0,0,18.626-18.22h-4.15A15.741,15.741,0,0,1,76.3,58.27Zm-21-18.438A19.873,19.873,0,0,0,73.5,62.381V58.232A15.742,15.742,0,0,1,59.444,43.974ZM73.723,29.708A12.945,12.945,0,0,0,62.255,41.177h.053a1.4,1.4,0,1,1,0,2.8h-.053a12.868,12.868,0,0,0,2.2,5.937A11.453,11.453,0,0,1,70.593,43.5a6.463,6.463,0,1,1,9.057,0,11.453,11.453,0,0,1,6.135,6.414,12.868,12.868,0,0,0,2.178-5.719h-.246a1.4,1.4,0,0,1,0-2.8h.293A12.945,12.945,0,0,0,76.52,29.708v.271a1.4,1.4,0,1,1-2.8,0ZM76.3,55.464a12.887,12.887,0,0,0,7.282-3.1,8.614,8.614,0,0,0-16.926,0,12.89,12.89,0,0,0,6.846,3.05v-.028a1.4,1.4,0,1,1,2.8,0Zm-1.18-12.9A3.666,3.666,0,1,0,71.456,38.9,3.676,3.676,0,0,0,75.121,42.561ZM30.439,88.955l-.589.158a7.9,7.9,0,1,1-4.091-15.267l6.462-1.732c5.111-2.605,9.338-7.336,13.047-10.961h0a3.374,3.374,0,0,1,5.618,1.538l1.8,6.71a5.242,5.242,0,0,1,2.64,9.851l1.8,6.71a3.375,3.375,0,0,1-4.264,4.094h0c-4.742-1.481-9.73-2.928-14.974-2.773l2.629,9.811a1.4,1.4,0,0,1-.989,1.713l-1.209.324a4.984,4.984,0,0,1-6.09-3.516ZM53.455,72.277l1.1,4.1a2.444,2.444,0,0,0-1.1-4.1ZM37.14,84.514A38.033,38.033,0,0,1,48.724,85.94l-5.14-19.181a45.943,45.943,0,0,1-9.223,7.381Zm14.715,2.309q.922.277,1.832.562a.567.567,0,0,0,.575-.136.56.56,0,0,0,.158-.564L48.185,63.414a.577.577,0,0,0-.963-.26c-.442.432-.892.879-1.35,1.335ZM31.733,75.141l-5.25,1.407a5.106,5.106,0,1,0,2.643,9.864L34.376,85ZM35.1,87.706l-1.959.525,1.784,6.658a2.181,2.181,0,0,0,2.521,1.572ZM58.358,67.641a1.4,1.4,0,1,1-2.422-1.4L57.8,63.02a1.4,1.4,0,0,1,2.422,1.4ZM59.7,80.391a1.4,1.4,0,0,1,1.4-2.421l3.224,1.866a1.4,1.4,0,1,1-1.4,2.421Zm1.968-6.649a1.4,1.4,0,0,1-.724-2.7l3.6-.965a1.4,1.4,0,1,1,.724,2.7Z" fill-rule="evenodd"/>
  </g>
</svg>
