<svg xmlns="http://www.w3.org/2000/svg" xmlns:xlink="http://www.w3.org/1999/xlink" width="108" height="108" viewBox="0 0 108 108">
  <defs>
    <filter id="Trazado_904820" x="0" y="0" width="108" height="108" filterUnits="userSpaceOnUse">
      <feOffset dy="3" input="SourceAlpha"/>
      <feGaussianBlur stdDeviation="3" result="blur"/>
      <feFlood flood-opacity="0.161"/>
      <feComposite operator="in" in2="blur"/>
      <feComposite in="SourceGraphic"/>
    </filter>
  </defs>
  <g id="Grupo_1161203" data-name="Grupo 1161203" transform="translate(-201 -5604)">
    <g id="Icono" transform="translate(210 5610)">
      <g transform="matrix(1, 0, 0, 1, -9, -6)" filter="url(#Trazado_904820)">
        <g id="Trazado_904820-2" data-name="Trazado 904820" transform="translate(9 6)" fill="#eff5f8">
          <path d="M 45 88.5 C 39.12687683105469 88.5 33.43022537231445 87.35007476806641 28.06830024719238 85.08217620849609 C 22.88852500915527 82.89131164550781 18.23629951477051 79.75458526611328 14.2408504486084 75.75914764404297 C 10.24541282653809 71.76370239257812 7.108687400817871 67.11147308349609 4.917825222015381 61.93170166015625 C 2.649924993515015 56.56977462768555 1.5 50.87312316894531 1.5 45 C 1.5 39.12687683105469 2.649924993515015 33.43022537231445 4.917825222015381 28.06830024719238 C 7.108687400817871 22.88852500915527 10.24541282653809 18.23629951477051 14.2408504486084 14.2408504486084 C 18.23629951477051 10.24541282653809 22.88852500915527 7.108687400817871 28.06830024719238 4.917825222015381 C 33.43022537231445 2.649924993515015 39.12687683105469 1.5 45 1.5 C 50.87312316894531 1.5 56.56977462768555 2.649924993515015 61.93170166015625 4.917825222015381 C 67.11147308349609 7.108687400817871 71.76370239257812 10.24541282653809 75.75914764404297 14.2408504486084 C 79.75458526611328 18.23629951477051 82.89131164550781 22.88852500915527 85.08217620849609 28.06830024719238 C 87.35007476806641 33.43022537231445 88.5 39.12687683105469 88.5 45 C 88.5 50.87312316894531 87.35007476806641 56.56977462768555 85.08217620849609 61.93170166015625 C 82.89131164550781 67.11147308349609 79.75458526611328 71.76370239257812 75.75914764404297 75.75914764404297 C 71.76370239257812 79.75458526611328 67.11147308349609 82.89131164550781 61.93170166015625 85.08217620849609 C 56.56977462768555 87.35007476806641 50.87312316894531 88.5 45 88.5 Z" stroke="none"/>
          <path d="M 45 3 C 39.32871246337891 3 33.82865524291992 4.110054016113281 28.65262985229492 6.299339294433594 C 23.65165710449219 8.414573669433594 19.15968322753906 11.44334411621094 15.301513671875 15.301513671875 C 11.44334411621094 19.15968322753906 8.414573669433594 23.65165710449219 6.299339294433594 28.65262985229492 C 4.110054016113281 33.82865524291992 3 39.32871246337891 3 45 C 3 50.67128753662109 4.110054016113281 56.17134475708008 6.299339294433594 61.34737396240234 C 8.414573669433594 66.34834289550781 11.44334411621094 70.84031677246094 15.301513671875 74.698486328125 C 19.15968322753906 78.55665588378906 23.65165710449219 81.58542633056641 28.65262985229492 83.70066070556641 C 33.82865524291992 85.88994598388672 39.32871246337891 87 45 87 C 50.67128753662109 87 56.17134475708008 85.88994598388672 61.34737396240234 83.70066070556641 C 66.34834289550781 81.58542633056641 70.84031677246094 78.55665588378906 74.698486328125 74.698486328125 C 78.55665588378906 70.84031677246094 81.58542633056641 66.34834289550781 83.70066070556641 61.34737396240234 C 85.88994598388672 56.17134475708008 87 50.67128753662109 87 45 C 87 39.32871246337891 85.88994598388672 33.82865524291992 83.70066070556641 28.65262985229492 C 81.58542633056641 23.65165710449219 78.55665588378906 19.15968322753906 74.698486328125 15.301513671875 C 70.84031677246094 11.44334411621094 66.34834289550781 8.414573669433594 61.34737396240234 6.299339294433594 C 56.17134475708008 4.110054016113281 50.67128753662109 3 45 3 M 45 0 C 69.85281372070312 0 90 20.14718627929688 90 45 C 90 69.85281372070312 69.85281372070312 90 45 90 C 20.14718627929688 90 0 69.85281372070312 0 45 C 0 20.14718627929688 20.14718627929688 0 45 0 Z" stroke="none" fill="#6da4c3"/>
        </g>
      </g>
    </g>
    <g id="content-management-system_17226331" transform="translate(224.622 5624.153)">
      <path id="Trazado_995192" data-name="Trazado 995192" d="M26.9,197.264h44.05a2.193,2.193,0,0,0,2.184-2.184V170.551a2.191,2.191,0,0,0-2.184-2.184H26.9a2.19,2.19,0,0,0-2.184,2.184V195.08A2.191,2.191,0,0,0,26.9,197.264Z" transform="translate(-18.552 -146.693)" fill="#4b4359" fill-rule="evenodd"/>
      <path id="Trazado_995193" data-name="Trazado 995193" d="M26.9,197.264H68.677a2.191,2.191,0,0,0,2.184-2.184V170.551a2.19,2.19,0,0,0-2.184-2.184H26.9a2.19,2.19,0,0,0-2.184,2.184V195.08A2.191,2.191,0,0,0,26.9,197.264Z" transform="translate(-18.552 -146.693)" fill="#574e66" fill-rule="evenodd"/>
      <path id="Trazado_995194" data-name="Trazado 995194" d="M55.477,199.094H97.456v22.461H55.477Z" transform="translate(-46.089 -174.203)" fill="#96d3ff"/>
      <path id="Trazado_995195" data-name="Trazado 995195" d="M12.969,450.4H58.5a3,3,0,0,0,2.985-2.985v-2.985H9.981v2.985a3,3,0,0,0,2.988,2.985Z" transform="translate(-5.355 -393.862)" fill="#e1dae7" fill-rule="evenodd"/>
      <path id="Trazado_995196" data-name="Trazado 995196" d="M12.969,450.4H56.218a3,3,0,0,0,2.988-2.985v-2.985H9.981v2.985a3,3,0,0,0,2.988,2.985Z" transform="translate(-5.355 -393.862)" fill="#ebe6ef" fill-rule="evenodd"/>
      <path id="Trazado_995197" data-name="Trazado 995197" d="M193.684,447.393h10.37a1.5,1.5,0,0,0,1.492-1.492v-1.5H192.192v1.5a1.5,1.5,0,0,0,1.492,1.492Z" transform="translate(-168.493 -393.837)" fill="#40374f" fill-rule="evenodd"/>
      <path id="Trazado_995198" data-name="Trazado 995198" d="M193.684,447.393h7.86a1.5,1.5,0,0,0,1.492-1.492v-1.5H192.192v1.5a1.5,1.5,0,0,0,1.492,1.492Z" transform="translate(-168.493 -393.837)" fill="#4b4359" fill-rule="evenodd"/>
      <path id="Trazado_995199" data-name="Trazado 995199" d="M432.938,199.094h2.469v22.461h-2.469Z" transform="translate(-384.039 -174.203)" fill="#74c3fc"/>
      <path id="Trazado_995200" data-name="Trazado 995200" d="M107.475,67.573l-8.418,4.86V85.673H97.8v-13.6h0a.628.628,0,0,1,.312-.543l8.735-5.041Zm-38.7-1.083L77.5,71.531a.625.625,0,0,1,.315.543h0v13.6H76.563V72.433l-8.415-4.86.623-1.083Zm19.666,5.685v13.29H87.182V72.175Z" transform="translate(-57.433 -55.48)" fill="#ff9b0d"/>
      <g id="Grupo_1161202" data-name="Grupo 1161202" transform="translate(4.626 5.153)">
        <path id="Trazado_995201" data-name="Trazado 995201" d="M143.912,247.765v1.682a1.148,1.148,0,0,1-.857,1.122l-2.113.564a12.3,12.3,0,0,1-1.095,2.641l1.095,1.893a1.154,1.154,0,0,1-.184,1.4l-1.193,1.19-1.19,1.19a1.142,1.142,0,0,1-1.4.184l-1.9-1.095a12.211,12.211,0,0,1-2.638,1.095l-.567,2.113a1.144,1.144,0,0,1-1.119.857H127.39a1.144,1.144,0,0,1-1.119-.857l-.567-2.113a12.209,12.209,0,0,1-2.638-1.095l-1.893,1.095a1.145,1.145,0,0,1-1.4-.184l-1.19-1.19-1.19-1.19a1.146,1.146,0,0,1-.184-1.4l1.092-1.893a12.289,12.289,0,0,1-1.092-2.641l-2.113-.564a1.15,1.15,0,0,1-.861-1.122v-1.682h8.439a6.4,6.4,0,0,0,12.8,0h8.436Z" transform="translate(-103.324 -222.933)" fill="#574e66" fill-rule="evenodd"/>
        <path id="Trazado_995202" data-name="Trazado 995202" d="M242,247.765v1.682a1.148,1.148,0,0,1-.858,1.122l-2.113.564a12.3,12.3,0,0,1-1.095,2.641l1.095,1.893a1.154,1.154,0,0,1-.184,1.4l-1.193,1.19-1.19,1.19a1.142,1.142,0,0,1-1.4.184l-1.9-1.095a12.212,12.212,0,0,1-2.638,1.095l-.567,2.113a1.144,1.144,0,0,1-1.119.857h-3.368a1.144,1.144,0,0,1-1.119-.857l-.567-2.113a11.875,11.875,0,0,0,11.394-11.866H242Z" transform="translate(-201.415 -222.933)" fill="#4b4359" fill-rule="evenodd"/>
        <path id="Trazado_995203" data-name="Trazado 995203" d="M194.856,247.765h12.8a6.4,6.4,0,0,1-12.8,0Z" transform="translate(-175.504 -222.933)" fill="#ffb122" fill-rule="evenodd"/>
        <path id="Trazado_995204" data-name="Trazado 995204" d="M194.856,247.765h8.718a6.4,6.4,0,0,1-4.359,6.068A6.4,6.4,0,0,1,194.856,247.765Z" transform="translate(-175.504 -222.933)" fill="#ffc738" fill-rule="evenodd"/>
        <path id="Trazado_995205" data-name="Trazado 995205" d="M55.085,10.534a6.4,6.4,0,1,1-6.4,6.4A6.4,6.4,0,0,1,55.085,10.534Zm-38.7,0a6.4,6.4,0,1,1-6.4,6.4,6.4,6.4,0,0,1,6.4-6.4Zm19.034,0a6.4,6.4,0,1,1-6.4,6.4A6.4,6.4,0,0,1,35.415,10.534Z" transform="translate(-9.981 -10.534)" fill="#e1dae7" fill-rule="evenodd"/>
        <path id="Trazado_995206" data-name="Trazado 995206" d="M53.2,25.486a6.4,6.4,0,0,1,0-12.231,6.4,6.4,0,0,1,0,12.231ZM14.5,13.255a6.4,6.4,0,0,1,0,12.231,6.4,6.4,0,0,1,0-12.231Zm19.034,0a6.4,6.4,0,0,1,0,12.231,6.4,6.4,0,0,1,0-12.231Z" transform="translate(-9.981 -12.97)" fill="#ebe6ef" fill-rule="evenodd"/>
        <path id="Trazado_995207" data-name="Trazado 995207" d="M248.147,57.632,244.5,53.988l-3.783,3.786,3.9,3.9a6.415,6.415,0,0,0,3.525-4.044Z" transform="translate(-216.567 -49.439)" fill="#4bb3fd" fill-rule="evenodd"/>
        <path id="Trazado_995208" data-name="Trazado 995208" d="M205.818,77.768l-5.807-5.807-2.632,2.632a6.4,6.4,0,0,0,5.819,3.736,6.326,6.326,0,0,0,2.62-.561Z" transform="translate(-177.763 -65.531)" fill="#74c3fc" fill-rule="evenodd"/>
        <path id="Trazado_995209" data-name="Trazado 995209" d="M425.075,47.046,421.183,44.8a.546.546,0,0,0-.57,0,.553.553,0,0,0-.288.493v4.5a.573.573,0,0,0,.858.5l3.893-2.249a.571.571,0,0,0,0-.988Z" transform="translate(-377.372 -41.141)" fill="#4bb3fd" fill-rule="evenodd"/>
        <path id="Trazado_995210" data-name="Trazado 995210" d="M233.179,34.312a1.217,1.217,0,1,0-1.217-1.217A1.221,1.221,0,0,0,233.179,34.312Z" transform="translate(-208.726 -29.645)" fill="#ffc738" fill-rule="evenodd"/>
      </g>
      <path id="Trazado_995211" data-name="Trazado 995211" d="M43.064,48.836a.628.628,0,0,1,0-1.255h4.75a.628.628,0,1,1,0,1.255Zm0-4.789a.628.628,0,0,1,0-1.255h4.75a.628.628,0,1,1,0,1.255Zm0,2.395a.628.628,0,0,1,0-1.255h4.75a.628.628,0,1,1,0,1.255Z" transform="translate(-34.415 -34.262)" fill="#574e66"/>
      <path id="Trazado_995212" data-name="Trazado 995212" d="M14.032,13.945a.629.629,0,0,1-.629.629H8.65a.629.629,0,1,1,0-1.258H13.4A.629.629,0,0,1,14.032,13.945Zm0-2.395a.629.629,0,0,1-.629.629H8.65a.629.629,0,0,1,0-1.258H13.4A.629.629,0,0,1,14.032,11.55Zm0-2.394a.629.629,0,0,1-.629.629H8.65a.629.629,0,1,1,0-1.258H13.4A.629.629,0,0,1,14.032,9.156ZM29.081,8.013a.589.589,0,1,1,0,1.178.589.589,0,0,1,0-1.178Zm0,2.436A1.847,1.847,0,1,0,27.236,8.6,1.85,1.85,0,0,0,29.081,10.449ZM48.211,9.4l3.715,2.145L48.211,13.7V9.4Zm-.656,5.436a1.2,1.2,0,0,0,.6.16,1.221,1.221,0,0,0,.6-.16l3.887-2.249a1.2,1.2,0,0,0,.006-2.077l-3.9-2.252a1.2,1.2,0,0,0-1.8,1.042v4.5a1.2,1.2,0,0,0,.6,1.042ZM55.5,53.553a2.358,2.358,0,0,1-2.356,2.359H7.617a2.362,2.362,0,0,1-2.362-2.359V51.2H23.073v.863a2.122,2.122,0,0,0,2.119,2.122H35.565a2.122,2.122,0,0,0,2.119-2.122V51.2H55.5ZM24.331,51.2H36.425v.863a.864.864,0,0,1-.86.863H25.191a.864.864,0,0,1-.86-.863ZM6.8,48.384V23.855A1.556,1.556,0,0,1,8.356,22.3H19.133v1.961H9.391a.63.63,0,0,0-.632.629V47.349a.63.63,0,0,0,.632.629H51.368A.628.628,0,0,0,52,47.349V24.891a.628.628,0,0,0-.632-.629H41.627V22.3h10.78a1.556,1.556,0,0,1,1.555,1.555V48.384a1.556,1.556,0,0,1-1.555,1.555H8.356A1.556,1.556,0,0,1,6.8,48.384ZM29.749,22.3v1.961H20.391V22.3Zm10.619,7.056H31.007V25.52h9.361Zm-21.236,0H15.539a.629.629,0,0,0-.629.629v1.682a1.766,1.766,0,0,0,1.329,1.727l1.771.475a12.787,12.787,0,0,0,.875,2.113l-.917,1.59a1.763,1.763,0,0,0,.285,2.157l2.38,2.386a1.786,1.786,0,0,0,2.16.282l1.587-.92a13.178,13.178,0,0,0,2.11.875l.478,1.771a1.764,1.764,0,0,0,1.724,1.326h3.371a1.761,1.761,0,0,0,1.724-1.326l.478-1.771a13.184,13.184,0,0,0,2.11-.875l1.593.92a1.776,1.776,0,0,0,2.157-.285l2.383-2.383a1.775,1.775,0,0,0,.282-2.157l-.917-1.59a13.193,13.193,0,0,0,.875-2.113l1.771-.475a1.767,1.767,0,0,0,1.326-1.727V29.985a.629.629,0,0,0-.629-.629h-3.59V25.52h9.115v21.2H10.02V25.52h9.112v3.837Zm4.848,0h-3.59V25.52h9.358v3.837H23.981Zm6.4,6.4a5.78,5.78,0,0,1-5.736-5.142H36.117A5.781,5.781,0,0,1,30.378,35.756Zm7-5.142h7.21v1.053a.516.516,0,0,1-.392.51l-2.113.57a.616.616,0,0,0-.442.433,11.668,11.668,0,0,1-1.038,2.5.625.625,0,0,0,0,.62L41.7,38.2a.521.521,0,0,1-.083.638l-2.383,2.383a.522.522,0,0,1-.638.086l-1.9-1.095a.625.625,0,0,0-.62-.006,11.748,11.748,0,0,1-2.5,1.038.632.632,0,0,0-.433.442l-.57,2.113a.512.512,0,0,1-.507.392H28.693a.518.518,0,0,1-.51-.395l-.567-2.11a.632.632,0,0,0-.433-.442,11.748,11.748,0,0,1-2.5-1.038.63.63,0,0,0-.623.006L22.165,41.3a.516.516,0,0,1-.641-.083l-2.383-2.383a.513.513,0,0,1-.083-.638l1.092-1.9a.633.633,0,0,0,.006-.62,11.509,11.509,0,0,1-1.036-2.5.629.629,0,0,0-.445-.436l-2.113-.57a.518.518,0,0,1-.395-.51V30.614h7.21a7.028,7.028,0,0,0,14,0ZM40.369,22.3v1.961H31.007V22.3ZM11.026,17.321a5.77,5.77,0,1,1,5.768-5.771A5.778,5.778,0,0,1,11.026,17.321Zm13.987-2.985,1.863-1.863,4.658,4.658a5.771,5.771,0,0,1-6.522-2.8Zm5.047-8.554a5.778,5.778,0,0,1,5.774,5.768c0,.172-.009.341-.024.507l-2.8-2.8a.629.629,0,0,0-.89,0L28.779,12.6l-1.457-1.46a.634.634,0,0,0-.89,0L24.5,13.069A5.774,5.774,0,0,1,30.06,5.782Zm2.748,10.845-3.139-3.139,2.9-2.9,2.923,2.923a5.8,5.8,0,0,1-2.679,3.113ZM49.733,5.782a5.77,5.77,0,1,1-5.771,5.768A5.774,5.774,0,0,1,49.733,5.782Zm6.394,44.157H54.75a2.815,2.815,0,0,0,.469-1.555V23.855a2.819,2.819,0,0,0-2.813-2.813H41.627V16.959l2.362-1.365a6.987,6.987,0,1,0-.632-1.089L40.68,16.048a.631.631,0,0,0-.312.546v4.448H31.007V18.514a7.012,7.012,0,1,0-1.258.059v2.469H20.391V16.594a.634.634,0,0,0-.315-.546L17.4,14.505a7.033,7.033,0,1,0-.629,1.089l2.362,1.365v4.083H8.356a2.817,2.817,0,0,0-2.813,2.813V48.384a2.791,2.791,0,0,0,.469,1.555H4.629A.629.629,0,0,0,4,50.568v2.985A3.62,3.62,0,0,0,7.617,57.17H53.145a3.617,3.617,0,0,0,3.611-3.617V50.568a.629.629,0,0,0-.629-.629Z" fill="#070202"/>
    </g>
  </g>
</svg>
