<svg xmlns="http://www.w3.org/2000/svg" xmlns:xlink="http://www.w3.org/1999/xlink" width="113" height="113" viewBox="0 0 113 113">
  <defs>
    <filter id="Trazado_982547" x="0" y="0" width="113" height="113" filterUnits="userSpaceOnUse">
      <feOffset dy="3" input="SourceAlpha"/>
      <feGaussianBlur stdDeviation="3" result="blur"/>
      <feFlood flood-opacity="0.161"/>
      <feComposite operator="in" in2="blur"/>
      <feComposite in="SourceGraphic"/>
    </filter>
  </defs>
  <g id="Grupo_1161178" data-name="Grupo 1161178" transform="translate(-325 -1746)">
    <g id="Grupo_1160606" data-name="Grupo 1160606" transform="translate(0 -3966)">
      <g id="Grupo_1159745" data-name="Grupo 1159745" transform="translate(0 1505)">
        <g id="Grupo_1158168" data-name="Grupo 1158168" transform="translate(-1 -1314)">
          <g id="Grupo_1152576" data-name="Grupo 1152576" transform="translate(-0.454 1205.621)">
            <g id="Grupo_1148633" data-name="Grupo 1148633" transform="translate(71.408 600.047)">
              <g id="Grupo_1148525" data-name="Grupo 1148525" transform="translate(264.046 3721.333)">
                <g transform="matrix(1, 0, 0, 1, -9, -6)" filter="url(#Trazado_982547)">
                  <g id="Trazado_982547-2" data-name="Trazado 982547" transform="translate(9 6)" fill="#fef2ec">
                    <path d="M 47.5 93.5 C 41.28937149047852 93.5 35.26533508300781 92.28397369384766 29.59518623352051 89.88570404052734 C 24.11771965026855 87.56893157958984 19.19813346862793 84.25196075439453 14.97309303283691 80.02691650390625 C 10.74804019927979 75.80186462402344 7.431066513061523 70.88229370117188 5.114293098449707 65.40481567382812 C 2.716026782989502 59.73468017578125 1.5 53.71062850952148 1.5 47.5 C 1.5 41.28937149047852 2.716026782989502 35.26533508300781 5.114293098449707 29.59518623352051 C 7.431066513061523 24.11771965026855 10.74804019927979 19.19813346862793 14.97309303283691 14.97309303283691 C 19.19813346862793 10.74804019927979 24.11771965026855 7.431066513061523 29.59518623352051 5.114293098449707 C 35.26533508300781 2.716026782989502 41.28937149047852 1.5 47.5 1.5 C 53.71062850952148 1.5 59.73468017578125 2.716026782989502 65.40481567382812 5.114293098449707 C 70.88229370117188 7.431066513061523 75.80186462402344 10.74804019927979 80.02691650390625 14.97309303283691 C 84.25196075439453 19.19813346862793 87.56893157958984 24.11771965026855 89.88570404052734 29.59518623352051 C 92.28397369384766 35.26533508300781 93.5 41.28937149047852 93.5 47.5 C 93.5 53.71062850952148 92.28397369384766 59.73468017578125 89.88570404052734 65.40481567382812 C 87.56893157958984 70.88229370117188 84.25196075439453 75.80186462402344 80.02691650390625 80.02691650390625 C 75.80186462402344 84.25196075439453 70.88229370117188 87.56893157958984 65.40481567382812 89.88570404052734 C 59.73468017578125 92.28397369384766 53.71062850952148 93.5 47.5 93.5 Z" stroke="none"/>
                    <path d="M 47.5 3 C 41.49121475219727 3 35.66376876831055 4.176155090332031 30.17950439453125 6.495796203613281 C 24.88084411621094 8.736953735351562 20.12152099609375 11.94598388671875 16.03375244140625 16.03375244140625 C 11.94598388671875 20.12152099609375 8.736953735351562 24.88084411621094 6.495796203613281 30.17950439453125 C 4.176155090332031 35.66376876831055 3 41.49121475219727 3 47.5 C 3 53.50878524780273 4.176155090332031 59.33623123168945 6.495796203613281 64.82049560546875 C 8.736953735351562 70.11915588378906 11.94598388671875 74.87847900390625 16.03375244140625 78.96624755859375 C 20.12152099609375 83.05401611328125 24.88084411621094 86.26304626464844 30.17950439453125 88.50419616699219 C 35.66376876831055 90.82384490966797 41.49121475219727 92 47.5 92 C 53.50878524780273 92 59.33623123168945 90.82384490966797 64.82049560546875 88.50419616699219 C 70.11915588378906 86.26304626464844 74.87847900390625 83.05401611328125 78.96624755859375 78.96624755859375 C 83.05401611328125 74.87847900390625 86.26304626464844 70.11915588378906 88.50419616699219 64.82049560546875 C 90.82384490966797 59.33623123168945 92 53.50878524780273 92 47.5 C 92 41.49121475219727 90.82384490966797 35.66376876831055 88.50419616699219 30.17950439453125 C 86.26304626464844 24.88084411621094 83.05401611328125 20.12152099609375 78.96624755859375 16.03375244140625 C 74.87847900390625 11.94598388671875 70.11915588378906 8.736953735351562 64.82049560546875 6.495796203613281 C 59.33623123168945 4.176155090332031 53.50878524780273 3 47.5 3 M 47.5 0 C 73.7335205078125 0 95 21.2664794921875 95 47.5 C 95 73.7335205078125 73.7335205078125 95 47.5 95 C 21.2664794921875 95 0 73.7335205078125 0 47.5 C 0 21.2664794921875 21.2664794921875 0 47.5 0 Z" stroke="none" fill="#9b4467"/>
                  </g>
                </g>
              </g>
            </g>
          </g>
        </g>
      </g>
    </g>
    <g id="Artboard41" transform="translate(343.486 1757.408)">
      <g id="Grupo_1161177" data-name="Grupo 1161177" transform="translate(5.995 10.72)">
        <g id="Grupo_1161176" data-name="Grupo 1161176" transform="translate(1.035 0.952)">
          <g id="Grupo_1161171" data-name="Grupo 1161171" transform="translate(41.607 15.852)">
            <path id="Trazado_995124" data-name="Trazado 995124" d="M343.9,153.749c-2.65-1.557-7.527-5.13-7.592-8.7-.072-3.97,4.389-5.769,7.745-2.357,3.356-3.412,7.817-1.614,7.745,2.356-.065,3.565-4.941,7.139-7.592,8.7A.3.3,0,0,1,343.9,153.749Z" transform="translate(-336.303 -140.895)" fill="#fe646f" fill-rule="evenodd"/>
            <path id="Trazado_995125" data-name="Trazado 995125" d="M367.775,153.744l-.2-.117c2.687-1.614,7.331-5.1,7.394-8.579a3.866,3.866,0,0,0-3.538-4.143,3.869,3.869,0,0,1,4.24,4.143c-.065,3.565-4.941,7.139-7.592,8.7A.3.3,0,0,1,367.775,153.744Zm-4.053-12.839a5.365,5.365,0,0,1,4.207,1.787c-.118.105-.235.216-.35.334A7.083,7.083,0,0,0,363.722,140.906Z" transform="translate(-360.182 -140.89)" fill="#fd4755" fill-rule="evenodd"/>
          </g>
          <g id="Grupo_1161172" data-name="Grupo 1161172" transform="translate(6.404 14.758)">
            <path id="Trazado_995126" data-name="Trazado 995126" d="M71.71,132.653l1.765,4.643a.354.354,0,0,0,.324.236l4.964.244a.367.367,0,0,1,.213.652L75.1,141.543a.356.356,0,0,0-.126.381l1.3,4.8a.369.369,0,0,1-.557.4L71.569,144.4a.356.356,0,0,0-.4,0l-4.159,2.722a.366.366,0,0,1-.553-.4l1.3-4.8a.363.363,0,0,0-.126-.381l-3.873-3.115a.366.366,0,0,1,.214-.652l4.964-.244a.358.358,0,0,0,.324-.236l1.765-4.643a.367.367,0,0,1,.686,0Z" transform="translate(-63.62 -132.416)" fill="#ffe177" fill-rule="evenodd"/>
            <path id="Trazado_995127" data-name="Trazado 995127" d="M96.206,137.7l1.571.076a.367.367,0,0,1,.213.652l-3.873,3.115a.356.356,0,0,0-.126.381l1.3,4.8a.369.369,0,0,1-.557.4l-1.075-.705-1.243-4.571a.356.356,0,0,1,.126-.381l3.873-3.115A.366.366,0,0,0,96.206,137.7Zm-5.482-5.047L92.49,137.3a.349.349,0,0,0,.32.236l-1.567-.076a.354.354,0,0,1-.324-.236l-1.308-3.442.427-1.125A.367.367,0,0,1,90.724,132.653ZM90.584,144.4a.356.356,0,0,0-.4,0l-4.159,2.722a.366.366,0,0,1-.553-.4l.111-.412,3.759-2.459a.364.364,0,0,1,.4,0Z" transform="translate(-82.634 -132.416)" fill="#ffd064" fill-rule="evenodd"/>
          </g>
          <g id="Grupo_1161173" data-name="Grupo 1161173" transform="translate(23.674)">
            <path id="Trazado_995128" data-name="Trazado 995128" d="M205.135,33.59a7.746,7.746,0,1,0-7.747-7.746A7.76,7.76,0,0,0,205.135,33.59Z" transform="translate(-197.388 -18.098)" fill="#ffc338" fill-rule="evenodd"/>
            <path id="Trazado_995129" data-name="Trazado 995129" d="M198.313,25.844a7.747,7.747,0,0,1,7.283-7.733c-.152-.008-.307-.013-.461-.013a7.746,7.746,0,1,0,0,15.492c.155,0,.309,0,.461-.013A7.747,7.747,0,0,1,198.313,25.844Z" transform="translate(-197.388 -18.098)" fill="#f5b829" fill-rule="evenodd"/>
          </g>
          <g id="Grupo_1161174" data-name="Grupo 1161174" transform="translate(32.378 24.475)">
            <path id="Trazado_995130" data-name="Trazado 995130" d="M289.233,238.041l2.479-9.308c.465-1.747,1.136-3.326,2.746-4.147a58.6,58.6,0,0,0,7.617-4.035,2.315,2.315,0,0,1,3.094.829,2.241,2.241,0,0,1-.829,3.094l.915-.663a5.2,5.2,0,0,0,2.086-2.966l2.366-8.966c1.839-6.97,6.433-3.67,5.87-1.3l-3.951,16.615A5.332,5.332,0,0,1,309,230.672l-9.457,5.46-1.167,4.357a1.578,1.578,0,0,1-1.928,1.113l-6.1-1.635A1.578,1.578,0,0,1,289.233,238.041Z" transform="translate(-286.034 -207.686)" fill="#f6dccd" fill-rule="evenodd"/>
            <path id="Trazado_995131" data-name="Trazado 995131" d="M367.549,317.529a2.287,2.287,0,0,1-1.047,2.606c-1.545.9-3.1,1.788-4.644,2.681a.867.867,0,1,1-.867-1.5Z" transform="translate(-348.197 -303.348)" fill="#f1cbbc" fill-rule="evenodd"/>
            <path id="Trazado_995132" data-name="Trazado 995132" d="M289.233,339.847l2.479-9.308c.465-1.747,1.136-3.326,2.746-4.147.96-.49,2.311-1.081,3.767-1.808L293.4,342.591l-3.052-.818A1.578,1.578,0,0,1,289.233,339.847Z" transform="translate(-286.034 -309.492)" fill="#f1cbbc" fill-rule="evenodd"/>
            <path id="Trazado_995133" data-name="Trazado 995133" d="M267,424.071l12.933,3.585a1.183,1.183,0,0,1,.822,1.452l-.69,2.49a1.183,1.183,0,0,1-1.452.822l-12.933-3.585a1.183,1.183,0,0,1-.822-1.452l.69-2.49A1.184,1.184,0,0,1,267,424.071Z" transform="translate(-264.812 -396.099)" fill="#d1d1d6" fill-rule="evenodd"/>
            <path id="Trazado_995134" data-name="Trazado 995134" d="M280.708,427.288l2.289.634,2.264.628a1.183,1.183,0,0,1,.823,1.448l.247-.889a1.183,1.183,0,0,0-.822-1.452l-2.271-.63-4.561-1.264-4.566-1.265-1.535-.426a1.184,1.184,0,0,0-1.358.585l2.658.737,4.561,1.264,2.271.63Z" transform="translate(-270.391 -396.1)" fill="#b1b1b5" fill-rule="evenodd"/>
          </g>
          <g id="Grupo_1161175" data-name="Grupo 1161175" transform="translate(0 24.475)">
            <path id="Trazado_995135" data-name="Trazado 995135" d="M40.4,238.041l-2.479-9.308c-.465-1.747-1.136-3.326-2.746-4.147a58.606,58.606,0,0,1-7.617-4.035,2.315,2.315,0,0,0-3.093.829,2.241,2.241,0,0,0,.829,3.094l-.915-.663a5.2,5.2,0,0,1-2.086-2.966l-2.366-8.966c-1.839-6.97-6.433-3.67-5.87-1.3l3.951,16.615a5.333,5.333,0,0,0,2.623,3.484l9.457,5.46,1.167,4.357a1.578,1.578,0,0,0,1.928,1.113l6.1-1.635a1.578,1.578,0,0,0,1.114-1.926Z" transform="translate(-14.012 -207.686)" fill="#f6dccd" fill-rule="evenodd"/>
            <path id="Trazado_995136" data-name="Trazado 995136" d="M92.61,317.529a2.287,2.287,0,0,0,1.047,2.606c1.545.9,3.1,1.788,4.644,2.681a.867.867,0,1,0,.867-1.5Z" transform="translate(-82.373 -303.348)" fill="#f1cbbc" fill-rule="evenodd"/>
            <path id="Trazado_995137" data-name="Trazado 995137" d="M157.78,339.847l-2.479-9.308c-.465-1.747-1.136-3.326-2.746-4.147-.96-.49-2.311-1.081-3.767-1.808l4.825,18.008,3.052-.818A1.578,1.578,0,0,0,157.78,339.847Z" transform="translate(-131.389 -309.492)" fill="#f1cbbc" fill-rule="evenodd"/>
            <path id="Trazado_995138" data-name="Trazado 995138" d="M133.214,424.071l-12.933,3.585a1.183,1.183,0,0,0-.822,1.452l.69,2.49a1.183,1.183,0,0,0,1.452.822l12.933-3.585a1.183,1.183,0,0,0,.822-1.452l-.69-2.49A1.184,1.184,0,0,0,133.214,424.071Z" transform="translate(-105.809 -396.099)" fill="#d1d1d6" fill-rule="evenodd"/>
            <path id="Trazado_995139" data-name="Trazado 995139" d="M125.082,427.288l-2.289.634-2.263.628a1.183,1.183,0,0,0-.823,1.448l-.247-.889a1.183,1.183,0,0,1,.822-1.452l2.271-.63,4.561-1.264,4.566-1.265,1.535-.426a1.184,1.184,0,0,1,1.358.585l-2.658.737-4.56,1.264-2.271.63Z" transform="translate(-105.809 -396.1)" fill="#b1b1b5" fill-rule="evenodd"/>
          </g>
        </g>
        <path id="Trazado_995140" data-name="Trazado 995140" d="M53.816,66.432l.983.273a2.189,2.189,0,0,1,1.537,2.7l0,.006-.671,2.44a2.225,2.225,0,0,1-2.708,1.533h0l-12.7-3.522a2.185,2.185,0,0,1-1.516-2.715l.669-2.433A2.2,2.2,0,0,1,42.1,63.183h0l.762.211,1.648-6.2c.536-2.019,1.37-3.78,3.228-4.728a56.788,56.788,0,0,0,7.352-3.893,1.015,1.015,0,0,1,.129-.076,3.33,3.33,0,0,1,4.4,1.206l.014.024q.041.073.078.147a4.181,4.181,0,0,0,.132-.42l0-.006,2.333-8.8c.875-3.326,2.44-4.57,3.765-4.832a3.522,3.522,0,0,1,4.01,4.054v0l-3.888,16.3a6.213,6.213,0,0,1-3.066,4.089h0L54.092,65.4Zm-2-.554.381-1.428a1.037,1.037,0,0,1,.484-.631l9.284-5.351A4.211,4.211,0,0,0,64.054,55.7v-.006l3.888-16.3a1.26,1.26,0,0,0-.406-1.092c-.907-.956-2.433-.6-3.346,2.877v0l-2.332,8.8a6.024,6.024,0,0,1-2.44,3.49h0l-.808.58-.031.021h0c-1.513,1-3.057,1.793-4.709,2.735A1.037,1.037,0,1,1,52.84,55c1.6-.911,3.093-1.672,4.557-2.64a1.218,1.218,0,0,0,.44-1.615,1.265,1.265,0,0,0-1.628-.426,60.03,60.03,0,0,1-7.52,3.987h0c-1.313.669-1.789,1.987-2.168,3.413l-1.654,6.225ZM54.25,68.7l-12.7-3.522h0a.118.118,0,0,0-.142.084l-.671,2.44,0,.016a.112.112,0,0,0,.073.142h0l12.7,3.522a.128.128,0,0,0,.157-.084l.671-2.439a.126.126,0,0,0-.077-.158Zm-12.257-2.25a.8.8,0,0,1,1.113-.168.812.812,0,0,1,.153,1.113.79.79,0,0,1-1.266-.945Zm-19.8-.023L21.921,65.4l-8.913-5.137-.007,0a6.31,6.31,0,0,1-3.06-4.081v0l-3.873-16.3v0a3.361,3.361,0,0,1,.916-3,3.367,3.367,0,0,1,3.088-1.058c1.324.262,2.89,1.506,3.771,4.832v0l2.318,8.8v0a4.06,4.06,0,0,0,.139.434q.044-.086.093-.171l0,0A3.317,3.317,0,0,1,20.8,48.5a1.038,1.038,0,0,1,.121.072,56.852,56.852,0,0,0,7.367,3.893l0,0c1.84.947,2.691,2.708,3.226,4.727l1.648,6.2.748-.207h0a2.226,2.226,0,0,1,2.7,1.51l.007.023.671,2.44,0,.006a2.208,2.208,0,0,1-1.532,2.7l-12.7,3.522h0a2.2,2.2,0,0,1-2.692-1.529l-.686-2.438,0-.012a2.208,2.208,0,0,1,1.533-2.7Zm8.967-2.487L29.51,57.725c-.379-1.427-.869-2.744-2.169-3.414A59.932,59.932,0,0,1,19.8,50.322a1.24,1.24,0,0,0-1.613.429,1.209,1.209,0,0,0,.428,1.613c1.478.967,2.973,1.728,4.57,2.639a1.037,1.037,0,1,1-1.027,1.8c-1.651-.941-3.193-1.729-4.72-2.732h0l-.043-.03h0l-.789-.577a6.05,6.05,0,0,1-2.452-3.488l-2.317-8.8c-.921-3.474-2.443-3.836-3.348-2.879a1.261,1.261,0,0,0-.4,1.1l3.872,16.3a4.3,4.3,0,0,0,2.09,2.777l9.282,5.35a1.037,1.037,0,0,1,.484.631l.381,1.428Zm3.3,1.237L21.762,68.7h0a.13.13,0,0,0-.082.162l.684,2.431,0,.006a.118.118,0,0,0,.143.083l12.7-3.522h0a.131.131,0,0,0,.082-.164l-.665-2.419A.14.14,0,0,0,34.462,65.183Zm-.443,1.272a.784.784,0,1,1-1.1-.168A.78.78,0,0,1,34.019,66.455ZM30.438,39.087l-.539.539a1.033,1.033,0,0,1-1.461-1.46l2.131-2.131a1.032,1.032,0,0,1,.87-.476h.093a1.033,1.033,0,0,1,.87.476l2.131,2.131a1.043,1.043,0,0,1-1.488,1.46l-.541-.541V50.843a1.033,1.033,0,1,1-2.066,0ZM37.4,34.594l-.539.539a1.033,1.033,0,0,1-1.461-1.46l2.131-2.131a1.033,1.033,0,0,1,.87-.476H38.5a1.032,1.032,0,0,1,.87.476L41.5,33.672a1.043,1.043,0,0,1-1.488,1.46l-.541-.541V46.349a1.033,1.033,0,1,1-2.066,0Zm6.962,4.494-.539.539a1.033,1.033,0,0,1-1.461-1.46L44.5,36.035a1.032,1.032,0,0,1,.87-.476h.093a1.032,1.032,0,0,1,.87.476l2.131,2.131a1.043,1.043,0,0,1-1.488,1.46l-.541-.541V50.843a1.033,1.033,0,0,1-2.066,0ZM18.26,30.615l1.609-4.233a1.4,1.4,0,0,1,2.625,0L24.1,30.615l4.52.222a1.4,1.4,0,0,1,.817,2.5l-3.532,2.84,1.187,4.365a1.4,1.4,0,0,1-2.116,1.551l0,0-3.793-2.482-3.789,2.482,0,0a1.408,1.408,0,0,1-2.122-1.545h0l1.188-4.37-3.529-2.838a1.4,1.4,0,0,1,.809-2.5ZM15.6,32.822l2.492,2a1.371,1.371,0,0,1,.485,1.458l0,.008-.841,3.094,2.675-1.753a1.369,1.369,0,0,1,1.547,0l2.677,1.752-.841-3.092,0-.008a1.371,1.371,0,0,1,.484-1.457l2.493-2-3.2-.158h0a1.369,1.369,0,0,1-1.24-.9l-1.139-3L20.043,31.76a1.37,1.37,0,0,1-1.241.9h0Zm40.1,8.523a24.9,24.9,0,0,1-5.91-4.759,7.927,7.927,0,0,1-2.186-4.805h0a4.908,4.908,0,0,1,3.286-4.942,5.771,5.771,0,0,1,5.49,1.178,5.776,5.776,0,0,1,5.491-1.177,4.907,4.907,0,0,1,3.288,4.941h0a7.928,7.928,0,0,1-2.186,4.805,24.9,24.9,0,0,1-5.91,4.759,1.3,1.3,0,0,1-1.363,0Zm.681-2a22.191,22.191,0,0,0,5.024-4.1,5.872,5.872,0,0,0,1.688-3.5A2.9,2.9,0,0,0,61.207,28.8a4.01,4.01,0,0,0-4.09,1.336,1.033,1.033,0,0,1-1.473,0,4.005,4.005,0,0,0-4.087-1.337,2.9,2.9,0,0,0-1.887,2.949,5.872,5.872,0,0,0,1.688,3.5,22.191,22.191,0,0,0,5.024,4.1ZM38.449,28.277A8.779,8.779,0,1,1,47.228,19.5,8.8,8.8,0,0,1,38.449,28.277Zm0-2.066A6.713,6.713,0,1,0,31.736,19.5,6.727,6.727,0,0,0,38.449,26.212ZM37.417,14.9v-.19a1.033,1.033,0,0,1,2.066,0v.179a3.255,3.255,0,0,1,2.146,1.91,1.033,1.033,0,1,1-1.9.8,1.4,1.4,0,0,0-1.84-.678.785.785,0,0,0-.577.747.627.627,0,0,0,.424.528,3.264,3.264,0,0,0,.893.257c1.469.24,3.053.945,3.266,2.691h0a2.774,2.774,0,0,1-2.407,2.983v.158a1.033,1.033,0,0,1-2.066,0v-.174a3.221,3.221,0,0,1-2.4-2.33,1.033,1.033,0,1,1,2-.5,1.384,1.384,0,0,0,1.5.9,2.246,2.246,0,0,0,.915-.207.575.575,0,0,0,.4-.582.812.812,0,0,0-.554-.632,3.988,3.988,0,0,0-.994-.271h0c-1.448-.238-2.961-1-3.045-2.723h0A2.785,2.785,0,0,1,37.127,15q.142-.056.289-.1ZM49.77,19.331a1.033,1.033,0,0,1,.947-1.836,27.046,27.046,0,0,1,7.61,5.844A1.033,1.033,0,1,1,56.8,24.729a24.977,24.977,0,0,0-7.028-5.4ZM19.9,24.843a1.033,1.033,0,1,1-1.537-1.38,27.038,27.038,0,0,1,8.216-6.216,1.033,1.033,0,0,1,.909,1.855A24.97,24.97,0,0,0,19.9,24.843Z" transform="translate(-5.995 -10.72)" fill-rule="evenodd"/>
      </g>
    </g>
  </g>
</svg>
