<svg xmlns="http://www.w3.org/2000/svg" xmlns:xlink="http://www.w3.org/1999/xlink" width="113" height="113" viewBox="0 0 113 113">
  <defs>
    <filter id="Trazado_982547" x="0" y="0" width="113" height="113" filterUnits="userSpaceOnUse">
      <feOffset dy="3" input="SourceAlpha"/>
      <feGaussianBlur stdDeviation="3" result="blur"/>
      <feFlood flood-opacity="0.161"/>
      <feComposite operator="in" in2="blur"/>
      <feComposite in="SourceGraphic"/>
    </filter>
  </defs>
  <g id="Grupo_1162831" data-name="Grupo 1162831" transform="translate(-742 -9071.697)">
    <g id="Grupo_1161179" data-name="Grupo 1161179" transform="translate(0 3359.698)">
      <g id="Grupo_1159768" data-name="Grupo 1159768" transform="translate(0 1505)">
        <g id="Grupo_1158169" data-name="Grupo 1158169" transform="translate(-1 -1314)">
          <g id="Grupo_1152577" data-name="Grupo 1152577" transform="translate(-0.5 1205.621)">
            <g id="Grupo_1148634" data-name="Grupo 1148634" transform="translate(488.454 600.047)">
              <g id="Grupo_1148525" data-name="Grupo 1148525" transform="translate(264.046 3721.333)">
                <g transform="matrix(1, 0, 0, 1, -9, -6)" filter="url(#Trazado_982547)">
                  <g id="Trazado_982547-2" data-name="Trazado 982547" transform="translate(9 6)" fill="#fef2ec">
                    <path d="M 47.5 93.5 C 41.28937149047852 93.5 35.26533508300781 92.28397369384766 29.59518623352051 89.88570404052734 C 24.11771965026855 87.56893157958984 19.19813346862793 84.25196075439453 14.97309303283691 80.02691650390625 C 10.74804019927979 75.80186462402344 7.431066513061523 70.88229370117188 5.114293098449707 65.40481567382812 C 2.716026782989502 59.73468017578125 1.5 53.71062850952148 1.5 47.5 C 1.5 41.28937149047852 2.716026782989502 35.26533508300781 5.114293098449707 29.59518623352051 C 7.431066513061523 24.11771965026855 10.74804019927979 19.19813346862793 14.97309303283691 14.97309303283691 C 19.19813346862793 10.74804019927979 24.11771965026855 7.431066513061523 29.59518623352051 5.114293098449707 C 35.26533508300781 2.716026782989502 41.28937149047852 1.5 47.5 1.5 C 53.71062850952148 1.5 59.73468017578125 2.716026782989502 65.40481567382812 5.114293098449707 C 70.88229370117188 7.431066513061523 75.80186462402344 10.74804019927979 80.02691650390625 14.97309303283691 C 84.25196075439453 19.19813346862793 87.56893157958984 24.11771965026855 89.88570404052734 29.59518623352051 C 92.28397369384766 35.26533508300781 93.5 41.28937149047852 93.5 47.5 C 93.5 53.71062850952148 92.28397369384766 59.73468017578125 89.88570404052734 65.40481567382812 C 87.56893157958984 70.88229370117188 84.25196075439453 75.80186462402344 80.02691650390625 80.02691650390625 C 75.80186462402344 84.25196075439453 70.88229370117188 87.56893157958984 65.40481567382812 89.88570404052734 C 59.73468017578125 92.28397369384766 53.71062850952148 93.5 47.5 93.5 Z" stroke="none"/>
                    <path d="M 47.5 3 C 41.49121475219727 3 35.66376876831055 4.176155090332031 30.17950439453125 6.495796203613281 C 24.88084411621094 8.736953735351562 20.12152099609375 11.94598388671875 16.03375244140625 16.03375244140625 C 11.94598388671875 20.12152099609375 8.736953735351562 24.88084411621094 6.495796203613281 30.17950439453125 C 4.176155090332031 35.66376876831055 3 41.49121475219727 3 47.5 C 3 53.50878524780273 4.176155090332031 59.33623123168945 6.495796203613281 64.82049560546875 C 8.736953735351562 70.11915588378906 11.94598388671875 74.87847900390625 16.03375244140625 78.96624755859375 C 20.12152099609375 83.05401611328125 24.88084411621094 86.26304626464844 30.17950439453125 88.50419616699219 C 35.66376876831055 90.82384490966797 41.49121475219727 92 47.5 92 C 53.50878524780273 92 59.33623123168945 90.82384490966797 64.82049560546875 88.50419616699219 C 70.11915588378906 86.26304626464844 74.87847900390625 83.05401611328125 78.96624755859375 78.96624755859375 C 83.05401611328125 74.87847900390625 86.26304626464844 70.11915588378906 88.50419616699219 64.82049560546875 C 90.82384490966797 59.33623123168945 92 53.50878524780273 92 47.5 C 92 41.49121475219727 90.82384490966797 35.66376876831055 88.50419616699219 30.17950439453125 C 86.26304626464844 24.88084411621094 83.05401611328125 20.12152099609375 78.96624755859375 16.03375244140625 C 74.87847900390625 11.94598388671875 70.11915588378906 8.736953735351562 64.82049560546875 6.495796203613281 C 59.33623123168945 4.176155090332031 53.50878524780273 3 47.5 3 M 47.5 0 C 73.7335205078125 0 95 21.2664794921875 95 47.5 C 95 73.7335205078125 73.7335205078125 95 47.5 95 C 21.2664794921875 95 0 73.7335205078125 0 47.5 C 0 21.2664794921875 21.2664794921875 0 47.5 0 Z" stroke="none" fill="#fe8953"/>
                  </g>
                </g>
              </g>
            </g>
          </g>
        </g>
      </g>
    </g>
    <g id="escritor-de-blogs" transform="translate(766.995 9092.197)">
      <g id="Grupo_1162814" data-name="Grupo 1162814">
        <g id="Grupo_1162798" data-name="Grupo 1162798">
          <path id="Trazado_997310" data-name="Trazado 997310" d="M51.42,5.43H5.59A2.859,2.859,0,0,0,2.73,8.29v7.23H54.28V8.29a2.847,2.847,0,0,0-2.86-2.86ZM9.23,12.15a1.685,1.685,0,1,1,1.69-1.68A1.686,1.686,0,0,1,9.23,12.15Zm6.97,0a1.685,1.685,0,1,1,1.69-1.68A1.686,1.686,0,0,1,16.2,12.15Zm6.97,0a1.685,1.685,0,1,1,1.69-1.68A1.686,1.686,0,0,1,23.17,12.15Z" fill="#ef4343"/>
        </g>
        <g id="Grupo_1162813" data-name="Grupo 1162813">
          <g id="Grupo_1162812" data-name="Grupo 1162812">
            <g id="Grupo_1162799" data-name="Grupo 1162799">
              <path id="Trazado_997311" data-name="Trazado 997311" d="M51.41,61.31H5.59A3.6,3.6,0,0,1,2,57.71V15.51a.734.734,0,0,1,.73-.73H54.28a.734.734,0,0,1,.73.73v5.13a.73.73,0,1,1-1.46,0V16.25H3.46V57.72a2.138,2.138,0,0,0,2.13,2.13H51.41a2.134,2.134,0,0,0,2.14-2.13V45.65a.73.73,0,1,1,1.46,0V57.72a3.589,3.589,0,0,1-3.6,3.59Z" fill="#010101"/>
            </g>
            <g id="Grupo_1162800" data-name="Grupo 1162800">
              <path id="Trazado_997312" data-name="Trazado 997312" d="M32.4,56.43H7.61a.73.73,0,1,1,0-1.46H32.4a.73.73,0,0,1,0,1.46Z" fill="#010101"/>
            </g>
            <g id="Grupo_1162801" data-name="Grupo 1162801">
              <path id="Trazado_997313" data-name="Trazado 997313" d="M49.4,21.13H30.32a.73.73,0,0,1,0-1.46H49.4a.73.73,0,1,1,0,1.46Z" fill="#010101"/>
            </g>
            <g id="Grupo_1162802" data-name="Grupo 1162802">
              <path id="Trazado_997314" data-name="Trazado 997314" d="M49.4,27.01H30.32a.73.73,0,1,1,0-1.46H49.4a.73.73,0,1,1,0,1.46Z" fill="#010101"/>
            </g>
            <g id="Grupo_1162803" data-name="Grupo 1162803">
              <path id="Trazado_997315" data-name="Trazado 997315" d="M44.98,32.9H30.32a.73.73,0,1,1,0-1.46H44.98a.73.73,0,0,1,0,1.46Z" fill="#010101"/>
            </g>
            <g id="Grupo_1162804" data-name="Grupo 1162804">
              <path id="Trazado_997316" data-name="Trazado 997316" d="M40.34,38.77H30.32a.73.73,0,0,1,0-1.46H40.34a.73.73,0,1,1,0,1.46Z" fill="#010101"/>
            </g>
            <g id="Grupo_1162805" data-name="Grupo 1162805">
              <path id="Trazado_997317" data-name="Trazado 997317" d="M34.5,44.66H7.61a.73.73,0,1,1,0-1.46H34.5a.73.73,0,0,1,0,1.46Z" fill="#010101"/>
            </g>
            <g id="Grupo_1162806" data-name="Grupo 1162806">
              <path id="Trazado_997318" data-name="Trazado 997318" d="M33.45,50.54H7.61a.73.73,0,1,1,0-1.46H33.44a.734.734,0,0,1,.73.73A.726.726,0,0,1,33.45,50.54Z" fill="#010101"/>
            </g>
            <g id="Grupo_1162807" data-name="Grupo 1162807">
              <path id="Trazado_997319" data-name="Trazado 997319" d="M54.28,16.25H2.73A.734.734,0,0,1,2,15.52V8.29a3.6,3.6,0,0,1,3.6-3.6H51.43a3.593,3.593,0,0,1,3.59,3.59v7.23A.745.745,0,0,1,54.28,16.25ZM3.47,14.78H53.55V8.29a2.138,2.138,0,0,0-2.13-2.13H5.6A2.132,2.132,0,0,0,3.47,8.29Z" fill="#010101"/>
            </g>
            <g id="Grupo_1162811" data-name="Grupo 1162811">
              <g id="Grupo_1162808" data-name="Grupo 1162808">
                <path id="Trazado_997320" data-name="Trazado 997320" d="M9.22,12.89a2.42,2.42,0,1,1,2.42-2.42A2.428,2.428,0,0,1,9.22,12.89Zm0-3.38a.96.96,0,1,0,.96.96A.948.948,0,0,0,9.22,9.51Z" fill="#010101"/>
              </g>
              <g id="Grupo_1162809" data-name="Grupo 1162809">
                <path id="Trazado_997321" data-name="Trazado 997321" d="M16.2,12.89a2.42,2.42,0,1,1,2.42-2.42A2.428,2.428,0,0,1,16.2,12.89Zm0-3.38a.96.96,0,1,0,.96.96A.96.96,0,0,0,16.2,9.51Z" fill="#010101"/>
              </g>
              <g id="Grupo_1162810" data-name="Grupo 1162810">
                <path id="Trazado_997322" data-name="Trazado 997322" d="M23.17,12.89a2.42,2.42,0,1,1,2.42-2.42A2.428,2.428,0,0,1,23.17,12.89Zm0-3.38a.96.96,0,1,0,.96.96A.948.948,0,0,0,23.17,9.51Z" fill="#010101"/>
              </g>
            </g>
          </g>
        </g>
      </g>
      <g id="Grupo_1162822" data-name="Grupo 1162822">
        <g id="Grupo_1162821" data-name="Grupo 1162821">
          <g id="Grupo_1162815" data-name="Grupo 1162815">
            <path id="Trazado_997323" data-name="Trazado 997323" d="M35.77,35.43h27v7.85h-27Z" transform="matrix(0.62, -0.785, 0.785, 0.62, -12.153, 53.622)" fill="#f7b319"/>
          </g>
          <g id="Grupo_1162820" data-name="Grupo 1162820">
            <g id="Grupo_1162816" data-name="Grupo 1162816">
              <path id="Trazado_997324" data-name="Trazado 997324" d="M60.72,31.93a.69.69,0,0,1-.45-.16l-6.16-4.86a.734.734,0,0,1-.27-.49.746.746,0,0,1,.15-.54l1.71-2.16a4.656,4.656,0,1,1,7.31,5.77L61.3,31.65a.734.734,0,0,1-.49.27C60.78,31.92,60.75,31.93,60.72,31.93Zm-5.13-5.72,5.01,3.96,1.25-1.59a3.2,3.2,0,0,0,.67-2.35,3.158,3.158,0,0,0-1.19-2.13,3.2,3.2,0,0,0-2.35-.67,3.12,3.12,0,0,0-2.13,1.19Z" fill="#010101"/>
            </g>
            <g id="Grupo_1162817" data-name="Grupo 1162817">
              <path id="Trazado_997325" data-name="Trazado 997325" d="M43.98,53.11a.69.69,0,0,1-.45-.16l-6.16-4.86a.732.732,0,0,1-.12-1.03L53.98,25.87a.734.734,0,0,1,.49-.27.746.746,0,0,1,.54.15l6.16,4.86a.734.734,0,0,1,.27.49.746.746,0,0,1-.15.54L44.56,52.83a.734.734,0,0,1-.49.27A.277.277,0,0,1,43.98,53.11Zm-5.13-5.72,5.01,3.96L59.69,31.31l-5.01-3.96Z" fill="#010101"/>
            </g>
            <g id="Grupo_1162818" data-name="Grupo 1162818">
              <path id="Trazado_997326" data-name="Trazado 997326" d="M40.9,50.68a.69.69,0,0,1-.45-.16.732.732,0,0,1-.12-1.03L57.06,28.31a.733.733,0,1,1,1.15.91L41.48,50.4a.754.754,0,0,1-.58.28Z" fill="#010101"/>
            </g>
            <g id="Grupo_1162819" data-name="Grupo 1162819">
              <path id="Trazado_997327" data-name="Trazado 997327" d="M36.36,56.43a.69.69,0,0,1-.45-.16.756.756,0,0,1-.27-.7l1.46-8.18a.748.748,0,0,1,.46-.56.727.727,0,0,1,.71.11l6.16,4.86a.718.718,0,0,1,.27.67.742.742,0,0,1-.43.58l-7.62,3.32a.717.717,0,0,1-.29.06Zm1.97-7.58-1.01,5.63,5.24-2.28Z" fill="#010101"/>
            </g>
          </g>
        </g>
      </g>
      <g id="Grupo_1162827" data-name="Grupo 1162827">
        <g id="Grupo_1162823" data-name="Grupo 1162823">
          <path id="Trazado_997328" data-name="Trazado 997328" d="M7.61,24.2a.734.734,0,0,1-.73-.73V20.4a.734.734,0,0,1,.73-.73h3.07a.73.73,0,0,1,0,1.46H8.34v2.34A.728.728,0,0,1,7.61,24.2Z" fill="#010101"/>
        </g>
        <g id="Grupo_1162824" data-name="Grupo 1162824">
          <path id="Trazado_997329" data-name="Trazado 997329" d="M25.26,38.78H22.19a.73.73,0,0,1,0-1.46h2.34V34.98a.73.73,0,1,1,1.46,0v3.07A.734.734,0,0,1,25.26,38.78Z" fill="#010101"/>
        </g>
        <g id="Grupo_1162825" data-name="Grupo 1162825">
          <path id="Trazado_997330" data-name="Trazado 997330" d="M25.26,24.2a.734.734,0,0,1-.73-.73V21.13H22.19a.73.73,0,1,1,0-1.46h3.07a.734.734,0,0,1,.73.73v3.07A.734.734,0,0,1,25.26,24.2Z" fill="#010101"/>
        </g>
        <g id="Grupo_1162826" data-name="Grupo 1162826">
          <path id="Trazado_997331" data-name="Trazado 997331" d="M10.68,38.78H7.61a.734.734,0,0,1-.73-.73V34.98a.73.73,0,0,1,1.46,0v2.34h2.34a.73.73,0,1,1,0,1.46Z" fill="#010101"/>
        </g>
      </g>
      <g id="Grupo_1162830" data-name="Grupo 1162830">
        <g id="Grupo_1162828" data-name="Grupo 1162828">
          <path id="Trazado_997332" data-name="Trazado 997332" d="M16.44,29.95H12.9a.734.734,0,0,1-.73-.73V24.87a1.752,1.752,0,0,1,1.75-1.75h2.53a3.415,3.415,0,0,1-.01,6.83Zm-2.81-1.46h2.81a1.95,1.95,0,0,0,0-3.9H13.91a.29.29,0,0,0-.29.29v3.61Z" fill="#010101"/>
        </g>
        <g id="Grupo_1162829" data-name="Grupo 1162829">
          <path id="Trazado_997333" data-name="Trazado 997333" d="M17.96,35.32H13.92a1.752,1.752,0,0,1-1.75-1.75V29.22a.734.734,0,0,1,.73-.73h5.06a3.415,3.415,0,0,1,0,6.83Zm-4.33-5.37v3.61a.29.29,0,0,0,.29.29h4.04a1.95,1.95,0,1,0,0-3.9Z" fill="#010101"/>
        </g>
      </g>
    </g>
  </g>
</svg>
