<svg xmlns="http://www.w3.org/2000/svg" xmlns:xlink="http://www.w3.org/1999/xlink" width="508" height="436" viewBox="0 0 508 436">
  <defs>
    <clipPath id="clip-path">
      <rect id="Rect치ngulo_409866" data-name="Rect치ngulo 409866" width="508" height="436" fill="#fff" stroke="#707070" stroke-width="1" opacity="0.61"/>
    </clipPath>
    <filter id="Elipse_11741" x="-4.804" y="51.001" width="518.331" height="518.331" filterUnits="userSpaceOnUse">
      <feOffset dy="3" input="SourceAlpha"/>
      <feGaussianBlur stdDeviation="3" result="blur"/>
      <feFlood flood-opacity="0.161"/>
      <feComposite operator="in" in2="blur"/>
      <feComposite in="SourceGraphic"/>
    </filter>
  </defs>
  <g id="Enmascarar_grupo_1098770" data-name="Enmascarar grupo 1098770" clip-path="url(#clip-path)">
    <g id="Grupo_1161113" data-name="Grupo 1161113" transform="translate(-69 -16.187)">
      <g id="Grupo_1161058" data-name="Grupo 1161058">
        <g transform="matrix(1, 0, 0, 1, 69, 16.19)" filter="url(#Elipse_11741)">
          <circle id="Elipse_11741-2" data-name="Elipse 11741" cx="250.165" cy="250.165" r="250.165" transform="translate(4.2 57)" fill="#fff"/>
        </g>
        <circle id="Elipse_11742" data-name="Elipse 11742" cx="228.644" cy="228.644" r="228.644" transform="translate(0 323.352) rotate(-45)" fill="#9b4467"/>
      </g>
      <g id="Grupo_1161112" data-name="Grupo 1161112" transform="translate(144.623 20)">
        <circle id="Elipse_11743" data-name="Elipse 11743" cx="56.145" cy="56.145" r="56.145" transform="translate(281.087 138.62)" fill="#7ecfe7"/>
        <g id="Grupo_1161063" data-name="Grupo 1161063" transform="translate(0 152.27)">
          <path id="Trazado_994908" data-name="Trazado 994908" d="M75.485,518.169v8.085H421.516v-8.085a20.8,20.8,0,0,0-20.791-20.8H96.289A20.8,20.8,0,0,0,75.485,518.169Z" transform="translate(-74.551 -496.432)" fill="#7ecfe7"/>
          <path id="Trazado_994909" data-name="Trazado 994909" d="M75.485,574.788V803.582a20.8,20.8,0,0,0,20.8,20.791H400.726a20.8,20.8,0,0,0,20.791-20.791V574.788Z" transform="translate(-74.551 -544.966)" fill="#fff"/>
          <g id="Grupo_1161059" data-name="Grupo 1161059" transform="translate(0 0)">
            <path id="Trazado_994910" data-name="Trazado 994910" d="M94.723,775.207H399.159a21.748,21.748,0,0,0,21.723-21.723V516.6a21.755,21.755,0,0,0-21.723-21.737H94.723A21.761,21.761,0,0,0,72.986,516.6V753.482A21.756,21.756,0,0,0,94.723,775.207ZM399.159,496.732A19.887,19.887,0,0,1,419.017,516.6V753.482a19.88,19.88,0,0,1-19.858,19.858H94.723a19.886,19.886,0,0,1-19.871-19.858V516.6a19.893,19.893,0,0,1,19.871-19.871Z" transform="translate(-72.986 -494.866)" fill="#29275f"/>
          </g>
          <g id="Grupo_1161060" data-name="Grupo 1161060" transform="translate(0 28.889)">
            <path id="Trazado_994911" data-name="Trazado 994911" d="M507.372,574.155h184.3a.933.933,0,1,0,0-1.866h-184.3a.933.933,0,1,0,0,1.866Z" transform="translate(-506.438 -572.289)" fill="#29275f"/>
          </g>
          <g id="Grupo_1161061" data-name="Grupo 1161061" transform="translate(208.108 28.889)">
            <path id="Trazado_994912" data-name="Trazado 994912" d="M73.919,574.155H211.842a.933.933,0,1,0,0-1.866H73.919a.933.933,0,1,0,0,1.866Z" transform="translate(-72.986 -572.289)" fill="#29275f"/>
          </g>
          <circle id="Elipse_11744" data-name="Elipse 11744" cx="6.546" cy="6.546" r="6.546" transform="translate(88.749 24.221) rotate(-135)" fill="#7351fa"/>
          <g id="Grupo_1161062" data-name="Grupo 1161062" transform="translate(18.109 7.485)">
            <path id="Trazado_994913" data-name="Trazado 994913" d="M924.213,529.882a7.479,7.479,0,1,0-7.478-7.479A7.488,7.488,0,0,0,924.213,529.882Zm0-13.092A5.613,5.613,0,1,1,918.6,522.4,5.619,5.619,0,0,1,924.213,516.791Z" transform="translate(-916.735 -514.925)" fill="#29275f"/>
          </g>
          <ellipse id="Elipse_11745" data-name="Elipse 11745" cx="6.546" cy="6.546" rx="6.546" ry="6.546" transform="matrix(-0.23, -0.973, 0.973, -0.23, 52.893, 23.691)" fill="#ecb85e"/>
        </g>
        <g id="Grupo_1161064" data-name="Grupo 1161064" transform="translate(228.549 303.259)">
          <path id="Trazado_994914" data-name="Trazado 994914" d="M204.194,1028.417H249a.933.933,0,0,0,.933-.929l.374-84.995h13.785a.932.932,0,0,0,.692-1.557l-37.115-41.111a.93.93,0,0,0-.692-.308h0a.928.928,0,0,0-.692.308l-37.1,41.111a.932.932,0,0,0,.692,1.557h13.762l-.374,84.988a.932.932,0,0,0,.933.937Zm43.875-1.866H205.132l.374-84.988a.933.933,0,0,0-.933-.937h-12.6l35-38.786,35.016,38.786H249.376a.933.933,0,0,0-.933.929Z" transform="translate(-188.94 -899.517)" fill="#29275f"/>
        </g>
        <g id="Grupo_1161065" data-name="Grupo 1161065" transform="translate(44.597 269.71)">
          <path id="Trazado_994915" data-name="Trazado 994915" d="M697.565,971.861h44.8a.932.932,0,0,0,.933-.933V852.583H757.08a.932.932,0,0,0,.692-1.557l-37.115-41.112a.932.932,0,0,0-.692-.308h0a.931.931,0,0,0-.692.308l-37.1,41.112a.932.932,0,0,0,.692,1.557h13.768V970.927A.933.933,0,0,0,697.565,971.861ZM741.434,970H698.5V851.65a.932.932,0,0,0-.933-.933h-12.6l35-38.787,35.016,38.787H742.367a.932.932,0,0,0-.933.933Z" transform="translate(-681.931 -809.606)" fill="#29275f"/>
        </g>
        <g id="Grupo_1161067" data-name="Grupo 1161067" transform="translate(236.457 204.023)">
          <path id="Trazado_994916" data-name="Trazado 994916" d="M160.786,685.9l-9.246,3.4a42.048,42.048,0,0,0,7.17,12.517l7.674-6.479a31.057,31.057,0,0,0,8.429,6.982l-5.032,8.743a41.084,41.084,0,0,0,13.524,4.906l1.761-9.938a33.842,33.842,0,0,0,10.881,0l1.76,9.938a41.056,41.056,0,0,0,13.524-4.906l-5.032-8.743a31.058,31.058,0,0,0,8.429-6.982l7.673,6.479a42.054,42.054,0,0,0,7.17-12.517l-9.246-3.4a31.978,31.978,0,0,0,2.013-10.756h9.814a42.094,42.094,0,0,0-2.58-14.215l-9.057,3.334a30.668,30.668,0,0,0-5.471-9.687l7.359-6.164a41.333,41.333,0,0,0-11.071-9.247l-4.718,8.24a29.774,29.774,0,0,0-10.441-3.837l1.634-9.309a35.08,35.08,0,0,0-3.584-.5l-3.586-.188-3.647.188a35.048,35.048,0,0,0-3.586.5l1.635,9.309A29.764,29.764,0,0,0,174.5,647.4l-4.718-8.24a41.32,41.32,0,0,0-11.07,9.247l7.36,6.164a30.644,30.644,0,0,0-5.473,9.687l-9.057-3.334a42.131,42.131,0,0,0-2.58,14.215h9.876A30.5,30.5,0,0,0,160.786,685.9Z" transform="translate(-148.96 -633.567)" fill="#ecb85e"/>
          <g id="Grupo_1161066" data-name="Grupo 1161066" transform="translate(18.356 18.01)">
            <path id="Trazado_994917" data-name="Trazado 994917" d="M221.344,728.213a23.19,23.19,0,1,0-23.19-23.19A23.217,23.217,0,0,0,221.344,728.213Zm0-44.515a21.324,21.324,0,1,1-21.324,21.324A21.349,21.349,0,0,1,221.344,683.7Z" transform="translate(-198.154 -681.833)" fill="#29275f"/>
          </g>
        </g>
        <g id="Grupo_1161082" data-name="Grupo 1161082" transform="translate(81.338 33.663)">
          <rect id="Rect치ngulo_409865" data-name="Rect치ngulo 409865" width="58.78" height="163.568" transform="translate(64.659 233.094)" fill="#ecb85e"/>
          <path id="Trazado_994918" data-name="Trazado 994918" d="M444.772,772.271v18.613q8.625,1.645,17.325,2.481,8.928.863,17.889.862t17.9-.862q8.7-.831,17.325-2.481V772.271a179.309,179.309,0,0,1-25.545,2.289h-.032a1.148,1.148,0,0,0-.192.011c-1.182.032-2.406.053-3.673.085-1.842.021-3.769.043-5.782.043s-3.929-.021-5.771-.043c-1.267-.032-2.492-.053-3.673-.085a.967.967,0,0,0-.171-.011h-.085A178.942,178.942,0,0,1,444.772,772.271Z" transform="translate(-387.377 -550.155)" fill="#7351fa"/>
          <path id="Trazado_994919" data-name="Trazado 994919" d="M293.5,578.893h.011l17.154,27.962a4.953,4.953,0,0,0,8.38.117c8.7-13.481,26.887-44.445,19.923-58.362-8.912-17.814-34.223-48.374-34.872-49.151C301.325,527.09,296.683,558.661,293.5,578.893Z" transform="translate(-156.243 -379.138)" fill="#7351fa"/>
          <path id="Trazado_994920" data-name="Trazado 994920" d="M390.054,245.052a485,485,0,0,0,111.283,0l-.16-.383C486.558,212,445.69,179.5,445.69,179.5s-40.857,32.5-55.476,65.166Z" transform="translate(-353.087 -178.568)" fill="#7351fa"/>
          <path id="Trazado_994921" data-name="Trazado 994921" d="M387.308,409.012c2.758,27.632,7.411,59.193,10.584,79.435C399.883,501.16,401.3,509.4,401.3,509.4a.081.081,0,0,1,.032.011,45.687,45.687,0,0,0,5.995,1.395A178.9,178.9,0,0,0,432.84,513.1h.085a.956.956,0,0,1,.171.011c1.182.032,2.406.053,3.673.085,1.842.021,3.759.043,5.771.043s3.94-.021,5.782-.043c1.267-.032,2.492-.053,3.673-.085a1.134,1.134,0,0,1,.192-.011h.032a179.372,179.372,0,0,0,25.545-2.289,45.725,45.725,0,0,0,5.984-1.395.081.081,0,0,1,.032-.011s1.416-8.242,3.407-20.956c3.184-20.231,7.826-51.8,10.595-79.435,2.449-24.746,3.4-46.341.4-53.837a485,485,0,0,1-111.283,0C383.911,362.671,384.849,384.266,387.308,409.012Z" transform="translate(-349.931 -288.692)" fill="#fff"/>
          <path id="Trazado_994922" data-name="Trazado 994922" d="M476.9,420.125a37.071,37.071,0,1,1-37.066,37.066A37.059,37.059,0,0,1,476.9,420.125Zm0,62.2a25.129,25.129,0,1,0-25.129-25.129A25.121,25.121,0,0,0,476.9,482.32Z" transform="translate(-384.293 -329.407)" fill="#7351fa"/>
          <path id="Trazado_994923" data-name="Trazado 994923" d="M680.313,606.972a4.953,4.953,0,0,0,8.38-.117l17.154-27.962c-3.173-20.242-7.827-51.8-10.584-79.435-.65.777-25.971,31.337-34.884,49.151C653.427,562.526,671.6,593.491,680.313,606.972Z" transform="translate(-657.886 -379.138)" fill="#7351fa"/>
          <g id="Grupo_1161068" data-name="Grupo 1161068" transform="translate(136.323 119.388)">
            <path id="Trazado_994924" data-name="Trazado 994924" d="M313.316,608.591a5.841,5.841,0,0,0,4.928-2.679c10.444-16.182,26.923-45.4,19.975-59.287-9.058-18.1-34.734-49.024-34.991-49.332a.933.933,0,0,0-1.644.506c-2.9,28.95-7.879,62.162-10.588,79.382a.934.934,0,0,0,.2.736l17.091,27.858a5.866,5.866,0,0,0,4.953,2.817Zm-10.1-108.377c5.516,6.756,25.6,31.782,33.336,47.245,6.779,13.546-11.64,44.682-19.872,57.44a4.02,4.02,0,0,1-6.8-.1l-16.984-27.682C295.548,560.226,300.3,528.47,303.214,500.214Z" transform="translate(-290.984 -496.959)" fill="#29275f"/>
          </g>
          <g id="Grupo_1161069" data-name="Grupo 1161069" transform="translate(36.086 0)">
            <path id="Trazado_994925" data-name="Trazado 994925" d="M444.065,247.615a486.064,486.064,0,0,0,55.749-3.2.933.933,0,0,0,.755-1.287l-.159-.381c-14.556-32.524-55.358-65.213-55.769-65.539a.929.929,0,0,0-1.16,0c-.411.326-41.2,33.015-55.748,65.515l-.11.264a1.083,1.083,0,0,0,.026.9.973.973,0,0,0,.669.526A485.854,485.854,0,0,0,444.065,247.615Zm54.276-4.915a484.688,484.688,0,0,1-108.552,0c13.675-29.711,49.283-59.489,54.271-63.566C449.048,183.211,484.656,212.984,498.342,242.7Z" transform="translate(-387.538 -177)" fill="#29275f"/>
          </g>
          <g id="Grupo_1161071" data-name="Grupo 1161071" transform="translate(54.605 89.783)">
            <g id="Grupo_1161070" data-name="Grupo 1161070">
              <path id="Trazado_994926" data-name="Trazado 994926" d="M475.326,493.625a38,38,0,1,0-38-38A38.047,38.047,0,0,0,475.326,493.625Zm0-74.141a36.138,36.138,0,1,1-36.138,36.138A36.178,36.178,0,0,1,475.326,419.484Z" transform="translate(-437.322 -417.618)" fill="#29275f"/>
            </g>
          </g>
          <g id="Grupo_1161072" data-name="Grupo 1161072" transform="translate(0 119.387)">
            <path id="Trazado_994927" data-name="Trazado 994927" d="M682.9,608.591h.076a5.868,5.868,0,0,0,4.954-2.817l17.155-27.962a.935.935,0,0,0,.126-.632c-3.333-21.257-7.875-52.285-10.578-79.382a.933.933,0,0,0-1.644-.506c-.257.308-25.959,31.26-35,49.332-6.952,13.915,9.537,43.117,19.985,59.286h0A5.839,5.839,0,0,0,682.9,608.591Zm20.414-31.461L686.338,604.8a4.013,4.013,0,0,1-3.387,1.926,3.913,3.913,0,0,1-3.414-1.828c-8.236-12.747-26.664-43.863-19.882-57.438,7.724-15.437,27.827-40.485,33.347-47.245C695.715,526.667,700.073,556.443,703.313,577.13ZM678.754,605.4h0Z" transform="translate(-656.326 -496.958)" fill="#29275f"/>
          </g>
          <g id="Grupo_1161073" data-name="Grupo 1161073" transform="translate(56.463 221.181)">
            <path id="Trazado_994928" data-name="Trazado 994928" d="M478.42,793.589c5.979,0,12.031-.291,17.988-.867,5.787-.552,11.645-1.391,17.41-2.493a.933.933,0,0,0,.758-.916V770.7a.932.932,0,0,0-1.1-.918,178.96,178.96,0,0,1-25.409,2.275c-.1.012-.237,0-.353.025l-3.54.071c-3.653.045-7.842.045-11.518,0L469,772.066l-.2-.011a178.445,178.445,0,0,1-25.435-2.275.917.917,0,0,0-.763.2.935.935,0,0,0-.333.715v18.613a.932.932,0,0,0,.758.916c5.777,1.1,11.635,1.94,17.411,2.493C466.4,793.3,472.447,793.589,478.42,793.589Zm34.29-5.05c-5.463,1.021-11,1.8-16.48,2.326a185.9,185.9,0,0,1-35.61,0c-5.466-.523-11.006-1.3-16.481-2.326V771.807a186.85,186.85,0,0,0,24.551,2.115c.044.007.215.009.259.011l3.676.085c3.715.045,7.894.045,11.587,0l3.688-.085.166-.944.033.933a187.4,187.4,0,0,0,24.611-2.116v16.734Z" transform="translate(-442.274 -769.764)" fill="#29275f"/>
          </g>
          <g id="Grupo_1161074" data-name="Grupo 1161074" transform="translate(34.176 65.551)">
            <path id="Trazado_994929" data-name="Trazado 994929" d="M441,512.6c2.016,0,3.946-.021,5.792-.043l3.688-.085.166-.944.033.933a180.952,180.952,0,0,0,25.707-2.3,51.113,51.113,0,0,0,6.074-1.414v0a.932.932,0,0,0,.7-.749c.014-.082,1.441-8.394,3.411-20.969,2.712-17.238,7.7-50.489,10.6-79.485,2.9-29.316,3.016-47.576.343-54.276a.948.948,0,0,0-.973-.58,484.7,484.7,0,0,1-111.07,0,.942.942,0,0,0-.973.58c-2.684,6.723-2.569,24.984.343,54.275h0c2.708,27.139,7.254,58.2,10.591,79.486,1.969,12.574,3.4,20.886,3.41,20.968a.933.933,0,0,0,.657.738l.042.014a50.927,50.927,0,0,0,6.082,1.415,180.294,180.294,0,0,0,25.65,2.3c.044.007.215.009.259.011l3.676.085C437.061,512.58,438.98,512.6,441,512.6Zm9.636-2a2,2,0,0,0-.339.025l-3.54.071c-3.653.045-7.843.045-11.518,0l-3.659-.085-.2-.011a178.453,178.453,0,0,1-25.435-2.275,51.9,51.9,0,0,1-5.367-1.209c-.352-2.068-1.633-9.677-3.309-20.378-3.333-21.257-7.875-52.287-10.578-79.382h0c-2.788-28.047-3.025-45.776-.709-52.734a486.511,486.511,0,0,0,110.035,0c2.307,6.937,2.069,24.665-.709,52.734-2.9,28.949-7.879,62.161-10.588,79.381-1.679,10.719-2.962,18.334-3.31,20.388a54.9,54.9,0,0,1-5.357,1.2,178.878,178.878,0,0,1-25.406,2.275ZM385.765,407.445h0Z" transform="translate(-382.564 -352.676)" fill="#29275f"/>
          </g>
          <g id="Grupo_1161075" data-name="Grupo 1161075" transform="translate(47.028 198.82)">
            <path id="Trazado_994930" data-name="Trazado 994930" d="M463.884,715.925c26.4,0,43.338-4.183,43.591-4.247a.933.933,0,1,0-.459-1.809c-.374.1-38.094,9.4-88.9-.013a.933.933,0,1,0-.339,1.835A253.832,253.832,0,0,0,463.884,715.925Z" transform="translate(-417.016 -709.839)" fill="#29275f"/>
          </g>
          <g id="Grupo_1161076" data-name="Grupo 1161076" transform="translate(95.26 16.196)">
            <path id="Trazado_994931" data-name="Trazado 994931" d="M466.667,263.712a.933.933,0,0,0,.84-1.337c-6.416-13.325-35.478-40.565-36.712-41.719a.933.933,0,1,0-1.273,1.363c.3.281,30.04,28.154,36.3,41.164A.934.934,0,0,0,466.667,263.712Z" transform="translate(-429.226 -220.404)" fill="#29275f"/>
          </g>
          <g id="Grupo_1161077" data-name="Grupo 1161077" transform="translate(151.304 141.903)">
            <path id="Trazado_994932" data-name="Trazado 994932" d="M321.274,632.969a.933.933,0,0,0,.835-.516c.635-1.273,15.541-31.27,15.84-40.446.306-9.373-23.529-33.415-24.543-34.434a.933.933,0,1,0-1.323,1.318c6.755,6.782,24.233,25.941,24,33.057-.286,8.771-15.492,39.366-15.645,39.673a.932.932,0,0,0,.833,1.349Z" transform="translate(-311.812 -557.299)" fill="#29275f"/>
          </g>
          <g id="Grupo_1161078" data-name="Grupo 1161078" transform="translate(115.245 247.265)">
            <path id="Trazado_994933" data-name="Trazado 994933" d="M474.44,973.965a.932.932,0,0,0,.933-.933V840.6a.933.933,0,0,0-1.866,0v132.43A.93.93,0,0,0,474.44,973.965Z" transform="translate(-473.507 -839.671)" fill="#29275f"/>
          </g>
          <g id="Grupo_1161079" data-name="Grupo 1161079" transform="translate(102.797 281.153)">
            <path id="Trazado_994934" data-name="Trazado 994934" d="M507.8,1033.318a.932.932,0,0,0,.933-.933V931.423a.933.933,0,1,0-1.866,0v100.962A.933.933,0,0,0,507.8,1033.318Z" transform="translate(-506.867 -930.49)" fill="#29275f"/>
          </g>
          <g id="Grupo_1161080" data-name="Grupo 1161080" transform="translate(73.787 242.277)">
            <path id="Trazado_994935" data-name="Trazado 994935" d="M585.548,879.144a.932.932,0,0,0,.933-.933V827.235a.933.933,0,1,0-1.866,0v50.977A.932.932,0,0,0,585.548,879.144Z" transform="translate(-584.615 -826.302)" fill="#29275f"/>
          </g>
          <g id="Grupo_1161081" data-name="Grupo 1161081" transform="translate(73.787 318.839)">
            <path id="Trazado_994936" data-name="Trazado 994936" d="M585.548,1089.024a.932.932,0,0,0,.933-.933v-55.668a.933.933,0,1,0-1.866,0v55.669A.933.933,0,0,0,585.548,1089.024Z" transform="translate(-584.615 -1031.49)" fill="#29275f"/>
          </g>
        </g>
        <g id="Grupo_1161083" data-name="Grupo 1161083" transform="translate(9.355 199.712)">
          <path id="Trazado_994937" data-name="Trazado 994937" d="M839.592,683.668a.934.934,0,0,0,.919-.772l1.112-6.329a23.883,23.883,0,0,0,6.39,0l1.112,6.329a.934.934,0,0,0,1.083.757,31.125,31.125,0,0,0,10.136-3.693.934.934,0,0,0,.341-1.275l-3.2-5.527a23.984,23.984,0,0,0,4.935-4.093l4.874,4.09a.911.911,0,0,0,.683.214.931.931,0,0,0,.633-.332,31.129,31.129,0,0,0,5.376-9.342.933.933,0,0,0-.557-1.2l-5.873-2.142a23.559,23.559,0,0,0,1.174-6.345h6.222a.933.933,0,0,0,.933-.94,31.589,31.589,0,0,0-1.9-10.619.932.932,0,0,0-1.2-.556l-5.724,2.086a23.657,23.657,0,0,0-3.2-5.669l4.631-3.889a.933.933,0,0,0,.119-1.308,30.3,30.3,0,0,0-8.273-6.927.932.932,0,0,0-1.273.341l-2.987,5.164a23.515,23.515,0,0,0-6.15-2.255l1.03-5.865a.933.933,0,0,0-.794-1.086c-.273-.036-.546-.08-.818-.123a17.706,17.706,0,0,0-1.862-.229l-2.625-.126-2.711.126a17.649,17.649,0,0,0-1.866.229c-.272.043-.545.087-.818.123a.933.933,0,0,0-.794,1.086l1.03,5.865a23.535,23.535,0,0,0-6.151,2.255l-2.987-5.164a.93.93,0,0,0-1.274-.341,30.325,30.325,0,0,0-8.273,6.927.932.932,0,0,0,.12,1.308l4.631,3.889a23.682,23.682,0,0,0-3.2,5.669l-5.725-2.086a.935.935,0,0,0-1.2.557,31.587,31.587,0,0,0-1.9,10.619.933.933,0,0,0,.933.94H820.9a23.544,23.544,0,0,0,1.172,6.345L816.2,662.5a.933.933,0,0,0-.557,1.2,31.162,31.162,0,0,0,5.377,9.342.932.932,0,0,0,.633.332.916.916,0,0,0,.682-.214l4.874-4.09a23.941,23.941,0,0,0,4.935,4.093l-3.2,5.527a.935.935,0,0,0,.342,1.275,31.115,31.115,0,0,0,10.137,3.693A.931.931,0,0,0,839.592,683.668Zm1.27-9.1a.933.933,0,0,0-.919.772l-1.1,6.295a29.264,29.264,0,0,1-7.8-2.839l3.182-5.5a.934.934,0,0,0-.344-1.277,22.083,22.083,0,0,1-5.859-4.857.932.932,0,0,0-1.31-.109l-4.842,4.061a29.312,29.312,0,0,1-4.136-7.186l5.851-2.134a.934.934,0,0,0,.554-1.2,21.731,21.731,0,0,1-1.392-7.516.933.933,0,0,0-.933-.926h-6.176a29.708,29.708,0,0,1,1.457-8.172l5.706,2.08a.933.933,0,0,0,1.2-.569,21.839,21.839,0,0,1,3.785-6.709.932.932,0,0,0-.119-1.307l-4.6-3.867a28.454,28.454,0,0,1,6.365-5.318l2.973,5.141a.932.932,0,0,0,1.278.338,21.707,21.707,0,0,1,7.263-2.662.933.933,0,0,0,.76-1.08l-1.023-5.828a15.1,15.1,0,0,1,1.568-.191l2.618-.127L847.4,624a15.06,15.06,0,0,1,1.564.191l-1.024,5.828a.932.932,0,0,0,.76,1.08,21.7,21.7,0,0,1,7.263,2.662.953.953,0,0,0,.71.1.931.931,0,0,0,.568-.435l2.974-5.141a28.4,28.4,0,0,1,6.365,5.318l-4.6,3.867a.932.932,0,0,0-.119,1.307,21.849,21.849,0,0,1,3.785,6.709.933.933,0,0,0,1.2.569l5.7-2.08A29.643,29.643,0,0,1,874,652.146h-6.176a.933.933,0,0,0-.933.926,21.719,21.719,0,0,1-1.393,7.516.934.934,0,0,0,.554,1.2l5.851,2.134a29.249,29.249,0,0,1-4.136,7.186l-4.842-4.061a.933.933,0,0,0-1.31.109,22.076,22.076,0,0,1-5.858,4.857.931.931,0,0,0-.343,1.277l3.181,5.5a29.237,29.237,0,0,1-7.8,2.84l-1.1-6.295a.936.936,0,0,0-.383-.6.948.948,0,0,0-.7-.155,21.965,21.965,0,0,1-7.588,0A.932.932,0,0,0,840.862,674.571Z" transform="translate(-813.749 -622.011)" fill="#29275f"/>
        </g>
        <g id="Grupo_1161084" data-name="Grupo 1161084" transform="translate(24.332 214.452)">
          <path id="Trazado_994938" data-name="Trazado 994938" d="M869.981,693.69A16.087,16.087,0,1,0,853.889,677.6,16.11,16.11,0,0,0,869.981,693.69Zm0-30.308A14.221,14.221,0,1,1,855.755,677.6,14.238,14.238,0,0,1,869.981,663.382Z" transform="translate(-853.889 -661.516)" fill="#29275f"/>
        </g>
        <path id="Trazado_994939" data-name="Trazado 994939" d="M886.421,818.293a10.549,10.549,0,0,1,14.918,0,10.937,10.937,0,0,1,.821.921,10.548,10.548,0,0,1-14.816,14.816,10.152,10.152,0,0,1-.923-.818A10.549,10.549,0,0,1,886.421,818.293Zm12.518,12.518a7.152,7.152,0,1,0-10.115,0A7.154,7.154,0,0,0,898.939,830.811Z" transform="translate(-858.901 -543.406)" fill="#ecb85e"/>
        <path id="Trazado_994940" data-name="Trazado 994940" d="M104.659,599.322a10.549,10.549,0,0,1,14.918,0,10.908,10.908,0,0,1,.821.921,10.548,10.548,0,0,1-14.816,14.816,10.168,10.168,0,0,1-.923-.818A10.55,10.55,0,0,1,104.659,599.322Zm12.518,12.518a7.152,7.152,0,1,0-10.115,0A7.153,7.153,0,0,0,117.177,611.84Z" transform="translate(214.563 -406.141)" fill="#ecb85e"/>
        <g id="Grupo_1161085" data-name="Grupo 1161085" transform="translate(294.352 279.163)">
          <path id="Trazado_994941" data-name="Trazado 994941" d="M110.631,881.338a.931.931,0,0,0,.919-.77l.788-4.488a18.544,18.544,0,0,0,4.37,0l.788,4.488a.936.936,0,0,0,.384.6.957.957,0,0,0,.7.153,23.534,23.534,0,0,0,7.627-2.778.936.936,0,0,0,.341-1.275l-2.268-3.921a17.83,17.83,0,0,0,3.374-2.795l3.463,2.906a.932.932,0,0,0,1.316-.117,23.8,23.8,0,0,0,4.038-7.033.933.933,0,0,0-.556-1.2l-4.158-1.519a17.9,17.9,0,0,0,.806-4.344h4.407a.933.933,0,0,0,.933-.938,23.449,23.449,0,0,0-1.434-7.989.932.932,0,0,0-1.193-.556l-4.042,1.467a17.718,17.718,0,0,0-2.2-3.875l3.282-2.755a.932.932,0,0,0,.119-1.308,23.055,23.055,0,0,0-6.228-5.218.933.933,0,0,0-1.275.339l-2.113,3.646a17.617,17.617,0,0,0-4.216-1.536l.731-4.147a.933.933,0,0,0-.8-1.088c-.229-.029-.456-.066-.682-.1-.44-.07-.878-.14-1.322-.168l-1.966-.085-2.041.084c-.461.03-.906.1-1.35.171-.222.035-.444.071-.663.1a.934.934,0,0,0-.8,1.085l.721,4.147a17.662,17.662,0,0,0-4.217,1.538l-2.1-3.644a.943.943,0,0,0-.567-.435.926.926,0,0,0-.708.095,22.606,22.606,0,0,0-6.232,5.22.935.935,0,0,0,.12,1.306L100,847.362a17.693,17.693,0,0,0-2.19,3.875l-4.057-1.467a.929.929,0,0,0-1.193.556,23.849,23.849,0,0,0-1.433,7.984.933.933,0,0,0,.933.944h4.421a17.818,17.818,0,0,0,.794,4.344l-4.16,1.519a.934.934,0,0,0-.556,1.2,23.841,23.841,0,0,0,4.053,7.033.93.93,0,0,0,.634.332.952.952,0,0,0,.683-.215l3.451-2.908a18.147,18.147,0,0,0,3.384,2.8l-2.268,3.921a.933.933,0,0,0,.34,1.273,23.247,23.247,0,0,0,7.629,2.78A1.076,1.076,0,0,0,110.631,881.338Zm.944-7.246a.934.934,0,0,0-.918.77l-.78,4.442a21.414,21.414,0,0,1-5.287-1.926l2.249-3.888a.932.932,0,0,0-.344-1.275,16.306,16.306,0,0,1-4.313-3.564.938.938,0,0,0-1.311-.109l-3.409,2.873a22.073,22.073,0,0,1-2.809-4.876l4.124-1.507a.934.934,0,0,0,.553-1.2,16.007,16.007,0,0,1-1.011-5.517.933.933,0,0,0-.933-.927H93.023a22,22,0,0,1,.989-5.541l4.028,1.456a.921.921,0,0,0,.718-.035.933.933,0,0,0,.48-.536,15.874,15.874,0,0,1,2.77-4.91.933.933,0,0,0-.118-1.308l-3.24-2.728a20.768,20.768,0,0,1,4.322-3.609l2.082,3.611a.933.933,0,0,0,1.279.339,15.8,15.8,0,0,1,5.33-1.942.934.934,0,0,0,.762-1.08L111.713,837c.3-.047.609-.091.911-.111l1.94-.082,1.866.084c.293.018.6.062.9.109l-.724,4.1a.933.933,0,0,0,.761,1.082,15.8,15.8,0,0,1,5.33,1.942.953.953,0,0,0,.709.1.933.933,0,0,0,.569-.434l2.093-3.611a21.219,21.219,0,0,1,4.321,3.607l-3.248,2.728a.932.932,0,0,0-.119,1.308,15.887,15.887,0,0,1,2.784,4.91.933.933,0,0,0,1.2.57l4.015-1.456a21.6,21.6,0,0,1,.993,5.541H131.66a.933.933,0,0,0-.933.927,16.012,16.012,0,0,1-1.025,5.517.934.934,0,0,0,.553,1.2l4.124,1.507a22,22,0,0,1-2.8,4.876l-3.423-2.873a.93.93,0,0,0-1.313.113,16.009,16.009,0,0,1-4.3,3.56.932.932,0,0,0-.344,1.275l2.247,3.886a21.611,21.611,0,0,1-5.285,1.926l-.78-4.44a.916.916,0,0,0-1.079-.756,16.538,16.538,0,0,1-5.572,0A.808.808,0,0,0,111.576,874.092Z" transform="translate(-91.129 -834.94)" fill="#29275f"/>
        </g>
        <g id="Grupo_1161093" data-name="Grupo 1161093" transform="translate(11.395 46.395)">
          <g id="Grupo_1161087" data-name="Grupo 1161087" transform="translate(0.933 0.933)">
            <g id="Grupo_1161086" data-name="Grupo 1161086">
              <path id="Trazado_994942" data-name="Trazado 994942" d="M728.809,226.231v51.213a12.656,12.656,0,0,0,12.612,12.612h20.056l30.3,19.179-6.828-19.179h22.108a12.644,12.644,0,0,0,12.612-12.612V226.231a12.644,12.644,0,0,0-12.612-12.612H741.421A12.657,12.657,0,0,0,728.809,226.231Z" transform="translate(-728.809 -213.619)" fill="#fff"/>
            </g>
          </g>
          <g id="Grupo_1161090" data-name="Grupo 1161090" transform="translate(20.719 4.432)">
            <path id="Trazado_994943" data-name="Trazado 994943" d="M780.491,253.542q-.126-1.286-.127-2.6a25.438,25.438,0,1,1,50.876,0,45.643,45.643,0,0,1-.952,6.876c-1.9,9.342-7.607,25.973-24.481,35.536h-.3c-19.911-11.288-24.259-32.4-25.19-39.789Zm25.317-15.616a13.013,13.013,0,1,0,13.013,13.013A13,13,0,0,0,805.807,237.927Z" transform="translate(-779.388 -224.563)" fill="#ecb85e"/>
            <g id="Grupo_1161088" data-name="Grupo 1161088">
              <path id="Trazado_994944" data-name="Trazado 994944" d="M803.946,292.718h.3a.934.934,0,0,0,.46-.121c17.279-9.793,23.039-26.86,24.935-36.161a46.149,46.149,0,0,0,.97-7.031,26.37,26.37,0,1,0-52.741-.033c0,.724.028,1.447.084,2.155a.932.932,0,0,0-.119.586c1.059,8.4,5.679,29.159,25.655,40.484A.934.934,0,0,0,803.946,292.718Zm24.8-43.346a45.625,45.625,0,0,1-.933,6.688c-1.821,8.937-7.322,25.278-23.715,34.735-18.623-10.743-23.224-30.1-24.352-38.45a.765.765,0,0,0,.111-.463c-.081-.819-.122-1.663-.122-2.511a24.5,24.5,0,1,1,49.01,0Z" transform="translate(-777.824 -222.996)" fill="#29275f"/>
            </g>
            <g id="Grupo_1161089" data-name="Grupo 1161089" transform="translate(12.473 12.431)">
              <path id="Trazado_994945" data-name="Trazado 994945" d="M825.052,284.2a13.946,13.946,0,1,0-13.945-13.946A13.963,13.963,0,0,0,825.052,284.2Zm0-26.026a12.08,12.08,0,1,1-12.079,12.08A12.094,12.094,0,0,1,825.052,258.176Z" transform="translate(-811.106 -256.31)" fill="#29275f"/>
            </g>
          </g>
          <g id="Grupo_1161092" data-name="Grupo 1161092" transform="translate(0 0)">
            <g id="Grupo_1161091" data-name="Grupo 1161091">
              <path id="Trazado_994946" data-name="Trazado 994946" d="M790.207,308.6a.933.933,0,0,0,.879-1.245L784.7,289.422h20.786a13.56,13.56,0,0,0,13.545-13.544V224.664a13.561,13.561,0,0,0-13.545-13.546H739.852a13.561,13.561,0,0,0-13.545,13.546v51.213a13.56,13.56,0,0,0,13.545,13.544h19.786l30.07,19.035A.933.933,0,0,0,790.207,308.6Zm15.28-95.617a11.693,11.693,0,0,1,11.68,11.68v51.213a11.692,11.692,0,0,1-11.68,11.679H783.379a.933.933,0,0,0-.88,1.246l5.921,16.633L760.407,287.7a.931.931,0,0,0-.5-.145H739.852a11.692,11.692,0,0,1-11.68-11.679V224.664a11.693,11.693,0,0,1,11.68-11.68Z" transform="translate(-726.307 -211.119)" fill="#29275f"/>
            </g>
          </g>
        </g>
        <g id="Grupo_1161098" data-name="Grupo 1161098" transform="translate(219.379)">
          <g id="Grupo_1161096" data-name="Grupo 1161096" transform="translate(0.933 0.933)">
            <path id="Trazado_994947" data-name="Trazado 994947" d="M177.011,101.41v47.053a12.163,12.163,0,0,0,12.127,12.127h21.81l-6.679,18.75,29.59-18.75h19.795a12.163,12.163,0,0,0,12.127-12.127V101.41a12.174,12.174,0,0,0-12.127-12.127H189.138A12.175,12.175,0,0,0,177.011,101.41Z" transform="translate(-177.011 -89.283)" fill="#fff"/>
            <g id="Grupo_1161095" data-name="Grupo 1161095" transform="translate(12.896 4.438)">
              <path id="Trazado_994948" data-name="Trazado 994948" d="M244.633,151.87l18.884,9.928L259.91,140.77l15.278-14.892-21.113-3.068-9.442-19.132L235.19,122.81l-21.113,3.068,15.278,14.892L225.748,161.8Z" transform="translate(-213.144 -102.745)" fill="#ecb85e"/>
              <g id="Grupo_1161094" data-name="Grupo 1161094">
                <path id="Trazado_994949" data-name="Trazado 994949" d="M224.182,161.163a.931.931,0,0,0,.434-.107l18.449-9.7,18.451,9.7a.932.932,0,0,0,1.353-.983l-3.523-20.544,14.926-14.55a.933.933,0,0,0-.518-1.591l-20.628-3L243.9,101.7a.931.931,0,0,0-.836-.52h0a.931.931,0,0,0-.836.52l-9.225,18.693-20.628,3a.933.933,0,0,0-.518,1.591l14.928,14.551-3.524,20.544a.933.933,0,0,0,.919,1.09Zm47.435-36.2-13.924,13.574a.933.933,0,0,0-.268.825l3.287,19.165L243.5,149.478a.926.926,0,0,0-.868,0l-17.21,9.048,3.287-19.165a.932.932,0,0,0-.268-.825l-13.925-13.574,19.243-2.8a.931.931,0,0,0,.7-.51l8.605-17.437,8.606,17.437a.931.931,0,0,0,.7.51Z" transform="translate(-211.578 -101.178)" fill="#29275f"/>
              </g>
            </g>
          </g>
          <g id="Grupo_1161097" data-name="Grupo 1161097" transform="translate(0 0)">
            <path id="Trazado_994950" data-name="Trazado 994950" d="M202.7,178.705a.934.934,0,0,0,.5-.145l29.361-18.605h19.524a13.075,13.075,0,0,0,13.06-13.06V99.842a13.075,13.075,0,0,0-13.06-13.06H187.571a13.075,13.075,0,0,0-13.06,13.06V146.9a13.075,13.075,0,0,0,13.06,13.06h20.488l-6.236,17.5a.933.933,0,0,0,.879,1.246Zm49.384-90.057a11.206,11.206,0,0,1,11.194,11.194V146.9a11.206,11.206,0,0,1-11.194,11.194H232.292a.931.931,0,0,0-.5.145l-27.3,17.3,5.771-16.2a.934.934,0,0,0-.88-1.246H187.57A11.206,11.206,0,0,1,176.376,146.9V99.842A11.206,11.206,0,0,1,187.57,88.648Z" transform="translate(-174.511 -86.782)" fill="#29275f"/>
          </g>
        </g>
        <g id="Grupo_1161102" data-name="Grupo 1161102" transform="translate(325.749 94.203)">
          <g id="Grupo_1161101" data-name="Grupo 1161101" transform="translate(0 0)">
            <g id="Grupo_1161099" data-name="Grupo 1161099" transform="translate(5.11)">
              <path id="Trazado_994951" data-name="Trazado 994951" d="M114.579,351.334a.932.932,0,0,0,.933-.933V340.179a.933.933,0,1,0-1.866,0V350.4A.932.932,0,0,0,114.579,351.334Z" transform="translate(-113.646 -339.246)" fill="#29275f"/>
            </g>
            <g id="Grupo_1161100" data-name="Grupo 1161100" transform="translate(0 5.111)">
              <path id="Trazado_994952" data-name="Trazado 994952" d="M100.88,354.809H111.1a.933.933,0,1,0,0-1.866H100.88a.933.933,0,1,0,0,1.866Z" transform="translate(-99.947 -352.943)" fill="#29275f"/>
            </g>
          </g>
          <path id="Trazado_994953" data-name="Trazado 994953" d="M94.484,415.582c4.391,0,4.4,6.823,0,6.823S90.086,415.582,94.484,415.582Z" transform="translate(-82.424 -387.098)" fill="#29275f"/>
        </g>
        <g id="Grupo_1161106" data-name="Grupo 1161106" transform="translate(109.932 10.983)">
          <g id="Grupo_1161105" data-name="Grupo 1161105" transform="translate(16.381 22.891)">
            <g id="Grupo_1161103" data-name="Grupo 1161103" transform="translate(5.111)">
              <path id="Trazado_994954" data-name="Trazado 994954" d="M649.067,189.652a.932.932,0,0,0,.933-.933V178.5a.933.933,0,0,0-1.866,0v10.222A.932.932,0,0,0,649.067,189.652Z" transform="translate(-648.134 -177.564)" fill="#29275f"/>
            </g>
            <g id="Grupo_1161104" data-name="Grupo 1161104" transform="translate(0 5.11)">
              <path id="Trazado_994955" data-name="Trazado 994955" d="M635.371,193.126h10.222a.933.933,0,1,0,0-1.866H635.371a.933.933,0,0,0,0,1.866Z" transform="translate(-634.438 -191.26)" fill="#29275f"/>
            </g>
          </g>
          <path id="Trazado_994956" data-name="Trazado 994956" d="M641.336,116.216c4.39,0,4.4,6.824,0,6.824S636.938,116.216,641.336,116.216Z" transform="translate(-617.506 -116.216)" fill="#29275f"/>
          <path id="Trazado_994957" data-name="Trazado 994957" d="M686.786,144.011c7.318,0,7.329,11.372,0,11.372S679.457,144.011,686.786,144.011Z" transform="translate(-681.294 -133.64)" fill="#29275f"/>
        </g>
        <g id="Grupo_1161107" data-name="Grupo 1161107" transform="translate(305.204 363.365)">
          <path id="Trazado_994958" data-name="Trazado 994958" d="M162.063,1163.28c4.391,0,4.4,6.824,0,6.824S157.666,1163.28,162.063,1163.28Z" transform="translate(-154.674 -1124.966)" fill="#29275f"/>
          <path id="Trazado_994959" data-name="Trazado 994959" d="M116.009,1099.57c7.318,0,7.33,11.372,0,11.372S108.68,1099.57,116.009,1099.57Z" transform="translate(-92.812 -1085.029)" fill="#29275f"/>
          <path id="Trazado_994960" data-name="Trazado 994960" d="M163.456,1060.6c7.318,0,7.33,11.372,0,11.372S156.126,1060.6,163.456,1060.6Z" transform="translate(-157.963 -1060.6)" fill="#29275f"/>
        </g>
        <g id="Grupo_1161111" data-name="Grupo 1161111" transform="translate(11.819 375.868)">
          <g id="Grupo_1161110" data-name="Grupo 1161110" transform="translate(16.381 22.889)">
            <g id="Grupo_1161108" data-name="Grupo 1161108" transform="translate(5.111)">
              <path id="Trazado_994961" data-name="Trazado 994961" d="M912.011,1167.541a.932.932,0,0,0,.933-.933v-10.223a.933.933,0,0,0-1.866,0v10.223A.931.931,0,0,0,912.011,1167.541Z" transform="translate(-911.078 -1155.452)" fill="#29275f"/>
            </g>
            <g id="Grupo_1161109" data-name="Grupo 1161109" transform="translate(0 5.115)">
              <path id="Trazado_994962" data-name="Trazado 994962" d="M898.311,1171.026h10.222a.933.933,0,1,0,0-1.866H898.311a.933.933,0,1,0,0,1.866Z" transform="translate(-897.378 -1169.16)" fill="#29275f"/>
            </g>
          </g>
          <path id="Trazado_994963" data-name="Trazado 994963" d="M904.278,1094.11c4.39,0,4.4,6.824,0,6.824S899.88,1094.11,904.278,1094.11Z" transform="translate(-880.449 -1094.11)" fill="#29275f"/>
          <path id="Trazado_994964" data-name="Trazado 994964" d="M949.728,1121.91c7.318,0,7.329,11.372,0,11.372S942.4,1121.91,949.728,1121.91Z" transform="translate(-944.235 -1111.537)" fill="#29275f"/>
        </g>
      </g>
    </g>
  </g>
</svg>
