<svg xmlns="http://www.w3.org/2000/svg" xmlns:xlink="http://www.w3.org/1999/xlink" width="113" height="113" viewBox="0 0 113 113">
  <defs>
    <filter id="Trazado_982547" x="0" y="0" width="113" height="113" filterUnits="userSpaceOnUse">
      <feOffset dy="3" input="SourceAlpha"/>
      <feGaussianBlur stdDeviation="3" result="blur"/>
      <feFlood flood-opacity="0.161"/>
      <feComposite operator="in" in2="blur"/>
      <feComposite in="SourceGraphic"/>
    </filter>
  </defs>
  <g id="Grupo_1161196" data-name="Grupo 1161196" transform="translate(-742 -1746)">
    <g id="Grupo_1160627" data-name="Grupo 1160627" transform="translate(0 -3966)">
      <g id="Grupo_1159768" data-name="Grupo 1159768" transform="translate(0 1505)">
        <g id="Grupo_1158169" data-name="Grupo 1158169" transform="translate(-1 -1314)">
          <g id="Grupo_1152577" data-name="Grupo 1152577" transform="translate(-0.5 1205.621)">
            <g id="Grupo_1148634" data-name="Grupo 1148634" transform="translate(488.454 600.047)">
              <g id="Grupo_1148525" data-name="Grupo 1148525" transform="translate(264.046 3721.333)">
                <g transform="matrix(1, 0, 0, 1, -9, -6)" filter="url(#Trazado_982547)">
                  <g id="Trazado_982547-2" data-name="Trazado 982547" transform="translate(9 6)" fill="#fef2ec">
                    <path d="M 47.5 93.5 C 41.28937149047852 93.5 35.26533508300781 92.28397369384766 29.59518623352051 89.88570404052734 C 24.11771965026855 87.56893157958984 19.19813346862793 84.25196075439453 14.97309303283691 80.02691650390625 C 10.74804019927979 75.80186462402344 7.431066513061523 70.88229370117188 5.114293098449707 65.40481567382812 C 2.716026782989502 59.73468017578125 1.5 53.71062850952148 1.5 47.5 C 1.5 41.28937149047852 2.716026782989502 35.26533508300781 5.114293098449707 29.59518623352051 C 7.431066513061523 24.11771965026855 10.74804019927979 19.19813346862793 14.97309303283691 14.97309303283691 C 19.19813346862793 10.74804019927979 24.11771965026855 7.431066513061523 29.59518623352051 5.114293098449707 C 35.26533508300781 2.716026782989502 41.28937149047852 1.5 47.5 1.5 C 53.71062850952148 1.5 59.73468017578125 2.716026782989502 65.40481567382812 5.114293098449707 C 70.88229370117188 7.431066513061523 75.80186462402344 10.74804019927979 80.02691650390625 14.97309303283691 C 84.25196075439453 19.19813346862793 87.56893157958984 24.11771965026855 89.88570404052734 29.59518623352051 C 92.28397369384766 35.26533508300781 93.5 41.28937149047852 93.5 47.5 C 93.5 53.71062850952148 92.28397369384766 59.73468017578125 89.88570404052734 65.40481567382812 C 87.56893157958984 70.88229370117188 84.25196075439453 75.80186462402344 80.02691650390625 80.02691650390625 C 75.80186462402344 84.25196075439453 70.88229370117188 87.56893157958984 65.40481567382812 89.88570404052734 C 59.73468017578125 92.28397369384766 53.71062850952148 93.5 47.5 93.5 Z" stroke="none"/>
                    <path d="M 47.5 3 C 41.49121475219727 3 35.66376876831055 4.176155090332031 30.17950439453125 6.495796203613281 C 24.88084411621094 8.736953735351562 20.12152099609375 11.94598388671875 16.03375244140625 16.03375244140625 C 11.94598388671875 20.12152099609375 8.736953735351562 24.88084411621094 6.495796203613281 30.17950439453125 C 4.176155090332031 35.66376876831055 3 41.49121475219727 3 47.5 C 3 53.50878524780273 4.176155090332031 59.33623123168945 6.495796203613281 64.82049560546875 C 8.736953735351562 70.11915588378906 11.94598388671875 74.87847900390625 16.03375244140625 78.96624755859375 C 20.12152099609375 83.05401611328125 24.88084411621094 86.26304626464844 30.17950439453125 88.50419616699219 C 35.66376876831055 90.82384490966797 41.49121475219727 92 47.5 92 C 53.50878524780273 92 59.33623123168945 90.82384490966797 64.82049560546875 88.50419616699219 C 70.11915588378906 86.26304626464844 74.87847900390625 83.05401611328125 78.96624755859375 78.96624755859375 C 83.05401611328125 74.87847900390625 86.26304626464844 70.11915588378906 88.50419616699219 64.82049560546875 C 90.82384490966797 59.33623123168945 92 53.50878524780273 92 47.5 C 92 41.49121475219727 90.82384490966797 35.66376876831055 88.50419616699219 30.17950439453125 C 86.26304626464844 24.88084411621094 83.05401611328125 20.12152099609375 78.96624755859375 16.03375244140625 C 74.87847900390625 11.94598388671875 70.11915588378906 8.736953735351562 64.82049560546875 6.495796203613281 C 59.33623123168945 4.176155090332031 53.50878524780273 3 47.5 3 M 47.5 0 C 73.7335205078125 0 95 21.2664794921875 95 47.5 C 95 73.7335205078125 73.7335205078125 95 47.5 95 C 21.2664794921875 95 0 73.7335205078125 0 47.5 C 0 21.2664794921875 21.2664794921875 0 47.5 0 Z" stroke="none" fill="#9b4467"/>
                  </g>
                </g>
              </g>
            </g>
          </g>
        </g>
      </g>
    </g>
    <g id="welfare_2917764_1_" data-name="welfare_2917764 (1)" transform="translate(766.548 1767)">
      <g id="Grupo_1161194" data-name="Grupo 1161194">
        <g id="Grupo_1161179" data-name="Grupo 1161179">
          <circle id="Elipse_11749" data-name="Elipse 11749" cx="8" cy="8" r="8" transform="translate(2 3)" fill="#fcd770"/>
        </g>
        <g id="Grupo_1161180" data-name="Grupo 1161180">
          <path id="Trazado_995141" data-name="Trazado 995141" d="M52,4,46.81,7.63,46,8.2V17H58V8.2Z" fill="#ccd1d9"/>
        </g>
        <g id="Grupo_1161181" data-name="Grupo 1161181">
          <path id="Trazado_995142" data-name="Trazado 995142" d="M50,13h4v4H50Z" fill="#b27946"/>
        </g>
        <g id="Grupo_1161182" data-name="Grupo 1161182">
          <path id="Trazado_995143" data-name="Trazado 995143" d="M36.63,25c-.13,1-1.13,2-4.63,2s-4.5-1-4.62-2H27c-4,0-4,2-4,2v4a2.938,2.938,0,0,0-3,3l-1.69-5.92a2.235,2.235,0,0,1,.37-1.98l1.61-2.15a2.271,2.271,0,0,0,.33-2.08v-.01a2.259,2.259,0,0,1,1.3-2.83A23.494,23.494,0,0,1,33,18c5.94.66,9.27,2.19,10.84,3.16a2.228,2.228,0,0,1,1.05,2.11L44,34a2.938,2.938,0,0,0-3-3V27s0-2-4-2h-.36Z" fill="#656d78"/>
        </g>
        <g id="Grupo_1161183" data-name="Grupo 1161183">
          <path id="Trazado_995144" data-name="Trazado 995144" d="M57.17,35.34A7.013,7.013,0,1,1,55,35,7,7,0,0,1,57.17,35.34Z" fill="#ff826e"/>
        </g>
        <g id="Grupo_1161184" data-name="Grupo 1161184">
          <path id="Trazado_995145" data-name="Trazado 995145" d="M7.52,37.76A13.651,13.651,0,0,1,8.93,39s2.07-2,3.14-2c3,0,6,4,2,7-.81.61-1.5,1.14-2.09,1.59C9.68,47.36,9,48,9,48s-1.07-1-5.07-4-1-7,2-7A3.19,3.19,0,0,1,7.52,37.76Z" fill="#ff826e"/>
        </g>
        <g id="Grupo_1161185" data-name="Grupo 1161185">
          <path id="Trazado_995146" data-name="Trazado 995146" d="M32.27,47.33,36,52l2.21-5.52a14.005,14.005,0,0,1,7.49,4.65C47.61,53.49,49,56.95,49,62H15c0-5.05,1.39-8.51,3.3-10.87a14.005,14.005,0,0,1,7.49-4.65L28,52l3.73-4.67v-.02a2.439,2.439,0,0,0,.54.01Z" fill="#fcd770"/>
        </g>
        <g id="Grupo_1161186" data-name="Grupo 1161186">
          <path id="Trazado_995147" data-name="Trazado 995147" d="M38.21,46.48,36,52l-3.73-4.67v-.01A4.025,4.025,0,0,0,35,46a14.216,14.216,0,0,1,3.21.48Z" fill="#ffc729"/>
        </g>
        <g id="Grupo_1161187" data-name="Grupo 1161187">
          <path id="Trazado_995148" data-name="Trazado 995148" d="M31.73,47.31v.02L28,52l-2.21-5.52A14.216,14.216,0,0,1,29,46,5.052,5.052,0,0,0,31.73,47.31Z" fill="#ffc729"/>
        </g>
        <g id="Grupo_1161188" data-name="Grupo 1161188">
          <path id="Trazado_995149" data-name="Trazado 995149" d="M41,31a3,3,0,0,1,0,6V31Z" fill="#f0d0b4"/>
        </g>
        <g id="Grupo_1161189" data-name="Grupo 1161189">
          <path id="Trazado_995150" data-name="Trazado 995150" d="M35,42v4a4.025,4.025,0,0,1-2.73,1.32,2.439,2.439,0,0,1-.54-.01A5.052,5.052,0,0,1,29,46V42l.02-.17a26.2,26.2,0,0,0,5.96,0Z" fill="#f0d0b4"/>
        </g>
        <g id="Grupo_1161190" data-name="Grupo 1161190">
          <path id="Trazado_995151" data-name="Trazado 995151" d="M37,25h-.37c-.13,1-1.13,2-4.63,2s-4.5-1-4.62-2H27c-4,0-4,2-4,2V38s0,3.06,6.02,3.83a26.2,26.2,0,0,0,5.96,0C41,41.06,41,38,41,38V27S41,25,37,25Z" fill="#f0d0b4"/>
        </g>
        <g id="Grupo_1161191" data-name="Grupo 1161191">
          <path id="Trazado_995152" data-name="Trazado 995152" d="M23,32.5V37a3,3,0,0,1,0-6Z" fill="#f0d0b4"/>
        </g>
        <g id="Grupo_1161192" data-name="Grupo 1161192">
          <path id="Trazado_995153" data-name="Trazado 995153" d="M37.5,29A3.5,3.5,0,1,1,34,32.5a2.628,2.628,0,0,1,.04-.49A3.494,3.494,0,0,1,37.5,29Z" fill="#69d6f4"/>
        </g>
        <g id="Grupo_1161193" data-name="Grupo 1161193">
          <path id="Trazado_995154" data-name="Trazado 995154" d="M29.96,32.01a2.628,2.628,0,0,1,.04.49,3.543,3.543,0,1,1-.04-.49Z" fill="#69d6f4"/>
        </g>
      </g>
      <g id="Grupo_1161195" data-name="Grupo 1161195">
        <path id="Trazado_995155" data-name="Trazado 995155" d="M58.375,34.757A26.986,26.986,0,0,0,56.664,18H59V10.121l2.427,1.7,1.146-1.639L52,2.779l-5.214,3.65a26.9,26.9,0,0,0-29.2-.245A8.993,8.993,0,1,0,6.768,19.39,27.042,27.042,0,0,0,5.92,36a5.159,5.159,0,0,0-4.7,3.4c-.647,1.941.121,3.909,2.108,5.4,3.874,2.9,4.981,3.923,4.992,3.933L9,49.362l.679-.629c.007-.007.548-.5,2.178-1.781A27.068,27.068,0,0,0,16.9,51.359C15.188,53.826,14,57.248,14,62v1H50V62a18.228,18.228,0,0,0-2.888-10.632,27.121,27.121,0,0,0,3.418-2.736,7.995,7.995,0,1,0,7.845-13.875ZM53,16H51V14h2Zm4-7.279V16H55V12H49v4H47V8.721l5-3.5ZM3,11a7,7,0,1,1,7,7,7.008,7.008,0,0,1-7-7ZM9,46.683C8.287,46.089,6.927,45,4.528,43.2c-1.291-.969-1.779-2.063-1.411-3.167A3.121,3.121,0,0,1,5.922,38a6.6,6.6,0,0,1,2.286,1.694l.695.718.719-.692A7.4,7.4,0,0,1,12.072,38a3.124,3.124,0,0,1,2.811,2.033c.368,1.1-.12,2.2-1.411,3.167C11.073,45,9.713,46.089,9,46.683ZM44,61V54H42v7H23V54H21v7H16.02c.356-8.92,5.466-12.154,9.172-13.329l2.518,6.294L32,48.6l4.291,5.364,2.522-6.305c3.706,1.164,8.813,4.39,9.167,13.34ZM22,35.77a2.062,2.062,0,0,1,0-3.535Zm-1.793-4.684-.936-3.276a1.281,1.281,0,0,1,.2-1.111l1.61-2.146a3.281,3.281,0,0,0,.481-3.013,1.251,1.251,0,0,1,.714-1.574A22.436,22.436,0,0,1,32.889,19c5.854.65,9.048,2.168,10.43,3.015a1.244,1.244,0,0,1,.579,1.176l-.625,7.5A4.269,4.269,0,0,0,42,30.141V27c0-.117-.065-2.772-4.455-2.98A4.77,4.77,0,0,0,36.8,22.4l-1.6,1.2c.178.238.6,1.029.374,1.478-.109.215-.686.922-3.574.922s-3.463-.7-3.572-.92c-.22-.434.158-1.188.375-1.484L28,23l-.8-.6a4.759,4.759,0,0,0-.745,1.62C22.065,24.228,22,26.883,22,27v3.14a4.109,4.109,0,0,0-1.793.946ZM37.5,28a4.494,4.494,0,0,0-4.224,3H30.723A4.477,4.477,0,0,0,24,28.763V27.056c.047-.346.685-.975,2.667-1.043C27.363,27.348,29.107,28,32,28s4.637-.652,5.336-1.987c1.982.068,2.62.694,2.664.987v1.762A4.474,4.474,0,0,0,37.5,28ZM40,32.5A2.5,2.5,0,1,1,37.5,30,2.5,2.5,0,0,1,40,32.5Zm-11,0A2.5,2.5,0,1,1,26.5,30,2.5,2.5,0,0,1,29,32.5Zm13-.27a2.063,2.063,0,0,1,0,3.536ZM26.5,37a4.49,4.49,0,0,0,4.449-4h2.1A4.476,4.476,0,0,0,40,36.238V37.97C40,38,39.712,41,32,41s-8-3-8-3V36.238A4.472,4.472,0,0,0,26.5,37Zm8.874,10.013a13.232,13.232,0,0,1,1.475.172l-1.14,2.851-1.7-2.121a5.653,5.653,0,0,0,1.362-.9ZM32,43c.719,0,1.381-.028,2-.075v2.638a3.013,3.013,0,0,1-4-.018v-2.62C30.619,42.972,31.281,43,32,43Zm-3.368,4.014a6.038,6.038,0,0,0,1.389.859l-1.73,2.162-1.137-2.844a13.351,13.351,0,0,1,1.478-.177ZM36,45.073v-2.4c5.918-1.081,6-4.5,6-4.676v-.14a3.764,3.764,0,0,0,2.991-3.778H45l.9-10.732A3.236,3.236,0,0,0,44.365,20.3C42.5,19.161,39.038,17.663,33.111,17A24.444,24.444,0,0,0,21.562,18.1a3.25,3.25,0,0,0-1.886,4.087,1.272,1.272,0,0,1-.189,1.165L17.877,25.5a3.292,3.292,0,0,0-.528,2.86l1.675,5.861A3.759,3.759,0,0,0,22,37.858V38c0,.172.082,3.6,6,4.676v2.4A16.173,16.173,0,0,0,18.155,49.8a25.05,25.05,0,0,1-4.708-4.072c.375-.286.781-.592,1.227-.927,1.987-1.49,2.755-3.458,2.108-5.4A5.159,5.159,0,0,0,12.074,36a5.914,5.914,0,0,0-3.122,1.631c-.175-.158-.37-.322-.574-.483A24.892,24.892,0,0,1,8.717,19.9,8.935,8.935,0,0,0,19,11a8.947,8.947,0,0,0-.527-3.006,24.937,24.937,0,0,1,26.549-.33l-3.6,2.516,1.146,1.639L45,10.121V18h9.444a24.895,24.895,0,0,1,2.017,16.14,7.985,7.985,0,0,0-7.444,13.152,25.115,25.115,0,0,1-3.176,2.5A16.182,16.182,0,0,0,36,45.073ZM55,48a6,6,0,1,1,6-6A6.006,6.006,0,0,1,55,48Z"/>
        <path id="Trazado_995156" data-name="Trazado 995156" d="M35.555,38.832l-1.109-1.664a4.615,4.615,0,0,1-4.9,0l-1.1,1.667A7.174,7.174,0,0,0,32.118,39.9,6.094,6.094,0,0,0,35.555,38.832Z"/>
        <path id="Trazado_995157" data-name="Trazado 995157" d="M56,39H54v2H52v2h2v2h2V43h2V41H56Z"/>
        <path id="Trazado_995158" data-name="Trazado 995158" d="M11,17V15h3V10H8V9h6V7H11V5H9V7H6v5h6v1H6v2H9v2Z"/>
      </g>
    </g>
  </g>
</svg>
