<svg xmlns="http://www.w3.org/2000/svg" xmlns:xlink="http://www.w3.org/1999/xlink" width="113" height="113" viewBox="0 0 113 113">
  <defs>
    <filter id="Trazado_982547" x="0" y="0" width="113" height="113" filterUnits="userSpaceOnUse">
      <feOffset dy="3" input="SourceAlpha"/>
      <feGaussianBlur stdDeviation="3" result="blur"/>
      <feFlood flood-opacity="0.161"/>
      <feComposite operator="in" in2="blur"/>
      <feComposite in="SourceGraphic"/>
    </filter>
  </defs>
  <g id="Grupo_1161197" data-name="Grupo 1161197" transform="translate(-1163 -1746)">
    <g id="Grupo_1160629" data-name="Grupo 1160629" transform="translate(0 -3966)">
      <g id="Grupo_1159769" data-name="Grupo 1159769" transform="translate(0 1505)">
        <g id="Grupo_1158170" data-name="Grupo 1158170" transform="translate(-1 -1314)">
          <g id="Grupo_1152578" data-name="Grupo 1152578" transform="translate(0.046 1205.621)">
            <g id="Grupo_1148635" data-name="Grupo 1148635" transform="translate(908.908 600.047)">
              <g id="Grupo_1148525" data-name="Grupo 1148525" transform="translate(264.046 3721.333)">
                <g transform="matrix(1, 0, 0, 1, -9, -6)" filter="url(#Trazado_982547)">
                  <g id="Trazado_982547-2" data-name="Trazado 982547" transform="translate(9 6)" fill="#fef2ec">
                    <path d="M 47.5 93.5 C 41.28937149047852 93.5 35.26533508300781 92.28397369384766 29.59518623352051 89.88570404052734 C 24.11771965026855 87.56893157958984 19.19813346862793 84.25196075439453 14.97309303283691 80.02691650390625 C 10.74804019927979 75.80186462402344 7.431066513061523 70.88229370117188 5.114293098449707 65.40481567382812 C 2.716026782989502 59.73468017578125 1.5 53.71062850952148 1.5 47.5 C 1.5 41.28937149047852 2.716026782989502 35.26533508300781 5.114293098449707 29.59518623352051 C 7.431066513061523 24.11771965026855 10.74804019927979 19.19813346862793 14.97309303283691 14.97309303283691 C 19.19813346862793 10.74804019927979 24.11771965026855 7.431066513061523 29.59518623352051 5.114293098449707 C 35.26533508300781 2.716026782989502 41.28937149047852 1.5 47.5 1.5 C 53.71062850952148 1.5 59.73468017578125 2.716026782989502 65.40481567382812 5.114293098449707 C 70.88229370117188 7.431066513061523 75.80186462402344 10.74804019927979 80.02691650390625 14.97309303283691 C 84.25196075439453 19.19813346862793 87.56893157958984 24.11771965026855 89.88570404052734 29.59518623352051 C 92.28397369384766 35.26533508300781 93.5 41.28937149047852 93.5 47.5 C 93.5 53.71062850952148 92.28397369384766 59.73468017578125 89.88570404052734 65.40481567382812 C 87.56893157958984 70.88229370117188 84.25196075439453 75.80186462402344 80.02691650390625 80.02691650390625 C 75.80186462402344 84.25196075439453 70.88229370117188 87.56893157958984 65.40481567382812 89.88570404052734 C 59.73468017578125 92.28397369384766 53.71062850952148 93.5 47.5 93.5 Z" stroke="none"/>
                    <path d="M 47.5 3 C 41.49121475219727 3 35.66376876831055 4.176155090332031 30.17950439453125 6.495796203613281 C 24.88084411621094 8.736953735351562 20.12152099609375 11.94598388671875 16.03375244140625 16.03375244140625 C 11.94598388671875 20.12152099609375 8.736953735351562 24.88084411621094 6.495796203613281 30.17950439453125 C 4.176155090332031 35.66376876831055 3 41.49121475219727 3 47.5 C 3 53.50878524780273 4.176155090332031 59.33623123168945 6.495796203613281 64.82049560546875 C 8.736953735351562 70.11915588378906 11.94598388671875 74.87847900390625 16.03375244140625 78.96624755859375 C 20.12152099609375 83.05401611328125 24.88084411621094 86.26304626464844 30.17950439453125 88.50419616699219 C 35.66376876831055 90.82384490966797 41.49121475219727 92 47.5 92 C 53.50878524780273 92 59.33623123168945 90.82384490966797 64.82049560546875 88.50419616699219 C 70.11915588378906 86.26304626464844 74.87847900390625 83.05401611328125 78.96624755859375 78.96624755859375 C 83.05401611328125 74.87847900390625 86.26304626464844 70.11915588378906 88.50419616699219 64.82049560546875 C 90.82384490966797 59.33623123168945 92 53.50878524780273 92 47.5 C 92 41.49121475219727 90.82384490966797 35.66376876831055 88.50419616699219 30.17950439453125 C 86.26304626464844 24.88084411621094 83.05401611328125 20.12152099609375 78.96624755859375 16.03375244140625 C 74.87847900390625 11.94598388671875 70.11915588378906 8.736953735351562 64.82049560546875 6.495796203613281 C 59.33623123168945 4.176155090332031 53.50878524780273 3 47.5 3 M 47.5 0 C 73.7335205078125 0 95 21.2664794921875 95 47.5 C 95 73.7335205078125 73.7335205078125 95 47.5 95 C 21.2664794921875 95 0 73.7335205078125 0 47.5 C 0 21.2664794921875 21.2664794921875 0 47.5 0 Z" stroke="none" fill="#9b4467"/>
                  </g>
                </g>
              </g>
            </g>
          </g>
        </g>
      </g>
    </g>
    <g id="business-finance_1763438" transform="translate(1190.099 1771.074)">
      <path id="Trazado_995159" data-name="Trazado 995159" d="M85.695,275.9H97.977l11.909,4.929a4.059,4.059,0,0,1,2.185,5.333l-.041.1a4.177,4.177,0,0,1-5.351,2.286c-3.379-1.3-7.812-3.007-7.812-3.007l11.411,4.387a12.968,12.968,0,0,0,7.549.537l11.691-2.677a3.923,3.923,0,0,1,1.842,7.627l-13.95,3.546a12.97,12.97,0,0,1-7.931-.5l-18-7.061H85.695Zm0,0" transform="translate(-75.686 -243.673)" fill="#ffd4be"/>
      <path id="Trazado_995160" data-name="Trazado 995160" d="M85.695,275.9H97.977l11.909,4.929a4.059,4.059,0,0,1,2.185,5.333l-.041.1a4.177,4.177,0,0,1-5.351,2.286c-3.379-1.3-7.812-3.007-7.812-3.007l11.411,4.387a12.968,12.968,0,0,0,7.549.537l11.691-2.677a3.923,3.923,0,0,1,1.842,7.627l-13.95,3.546a12.97,12.97,0,0,1-7.931-.5l-18-7.061H85.695Zm0,0" transform="translate(-75.686 -243.673)" fill="#ffd4be"/>
      <path id="Trazado_995161" data-name="Trazado 995161" d="M10,252.316h8.841v20.531H10Zm0,0" transform="translate(-8.832 -222.845)" fill="#98a1b3"/>
      <path id="Trazado_995162" data-name="Trazado 995162" d="M138.384,166.871v14l-3.063-1.268h-7.344V166.871Zm0,0" transform="translate(-113.029 -147.38)" fill="#60a4ff"/>
      <path id="Trazado_995163" data-name="Trazado 995163" d="M227.5,101.355v26.434a4.052,4.052,0,0,0-1.564-1.149l-8.844-3.661V101.32Zm0,0" transform="translate(-191.737 -89.486)" fill="#f6838d"/>
      <path id="Trazado_995164" data-name="Trazado 995164" d="M316.6,218.41v20.352l-4.029.922a12.968,12.968,0,0,1-6.379-.149v-3.072a4.212,4.212,0,0,0,.581-.98l.04-.1a4.057,4.057,0,0,0-.621-4.184V218.41Zm0,0" transform="translate(-270.432 -192.899)" fill="#ffc15a"/>
      <path id="Trazado_995165" data-name="Trazado 995165" d="M417.041,111.5a1.764,1.764,0,1,1-1.764-1.764A1.764,1.764,0,0,1,417.041,111.5Zm0,0" transform="translate(-365.214 -96.921)" fill="#98a1b3"/>
      <path id="Trazado_995166" data-name="Trazado 995166" d="M361.509,39.03a1.764,1.764,0,1,1-1.764-1.764A1.764,1.764,0,0,1,361.509,39.03Zm0,0" transform="translate(-316.168 -32.913)" fill="#98a1b3"/>
      <path id="Trazado_995167" data-name="Trazado 995167" d="M59.694,127.55a5.091,5.091,0,0,0-6.121-3.927l-6.233,1.427V122.5a24.622,24.622,0,0,0,3.478-4.12,24.156,24.156,0,0,0,3.415-8.041,24.64,24.64,0,0,0,.047-10.459,1.168,1.168,0,0,0-2.284.489,22.275,22.275,0,0,1-.042,9.46,21.83,21.83,0,0,1-3.086,7.266,20.8,20.8,0,0,1-1.527,2.014V106.164A1.168,1.168,0,0,0,46.171,105h-9.24V92.523a1.168,1.168,0,0,0-1.164-1.168L25.36,91.32h0a1.168,1.168,0,0,0-1.168,1.168v6.488H14.947a1.168,1.168,0,0,0-1.168,1.168v11.566h-2.6v-1.586a1.168,1.168,0,0,0-1.168-1.168h-1.2A22.106,22.106,0,0,1,9.765,97.5c.218-.6.465-1.2.735-1.778a1.168,1.168,0,1,0-2.117-.986c-.3.641-.573,1.3-.813,1.968a24.408,24.408,0,0,0-1.128,12.252H1.168A1.168,1.168,0,0,0,0,110.125v20.53a1.168,1.168,0,0,0,1.168,1.168h8.841a1.168,1.168,0,0,0,1.168-1.168v-1.111h4.394l17.8,6.981a14.058,14.058,0,0,0,8.644.541l13.95-3.546a5.082,5.082,0,0,0,3.731-5.971ZM45,107.332v18.253l-3.123.715c-.336.077-.675.137-1.017.185a11.857,11.857,0,0,1-3.916-.114l-.016,0V124.6a5.409,5.409,0,0,0,.719-4.551,5.246,5.246,0,0,0-.55-1.225q-.08-.13-.167-.255l0,0V107.332H45ZM26.524,93.66l8.072.027v23.021l-4.511-1.867-3.561-1.474Zm-10.409,7.652h8.072V112.4l-1.449-.6a1.166,1.166,0,0,0-.447-.089H16.115ZM8.841,129.488H2.336V111.293H8.841Zm46.547,1.769L41.437,134.8a11.739,11.739,0,0,1-7.216-.451l-18-7.061a1.166,1.166,0,0,0-.427-.08H11.177V114.047H22.059l7.557,3.128,4.135,1.712a2.922,2.922,0,0,1,1.564,3.785,3.339,3.339,0,0,1-.468.821,3.011,3.011,0,0,1-3.061,1.056l-.027-.007c-.068-.017-.135-.036-.2-.058L23.7,121.462l-.1-.037a1.168,1.168,0,1,0-.838,2.18s4.431,1.7,7.81,3.007c.068.026.136.051.2.074l2.595,1a21.446,21.446,0,0,0,2.381.81,14.171,14.171,0,0,0,6.65.083l4.029-.922.012,0,7.65-1.751a2.755,2.755,0,0,1,1.293,5.356Zm0,0" transform="translate(0 -80.654)"/>
      <path id="Trazado_995168" data-name="Trazado 995168" d="M119.045,8.308a1.163,1.163,0,0,0,.782-.3,21.949,21.949,0,0,1,16.218-5.623,21.907,21.907,0,0,1,6.368,1.387,1.168,1.168,0,0,0,.831-2.183A24.237,24.237,0,0,0,136.2.052a24.286,24.286,0,0,0-17.936,6.221,1.168,1.168,0,0,0,.783,2.035Zm0,0" transform="translate(-104.109 0)"/>
      <path id="Trazado_995169" data-name="Trazado 995169" d="M351.848,43.351a1.169,1.169,0,0,0,1.648-.115l9.61-11.062a1.168,1.168,0,0,0-1.763-1.532L351.732,41.7A1.168,1.168,0,0,0,351.848,43.351Zm0,0" transform="translate(-310.397 -26.708)"/>
      <path id="Trazado_995170" data-name="Trazado 995170" d="M406.444,99.738a2.932,2.932,0,1,0,2.932,2.932A2.936,2.936,0,0,0,406.444,99.738Zm0,3.529a.6.6,0,1,1,.6-.6A.6.6,0,0,1,406.444,103.267Zm0,0" transform="translate(-356.381 -88.089)"/>
      <path id="Trazado_995171" data-name="Trazado 995171" d="M350.913,33.13A2.932,2.932,0,1,0,347.98,30.2,2.936,2.936,0,0,0,350.913,33.13Zm0-3.529a.6.6,0,1,1-.6.6A.6.6,0,0,1,350.913,29.6Zm0,0" transform="translate(-307.336 -24.081)"/>
      <path id="Trazado_995172" data-name="Trazado 995172" d="M91.668,82.438a1.167,1.167,0,1,0,.43-1.418A1.178,1.178,0,0,0,91.668,82.438Zm0,0" transform="translate(-80.884 -71.385)"/>
    </g>
  </g>
</svg>
