<svg xmlns="http://www.w3.org/2000/svg" xmlns:xlink="http://www.w3.org/1999/xlink" width="295" height="250" viewBox="0 0 295 250">
  <defs>
    <clipPath id="clip-path">
      <rect id="Rectángulo_409887" data-name="Rectángulo 409887" width="295" height="250" transform="translate(1125 3207)" fill="#fff" stroke="#707070" stroke-width="1" opacity="0.48"/>
    </clipPath>
  </defs>
  <g id="Enmascarar_grupo_1098772" data-name="Enmascarar grupo 1098772" transform="translate(-1125 -3207)" clip-path="url(#clip-path)">
    <g id="Grupo_1162703" data-name="Grupo 1162703" transform="translate(3787.453 -552.738)">
      <path id="Trazado_996799" data-name="Trazado 996799" d="M1867.428,838.684,1849.359,916a3.968,3.968,0,0,1,2.825,3.049A115.554,115.554,0,0,0,1873.9,827.7l-1.87,8A3.966,3.966,0,0,1,1867.428,838.684Z" transform="translate(-4271.57 3035.687)" fill="#80c5e0"/>
      <path id="Trazado_996800" data-name="Trazado 996800" d="M256.484,737.663c.065-1.1.162-2.352.31-3.635-.188.629-.374,1.258-.551,1.891.032.621.056,1.221.073,1.778A.325.325,0,0,1,256.484,737.663Z" transform="translate(-2878.48 3117.599)" fill="#80c5e0"/>
      <path id="Trazado_996801" data-name="Trazado 996801" d="M413.439,1433.7q-.007-1.686-.024-3.386c-4.4,2.292-12.3,6.207-13.609,5.519a.4.4,0,0,1-.06-.045,42.331,42.331,0,0,1-20.853,4.631,116.02,116.02,0,0,0,33.981,33.042C410.992,1468.257,413.516,1452.3,413.439,1433.7Z" transform="translate(-2985.731 2508.739)" fill="#80c5e0"/>
      <path id="Trazado_996802" data-name="Trazado 996802" d="M257.191,789.2c0-.011,0-.018,0-.029h0C257.191,789.179,257.191,789.186,257.191,789.2Z" transform="translate(-2879.309 3069.382)" fill="#80c5e0"/>
      <path id="Trazado_996803" data-name="Trazado 996803" d="M287.745,165.123a.325.325,0,0,1,.1.1c.318-4.066,1.243-12.218,3.528-12.053,3.042.219,4.62,17.221,4.62,17.221s6.754-7.68,7.663-5.154-6,19.945-6.082,24.149l3.586,32.171,7.613-5.237h0c0-1.559,8.2-11.115,16.67-18.37a41.8,41.8,0,0,1-2.424-20.131c1.1-8.593,4.829-16.588,7.6-24.8a115.531,115.531,0,0,0,4.727-19.373c-1.014-4.872-2.085-12.551-.473-18.5,1.8-6.635,9.886-14.65,18.565-16.364,8.8-1.737,21.51-2.607,33.318,5.371,12.3,8.307,15.3,22.174,15.043,32.94a1.761,1.761,0,0,1,.019.5c-.019.157-.034.324-.051.483-.057,1.327-.163,2.6-.306,3.8A81.765,81.765,0,0,0,402.075,157L415.52,99.476a9.5,9.5,0,0,1,11.409-7.087L459.052,99.9a115.411,115.411,0,0,0-159.4,24.4,1.26,1.26,0,0,1,.128-.013,1.333,1.333,0,1,1-1.282,1.577,115.152,115.152,0,0,0-14.277,26.131,1.665,1.665,0,0,1,.87-.259C287.543,151.731,287.776,160.738,287.745,165.123ZM315.6,124.282a1.333,1.333,0,1,1-1.306,1.333A1.319,1.319,0,0,1,315.6,124.282Zm0,6.548a1.333,1.333,0,1,1-1.306,1.333A1.319,1.319,0,0,1,315.6,130.83Zm0,6.548a1.333,1.333,0,1,1-1.306,1.332A1.319,1.319,0,0,1,315.6,137.378Zm-7.908-13.1a1.333,1.333,0,1,1-1.306,1.333A1.32,1.32,0,0,1,307.69,124.282Zm0,6.548a1.333,1.333,0,1,1-1.306,1.333A1.32,1.32,0,0,1,307.69,130.83Zm0,6.548a1.333,1.333,0,1,1-1.306,1.332A1.319,1.319,0,0,1,307.69,137.378Zm-7.908-6.548a1.333,1.333,0,1,1-1.306,1.333A1.32,1.32,0,0,1,299.782,130.83Zm0,6.548a1.333,1.333,0,1,1-1.306,1.332A1.319,1.319,0,0,1,299.782,137.378Zm-7.908,0a1.333,1.333,0,1,1-1.306,1.332A1.319,1.319,0,0,1,291.874,137.378Z" transform="translate(-2902.947 3690.987)" fill="#80c5e0"/>
      <path id="Trazado_996804" data-name="Trazado 996804" d="M1295.3,1766.937c2.457,2.377,4.124,7.686,5.03,12.972a114.563,114.563,0,0,0,26.957-9.433l-30.934-7.23A19.425,19.425,0,0,1,1295.3,1766.937Z" transform="translate(-3787.077 2217.605)" fill="#80c5e0"/>
      <path id="Trazado_996805" data-name="Trazado 996805" d="M336.059,444.448a1.333,1.333,0,1,0,1.306,1.333A1.32,1.32,0,0,0,336.059,444.448Z" transform="translate(-2947.132 3370.82)" fill="#fff"/>
      <path id="Trazado_996806" data-name="Trazado 996806" d="M399.044,447.113a1.333,1.333,0,0,0,0-2.665c-.044,0-.085.009-.128.013a1.318,1.318,0,0,0-1.179,1.319,1.38,1.38,0,0,0,.024.244A1.313,1.313,0,0,0,399.044,447.113Z" transform="translate(-3002.209 3370.82)" fill="#fff"/>
      <path id="Trazado_996807" data-name="Trazado 996807" d="M462.03,447.113a1.333,1.333,0,1,0-1.306-1.333A1.32,1.32,0,0,0,462.03,447.113Z" transform="translate(-3057.287 3370.82)" fill="#fff"/>
      <path id="Trazado_996808" data-name="Trazado 996808" d="M525.014,447.113a1.333,1.333,0,1,0-1.306-1.333A1.32,1.32,0,0,0,525.014,447.113Z" transform="translate(-3112.363 3370.82)" fill="#fff"/>
      <path id="Trazado_996809" data-name="Trazado 996809" d="M336.059,496.6a1.333,1.333,0,1,0,1.306,1.333A1.32,1.32,0,0,0,336.059,496.6Z" transform="translate(-2947.132 3325.215)" fill="#fff"/>
      <path id="Trazado_996810" data-name="Trazado 996810" d="M399.045,499.267a1.333,1.333,0,1,0-1.306-1.332A1.319,1.319,0,0,0,399.045,499.267Z" transform="translate(-3002.21 3325.215)" fill="#fff"/>
      <path id="Trazado_996811" data-name="Trazado 996811" d="M462.03,499.267a1.333,1.333,0,1,0-1.306-1.332A1.319,1.319,0,0,0,462.03,499.267Z" transform="translate(-3057.287 3325.215)" fill="#fff"/>
      <path id="Trazado_996812" data-name="Trazado 996812" d="M525.014,499.267a1.333,1.333,0,1,0-1.306-1.332A1.319,1.319,0,0,0,525.014,499.267Z" transform="translate(-3112.363 3325.215)" fill="#fff"/>
      <path id="Trazado_996813" data-name="Trazado 996813" d="M336.059,551.421a1.333,1.333,0,1,0-1.306-1.333A1.319,1.319,0,0,0,336.059,551.421Z" transform="translate(-2947.132 3279.609)" fill="#fff"/>
      <path id="Trazado_996814" data-name="Trazado 996814" d="M399.045,551.421a1.333,1.333,0,1,0-1.306-1.333A1.32,1.32,0,0,0,399.045,551.421Z" transform="translate(-3002.21 3279.609)" fill="#fff"/>
      <path id="Trazado_996815" data-name="Trazado 996815" d="M462.03,551.421a1.333,1.333,0,1,0-1.306-1.333A1.32,1.32,0,0,0,462.03,551.421Z" transform="translate(-3057.287 3279.609)" fill="#fff"/>
      <path id="Trazado_996816" data-name="Trazado 996816" d="M525.014,551.421a1.333,1.333,0,1,0-1.306-1.333A1.319,1.319,0,0,0,525.014,551.421Z" transform="translate(-3112.363 3279.609)" fill="#fff"/>
      <path id="Trazado_996817" data-name="Trazado 996817" d="M1899.648,1722.73a1.333,1.333,0,1,0,1.306,1.332A1.319,1.319,0,0,0,1899.648,1722.73Z" transform="translate(-4314.403 2253.035)" fill="#fff"/>
      <path id="Trazado_996818" data-name="Trazado 996818" d="M1962.633,1722.73a1.333,1.333,0,1,0,1.306,1.332A1.32,1.32,0,0,0,1962.633,1722.73Z" transform="translate(-4369.48 2253.035)" fill="#fff"/>
      <path id="Trazado_996819" data-name="Trazado 996819" d="M2025.623,1722.73a1.333,1.333,0,1,0,1.306,1.332A1.319,1.319,0,0,0,2025.623,1722.73Z" transform="translate(-4424.561 2253.035)" fill="#fff"/>
      <path id="Trazado_996820" data-name="Trazado 996820" d="M2088.6,1725.4a1.333,1.333,0,1,0-1.306-1.332A1.319,1.319,0,0,0,2088.6,1725.4Z" transform="translate(-4479.634 2253.029)" fill="#fff"/>
      <path id="Trazado_996821" data-name="Trazado 996821" d="M1899.648,1774.89a1.333,1.333,0,1,0,1.306,1.333A1.319,1.319,0,0,0,1899.648,1774.89Z" transform="translate(-4314.403 2207.424)" fill="#fff"/>
      <path id="Trazado_996822" data-name="Trazado 996822" d="M1962.633,1774.89a1.333,1.333,0,1,0,1.306,1.333A1.32,1.32,0,0,0,1962.633,1774.89Z" transform="translate(-4369.48 2207.424)" fill="#fff"/>
      <path id="Trazado_996823" data-name="Trazado 996823" d="M2025.623,1774.89a1.333,1.333,0,1,0,1.306,1.333A1.32,1.32,0,0,0,2025.623,1774.89Z" transform="translate(-4424.561 2207.424)" fill="#fff"/>
      <ellipse id="Elipse_11778" data-name="Elipse 11778" cx="1.306" cy="1.333" rx="1.306" ry="1.333" transform="translate(-2392.337 3982.313)" fill="#fff"/>
      <path id="Trazado_996824" data-name="Trazado 996824" d="M1899.648,1827.04a1.333,1.333,0,1,0,1.306,1.333A1.319,1.319,0,0,0,1899.648,1827.04Z" transform="translate(-4314.403 2161.822)" fill="#fff"/>
      <path id="Trazado_996825" data-name="Trazado 996825" d="M1962.633,1827.04a1.333,1.333,0,1,0,1.306,1.333A1.32,1.32,0,0,0,1962.633,1827.04Z" transform="translate(-4369.48 2161.822)" fill="#fff"/>
      <path id="Trazado_996826" data-name="Trazado 996826" d="M2025.623,1827.04a1.333,1.333,0,1,0,1.306,1.333A1.32,1.32,0,0,0,2025.623,1827.04Z" transform="translate(-4424.561 2161.822)" fill="#fff"/>
      <path id="Trazado_996827" data-name="Trazado 996827" d="M2088.6,1829.709a1.333,1.333,0,1,0-1.306-1.332A1.319,1.319,0,0,0,2088.6,1829.709Z" transform="translate(-4479.634 2161.818)" fill="#fff"/>
      <path id="Trazado_996828" data-name="Trazado 996828" d="M225.036,232.1a1.333,1.333,0,1,0,1.306,1.333A1.319,1.319,0,0,0,225.036,232.1Z" transform="translate(-2850.049 3556.505)" fill="#fff"/>
      <path id="Trazado_996829" data-name="Trazado 996829" d="M288.021,232.1a1.333,1.333,0,1,0,1.306,1.333A1.32,1.32,0,0,0,288.021,232.1Z" transform="translate(-2905.126 3556.505)" fill="#fff"/>
      <path id="Trazado_996830" data-name="Trazado 996830" d="M351.006,232.1a1.333,1.333,0,1,0,1.306,1.333A1.32,1.32,0,0,0,351.006,232.1Z" transform="translate(-2960.202 3556.505)" fill="#fff"/>
      <path id="Trazado_996831" data-name="Trazado 996831" d="M413.992,232.1a1.333,1.333,0,1,0,1.306,1.333A1.319,1.319,0,0,0,413.992,232.1Z" transform="translate(-3015.28 3556.505)" fill="#fff"/>
      <path id="Trazado_996832" data-name="Trazado 996832" d="M225.036,284.256a1.333,1.333,0,1,0,1.306,1.333A1.319,1.319,0,0,0,225.036,284.256Z" transform="translate(-2850.049 3510.899)" fill="#fff"/>
      <path id="Trazado_996833" data-name="Trazado 996833" d="M288.021,284.256a1.333,1.333,0,1,0,1.306,1.333A1.32,1.32,0,0,0,288.021,284.256Z" transform="translate(-2905.126 3510.899)" fill="#fff"/>
      <path id="Trazado_996834" data-name="Trazado 996834" d="M351.006,284.256a1.333,1.333,0,1,0,1.306,1.333A1.32,1.32,0,0,0,351.006,284.256Z" transform="translate(-2960.202 3510.899)" fill="#fff"/>
      <path id="Trazado_996835" data-name="Trazado 996835" d="M413.992,284.256a1.333,1.333,0,1,0,1.306,1.333A1.319,1.319,0,0,0,413.992,284.256Z" transform="translate(-3015.28 3510.899)" fill="#fff"/>
      <path id="Trazado_996836" data-name="Trazado 996836" d="M225.036,336.411a1.333,1.333,0,1,0,1.306,1.333A1.319,1.319,0,0,0,225.036,336.411Z" transform="translate(-2850.049 3465.293)" fill="#fff"/>
      <path id="Trazado_996837" data-name="Trazado 996837" d="M288.021,336.411a1.333,1.333,0,1,0,1.306,1.333A1.32,1.32,0,0,0,288.021,336.411Z" transform="translate(-2905.126 3465.293)" fill="#fff"/>
      <path id="Trazado_996838" data-name="Trazado 996838" d="M352.312,337.743a1.306,1.306,0,1,0-1.306,1.333A1.32,1.32,0,0,0,352.312,337.743Z" transform="translate(-2960.202 3465.293)" fill="#fff"/>
      <path id="Trazado_996839" data-name="Trazado 996839" d="M413.992,336.411a1.333,1.333,0,1,0,1.306,1.333A1.319,1.319,0,0,0,413.992,336.411Z" transform="translate(-3015.28 3465.293)" fill="#fff"/>
      <path id="Trazado_996840" data-name="Trazado 996840" d="M331.8,1715.97a1.456,1.456,0,0,0-1.456,1.456v4.826h-4.826a1.456,1.456,0,1,0,0,2.912h4.826v4.826a1.456,1.456,0,0,0,2.912,0v-4.826h4.826a1.456,1.456,0,0,0,0-2.912h-4.826v-4.826A1.456,1.456,0,0,0,331.8,1715.97Z" transform="translate(-2937.781 2258.946)" fill="#fff"/>
      <path id="Trazado_996841" data-name="Trazado 996841" d="M2053.816,501.164l3.962-16.954a3.966,3.966,0,0,0-2.8-4.71l-5.76,24.645A3.967,3.967,0,0,0,2053.816,501.164Z" transform="translate(-4446.335 3340.169)" fill="#5861a9"/>
      <path id="Trazado_996842" data-name="Trazado 996842" d="M1993.27,743.524a3.966,3.966,0,0,0,4.6-2.981l1.87-8,2.092-8.953a3.966,3.966,0,0,0-2.8-4.71Z" transform="translate(-4397.412 3130.846)" fill="#5861a9"/>
      <path id="Trazado_996843" data-name="Trazado 996843" d="M1809.244,1530.93l-5.76,24.645a3.967,3.967,0,0,0,4.6-2.981l3.963-16.954a3.911,3.911,0,0,0,.024-1.661A3.97,3.97,0,0,0,1809.244,1530.93Z" transform="translate(-4231.455 2420.753)" fill="#5861a9"/>
      <path id="Trazado_996844" data-name="Trazado 996844" d="M1236.313,195.777,1222.869,253.3a45.855,45.855,0,0,0,1.3,6.282l14.554-62.271,28.9,6.754a5.2,5.2,0,0,0,3.868,6.228l24.43,5.709a5.2,5.2,0,0,0,6.227-3.868h0l27.513,6.43-17.261,73.856h0l-1.042,4.458-5.206,22.275-.668,2.861h0l-15.646,66.944-55.178-12.9c-.539,4.162-1.105,7.623-1.638,10.1l30.934,7.23,18.318,4.281a9.5,9.5,0,0,0,11.409-7.087l2.091-8.948,5.76-24.645,18.069-77.313,5.76-24.645,1.265-5.41,5.76-24.645,1.5-6.4a9.5,9.5,0,0,0-7.087-11.409L1279.845,196.2l-32.122-7.507A9.5,9.5,0,0,0,1236.313,195.777Zm48.314,13.4a2.137,2.137,0,1,1,2.568-1.595A2.137,2.137,0,0,1,1284.627,209.182Z" transform="translate(-3723.74 3594.685)" fill="#6e7aba"/>
      <path id="Trazado_996845" data-name="Trazado 996845" d="M1433.42,1312.717l17.1-13.2a94.569,94.569,0,0,1-11.477,6.836l-.307.146-.209-.268c0-.006-.884-1.138-2.226-3.109.2,1.812.1,3-.387,3.26a11.447,11.447,0,0,1-2.412.448C1433.544,1308.625,1433.533,1310.619,1433.42,1312.717Z" transform="translate(-3907.855 2623.113)" fill="#9ed9f8"/>
      <path id="Trazado_996846" data-name="Trazado 996846" d="M1334.236,1111.588a21.988,21.988,0,0,1-6.5,9.007,17.925,17.925,0,0,1-4.114,2.379c-.029.294-.057.59-.087.88l72.091-55.673-1.453,6.219,5.206-22.275-2.611,11.17Z" transform="translate(-3811.77 2839.442)" fill="#9ed9f8"/>
      <path id="Trazado_996847" data-name="Trazado 996847" d="M1393.865,1319.264l15.646-66.944-67.671,52.26Z" transform="translate(-3827.773 2664.382)" fill="#9ed9f8"/>
      <path id="Trazado_996848" data-name="Trazado 996848" d="M1248.423,338.492l6.531-5.044c.647-11.131,1.927-19.881,1.928-19.889l.062-.424.423.068.172.026c.115.017.288.041.512.07.449.058,1.106.137,1.938.215,1.663.156,4.022.313,6.8.313a60.027,60.027,0,0,0,16.294-2.1l45.932-35.471,17.633,4.121-27.513-6.43h0a5.2,5.2,0,0,1-6.227,3.868l-24.43-5.709a5.2,5.2,0,0,1-3.868-6.228l-28.9-6.754L1242.3,324.662C1244.456,330.074,1247.025,333.7,1248.423,338.492Z" transform="translate(-3740.731 3532.877)" fill="#9ed9f8"/>
      <path id="Trazado_996849" data-name="Trazado 996849" d="M1680.89,460.858l-19.252,14.867c.77.288,1.331.48,1.619.576l.223.072.409.128-.134.407s-.238.722-.68,1.991l16.593-12.814-3.652,15.628-20.163,15.571c-3.5,8-7.918,16.861-12.766,23.669a62.286,62.286,0,0,1-9.876,10.649l38-29.349,17.261-73.856Z" transform="translate(-4082.561 3384.856)" fill="#9ed9f8"/>
      <path id="Trazado_996850" data-name="Trazado 996850" d="M1234.331,324.662l13.409-65.539-14.554,62.271c.147.507.3,1,.465,1.465C1233.872,323.485,1234.1,324.081,1234.331,324.662Z" transform="translate(-3732.762 3532.877)" fill="#79cdf4"/>
      <path id="Trazado_996851" data-name="Trazado 996851" d="M1705.82,322.673a2.137,2.137,0,1,0-2.567,1.595A2.137,2.137,0,0,0,1705.82,322.673Z" transform="translate(-4142.365 3479.6)" fill="#31267b"/>
      <path id="Trazado_996852" data-name="Trazado 996852" d="M1567.11,431.046a36.054,36.054,0,0,0,9.192-3.988l.361-.226.223.364c4.047,6.621,10.626,11.549,16.482,14.9a73.087,73.087,0,0,0,10.469,4.927l19.252-14.867,7.587-32.461-17.633-4.121Z" transform="translate(-4024.759 3413.557)" fill="#79cdf4"/>
      <path id="Trazado_996853" data-name="Trazado 996853" d="M1297.6,851.089l-6.531,5.044a25.712,25.712,0,0,1,1.011,6.39,35.314,35.314,0,0,1-.349,6.284,32.2,32.2,0,0,1,5.973,5.63c-.332-3.716-.47-7.615-.47-11.493C1297.236,858.884,1297.383,854.851,1297.6,851.089Z" transform="translate(-3783.378 3015.236)" fill="#79cdf4"/>
      <path id="Trazado_996854" data-name="Trazado 996854" d="M1813.54,759.762l20.163-15.571,3.653-15.628-16.593,12.814c-.939,2.692-2.808,7.866-5.341,13.974C1814.831,756.776,1814.2,758.255,1813.54,759.762Z" transform="translate(-4240.249 3122.378)" fill="#79cdf4"/>
      <path id="Trazado_996855" data-name="Trazado 996855" d="M1428.929,1052.15l-17.1,13.2a46.958,46.958,0,0,1-3.1,15.2l62.536-48.293,2.611-11.17,1.042-4.458h0l-38,29.349A90.817,90.817,0,0,1,1428.929,1052.15Z" transform="translate(-3886.268 2870.479)" fill="#79cdf4"/>
      <path id="Trazado_996856" data-name="Trazado 996856" d="M1317.59,1235.678c-.269,2.666-.557,5.163-.854,7.454l55.178,12.9-52.025-14.684,67.671-52.259h0l.668-2.861,1.453-6.218Z" transform="translate(-3805.821 2727.617)" fill="#79cdf4"/>
      <path id="Trazado_996857" data-name="Trazado 996857" d="M1363.322,740.707l6.549-27.788a2.461,2.461,0,0,1-2.257-1.567q-3.939-8.816-8.6-17.141c-2.09-3.73,3.317-7.6,5.4-3.881q3.34,5.965,6.308,12.194,1.268-2.11,2.584-4.184l10.521-44.641v0c-8.149,4.941-18.287,6-25.574,6.008a69.489,69.489,0,0,1-9.129-.573l-.039.282c-.062.458-.152,1.13-.259,1.987-.214,1.714-.5,4.167-.786,7.121-.572,5.907-1.143,13.816-1.143,21.815a125.011,125.011,0,0,0,.588,12.716,49.426,49.426,0,0,1,6.146,11.3c-4.175-14.653-4.446-30.665-3.248-46.241a2.372,2.372,0,0,1,1.977-2.393,1.971,1.971,0,0,1,2,2.093c-.335,4.356-.555,8.715-.6,13.067-.17,15.007,1.686,30.2,7.916,43.186,1.187,2.472-2.255,4.954-3.444,2.475-.4-.824-.769-1.663-1.135-2.507a102.641,102.641,0,0,1,3.261,12.4c1.437,2.2,2.538,3.694,2.973,4.27Zm-5.085-73.89c-2.485-.526-1.439-4.927,1.038-4.4a21.679,21.679,0,0,0,15.591-2.755,1.828,1.828,0,0,1,2.711.639,2.528,2.528,0,0,1-.734,3.114A25.713,25.713,0,0,1,1358.237,666.818Z" transform="translate(-3832.195 3187.843)" fill="#f0eee9"/>
      <path id="Trazado_996858" data-name="Trazado 996858" d="M1501.138,679.388c2.765-3.48,7.13,1.233,4.369,4.708a205.674,205.674,0,0,0-18.108,26.927,3.655,3.655,0,0,1-3.126,1.907l-6.549,27.788c.133-.066.3-.149.512-.259.532-.273,1.3-.679,2.264-1.213,1.919-1.067,4.588-2.64,7.577-4.665,5.979-4.049,13.238-9.906,18.357-17.094,9.971-13.991,18.24-37.064,20.14-42.6.119-.347.212-.62.28-.823a71.344,71.344,0,0,1-10.9-4.856c-6.095-3.34-13.266-8.425-17.73-15.5l-10.521,44.641A214.557,214.557,0,0,1,1501.138,679.388Z" transform="translate(-3946.597 3187.832)" fill="#dddeda"/>
      <path id="Trazado_996859" data-name="Trazado 996859" d="M1357.2,733.744l.307-.146a94.616,94.616,0,0,0,11.477-6.836,90.88,90.88,0,0,0,7.989-6.17,62.291,62.291,0,0,0,9.876-10.649c4.848-6.808,9.265-15.673,12.766-23.669.66-1.507,1.29-2.986,1.882-4.411,2.533-6.108,4.4-11.282,5.34-13.974.443-1.269.679-1.989.68-1.991l.134-.407-.409-.128-.223-.072c-.288-.1-.849-.288-1.619-.576a73.11,73.11,0,0,1-10.469-4.927c-5.855-3.352-12.434-8.28-16.482-14.9l-.223-.364-.361.226a36.056,36.056,0,0,1-9.192,3.988,60.026,60.026,0,0,1-16.294,2.1c-2.776,0-5.135-.157-6.8-.313-.832-.078-1.489-.156-1.938-.215-.224-.029-.4-.053-.512-.07l-.172-.026-.423-.068-.062.424c0,.008-1.281,8.758-1.928,19.889-.219,3.762-.365,7.795-.365,11.855,0,3.878.138,7.777.47,11.493q.49.6.962,1.223a125.082,125.082,0,0,1-.588-12.716c0-8,.571-15.908,1.143-21.815.286-2.954.571-5.407.786-7.121.107-.857.2-1.529.259-1.987.015-.107.027-.2.039-.282a69.5,69.5,0,0,0,9.129.573c7.287,0,17.425-1.066,25.574-6.008v0c4.464,7.076,11.635,12.161,17.73,15.5a71.332,71.332,0,0,0,10.9,4.856c-.068.2-.161.476-.28.823-1.9,5.533-10.169,28.606-20.14,42.6-5.119,7.189-12.379,13.045-18.357,17.094-2.989,2.025-5.658,3.6-7.577,4.665-.96.533-1.732.94-2.264,1.213-.215.11-.379.193-.511.259h0c-.435-.576-1.536-2.073-2.973-4.27.126.711.223,1.364.288,1.952,1.342,1.972,2.222,3.1,2.227,3.11Z" transform="translate(-3826.318 3195.866)" fill="#3c3f50"/>
      <path id="Trazado_996860" data-name="Trazado 996860" d="M1381.635,807.755c-6.23-12.986-8.086-28.179-7.916-43.186.049-4.352.269-8.712.6-13.067a1.971,1.971,0,0,0-2-2.093,2.372,2.372,0,0,0-1.977,2.393c-1.2,15.576-.927,31.587,3.248,46.241.154.38.306.763.457,1.155,1.068,2.769,2.091,5.685,3,8.526.366.843.739,1.682,1.135,2.507C1379.38,812.708,1382.822,810.227,1381.635,807.755Z" transform="translate(-3852.163 3104.153)" fill="#fffcfa"/>
      <path id="Trazado_996861" data-name="Trazado 996861" d="M1445.926,702.555a2.528,2.528,0,0,0,.734-3.114,1.828,1.828,0,0,0-2.711-.639,21.679,21.679,0,0,1-15.591,2.755c-2.477-.524-3.523,3.878-1.037,4.4A25.712,25.712,0,0,0,1445.926,702.555Z" transform="translate(-3901.278 3148.699)" fill="#fffcfa"/>
      <path id="Trazado_996862" data-name="Trazado 996862" d="M1454.107,881.345a205.681,205.681,0,0,1,18.108-26.927c2.761-3.476-1.6-8.188-4.369-4.708a214.594,214.594,0,0,0-13.429,18.963q-1.311,2.078-2.584,4.184-2.971-6.223-6.308-12.194c-2.084-3.72-7.49.15-5.4,3.881q4.659,8.32,8.6,17.141a2.461,2.461,0,0,0,2.257,1.567A3.654,3.654,0,0,0,1454.107,881.345Z" transform="translate(-3913.304 3017.51)" fill="#3aaa35"/>
      <path id="Trazado_996863" data-name="Trazado 996863" d="M603.582,325.254l.041-.021c.016-.008.031-.012.047-.019,6.2-2.868,15.217-3.573,15.217-3.573v-8.056c-5.508-1.384-10.63-4.891-13.322-12.8-3.9-11.45-.737-23.978-.643-36.5,0-.132.007-.263.011-.395.811-5.407,2.786-11.247,7.54-11.247,0,0,1.816,9.53,10.947,12.845,6.67,2.421,15.407,1.366,18.439,5.662,2.251,3.188,1.9,7.52,3.62,9.907a6.72,6.72,0,0,0,2.009,1.907,20.243,20.243,0,0,1,2.287-8.319,6.085,6.085,0,0,1,4.485-2.57c6.577,0,8.391,5.645,7.66,9.981-.776,4.6-3.779,9.981-8.44,9.981a12.235,12.235,0,0,1-3.147-.579c-.087,1.6-.331,6.554-.373,12.561l-.006.009v16.353s12-1.286,20.23,2.278a42.029,42.029,0,0,1,9,4.876,35.313,35.313,0,0,0,.349-6.284,25.707,25.707,0,0,0-1.012-6.39c-1.4-4.79-3.967-8.418-6.124-13.83-.232-.581-.459-1.177-.679-1.8-.164-.467-.318-.958-.465-1.465a45.886,45.886,0,0,1-1.3-6.282,81.781,81.781,0,0,1-.612-15.119c.143-1.2.249-2.476.306-3.8.018-.16.033-.327.051-.484a1.757,1.757,0,0,0-.019-.5c.262-10.766-2.747-24.633-15.043-32.94-11.808-7.977-24.521-7.108-33.318-5.371-8.679,1.714-16.767,9.73-18.565,16.364-1.612,5.947-.541,13.626.473,18.5a115.514,115.514,0,0,1-4.727,19.373c-2.776,8.207-6.5,16.2-7.6,24.8a41.8,41.8,0,0,0,2.424,20.131,59.2,59.2,0,0,1,8.558-6.274A18.381,18.381,0,0,1,603.582,325.254ZM615.251,248.6a50.608,50.608,0,0,1,20.724-11.584.332.332,0,0,1,.178.64A49.945,49.945,0,0,0,615.7,249.083h0a.332.332,0,1,1-.452-.487Z" transform="translate(-3170.824 3556.504)" fill="#3c3f50"/>
      <path id="Trazado_996864" data-name="Trazado 996864" d="M625.579,1782.57c-3.176,4.581-4.978,21.62-3.638,26.653h89.732c.482-2.469.3-7.433-.55-12.416-.906-5.287-2.573-10.6-5.03-12.973C704.3,1787.588,632.174,1790.848,625.579,1782.57Z" transform="translate(-3197.872 2200.708)" fill="#f6a654"/>
      <path id="Trazado_996865" data-name="Trazado 996865" d="M740.91,447.115l.006-.009c.042-6.007.286-10.964.373-12.561a12.238,12.238,0,0,0,3.147.579c4.661,0,7.664-5.385,8.44-9.981.732-4.336-1.083-9.981-7.66-9.981a6.085,6.085,0,0,0-4.485,2.569,20.238,20.238,0,0,0-2.287,8.319,6.72,6.72,0,0,1-2.009-1.907c-1.724-2.387-1.369-6.719-3.62-9.907-3.033-4.3-11.769-3.24-18.439-5.662-9.131-3.315-10.947-12.845-10.947-12.845-4.754,0-6.728,5.84-7.54,11.247,0,.132-.01.263-.011.395-.094,12.523-3.256,25.051.643,36.5,2.692,7.9,7.813,11.411,13.322,12.8a28.708,28.708,0,0,0,6.977.789,37.553,37.553,0,0,0,16.828-4.139c-5.477,6.409-13.076,10.068-23.8,8.028v3.376s1.584,12.479,12.742,12.479,18.325-13.735,18.325-13.735C740.91,457.985,740.91,451.7,740.91,447.115Zm1.469-24.715a10.954,10.954,0,0,1,5.926-4.934h0a.332.332,0,0,1,.216.629,10.294,10.294,0,0,0-5.563,4.631,9.893,9.893,0,0,0-.441.9,5.619,5.619,0,0,1,.58-.347,5.457,5.457,0,0,1,2.37-.623,2.464,2.464,0,0,1,1.134.243,1.522,1.522,0,0,1,.754.862,3.2,3.2,0,0,1,.181,1.06,3.516,3.516,0,0,1-.832,2.236,2.842,2.842,0,0,1-1.888,1.066.332.332,0,1,1-.052-.663,2.191,2.191,0,0,0,1.431-.831,2.853,2.853,0,0,0,.677-1.808,2.531,2.531,0,0,0-.143-.84.85.85,0,0,0-.432-.492,1.813,1.813,0,0,0-.828-.168,4.814,4.814,0,0,0-2.068.55,2.863,2.863,0,0,0-1.329,1.167h0a.324.324,0,0,1-.086.115,10.392,10.392,0,0,0-.332,2.6,10.027,10.027,0,0,0,.227,2.132.332.332,0,1,1-.65.141,10.679,10.679,0,0,1-.242-2.274A10.948,10.948,0,0,1,742.379,422.4Zm-24.195-6.5a8.62,8.62,0,0,1,6.056,3.141.332.332,0,0,1-.517.418,7.959,7.959,0,0,0-5.583-2.9h0a.332.332,0,1,1,.044-.663Zm-.18,4.238c.654,0,1.185.724,1.185,1.618s-.531,1.618-1.185,1.618-1.185-.725-1.185-1.618S717.35,420.139,718,420.139Zm-22.2-.679a.332.332,0,0,1-.517-.418,8.619,8.619,0,0,1,6.056-3.141h0a.332.332,0,0,1,.044.663A7.957,7.957,0,0,0,695.807,419.461Zm5.718,3.915c-.654,0-1.184-.725-1.184-1.618s.531-1.618,1.184-1.618,1.185.724,1.185,1.618S702.18,423.375,701.526,423.375Zm4,5.311a2.391,2.391,0,0,1,1.763-.755,2.328,2.328,0,0,1,.84.161q.468-4.19.659-8.4h0a.332.332,0,0,1,.664.03q-.2,4.476-.714,8.93l-.065.564-.459-.333a1.573,1.573,0,0,0-.925-.284,1.731,1.731,0,0,0-1.271.537,1.79,1.79,0,0,0-.44,1.2,1.853,1.853,0,0,0,.327,1.067,2.045,2.045,0,0,0,1.653.816,1.965,1.965,0,0,0,.561-.08.332.332,0,0,1,.19.637,2.622,2.622,0,0,1-.751.108,2.7,2.7,0,0,1-2.2-1.1,2.515,2.515,0,0,1-.449-1.451A2.452,2.452,0,0,1,705.524,428.686Zm-.487,10.448h0a.332.332,0,1,1,.413-.521A5.717,5.717,0,0,0,709,439.65a9.828,9.828,0,0,0,4.184-.965,6.068,6.068,0,0,0,2.861-2.584.332.332,0,0,1,.595.3,6.717,6.717,0,0,1-3.166,2.886A10.484,10.484,0,0,1,709,440.315,6.363,6.363,0,0,1,705.038,439.134Z" transform="translate(-3261.781 3413.422)" fill="#f6b5c2"/>
      <path id="Trazado_996866" data-name="Trazado 996866" d="M839.953,854.4a37.554,37.554,0,0,1-16.828,4.139,28.709,28.709,0,0,1-6.977-.789v4.679C826.877,864.469,834.476,860.81,839.953,854.4Z" transform="translate(-3368.086 3012.34)" fill="#cf819b"/>
      <path id="Trazado_996867" data-name="Trazado 996867" d="M1064.444,581.281a.332.332,0,0,0,.65-.142,10.024,10.024,0,0,1-.227-2.132,10.38,10.38,0,0,1,.332-2.6.328.328,0,0,0,.086-.115h0a2.864,2.864,0,0,1,1.329-1.167,4.818,4.818,0,0,1,2.068-.55,1.816,1.816,0,0,1,.828.168.85.85,0,0,1,.432.492,2.533,2.533,0,0,1,.143.84,2.854,2.854,0,0,1-.677,1.808,2.191,2.191,0,0,1-1.431.831.332.332,0,1,0,.052.663,2.843,2.843,0,0,0,1.888-1.066,3.515,3.515,0,0,0,.833-2.236,3.181,3.181,0,0,0-.181-1.06,1.522,1.522,0,0,0-.754-.862,2.461,2.461,0,0,0-1.134-.243,5.456,5.456,0,0,0-2.37.623,5.651,5.651,0,0,0-.58.347,9.824,9.824,0,0,1,.441-.9,10.294,10.294,0,0,1,5.563-4.631.332.332,0,0,0-.216-.629h0a10.828,10.828,0,0,0-7.317,10.286A10.645,10.645,0,0,0,1064.444,581.281Z" transform="translate(-3584.994 3262.166)" fill="#3c3f50"/>
      <path id="Trazado_996868" data-name="Trazado 996868" d="M788.6,716.282a.332.332,0,0,0-.595-.3,6.069,6.069,0,0,1-2.861,2.584,9.828,9.828,0,0,1-4.184.965,5.718,5.718,0,0,1-3.547-1.037.332.332,0,1,0-.413.521h0a6.364,6.364,0,0,0,3.96,1.181,10.483,10.483,0,0,0,4.474-1.031A6.718,6.718,0,0,0,788.6,716.282Z" transform="translate(-3333.74 3133.537)" fill="#3c3f50"/>
      <path id="Trazado_996869" data-name="Trazado 996869" d="M880.066,557.047a7.958,7.958,0,0,1,5.583,2.9.332.332,0,0,0,.517-.418,8.62,8.62,0,0,0-6.056-3.141.332.332,0,1,0-.044.663Z" transform="translate(-3423.707 3272.939)" fill="#3c3f50"/>
      <path id="Trazado_996870" data-name="Trazado 996870" d="M882.228,561.671h0Z" transform="translate(-3425.869 3268.315)" fill="#3c3f50"/>
      <path id="Trazado_996871" data-name="Trazado 996871" d="M779.518,597.538a2.622,2.622,0,0,0,.751-.108.332.332,0,0,0-.19-.637,1.963,1.963,0,0,1-.561.081,2.045,2.045,0,0,1-1.653-.816,1.854,1.854,0,0,1-.327-1.067,1.789,1.789,0,0,1,.44-1.2,1.731,1.731,0,0,1,1.271-.537,1.574,1.574,0,0,1,.925.284l.459.333.066-.564q.515-4.451.714-8.93a.332.332,0,0,0-.664-.029h0q-.188,4.211-.659,8.4a2.327,2.327,0,0,0-.84-.161,2.391,2.391,0,0,0-1.763.755,2.452,2.452,0,0,0-.612,1.649,2.515,2.515,0,0,0,.449,1.451A2.7,2.7,0,0,0,779.518,597.538Z" transform="translate(-3333.742 3248.767)" fill="#3c3f50"/>
      <path id="Trazado_996872" data-name="Trazado 996872" d="M872.9,593.375c.654,0,1.185-.725,1.185-1.618s-.531-1.618-1.185-1.618-1.185.724-1.185,1.618S872.241,593.375,872.9,593.375Z" transform="translate(-3416.672 3243.422)" fill="#3c3f50"/>
      <path id="Trazado_996873" data-name="Trazado 996873" d="M706.133,556.693a.332.332,0,0,0-.354-.31h0a8.619,8.619,0,0,0-6.056,3.141.332.332,0,0,0,.517.418,7.958,7.958,0,0,1,5.583-2.9A.332.332,0,0,0,706.133,556.693Z" transform="translate(-3266.214 3272.939)" fill="#3c3f50"/>
      <path id="Trazado_996874" data-name="Trazado 996874" d="M741.651,590.139c-.654,0-1.185.724-1.185,1.618s.531,1.618,1.185,1.618,1.185-.725,1.185-1.618S742.3,590.139,741.651,590.139Z" transform="translate(-3301.906 3243.422)" fill="#3c3f50"/>
      <path id="Trazado_996875" data-name="Trazado 996875" d="M582.136,1041.312a19.437,19.437,0,0,0,1.054-3.69c.532-2.479,1.1-5.94,1.638-10.1.3-2.291.585-4.787.854-7.454.029-.29.058-.586.087-.879-10.956,4.657-29.532,2.368-41.241.234a.956.956,0,0,1-.115.2c-.117.135-.461.2-.987.215a1.354,1.354,0,0,1-.172.331c-.153.175-.687.238-1.516.212a3.069,3.069,0,0,1-.341.795c-1.431,1.64-36.029-6.463-36.487-7.414a96.152,96.152,0,0,1,1.543-10.1,1.928,1.928,0,0,1-.589-.915c-.1-.456.272-.792.939-1.04.165-.914.338-1.865.517-2.841-1.19-.561-2.031-1.235-2.194-2.043s1.048-1.248,2.84-1.441q.268-1.431.548-2.907a1.747,1.747,0,0,1-.7-1.339c.015-.419.436-.7,1.126-.885,2.73-14.233,6.033-30.039,7.161-32.168a.533.533,0,0,1,.174-.231c5.5-2.859,38.8,4.562,39.5,5.862a15.632,15.632,0,0,1-.357,3.577,15.366,15.366,0,0,1,2.308.612c.278.292-1.873,11.1-2.318,11.406a7.858,7.858,0,0,1-2.071-.233c-.633,3.349-1.346,7-2.087,10.7,8.458,1.36,16.335,2.548,16.335,2.548l-1.333-3.047c5.06-.313,26.048-1.643,33.308-2.565a11.451,11.451,0,0,0,2.412-.448c.491-.258.588-1.447.387-3.26-.066-.588-.162-1.242-.288-1.952a102.691,102.691,0,0,0-3.262-12.4c-.91-2.841-1.932-5.757-3-8.526-.151-.391-.3-.775-.457-1.155a49.42,49.42,0,0,0-6.146-11.3q-.472-.628-.962-1.223a32.207,32.207,0,0,0-5.973-5.63,42.034,42.034,0,0,0-9-4.876c-8.228-3.564-20.23-2.278-20.23-2.278s-7.166,13.735-18.325,13.735-12.742-12.479-12.742-12.479-9.018.706-15.217,3.573c-.016.007-.031.011-.047.019l-.041.021a18.32,18.32,0,0,0-1.705.9,59.19,59.19,0,0,0-8.558,6.274c-8.469,7.255-16.67,16.811-16.67,18.37h0c0,4.365,6.284,35.629,8.192,37.217a.388.388,0,0,0,.06.045c1.31.688,9.205-3.227,13.609-5.519q.016,1.7.024,3.386c.077,18.6-2.447,34.559-.564,39.76a3.832,3.832,0,0,0,.564,1.081C508.215,1048.325,580.343,1045.066,582.136,1041.312ZM561.506,944.6a.311.311,0,0,1,.617.084,42.883,42.883,0,0,0-.438,5.848,32.046,32.046,0,0,0,1,7.914,54.062,54.062,0,0,1,3.524-16.773.332.332,0,1,1,.613.256c-2.7,6.487-3.68,14.754-3.679,22.668a91.09,91.09,0,0,0,2.791,23.136h0a.332.332,0,1,1-.638.187,91.7,91.7,0,0,1-2.818-23.323c0-1.416.033-2.843.1-4.271a.306.306,0,0,1-.065-.116,33.587,33.587,0,0,1-1.449-9.677A43.561,43.561,0,0,1,561.506,944.6ZM502.771,994a.332.332,0,0,1-.665-.019c.058-2.009.022-8.779.662-17.052.278-3.6.685-7.481,1.282-11.388a.331.331,0,0,1-.155-.2,32.986,32.986,0,0,1,.26-18.449.332.332,0,0,1,.635.2,32.048,32.048,0,0,0-.51,17.015,84.085,84.085,0,0,1,3.215-13.345.332.332,0,0,1,.629.215c-2.742,8.009-4.055,17.759-4.692,26.005s-.6,14.985-.661,17.021Z" transform="translate(-3073.913 2943.23)" fill="#724a5d"/>
      <path id="Trazado_996876" data-name="Trazado 996876" d="M174.1,768.255a38.277,38.277,0,0,0,8.057,1.253,42.333,42.333,0,0,0,20.853-4.631c-1.908-1.588-8.192-32.852-8.192-37.217l-7.613,5.237-3.585-32.171c.079-4.2,6.992-21.624,6.082-24.149s-7.663,5.154-7.663,5.154-1.578-17-4.62-17.221c-2.285-.165-3.21,7.987-3.528,12.053a.324.324,0,0,1,.051.149q.079,1.264.157,2.528a.327.327,0,0,1-.1.256,15.623,15.623,0,0,1,1.96.542.332.332,0,0,1-.221.627,19.335,19.335,0,0,0-6.5-.948c-2.967,0-6.027.377-9.069.378-.43,0-.859-.008-1.288-.025h0a.332.332,0,1,1,.027-.664q.628.025,1.261.024c2.987,0,6.047-.377,9.069-.378a23.884,23.884,0,0,1,4.231.335.322.322,0,0,1-.028-.107q-.078-1.264-.157-2.527h0a.332.332,0,0,1,.311-.352.325.325,0,0,1,.2.061c.031-4.385-.2-13.392-2.652-13.392a1.665,1.665,0,0,0-.87.259c-1.683,1.014-2.534,4.941-2.961,8.651-.148,1.283-.245,2.537-.31,3.635h0a.332.332,0,0,1,.3.363q-.045.461-.045.925a9.622,9.622,0,0,0,.147,1.677.331.331,0,0,1-.524.324c0,.011,0,.018,0,.029,0-.011,0-.018,0-.029a.33.33,0,0,1-.131-.209,10.3,10.3,0,0,1-.157-1.792c0-.33.016-.66.048-.989h0a.328.328,0,0,1,.194-.265c-.017-.558-.042-1.157-.073-1.778-.235-4.572-.919-10.374-2.883-10.326-2.446.06-3.2,6.64-3.425,11.3a.332.332,0,0,1,.2.306q0,1.816,0,3.633a.332.332,0,0,1-.665,0v-3.633h0a.331.331,0,0,1,.317-.329c-.2-3.481-.842-7.617-2.829-7.253-3.443.632-3.443,34.661-3.443,34.661h0C153.364,723.59,154.794,763.092,174.1,768.255Zm12.14-34.846a.332.332,0,0,1,.477.462,67.635,67.635,0,0,0-6.894,8.557.332.332,0,0,1-.562-.355,68.157,68.157,0,0,1,6.978-8.665Zm-5.819-51.342h0a.332.332,0,0,1,.408.525,19.017,19.017,0,0,0-6.951,11.444.333.333,0,1,1-.654-.121A19.682,19.682,0,0,1,180.426,682.068Z" transform="translate(-2788.999 3179.646)" fill="#f6b5c2"/>
      <path id="Trazado_996877" data-name="Trazado 996877" d="M355.574,1231.7a.332.332,0,0,0,.458-.1,67.635,67.635,0,0,1,6.894-8.557.332.332,0,0,0-.477-.462h0a68.143,68.143,0,0,0-6.978,8.665A.332.332,0,0,0,355.574,1231.7Z" transform="translate(-2965.203 2690.481)" fill="#3c3f50"/>
      <path id="Trazado_996878" data-name="Trazado 996878" d="M986.979,1617.551c.526-.013.87-.081.987-.215a.956.956,0,0,0,.115-.2l-.894-.165C987.11,1617.206,987.041,1617.4,986.979,1617.551Z" transform="translate(-3517.467 2345.516)" fill="#eb8c3f"/>
      <path id="Trazado_996879" data-name="Trazado 996879" d="M772.594,1123.353h0c1.655-.938,35.758,5.124,36.461,6.423a24.675,24.675,0,0,1-.579,4.977,2.944,2.944,0,0,1,.672.219c.278.292-1.873,11.1-2.318,11.406a1.1,1.1,0,0,1-.451.007c-.53,2.781-1.109,5.742-1.708,8.743l1.016.164c.741-3.7,1.454-7.351,2.087-10.7a7.866,7.866,0,0,0,2.071.232c.445-.3,2.6-11.113,2.318-11.405a15.342,15.342,0,0,0-2.308-.612,15.617,15.617,0,0,0,.357-3.577c-.7-1.3-34-8.721-39.5-5.862A5.029,5.029,0,0,1,772.594,1123.353Z" transform="translate(-3328.354 2777.711)" fill="#eb8c3f"/>
      <path id="Trazado_996880" data-name="Trazado 996880" d="M769.5,1127.9a.535.535,0,0,0-.174.231A.594.594,0,0,1,769.5,1127.9Z" transform="translate(-3327.142 2773.18)" fill="#eb8c3f"/>
      <path id="Trazado_996881" data-name="Trazado 996881" d="M1030.1,1309.3c-.52,2.75-1.094,5.706-1.693,8.722l1.6.26c.6-3,1.178-5.963,1.708-8.744C1031.355,1309.506,1030.793,1309.422,1030.1,1309.3Z" transform="translate(-3553.696 2614.556)" fill="#f5f2e2"/>
      <path id="Trazado_996882" data-name="Trazado 996882" d="M973.954,1614.72c-.158.572-.3,1.045-.419,1.406.829.027,1.363-.037,1.516-.212a1.359,1.359,0,0,0,.172-.331q.093-.226.208-.581Q974.67,1614.86,973.954,1614.72Z" transform="translate(-3505.711 2347.483)" fill="#f5f2e2"/>
      <path id="Trazado_996883" data-name="Trazado 996883" d="M822.165,1133.511c-.7-1.3-34.806-7.361-36.461-6.423h0c7.471.686,33.985,6.286,34.6,7.43a15.719,15.719,0,0,1-.357,3.577c.666.152,1.23.287,1.635.393A24.724,24.724,0,0,0,822.165,1133.511Z" transform="translate(-3341.464 2773.976)" fill="#f5f2e2"/>
      <path id="Trazado_996884" data-name="Trazado 996884" d="M726.994,1160.589s-4.939-5.556-3.356-7.448c1.207-1.443,4.244,1.15,13.545,3.064,3.331.686,9.028,1.658,14.8,2.6.6-3.016,1.173-5.973,1.693-8.723.691.121,1.254.206,1.62.24a1.1,1.1,0,0,0,.451-.007c.445-.3,2.6-11.113,2.318-11.406a2.947,2.947,0,0,0-.672-.219c-.405-.106-.969-.241-1.635-.393a15.715,15.715,0,0,0,.357-3.577c-.619-1.144-27.133-6.745-34.6-7.43a5.019,5.019,0,0,0-1.882.016.6.6,0,0,0-.174.231c-1.128,2.128-4.431,17.935-7.161,32.168C715.909,1158.748,726.994,1160.589,726.994,1160.589Z" transform="translate(-3277.273 2773.775)" fill="#f6a654"/>
      <path id="Trazado_996885" data-name="Trazado 996885" d="M715.593,1406.887a.238.238,0,0,1,.005-.025c-2.354-.337-8.431-1.362-10.5-3.207q-.279,1.474-.548,2.907A65.318,65.318,0,0,1,715.593,1406.887Z" transform="translate(-3270.501 2532.048)" fill="#f6a654"/>
      <path id="Trazado_996886" data-name="Trazado 996886" d="M706.9,1456.964s0-.009,0-.013c-2.031-.2-7.856-.872-11.086-2.394-.179.976-.352,1.926-.517,2.841C697.821,1456.459,704.657,1456.816,706.9,1456.964Z" transform="translate(-3262.405 2487.537)" fill="#f6a654"/>
      <path id="Trazado_996887" data-name="Trazado 996887" d="M717.363,1508.061c-2.513-.489-4.6-.943-6.042-1.265-8.87-1.981-26.2-5.264-26.97-8.759-.472-2.14,7.616-.9,9.331-.614,0-.007,0-.013,0-.02-1.7-.408-9.741-2.434-12.027-4.657a96.124,96.124,0,0,0-1.543,10.1c.458.951,35.056,9.054,36.487,7.414a3.069,3.069,0,0,0,.341-.795C717.065,1509.107,717.205,1508.634,717.363,1508.061Z" transform="translate(-3249.121 2454.142)" fill="#f6a654"/>
      <path id="Trazado_996888" data-name="Trazado 996888" d="M773.089,1354.863a46.957,46.957,0,0,0,3.1-15.2c.114-2.1.125-4.092.08-5.891-7.26.921-28.248,2.251-33.308,2.564l1.333,3.047s-7.877-1.187-16.335-2.548l-1.016-.164-1.6-.26c-5.776-.941-11.474-1.913-14.8-2.6-9.3-1.914-12.338-4.507-13.545-3.064-1.583,1.892,3.356,7.448,3.356,7.448s-11.084-1.841-14.7-.885c-.69.183-1.111.466-1.126.885a1.747,1.747,0,0,0,.7,1.339c2.067,1.845,8.144,2.871,10.5,3.207a.328.328,0,0,1,.321-.274,60.287,60.287,0,0,1,6.69.493.332.332,0,0,1-.093.658,59.761,59.761,0,0,0-6.6-.487h0a.332.332,0,0,1-.332-.332.318.318,0,0,1,.007-.033,65.317,65.317,0,0,0-11.041-.326c-1.791.193-3,.618-2.84,1.441s1,1.483,2.194,2.043c3.23,1.522,9.054,2.2,11.086,2.394,0,0,0-.009,0-.013a.333.333,0,0,1,.378-.28c.75.113,2.145.176,3.548.234s2.824.116,3.688.229a.332.332,0,1,1-.087.659c-.805-.106-2.225-.165-3.629-.224s-2.8-.119-3.618-.241h0a.33.33,0,0,1-.278-.351c-2.24-.147-9.076-.5-11.6.434-.667.248-1.038.584-.939,1.04a1.926,1.926,0,0,0,.589.915c2.286,2.223,10.329,4.248,12.027,4.657a.328.328,0,0,1,.323-.257c2.551.047,5.068.468,7.2.633a.332.332,0,0,1-.052.663c-2.172-.17-4.67-.586-7.158-.631h0a.3.3,0,0,1-.316-.387c-1.715-.286-9.8-1.526-9.331.613.77,3.495,18.1,6.779,26.97,8.759,1.446.323,3.528.776,6.042,1.265q.716.14,1.477.282l.894.165c11.709,2.134,30.286,4.423,41.241-.234a17.926,17.926,0,0,0,4.114-2.379A21.991,21.991,0,0,0,773.089,1354.863Zm-27.725-15.676a47.06,47.06,0,0,1,15.435,3.374.333.333,0,0,1-.25.616,46.4,46.4,0,0,0-15.216-3.326h0a.332.332,0,0,1,.031-.664Z" transform="translate(-3250.622 2596.167)" fill="#f6b5c2"/>
      <path id="Trazado_996889" data-name="Trazado 996889" d="M1128.9,1016.146a.307.307,0,0,0,.066.116c-.066,1.427-.1,2.855-.1,4.271a91.7,91.7,0,0,0,2.818,23.323.332.332,0,1,0,.638-.187h0a91.1,91.1,0,0,1-2.791-23.136c0-7.915.974-16.182,3.679-22.668a.332.332,0,0,0-.614-.256,54.074,54.074,0,0,0-3.524,16.773,32.045,32.045,0,0,1-1-7.914,42.871,42.871,0,0,1,.438-5.848.311.311,0,1,0-.617-.084,43.478,43.478,0,0,0-.444,5.932A33.651,33.651,0,0,0,1128.9,1016.146Z" transform="translate(-3640.3 2887.291)" fill="#fff"/>
      <path id="Trazado_996890" data-name="Trazado 996890" d="M1185.461,1401.542a46.39,46.39,0,0,1,15.216,3.326.332.332,0,0,0,.25-.616,47.056,47.056,0,0,0-15.435-3.374.332.332,0,1,0-.031.664Z" transform="translate(-3690.751 2534.476)" fill="#3c3f50"/>
      <path id="Trazado_996891" data-name="Trazado 996891" d="M1187.671,1406.17h0Z" transform="translate(-3692.96 2529.849)" fill="#3c3f50"/>
      <path id="Trazado_996892" data-name="Trazado 996892" d="M792.436,1427.344a.332.332,0,0,0,.332.332h0a59.693,59.693,0,0,1,6.6.487.332.332,0,0,0,.093-.658,60.23,60.23,0,0,0-6.69-.493.328.328,0,0,0-.321.274.234.234,0,0,0-.005.025C792.441,1427.323,792.436,1427.333,792.436,1427.344Z" transform="translate(-3347.35 2511.623)" fill="#3c3f50"/>
      <path id="Trazado_996893" data-name="Trazado 996893" d="M787.977,1471.915c.819.121,2.21.181,3.618.241s2.824.117,3.629.224a.332.332,0,1,0,.087-.659c-.864-.113-2.28-.169-3.688-.229s-2.8-.122-3.548-.234a.332.332,0,0,0-.378.28s0,.009,0,.013,0,.009,0,.013A.33.33,0,0,0,787.977,1471.915Z" transform="translate(-3343.207 2472.937)" fill="#3c3f50"/>
      <path id="Trazado_996894" data-name="Trazado 996894" d="M789.926,1476.52h0Z" transform="translate(-3345.156 2468.331)" fill="#3c3f50"/>
      <path id="Trazado_996895" data-name="Trazado 996895" d="M788.178,1528.118a.333.333,0,0,0,.326.338h0c2.487.045,4.986.461,7.158.631a.332.332,0,0,0,.052-.663c-2.129-.165-4.646-.586-7.2-.633a.328.328,0,0,0-.323.257c0,.007,0,.013,0,.02A.314.314,0,0,0,788.178,1528.118Z" transform="translate(-3343.627 2423.497)" fill="#3c3f50"/>
      <path id="Trazado_996896" data-name="Trazado 996896" d="M307.979,826.11a.333.333,0,0,0,.387-.267,19.018,19.018,0,0,1,6.951-11.444.332.332,0,1,0-.408-.525h0a19.682,19.682,0,0,0-7.2,11.848A.333.333,0,0,0,307.979,826.11Z" transform="translate(-2923.482 3047.838)" fill="#3c3f50"/>
      <path id="Trazado_996897" data-name="Trazado 996897" d="M202.322,757h0v3.633a.332.332,0,0,0,.665,0q0-1.817,0-3.633a.332.332,0,0,0-.332-.332c-.005,0-.01,0-.015,0A.33.33,0,0,0,202.322,757Z" transform="translate(-2831.329 3097.802)" fill="#3c3f50"/>
      <path id="Trazado_996898" data-name="Trazado 996898" d="M254.95,763.272h0q-.047.493-.048.989a10.3,10.3,0,0,0,.157,1.792.329.329,0,0,0,.131.208h0a.331.331,0,0,0,.524-.324,9.624,9.624,0,0,1-.147-1.677q0-.463.045-.925a.332.332,0,0,0-.3-.363h0a.348.348,0,0,0-.362.3Z" transform="translate(-2877.307 3092.288)" fill="#3c3f50"/>
      <path id="Trazado_996899" data-name="Trazado 996899" d="M206.16,769.3a.325.325,0,0,0-.2-.061.332.332,0,0,0-.311.352h0q.079,1.263.157,2.527a.323.323,0,0,0,.028.107,23.867,23.867,0,0,0-4.231-.335c-3.022,0-6.082.378-9.069.378q-.633,0-1.261-.024a.332.332,0,1,0-.027.664h0c.429.017.858.025,1.288.025,3.042,0,6.1-.378,9.069-.378a19.338,19.338,0,0,1,6.5.948.332.332,0,0,0,.221-.627,15.638,15.638,0,0,0-1.96-.542.328.328,0,0,0,.1-.257q-.078-1.264-.157-2.528a.324.324,0,0,0-.051-.149A.333.333,0,0,0,206.16,769.3Z" transform="translate(-2821.362 3086.808)" fill="#3c3f50"/>
      <path id="Trazado_996900" data-name="Trazado 996900" d="M663.919,1043.1a.332.332,0,0,0-.629-.215,84.1,84.1,0,0,0-3.215,13.345,32.049,32.049,0,0,1,.51-17.015.332.332,0,0,0-.635-.2,32.988,32.988,0,0,0-.26,18.449.331.331,0,0,0,.155.2c-.6,3.906-1,7.79-1.282,11.388-.64,8.273-.6,15.043-.662,17.052a.332.332,0,0,0,.665.019h0c.059-2.036.023-8.771.661-17.021S661.177,1051.11,663.919,1043.1Z" transform="translate(-3229.708 2851.106)" fill="#fff"/>
      <path id="Trazado_996901" data-name="Trazado 996901" d="M786.9,283.182h0a49.946,49.946,0,0,1,20.451-11.431.332.332,0,0,0-.178-.64,50.606,50.606,0,0,0-20.724,11.584.332.332,0,0,0,.452.487Z" transform="translate(-3342.019 3522.405)" fill="#fff"/>
    </g>
  </g>
</svg>
