<svg xmlns="http://www.w3.org/2000/svg" xmlns:xlink="http://www.w3.org/1999/xlink" width="113" height="113" viewBox="0 0 113 113">
  <defs>
    <filter id="Trazado_982547" x="0" y="0" width="113" height="113" filterUnits="userSpaceOnUse">
      <feOffset dy="3" input="SourceAlpha"/>
      <feGaussianBlur stdDeviation="3" result="blur"/>
      <feFlood flood-opacity="0.161"/>
      <feComposite operator="in" in2="blur"/>
      <feComposite in="SourceGraphic"/>
    </filter>
  </defs>
  <g id="Grupo_1162734" data-name="Grupo 1162734" transform="translate(-742 -5335)">
    <g id="Grupo_1161174" data-name="Grupo 1161174" transform="translate(0 -377)">
      <g id="Grupo_1159768" data-name="Grupo 1159768" transform="translate(0 1505)">
        <g id="Grupo_1158169" data-name="Grupo 1158169" transform="translate(-1 -1314)">
          <g id="Grupo_1152577" data-name="Grupo 1152577" transform="translate(-0.5 1205.621)">
            <g id="Grupo_1148634" data-name="Grupo 1148634" transform="translate(488.454 600.047)">
              <g id="Grupo_1148525" data-name="Grupo 1148525" transform="translate(264.046 3721.333)">
                <g transform="matrix(1, 0, 0, 1, -9, -6)" filter="url(#Trazado_982547)">
                  <g id="Trazado_982547-2" data-name="Trazado 982547" transform="translate(9 6)" fill="#fef2ec">
                    <path d="M 47.5 93.5 C 41.28937149047852 93.5 35.26533508300781 92.28397369384766 29.59518623352051 89.88570404052734 C 24.11771965026855 87.56893157958984 19.19813346862793 84.25196075439453 14.97309303283691 80.02691650390625 C 10.74804019927979 75.80186462402344 7.431066513061523 70.88229370117188 5.114293098449707 65.40481567382812 C 2.716026782989502 59.73468017578125 1.5 53.71062850952148 1.5 47.5 C 1.5 41.28937149047852 2.716026782989502 35.26533508300781 5.114293098449707 29.59518623352051 C 7.431066513061523 24.11771965026855 10.74804019927979 19.19813346862793 14.97309303283691 14.97309303283691 C 19.19813346862793 10.74804019927979 24.11771965026855 7.431066513061523 29.59518623352051 5.114293098449707 C 35.26533508300781 2.716026782989502 41.28937149047852 1.5 47.5 1.5 C 53.71062850952148 1.5 59.73468017578125 2.716026782989502 65.40481567382812 5.114293098449707 C 70.88229370117188 7.431066513061523 75.80186462402344 10.74804019927979 80.02691650390625 14.97309303283691 C 84.25196075439453 19.19813346862793 87.56893157958984 24.11771965026855 89.88570404052734 29.59518623352051 C 92.28397369384766 35.26533508300781 93.5 41.28937149047852 93.5 47.5 C 93.5 53.71062850952148 92.28397369384766 59.73468017578125 89.88570404052734 65.40481567382812 C 87.56893157958984 70.88229370117188 84.25196075439453 75.80186462402344 80.02691650390625 80.02691650390625 C 75.80186462402344 84.25196075439453 70.88229370117188 87.56893157958984 65.40481567382812 89.88570404052734 C 59.73468017578125 92.28397369384766 53.71062850952148 93.5 47.5 93.5 Z" stroke="none"/>
                    <path d="M 47.5 3 C 41.49121475219727 3 35.66376876831055 4.176155090332031 30.17950439453125 6.495796203613281 C 24.88084411621094 8.736953735351562 20.12152099609375 11.94598388671875 16.03375244140625 16.03375244140625 C 11.94598388671875 20.12152099609375 8.736953735351562 24.88084411621094 6.495796203613281 30.17950439453125 C 4.176155090332031 35.66376876831055 3 41.49121475219727 3 47.5 C 3 53.50878524780273 4.176155090332031 59.33623123168945 6.495796203613281 64.82049560546875 C 8.736953735351562 70.11915588378906 11.94598388671875 74.87847900390625 16.03375244140625 78.96624755859375 C 20.12152099609375 83.05401611328125 24.88084411621094 86.26304626464844 30.17950439453125 88.50419616699219 C 35.66376876831055 90.82384490966797 41.49121475219727 92 47.5 92 C 53.50878524780273 92 59.33623123168945 90.82384490966797 64.82049560546875 88.50419616699219 C 70.11915588378906 86.26304626464844 74.87847900390625 83.05401611328125 78.96624755859375 78.96624755859375 C 83.05401611328125 74.87847900390625 86.26304626464844 70.11915588378906 88.50419616699219 64.82049560546875 C 90.82384490966797 59.33623123168945 92 53.50878524780273 92 47.5 C 92 41.49121475219727 90.82384490966797 35.66376876831055 88.50419616699219 30.17950439453125 C 86.26304626464844 24.88084411621094 83.05401611328125 20.12152099609375 78.96624755859375 16.03375244140625 C 74.87847900390625 11.94598388671875 70.11915588378906 8.736953735351562 64.82049560546875 6.495796203613281 C 59.33623123168945 4.176155090332031 53.50878524780273 3 47.5 3 M 47.5 0 C 73.7335205078125 0 95 21.2664794921875 95 47.5 C 95 73.7335205078125 73.7335205078125 95 47.5 95 C 21.2664794921875 95 0 73.7335205078125 0 47.5 C 0 21.2664794921875 21.2664794921875 0 47.5 0 Z" stroke="none" fill="#fe8953"/>
                  </g>
                </g>
              </g>
            </g>
          </g>
        </g>
      </g>
    </g>
    <g id="web-page_5010568" transform="translate(771.288 5361.076)">
      <path id="Trazado_997087" data-name="Trazado 997087" d="M53.216,8.272a4.848,4.848,0,0,0-4.848-4.848H6.06A4.85,4.85,0,0,0,1.212,8.272V45.2A4.848,4.848,0,0,0,6.06,50.051H48.368a4.847,4.847,0,0,0,4.848-4.846Z" transform="translate(0.381 0.381)" fill="#d9defb" fill-rule="evenodd"/>
      <path id="Trazado_997088" data-name="Trazado 997088" d="M46.759,3.424H6.06A4.85,4.85,0,0,0,1.212,8.272v11.39H46.1a3.525,3.525,0,0,1,3.526,3.526V41.611a4.847,4.847,0,0,1-4.848,4.848H2.467a4.81,4.81,0,0,1-1.123-.13,4.676,4.676,0,0,0,.215.679l.039.1c.014.03.026.06.041.092l.042.092c.058.12.12.238.187.353l.051.088.053.085.056.086.056.081.041.056.033.046.03.042.037.046.03.041.041.049.028.033.067.079.026.032.046.051.032.035.041.044.035.035.042.044.033.033.046.044.032.032.055.049L2.8,48.8l.079.071.028.025.055.046L3,48.966l.049.041.037.028.051.039.037.026.053.041.039.028.011.007.078.053.085.056.076.048.012.007.078.046.009.005.081.048.079.044.014.005.078.041.012.007.086.042.081.039.011,0,.081.037.016.005.081.035.011,0,.088.035.086.032.014.005.085.028.014.005.092.03.086.025.012.005.086.023.018.005.086.021.012,0,.093.021.09.019.018,0,.088.018.016,0L5.325,50l.093.012.014,0,.09.011.018,0,.092.009h.012l.1.009.093.005h.018l.092,0H48.368a4.847,4.847,0,0,0,4.848-4.846V8.159l0-.092,0-.018,0-.093-.009-.1V7.845l-.009-.093,0-.018-.012-.09,0-.014-.012-.1-.016-.092,0-.016-.018-.088,0-.018-.018-.09-.021-.093,0-.012-.021-.086-.005-.018-.023-.086-.005-.012L53,6.833l-.028-.088-.005-.014-.028-.085-.005-.014L52.9,6.548l-.035-.09,0-.011-.035-.081-.005-.016-.037-.081,0-.011-.041-.085L52.7,6.093l-.007-.014L52.652,6l-.007-.014L52.6,5.906l-.046-.079-.005-.009L52.5,5.74,52.5,5.728l-.048-.076-.058-.086L52.34,5.49l-.009-.011L52.3,5.441l-.041-.053-.026-.037L52.2,5.3l-.028-.035-.042-.051L52.1,5.178l-.046-.055L52.032,5.1l-.071-.079-.023-.025-.051-.055L51.855,4.9l-.044-.046-.033-.033-.044-.042L51.7,4.75l-.046-.042-.033-.032-.051-.046L51.536,4.6l-.079-.067-.032-.026-.053-.042-.039-.03L51.288,4.4l-.042-.03L51.2,4.337l-.058-.042-.085-.056-.081-.055-.085-.053L50.8,4.08l-.085-.049-.088-.048-.09-.046-.092-.044-.09-.042-.093-.041-.093-.039a4.676,4.676,0,0,0-.679-.215,20.21,20.21,0,0,1-2.734-.132Z" transform="translate(0.381 0.381)" fill="#c4cbf9" fill-rule="evenodd"/>
      <path id="Trazado_997089" data-name="Trazado 997089" d="M1.212,17.174h52v-8.9a4.848,4.848,0,0,0-4.848-4.848H6.06A4.85,4.85,0,0,0,1.212,8.272Z" transform="translate(0.381 0.381)" fill="#1e8ee8" fill-rule="evenodd"/>
      <path id="Trazado_997090" data-name="Trazado 997090" d="M25.652,3.424A4.848,4.848,0,0,1,30.5,8.272v8.9h4.072v-8.9a4.848,4.848,0,0,0-4.848-4.848Z" transform="translate(19.026 0.381)" fill="#1982d6" fill-rule="evenodd"/>
      <path id="Trazado_997091" data-name="Trazado 997091" d="M33.235,6.613H19.694a1.322,1.322,0,0,0,0,2.644h13.54a1.322,1.322,0,0,0,0-2.644Z" transform="translate(13.472 2.814)" fill="#e62c36" fill-rule="evenodd"/>
      <circle id="Elipse_11793" data-name="Elipse 11793" cx="1.851" cy="1.851" r="1.851" transform="translate(8.469 8.898)" fill="#e62c36"/>
      <circle id="Elipse_11794" data-name="Elipse 11794" cx="1.851" cy="1.851" r="1.851" transform="translate(14.207 8.898)" fill="#4ad848"/>
      <circle id="Elipse_11795" data-name="Elipse 11795" cx="1.851" cy="1.851" r="1.851" transform="translate(19.945 8.898)" fill="#e6a627"/>
      <path id="Trazado_997092" data-name="Trazado 997092" d="M19.413,17.16a4.408,4.408,0,0,0-8.816,0,.785.785,0,1,0,1.571,0,2.837,2.837,0,0,1,5.675,0,.785.785,0,1,0,1.571,0Z" transform="translate(7.541 7.498)" fill="#435a64" fill-rule="evenodd"/>
      <path id="Trazado_997093" data-name="Trazado 997093" d="M12.809,14.234H10.978a4.4,4.4,0,0,0-.381,1.8.785.785,0,1,0,1.571,0A2.823,2.823,0,0,1,12.809,14.234Zm6.221,0H17.2a2.833,2.833,0,0,1,.642,1.8.785.785,0,1,0,1.571,0A4.377,4.377,0,0,0,19.03,14.234Z" transform="translate(7.541 8.628)" fill="#34464e" fill-rule="evenodd"/>
      <path id="Trazado_997094" data-name="Trazado 997094" d="M24.361,37.082a.785.785,0,0,0,0-1.571,1.492,1.492,0,0,1-1.49-1.565l.584-11.656a1.492,1.492,0,0,1,1.488-1.417h1.722a.784.784,0,0,0,.784-.823l-.116-2.332a3.061,3.061,0,0,0-3.057-2.909H11.008a3.061,3.061,0,0,0-3.057,2.909L7.144,33.868A3.062,3.062,0,0,0,10.2,37.082Z" transform="translate(4.903 9.066)" fill="#3fb655" fill-rule="evenodd"/>
      <path id="Trazado_997095" data-name="Trazado 997095" d="M22.928,25.242H7.2l.078-1.572H23.006Z" transform="translate(4.946 15.826)" fill="#d9defb" fill-rule="evenodd"/>
      <path id="Trazado_997096" data-name="Trazado 997096" d="M21.921,16.343H18.392a3.459,3.459,0,0,0-3.455,3.286l-.721,14.438a3.444,3.444,0,0,0,.427,1.844h4.324a.785.785,0,0,0,0-1.571,1.492,1.492,0,0,1-1.49-1.565l.584-11.656A1.492,1.492,0,0,1,19.549,19.7h1.722a.784.784,0,0,0,.784-.823l-.116-2.332c0-.069-.009-.136-.018-.2Z" transform="translate(10.298 10.237)" fill="#3aa64e" fill-rule="evenodd"/>
      <path id="Trazado_997097" data-name="Trazado 997097" d="M14.384,23.67h3.2L17.5,25.242H14.3Z" transform="translate(10.369 15.826)" fill="#c3cbff" fill-rule="evenodd"/>
      <path id="Trazado_997098" data-name="Trazado 997098" d="M17.842,17.794a2.837,2.837,0,1,1-5.675,0,.785.785,0,0,0-1.571,0,4.408,4.408,0,1,0,8.816,0,.785.785,0,0,0-1.571,0Z" transform="translate(7.541 10.746)" fill="#d9defb" fill-rule="evenodd"/>
      <path id="Trazado_997099" data-name="Trazado 997099" d="M15.525,17.014a3.451,3.451,0,0,0-.853,2.107l-.113,2.251a4.4,4.4,0,0,0,1.832-3.577.785.785,0,0,0-.784-.784c-.028,0-.055,0-.081,0Z" transform="translate(10.563 10.746)" fill="#c3cbff" fill-rule="evenodd"/>
      <path id="Trazado_997100" data-name="Trazado 997100" d="M24.743,38.344a1.667,1.667,0,0,0,0-3.334.609.609,0,0,1-.608-.64l.582-11.656a.611.611,0,0,1,.608-.58h1.722a1.664,1.664,0,0,0,1.664-1.749L28.6,18.054a3.941,3.941,0,0,0-3.936-3.746H11.39a3.943,3.943,0,0,0-3.938,3.746L6.644,34.205a3.945,3.945,0,0,0,3.938,4.139Zm2.2-17.972H25.325a2.373,2.373,0,0,0-2.368,2.255l-.584,11.656a2.37,2.37,0,0,0,1.435,2.3H10.57a2.179,2.179,0,0,1-2.165-2.288l.807-16.151a2.18,2.18,0,0,1,2.177-2.071H24.659a2.182,2.182,0,0,1,2.177,2.071Z" transform="translate(4.522 8.684)" fill="#455164" fill-rule="evenodd"/>
      <path id="Trazado_997101" data-name="Trazado 997101" d="M31.316,20.093a2.879,2.879,0,0,0-2.875-2.736H18.649a2.88,2.88,0,0,0-2.877,2.736l-.6,12.021a2.881,2.881,0,0,0,2.877,3.023H29.041a2.881,2.881,0,0,0,2.877-3.023Z" transform="translate(11.027 11.01)" fill="#2f8940" fill-rule="evenodd"/>
      <path id="Trazado_997102" data-name="Trazado 997102" d="M29.058,17.4a2.968,2.968,0,0,1,.069.5l.6,12.021a2.881,2.881,0,0,1-2.875,3.023H15.858a2.85,2.85,0,0,1-.649-.074,2.881,2.881,0,0,0,2.806,2.232H29.009a2.881,2.881,0,0,0,2.877-3.023l-.6-12.021A2.88,2.88,0,0,0,29.058,17.4Z" transform="translate(11.059 11.042)" fill="#287437" fill-rule="evenodd"/>
      <path id="Trazado_997103" data-name="Trazado 997103" d="M23.488,20.016a2.017,2.017,0,0,1-4.033,0,.785.785,0,0,0-1.571,0,3.588,3.588,0,1,0,7.177,0,.786.786,0,0,0-1.572,0Z" transform="translate(13.1 12.441)" fill="#d9defb" fill-rule="evenodd"/>
      <path id="Trazado_997104" data-name="Trazado 997104" d="M31.858,25.943H15.192l.079-1.571H31.779Z" transform="translate(11.046 16.362)" fill="#d9defb" fill-rule="evenodd"/>
      <path id="Trazado_997105" data-name="Trazado 997105" d="M25.673,25.943l-.079-1.571H23.545l.011.233a2.872,2.872,0,0,1-.256,1.338Z" transform="translate(17.231 16.362)" fill="#c3cbff" fill-rule="evenodd"/>
      <path id="Trazado_997106" data-name="Trazado 997106" d="M33.18,32.451l-.6-12.021a3.762,3.762,0,0,0-3.757-3.573H19.03a3.761,3.761,0,0,0-3.757,3.573l-.6,12.021A3.761,3.761,0,0,0,18.429,36.4H29.422a3.761,3.761,0,0,0,3.758-3.949ZM30.818,20.518l.6,12.021a2,2,0,0,1-2,2.1H18.429a2,2,0,0,1-2-2.1l.6-12.021a2,2,0,0,1,2-1.9h9.793a2,2,0,0,1,2,1.9Z" transform="translate(10.646 10.629)" fill="#455164" fill-rule="evenodd"/>
      <g id="Grupo_1162733" data-name="Grupo 1162733" transform="translate(0.712 2.924)">
        <path id="Trazado_997107" data-name="Trazado 997107" d="M54.479,45.587V8.653A5.73,5.73,0,0,0,48.75,2.924H6.441A5.73,5.73,0,0,0,.712,8.653V45.585a5.729,5.729,0,0,0,5.729,5.729H48.75A5.729,5.729,0,0,0,54.479,45.587ZM52.716,8.653V45.585a3.966,3.966,0,0,1-3.966,3.966H6.441a3.966,3.966,0,0,1-3.966-3.965V8.653A3.968,3.968,0,0,1,6.441,4.687H48.75A3.967,3.967,0,0,1,52.716,8.653Z" transform="translate(-0.712 -2.924)" fill="#435a64" fill-rule="evenodd"/>
        <path id="Trazado_997108" data-name="Trazado 997108" d="M.712,17.556a.881.881,0,0,0,.881.881h52a.879.879,0,0,0,.881-.881v-8.9A5.73,5.73,0,0,0,48.75,2.924H6.441A5.73,5.73,0,0,0,.712,8.653Zm1.763-.881V8.653A3.968,3.968,0,0,1,6.441,4.687H48.75a3.967,3.967,0,0,1,3.966,3.966v8.021Z" transform="translate(-0.712 -2.924)" fill="#435a64" fill-rule="evenodd"/>
      </g>
    </g>
  </g>
</svg>
