<svg xmlns="http://www.w3.org/2000/svg" width="37.382" height="37.382" viewBox="0 0 37.382 37.382">
  <path id="grow_18059589" d="M37.481,44.256l3.732-3.221a.465.465,0,0,0-.264-.816l-3.077-.258V36.292l5.771-5.727a1.866,1.866,0,0,0,0-2.645,1.89,1.89,0,0,0-2.655,0l-4.207,4.175H35.619a3.563,3.563,0,0,0,1.316-4.508V21.264h2a.466.466,0,0,0,.332-.792l-5.241-5.333A.48.48,0,0,0,33.7,15a.468.468,0,0,0-.332.139l-5.241,5.333a.466.466,0,0,0,.332.792h2v6.322a3.565,3.565,0,0,0,1.316,4.508H30.612l-4.207-4.175a1.89,1.89,0,0,0-2.655,0,1.866,1.866,0,0,0,0,2.645l5.771,5.728v3.669l-3.077.258a.465.465,0,0,0-.264.816l3.732,3.221-1.125,4.8a.466.466,0,0,0,.694.5L33.7,47.006l4.217,2.554a.466.466,0,0,0,.695-.5ZM29.564,20.333l4.131-4.2,4.131,4.2h-1.36A.466.466,0,0,0,36,20.8v5.568a3.559,3.559,0,0,0-4.613,0V20.8a.466.466,0,0,0-.465-.465Zm1.493,8.755A2.638,2.638,0,1,1,33.7,31.726,2.641,2.641,0,0,1,31.057,29.087Zm-.743,6.68L24.406,29.9a.934.934,0,0,1,0-1.324.956.956,0,0,1,1.344,0l4.342,4.31a.463.463,0,0,0,.328.135h6.551a.469.469,0,0,0,.328-.135l4.342-4.31a.957.957,0,0,1,1.344,0,.934.934,0,0,1,0,1.324L37.08,35.767a.467.467,0,0,0-.137.33v3.785l-.905-.076-1.91-4.545a.465.465,0,0,0-.858,0l-1.91,4.545-.905.076V36.1a.479.479,0,0,0-.14-.33Zm3.623,10.3a.465.465,0,0,0-.482,0L29.944,48.19l.937-4a.465.465,0,0,0-.149-.458l-3.107-2.682,4.09-.344a.465.465,0,0,0,.39-.283L33.7,36.643l1.591,3.784a.464.464,0,0,0,.39.283l4.09.344L36.66,43.735a.465.465,0,0,0-.149.458l.937,4Zm18.427-.445a.465.465,0,0,0-.4-.32l-2.775-.233v-9.64h1.347a.466.466,0,0,0,.332-.792l-3.846-3.913a.466.466,0,0,0-.664,0l-3.846,3.913a.466.466,0,0,0,.332.792h1.347v9.639l-2.775.233a.465.465,0,0,0-.264.816L43.8,48.4,43,51.81a.466.466,0,0,0,.694.5L46.688,50.5l2.994,1.813a.466.466,0,0,0,.695-.5l-.8-3.409,2.65-2.287A.468.468,0,0,0,52.364,45.619ZM43.95,34.5l2.736-2.784L49.423,34.5h-.7a.466.466,0,0,0-.465.465v9.529l-1.139-2.711a.465.465,0,0,0-.858,0l-1.139,2.711V34.961a.466.466,0,0,0-.465-.465Zm4.8,13.386a.465.465,0,0,0-.149.458l.611,2.605-2.289-1.386a.465.465,0,0,0-.482,0l-2.289,1.386.611-2.605a.465.465,0,0,0-.149-.458l-2.026-1.748,2.666-.224a.465.465,0,0,0,.39-.283l1.037-2.466,1.037,2.466a.464.464,0,0,0,.39.283l2.666.224ZM25.979,45.3,23.2,45.066v-9.64h1.347a.466.466,0,0,0,.332-.792l-3.846-3.913a.466.466,0,0,0-.664,0l-3.846,3.913a.466.466,0,0,0,.332.792h1.347v9.639l-2.775.233a.465.465,0,0,0-.264.816l2.65,2.288-.8,3.409a.466.466,0,0,0,.694.5L20.706,50.5,23.7,52.315a.466.466,0,0,0,.695-.5L23.6,48.4l2.65-2.288a.464.464,0,0,0-.267-.815Zm-8.01-10.8,2.736-2.784L23.441,34.5h-.7a.466.466,0,0,0-.465.465v9.529l-1.139-2.711a.465.465,0,0,0-.858,0l-1.139,2.711V34.961a.466.466,0,0,0-.465-.465Zm4.8,13.386a.465.465,0,0,0-.149.458l.611,2.605-2.289-1.386a.465.465,0,0,0-.482,0l-2.289,1.386.611-2.605a.465.465,0,0,0-.149-.458l-2.026-1.748,2.666-.224a.465.465,0,0,0,.39-.283l1.037-2.466,1.037,2.466a.464.464,0,0,0,.39.283l2.666.224Z" transform="translate(-15.005 -15)"/>
</svg>
