<svg xmlns="http://www.w3.org/2000/svg" width="43.308" height="34.723" viewBox="0 0 43.308 34.723">
  <g id="refresh_1736419" transform="translate(-0.001 -0.379)">
    <path id="Trazado_994897" data-name="Trazado 994897" d="M124.472,144.607a.509.509,0,0,0-.839,0l-4.737,6.865a.476.476,0,0,0-.032.507.493.493,0,0,0,.451.254h4.058a15.65,15.65,0,0,1-5.661,9.848,16.368,16.368,0,0,1-10.1,3.765,15.627,15.627,0,0,1-6.88-1.681,16.855,16.855,0,0,1-5.849-4.766.51.51,0,0,0-.807.624,17.885,17.885,0,0,0,6.2,5.059,16.654,16.654,0,0,0,7.333,1.792,17.415,17.415,0,0,0,10.741-4,16.588,16.588,0,0,0,6.046-10.639h4.386a.487.487,0,0,0,.419-.77Zm-4.186,6.605,3.766-5.457,3.766,5.457Zm0,0" transform="translate(-85.99 -131.773)"/>
    <path id="Trazado_994898" data-name="Trazado 994898" d="M5.249,22.866a.509.509,0,0,0,.419-.22l4.737-6.865a.475.475,0,0,0,.032-.507.492.492,0,0,0-.451-.253H5.927a15.651,15.651,0,0,1,5.661-9.849,16.368,16.368,0,0,1,10.1-3.765,15.627,15.627,0,0,1,6.88,1.681,16.853,16.853,0,0,1,5.85,4.766.51.51,0,0,0,.808-.624,17.883,17.883,0,0,0-6.2-5.059A16.657,16.657,0,0,0,21.687.379a17.413,17.413,0,0,0-10.741,4A16.587,16.587,0,0,0,4.9,15.021H.512a.487.487,0,0,0-.419.77l4.737,6.86a.5.5,0,0,0,.419.215Zm3.766-6.826L5.249,21.5,1.483,16.041Zm0,0" transform="translate(0 0)"/>
    <path id="Trazado_994899" data-name="Trazado 994899" d="M127.48,88.152A10.823,10.823,0,1,0,138.3,77.328,10.824,10.824,0,0,0,127.48,88.152Zm4.718,7.685A2.625,2.625,0,0,1,134.82,93.5h1.131a2.384,2.384,0,0,0,4.683,0h1.153a2.625,2.625,0,0,1,2.622,2.332,9.783,9.783,0,0,1-12.212,0Zm3.821-5.434a3.213,3.213,0,0,1-.944-2.307v-.3a7.805,7.805,0,0,0,5.172-3.623,1.826,1.826,0,0,1,.41.21,2.039,2.039,0,0,1,.89,1.75l-.015.371v1.543a3.272,3.272,0,0,1-3.212,3.3,3.2,3.2,0,0,1-2.3-.943Zm6.532-3.89.011-.363a3.061,3.061,0,0,0-1.352-2.614,2.776,2.776,0,0,0-1.164-.45.508.508,0,0,0-.516.261,6.657,6.657,0,0,1-4.915,3.487.589.589,0,0,0-.561.6v.66a4.345,4.345,0,0,0,.048.746,6.465,6.465,0,0,1-.719-2.678,4.862,4.862,0,0,1,.491-2.366,5.117,5.117,0,0,1,3.188-2.581,3.217,3.217,0,0,1,2.394.2,3.337,3.337,0,0,1,1.548,1.7l.019.059a.51.51,0,0,0,.6.335c.136-.032.836-.136,1.287.982a4.663,4.663,0,0,1-.072,3.564,6.614,6.614,0,0,1-.339.68,4.357,4.357,0,0,0,.049-.683Zm-5.607,6.443v-.812a4.162,4.162,0,0,0,1.347.257h.033a4.187,4.187,0,0,0,1.339-.262v.877a1.359,1.359,0,0,1-2.719,0Zm11.163-4.8a9.819,9.819,0,0,1-2.824,6.9,3.647,3.647,0,0,0-3.5-2.564h-1.1v-.15a9.808,9.808,0,0,0,1.025-.918,9.392,9.392,0,0,0,2.076-2.972,5.675,5.675,0,0,0,.076-4.339,2.314,2.314,0,0,0-2.031-1.643,4.22,4.22,0,0,0-5.05-2.226,6.143,6.143,0,0,0-3.819,3.105,5.883,5.883,0,0,0-.593,2.863,7.4,7.4,0,0,0,3.558,6v.276h-1.1a3.647,3.647,0,0,0-3.5,2.564,9.806,9.806,0,1,1,16.784-6.9Zm0,0" transform="translate(-116.648 -70.412)"/>
  </g>
</svg>
