<svg xmlns="http://www.w3.org/2000/svg" width="31.412" height="31.412" viewBox="0 0 31.412 31.412">
  <g id="decrease_7041550" transform="translate(-7.166 -7.166)">
    <path id="Trazado_994900" data-name="Trazado 994900" d="M131.286,282.256a5.13,5.13,0,0,1,7.614-2.924" transform="translate(-116.128 -254.297)" fill="none" stroke="#000" stroke-linecap="round" stroke-linejoin="round" stroke-miterlimit="10" stroke-width="0.6"/>
    <path id="Trazado_994901" data-name="Trazado 994901" d="M162.65,308.955a3.261,3.261,0,0,0-4.516,3.474" transform="translate(-141.282 -282.557)" fill="none" stroke="#000" stroke-linecap="round" stroke-linejoin="round" stroke-miterlimit="10" stroke-width="0.6"/>
    <path id="Trazado_994902" data-name="Trazado 994902" d="M228.38,282.269a5.124,5.124,0,1,0-9.337,4.029" transform="translate(-197.792 -254.305)" fill="none" stroke="#000" stroke-linecap="round" stroke-linejoin="round" stroke-miterlimit="10" stroke-width="0.6"/>
    <path id="Trazado_994903" data-name="Trazado 994903" d="M254.942,312.427a3.261,3.261,0,1,0-5.064,2.223" transform="translate(-226.049 -282.562)" fill="none" stroke="#000" stroke-linecap="round" stroke-linejoin="round" stroke-miterlimit="10" stroke-width="0.6"/>
    <path id="Trazado_994904" data-name="Trazado 994904" d="M34.409,12.758a5.371,5.371,0,0,1,.442.66,1.388,1.388,0,0,1-.233,1.66l-1.1,1.1a12.5,12.5,0,0,1,1.617,3.9h1.553a1.389,1.389,0,0,1,1.339,1.009,7.482,7.482,0,0,1,0,3.571,1.388,1.388,0,0,1-1.339,1.009H35.136a12.511,12.511,0,0,1-1.616,3.9l1.1,1.1a1.387,1.387,0,0,1,.233,1.66,7.475,7.475,0,0,1-2.526,2.525,1.388,1.388,0,0,1-1.66-.233l-1.1-1.1a12.5,12.5,0,0,1-3.9,1.617v1.553a1.389,1.389,0,0,1-1.009,1.339,7.482,7.482,0,0,1-3.571,0,1.388,1.388,0,0,1-1.009-1.339V35.136a12.511,12.511,0,0,1-3.9-1.616l-1.1,1.1a1.387,1.387,0,0,1-1.66.233,7.476,7.476,0,0,1-2.525-2.526,1.388,1.388,0,0,1,.233-1.66l1.1-1.1a12.5,12.5,0,0,1-1.617-3.9H9.055a1.389,1.389,0,0,1-1.339-1.009,7.483,7.483,0,0,1,0-3.571,1.388,1.388,0,0,1,1.339-1.009h1.553a12.511,12.511,0,0,1,1.616-3.9l-1.1-1.1a1.387,1.387,0,0,1-.233-1.66,7.475,7.475,0,0,1,2.526-2.525,1.388,1.388,0,0,1,1.66.233l1.1,1.1a12.5,12.5,0,0,1,3.9-1.617V9.055a1.389,1.389,0,0,1,1.009-1.339,7.483,7.483,0,0,1,3.571,0,1.388,1.388,0,0,1,1.009,1.339v1.553a12.511,12.511,0,0,1,3.9,1.616l1.1-1.1a1.387,1.387,0,0,1,1.66-.233,5.12,5.12,0,0,1,.538.35m-7.992,2.53A9.317,9.317,0,1,1,13.614,23.911m0-2.054a9.324,9.324,0,0,1,7.263-8.086" fill="none" stroke="#000" stroke-linecap="round" stroke-linejoin="round" stroke-miterlimit="10" stroke-width="0.6"/>
    <path id="Trazado_994905" data-name="Trazado 994905" d="M194.246,90.747l.85-.85a.928.928,0,0,0-.656-1.584h-1.486v-4.58a.928.928,0,0,0-.928-.928h-1.871a.928.928,0,0,0-.928.928v4.58h-1.486a.928.928,0,0,0-.656,1.584l3.349,3.349a.929.929,0,0,0,1.313,0l.968-.968" transform="translate(-168.218 -70.646)" fill="none" stroke="#000" stroke-linecap="round" stroke-linejoin="round" stroke-miterlimit="10" stroke-width="0.6"/>
  </g>
</svg>
