<svg xmlns="http://www.w3.org/2000/svg" xmlns:xlink="http://www.w3.org/1999/xlink" width="37.382" height="37.382" viewBox="0 0 37.382 37.382">
  <defs>
    <clipPath id="clip-path">
      <path id="path2550" d="M0-682.665H37.382v37.382H0Z" transform="translate(0 682.665)"/>
    </clipPath>
  </defs>
  <g id="g2544" transform="translate(0 682.665)">
    <g id="g2546" transform="translate(0 -682.665)">
      <g id="g2548" clip-path="url(#clip-path)">
        <g id="g2554" transform="translate(20.536 23.109)">
          <path id="path2556" d="M0,0A10.9,10.9,0,0,1,6.01,3.177" fill="none" stroke="#000" stroke-linecap="round" stroke-linejoin="round" stroke-miterlimit="10" stroke-width="1"/>
        </g>
        <g id="g2558" transform="translate(10.836 23.109)">
          <path id="path2560" d="M0-54.84a10.9,10.9,0,0,1,6.01-3.177" transform="translate(0 58.017)" fill="none" stroke="#000" stroke-linecap="round" stroke-linejoin="round" stroke-miterlimit="10" stroke-width="1"/>
        </g>
        <g id="g2562" transform="translate(20.512 11.071)">
          <path id="path2564" d="M0-54.462a10.9,10.9,0,0,0,6.009-3.155" transform="translate(0 57.617)" fill="none" stroke="#000" stroke-linecap="round" stroke-linejoin="round" stroke-miterlimit="10" stroke-width="1"/>
        </g>
        <g id="g2566" transform="translate(10.861 11.071)">
          <path id="path2568" d="M0,0A10.9,10.9,0,0,0,6.009,3.155" fill="none" stroke="#000" stroke-linecap="round" stroke-linejoin="round" stroke-miterlimit="10" stroke-width="1"/>
        </g>
        <g id="g2570" transform="translate(13.589 7.765)">
          <path id="path2572" d="M-176.148-188.6c0-6.034-2.284-10.926-5.1-10.926s-5.1,4.892-5.1,10.926,2.284,10.926,5.1,10.926S-176.148-182.568-176.148-188.6Z" transform="translate(186.353 199.529)" fill="none" stroke="#000" stroke-linecap="round" stroke-linejoin="round" stroke-miterlimit="10" stroke-width="1"/>
        </g>
        <g id="g2574" transform="translate(21.6 18.691)">
          <path id="path2576" d="M0,0H8.018" fill="none" stroke="#000" stroke-linecap="round" stroke-linejoin="round" stroke-miterlimit="10" stroke-width="1"/>
        </g>
        <g id="g2578" transform="translate(7.765 18.691)">
          <path id="path2580" d="M0,0H8.323" fill="none" stroke="#000" stroke-linecap="round" stroke-linejoin="round" stroke-miterlimit="10" stroke-width="1"/>
        </g>
        <g id="g2582" transform="translate(7.765 7.765)">
          <path id="path2584" d="M-293.352-345.466a10.914,10.914,0,0,0,4.858-9.087,10.926,10.926,0,0,0-10.926-10.926,10.926,10.926,0,0,0-10.926,10.926,10.926,10.926,0,0,0,10.926,10.926,10.89,10.89,0,0,0,4.135-.81" transform="translate(310.346 365.479)" fill="none" stroke="#000" stroke-linecap="round" stroke-linejoin="round" stroke-miterlimit="10" stroke-width="1"/>
        </g>
        <g id="g2586" transform="translate(7.459 7.628)">
          <path id="path2588" d="M-415.3-412.389a18.019,18.019,0,0,1-12.827,5.313,18,18,0,0,1-10.679-3.472,1.335,1.335,0,0,1-.189-2l.024-.025a1.338,1.338,0,0,1,1.764-.159,15.321,15.321,0,0,0,9.081,2.949,15.336,15.336,0,0,0,10.916-4.522,15.338,15.338,0,0,0,4.294-8.264,15.414,15.414,0,0,0-.6-7.67l-.538.351a1.2,1.2,0,0,1-1.855-.941l-.227-4.188a1.2,1.2,0,0,1,1.742-1.136l3.742,1.9a1.2,1.2,0,0,1,.112,2.077l-.652.425a18.1,18.1,0,0,1,.944,9.647A18.026,18.026,0,0,1-415.3-412.389Z" transform="translate(439.363 436.279)" fill="none" stroke="#000" stroke-linecap="round" stroke-linejoin="round" stroke-miterlimit="10" stroke-width="1"/>
        </g>
        <g id="g2590" transform="translate(0.548 0.583)">
          <path id="path2592" d="M-332.082,0A17.976,17.976,0,0,1-322.5,3.44a1.336,1.336,0,0,1,.189,2l-.024.025a1.338,1.338,0,0,1-1.764.158,15.322,15.322,0,0,0-9.081-2.95,15.335,15.335,0,0,0-10.916,4.522,15.334,15.334,0,0,0-4.294,8.264,15.406,15.406,0,0,0,.605,7.67l.537-.35a1.2,1.2,0,0,1,1.855.94l.228,4.188A1.2,1.2,0,0,1-346.9,29.04l-3.742-1.9a1.2,1.2,0,0,1-.112-2.076l.652-.425a18.1,18.1,0,0,1-.944-9.647A18.028,18.028,0,0,1-346,5.281,18.007,18.007,0,0,1-334.271,0" transform="translate(351.32 0)" fill="none" stroke="#000" stroke-linecap="round" stroke-linejoin="round" stroke-miterlimit="10" stroke-width="1"/>
        </g>
        <g id="g2594" transform="translate(17.004 15.526)">
          <path id="path2596" d="M-50.215-6.9a1.922,1.922,0,0,0-1.776-.307,1.336,1.336,0,0,0-.568,2.2,6.444,6.444,0,0,0,1.767.837c1.769.625,1.115,3.12-.684,3.132a2.408,2.408,0,0,1-1.648-.443" transform="translate(53.124 7.299)" fill="none" stroke="#000" stroke-linecap="round" stroke-linejoin="round" stroke-miterlimit="10" stroke-width="1"/>
        </g>
        <g id="g2598" transform="translate(18.652 21.788)">
          <path id="path2600" d="M0-15.72v-.911" transform="translate(0 16.631)" fill="none" stroke="#000" stroke-linecap="round" stroke-linejoin="round" stroke-miterlimit="10" stroke-width="1"/>
        </g>
        <g id="g2602" transform="translate(18.652 14.684)">
          <path id="path2604" d="M0-14.582v-.845" transform="translate(0 15.427)" fill="none" stroke="#000" stroke-linecap="round" stroke-linejoin="round" stroke-miterlimit="10" stroke-width="1"/>
        </g>
      </g>
    </g>
  </g>
</svg>
