<svg id="immersive_3169402" xmlns="http://www.w3.org/2000/svg" width="37.764" height="37.764" viewBox="0 0 37.764 37.764">
  <path id="Trazado_994974" data-name="Trazado 994974" d="M11.787,15.441A.787.787,0,0,1,11,14.654V6.787A.787.787,0,0,1,11.787,6h2.36a3.147,3.147,0,0,1,0,6.294H12.574v2.36A.787.787,0,0,1,11.787,15.441Zm.787-4.721h1.574a1.574,1.574,0,1,0,0-3.147H12.574Z" transform="translate(6.309 3.441)"/>
  <path id="Trazado_994975" data-name="Trazado 994975" d="M15.934,13.72a.79.79,0,0,1-.557-.23L12.23,10.343a.787.787,0,0,1,1.112-1.112l3.147,3.147a.786.786,0,0,1-.555,1.342Z" transform="translate(6.882 5.162)"/>
  <path id="Trazado_994976" data-name="Trazado 994976" d="M8.147,15.441a.788.788,0,0,1-.754-.56L5.033,7.013A.787.787,0,0,1,6.541,6.56l1.607,5.356L9.754,6.562a.786.786,0,1,1,1.506.453L8.9,14.882A.785.785,0,0,1,8.147,15.441Z" transform="translate(2.867 3.441)"/>
  <path id="Trazado_994977" data-name="Trazado 994977" d="M19.36,10.721a2.36,2.36,0,1,1,2.36-2.36A2.363,2.363,0,0,1,19.36,10.721Zm0-3.147a.787.787,0,1,0,.787.787A.788.788,0,0,0,19.36,7.574Z" transform="translate(9.75 3.441)"/>
  <path id="Trazado_994978" data-name="Trazado 994978" d="M33.83,25.029H23.87a.79.79,0,0,1-.747-.538l-.691-2.077a.8.8,0,0,0-.749-.532h-5.6a.805.805,0,0,0-.754.544l-.688,2.066a.787.787,0,0,1-.746.537H3.934A3.938,3.938,0,0,1,0,21.1V6.934A3.938,3.938,0,0,1,3.934,3h29.9a3.938,3.938,0,0,1,3.934,3.934V21.1A3.938,3.938,0,0,1,33.83,25.029Zm-9.394-1.574H33.83a2.363,2.363,0,0,0,2.36-2.36V6.934a2.363,2.363,0,0,0-2.36-2.36H3.934a2.363,2.363,0,0,0-2.36,2.36V21.1a2.363,2.363,0,0,0,2.36,2.36h9.394l.511-1.539a2.385,2.385,0,0,1,2.242-1.608h5.6a2.379,2.379,0,0,1,2.238,1.6Z" transform="translate(0 1.721)"/>
  <path id="Trazado_994979" data-name="Trazado 994979" d="M30.536,6.294a.787.787,0,0,1-.787-.787V3.934a2.363,2.363,0,0,0-2.36-2.36H6.934a2.363,2.363,0,0,0-2.36,2.36V5.507A.787.787,0,0,1,3,5.507V3.934A3.938,3.938,0,0,1,6.934,0H27.389a3.938,3.938,0,0,1,3.934,3.934V5.507A.787.787,0,0,1,30.536,6.294Z" transform="translate(1.721)"/>
  <path id="Trazado_994980" data-name="Trazado 994980" d="M11.287,26.294a.786.786,0,0,1-.47-1.416l2.308-1.731-2.31-1.731a.786.786,0,1,1,.943-1.259l3.147,2.36a.787.787,0,0,1,0,1.259l-3.147,2.36a.783.783,0,0,1-.47.157Z" transform="translate(6.022 11.47)"/>
  <path id="Trazado_994981" data-name="Trazado 994981" d="M18.882,25.035c-1.613,0-3.257-.06-4.886-.175C7.23,24.373,0,22.716,0,19.528a2.265,2.265,0,0,1,.256-1.013.787.787,0,0,1,1.408.7.725.725,0,0,0-.091.308c0,1.153,3.983,3.147,12.535,3.764a45.791,45.791,0,0,0,4.807.17c.371,0,.729,0,1.084-.014a.775.775,0,0,1,.82.754.787.787,0,0,1-.754.818C19.675,25.035,19.286,25.035,18.882,25.035Z" transform="translate(0 10.369)"/>
  <path id="Trazado_994982" data-name="Trazado 994982" d="M15.775,24.8a.787.787,0,0,1-.063-1.572c8.107-.662,11.882-2.6,11.882-3.7a.725.725,0,0,0-.091-.308.787.787,0,0,1,1.408-.7,2.265,2.265,0,0,1,.256,1.013c0,3.876-10.2,5.013-13.326,5.27-.02,0-.044,0-.066,0Z" transform="translate(8.597 10.369)"/>
</svg>
