<svg xmlns="http://www.w3.org/2000/svg" width="31.928" height="38.429" viewBox="0 0 31.928 38.429">
  <g id="folder_18125503" transform="translate(-6.244 -1)">
    <g id="Grupo_1161129" data-name="Grupo 1161129" transform="translate(6.244 1)">
      <g id="Grupo_1161128" data-name="Grupo 1161128">
        <g id="Grupo_1161127" data-name="Grupo 1161127">
          <g id="Grupo_1161119" data-name="Grupo 1161119">
            <path id="Trazado_994966" data-name="Trazado 994966" d="M37.174,16.489V15.01a2.722,2.722,0,0,0-2.867-2.541H30.215V4.263a.565.565,0,0,0-.035-.156.531.531,0,0,0-.014-.064.572.572,0,0,0-.075-.111.567.567,0,0,0-.058-.074c-.009-.008-.012-.02-.022-.028L26.82,1.168a.572.572,0,0,0-.4-.168H14.049a.848.848,0,0,0-.844.85v6.86H9.87a3.435,3.435,0,0,0-3.624,3.2v3.036c0,.006,0,.011,0,.017V37.391a2.039,2.039,0,0,0,2.037,2.038h27.86a2.036,2.036,0,0,0,2.031-2.037V18.126a1.837,1.837,0,0,0-1-1.637ZM34.307,13.6a1.6,1.6,0,0,1,1.737,1.411V16.27H30.215V13.6ZM26.985,2.775,28.1,3.7H26.985ZM14.334,2.129H25.856V3.986a.846.846,0,0,0,.845.845h2.386V16.27H19.2l-3.635-3.635a.564.564,0,0,0-.4-.165h-.834ZM7.375,11.91a2.315,2.315,0,0,1,2.5-2.07h3.335v2.63H8.734a2.439,2.439,0,0,0-.469.05l-.075.017a2.416,2.416,0,0,0-.382.119l-.06.023a2.484,2.484,0,0,0-.373.2V11.91ZM37.043,37.392a.906.906,0,0,1-.9.908H8.281a.909.909,0,0,1-.908-.908V14.972s0-.006,0-.009A1.372,1.372,0,0,1,8.735,13.6h6.2l3.635,3.635a.564.564,0,0,0,.4.165H36.325a.7.7,0,0,1,.128.015l.03,0a.729.729,0,0,1,.559.7V37.392Z" transform="translate(-6.244 -1)"/>
          </g>
          <g id="Grupo_1161120" data-name="Grupo 1161120" transform="translate(11.943 24.45)">
            <path id="Trazado_994967" data-name="Trazado 994967" d="M28.027,40.816a.564.564,0,0,0-.525-.37h0a.565.565,0,0,0-.527.361L25.55,44.48a.565.565,0,0,0,1.053.407l.17-.441h1.382l.158.432a.565.565,0,1,0,1.061-.389Zm-.817,2.5.273-.7.258.7Z" transform="translate(-25.512 -40.446)"/>
          </g>
          <g id="Grupo_1161121" data-name="Grupo 1161121" transform="translate(16.081 24.805)">
            <path id="Trazado_994968" data-name="Trazado 994968" d="M34.529,42.148a.565.565,0,1,0,0-1.129H32.754a.565.565,0,0,0,0,1.129h.323V44.16h-.323a.565.565,0,0,0,0,1.129h1.775a.565.565,0,1,0,0-1.129h-.323V42.148Z" transform="translate(-32.189 -41.019)"/>
          </g>
          <g id="Grupo_1161122" data-name="Grupo 1161122" transform="translate(5.748 17.238)">
            <path id="Trazado_994969" data-name="Trazado 994969" d="M32.774,38.141a1.221,1.221,0,0,0,1.22-1.219V35.764a1.52,1.52,0,1,0-1.129,0v1.157a.091.091,0,0,1-.09.09H30.216V34.641a1.1,1.1,0,0,0-1.1-1.1H26.674V30.986a.09.09,0,0,1,.09-.09h1.157a1.52,1.52,0,1,0,0-1.129H26.765a1.221,1.221,0,0,0-1.22,1.22v2.558h-.622V30.986a1.221,1.221,0,0,0-1.22-1.22H22.546a1.52,1.52,0,1,0,0,1.129H23.7a.09.09,0,0,1,.09.09v2.558H21.349a1.1,1.1,0,0,0-1.1,1.1v2.371H17.693a.09.09,0,0,1-.09-.09V35.764a1.52,1.52,0,1,0-1.129,0v1.157a1.221,1.221,0,0,0,1.22,1.219h2.558v.622H17.693a1.221,1.221,0,0,0-1.22,1.22v1.157a1.52,1.52,0,1,0,1.129,0V39.982a.09.09,0,0,1,.09-.09h2.558v2.316a1.1,1.1,0,0,0,1.1,1.1h2.445v2.558a.091.091,0,0,1-.09.09H22.546a1.52,1.52,0,1,0,0,1.129H23.7a1.221,1.221,0,0,0,1.22-1.219V43.305h.622v2.558a1.221,1.221,0,0,0,1.22,1.219h1.157a1.52,1.52,0,1,0,0-1.129H26.764a.09.09,0,0,1-.09-.09V43.3h2.445a1.1,1.1,0,0,0,1.1-1.1V39.892h2.558a.09.09,0,0,1,.09.09v1.157a1.52,1.52,0,1,0,1.129,0V39.981a1.221,1.221,0,0,0-1.22-1.22H30.215v-.622h2.559Zm.655-4.175a.39.39,0,1,1-.39.39A.391.391,0,0,1,33.429,33.965Zm-4.1-4.026a.39.39,0,1,1-.39.39A.391.391,0,0,1,29.33,29.94Zm-8.192.781a.39.39,0,1,1,.39-.39A.391.391,0,0,1,21.139,30.721Zm-4.1,3.245a.39.39,0,1,1-.39.39A.391.391,0,0,1,17.04,33.965Zm0,8.973a.39.39,0,1,1,.39-.39A.391.391,0,0,1,17.04,42.938Zm4.1,3.971a.39.39,0,1,1,.39-.39A.391.391,0,0,1,21.139,46.909Zm8.192-.782a.39.39,0,1,1-.39.39A.391.391,0,0,1,29.33,46.127Zm4.1-3.189a.39.39,0,1,1,.39-.39A.391.391,0,0,1,33.429,42.938Zm-4.342-.762-2.918.012a.469.469,0,0,0-.06-.012.531.531,0,0,0-.063.012l-1.594.007a.543.543,0,0,0-.1-.019.53.53,0,0,0-.1.02l-2.878.012-.012-2.822a.471.471,0,0,0,.012-.059.512.512,0,0,0-.012-.061l-.007-1.6a.525.525,0,0,0,.019-.095.534.534,0,0,0-.02-.1l-.012-2.8,2.949-.012a.519.519,0,0,0,.06.012.415.415,0,0,0,.063-.013l1.592-.007a.254.254,0,0,0,.2,0l2.878-.012v7.536Z" transform="translate(-15.518 -28.811)"/>
          </g>
          <g id="Grupo_1161123" data-name="Grupo 1161123" transform="translate(9.607 2.057)">
            <path id="Trazado_994970" data-name="Trazado 994970" d="M22.309,5.448h6.944a.565.565,0,1,0,0-1.129H22.309a.565.565,0,0,0,0,1.129Z" transform="translate(-21.744 -4.319)"/>
          </g>
          <g id="Grupo_1161124" data-name="Grupo 1161124" transform="translate(9.607 4.949)">
            <path id="Trazado_994971" data-name="Trazado 994971" d="M22.309,10.114h9.858a.565.565,0,0,0,0-1.129H22.309a.565.565,0,0,0,0,1.129Z" transform="translate(-21.744 -8.985)"/>
          </g>
          <g id="Grupo_1161125" data-name="Grupo 1161125" transform="translate(9.607 7.841)">
            <path id="Trazado_994972" data-name="Trazado 994972" d="M22.309,14.779h9.858a.565.565,0,0,0,0-1.129H22.309a.565.565,0,0,0,0,1.129Z" transform="translate(-21.744 -13.65)"/>
          </g>
          <g id="Grupo_1161126" data-name="Grupo 1161126" transform="translate(9.607 10.732)">
            <path id="Trazado_994973" data-name="Trazado 994973" d="M22.309,19.444h9.858a.565.565,0,0,0,0-1.129H22.309a.565.565,0,0,0,0,1.129Z" transform="translate(-21.744 -18.315)"/>
          </g>
        </g>
      </g>
    </g>
  </g>
</svg>
