<svg xmlns="http://www.w3.org/2000/svg" xmlns:xlink="http://www.w3.org/1999/xlink" width="108" height="108" viewBox="0 0 108 108">
  <defs>
    <filter id="Trazado_982547" x="0" y="0" width="108" height="108" filterUnits="userSpaceOnUse">
      <feOffset dy="3" input="SourceAlpha"/>
      <feGaussianBlur stdDeviation="3" result="blur"/>
      <feFlood flood-opacity="0.161"/>
      <feComposite operator="in" in2="blur"/>
      <feComposite in="SourceGraphic"/>
    </filter>
  </defs>
  <g id="Grupo_1162737" data-name="Grupo 1162737" transform="translate(-161 -6558)">
    <g id="Grupo_1161176" data-name="Grupo 1161176" transform="translate(5 46)">
      <g id="Grupo_1159770" data-name="Grupo 1159770" transform="translate(-5 5060)">
        <g id="Grupo_1153117" data-name="Grupo 1153117" transform="translate(-93 939)">
          <g id="Grupo_1149598" data-name="Grupo 1149598" transform="translate(80 315)">
            <g id="Grupo_1148770" data-name="Grupo 1148770" transform="translate(-27 -2583)">
              <g id="Grupo_1146954" data-name="Grupo 1146954" transform="translate(-415 -1202)">
                <g transform="matrix(1, 0, 0, 1, 616, 3983)" filter="url(#Trazado_982547)">
                  <g id="Trazado_982547-2" data-name="Trazado 982547" transform="translate(9 6)" fill="#eff5f8">
                    <path d="M 45 88.5 C 39.12687683105469 88.5 33.43022537231445 87.35007476806641 28.06830024719238 85.08217620849609 C 22.88852500915527 82.89131164550781 18.23629951477051 79.75458526611328 14.2408504486084 75.75914764404297 C 10.24541282653809 71.76370239257812 7.108687400817871 67.11147308349609 4.917825222015381 61.93170166015625 C 2.649924993515015 56.56977462768555 1.5 50.87312316894531 1.5 45 C 1.5 39.12687683105469 2.649924993515015 33.43022537231445 4.917825222015381 28.06830024719238 C 7.108687400817871 22.88852500915527 10.24541282653809 18.23629951477051 14.2408504486084 14.2408504486084 C 18.23629951477051 10.24541282653809 22.88852500915527 7.108687400817871 28.06830024719238 4.917825222015381 C 33.43022537231445 2.649924993515015 39.12687683105469 1.5 45 1.5 C 50.87312316894531 1.5 56.56977462768555 2.649924993515015 61.93170166015625 4.917825222015381 C 67.11147308349609 7.108687400817871 71.76370239257812 10.24541282653809 75.75914764404297 14.2408504486084 C 79.75458526611328 18.23629951477051 82.89131164550781 22.88852500915527 85.08217620849609 28.06830024719238 C 87.35007476806641 33.43022537231445 88.5 39.12687683105469 88.5 45 C 88.5 50.87312316894531 87.35007476806641 56.56977462768555 85.08217620849609 61.93170166015625 C 82.89131164550781 67.11147308349609 79.75458526611328 71.76370239257812 75.75914764404297 75.75914764404297 C 71.76370239257812 79.75458526611328 67.11147308349609 82.89131164550781 61.93170166015625 85.08217620849609 C 56.56977462768555 87.35007476806641 50.87312316894531 88.5 45 88.5 Z" stroke="none"/>
                    <path d="M 45 3 C 39.32871246337891 3 33.82865524291992 4.110054016113281 28.65262985229492 6.299339294433594 C 23.65165710449219 8.414573669433594 19.15968322753906 11.44334411621094 15.301513671875 15.301513671875 C 11.44334411621094 19.15968322753906 8.414573669433594 23.65165710449219 6.299339294433594 28.65262985229492 C 4.110054016113281 33.82865524291992 3 39.32871246337891 3 45 C 3 50.67128753662109 4.110054016113281 56.17134475708008 6.299339294433594 61.34737396240234 C 8.414573669433594 66.34834289550781 11.44334411621094 70.84031677246094 15.301513671875 74.698486328125 C 19.15968322753906 78.55665588378906 23.65165710449219 81.58542633056641 28.65262985229492 83.70066070556641 C 33.82865524291992 85.88994598388672 39.32871246337891 87 45 87 C 50.67128753662109 87 56.17134475708008 85.88994598388672 61.34737396240234 83.70066070556641 C 66.34834289550781 81.58542633056641 70.84031677246094 78.55665588378906 74.698486328125 74.698486328125 C 78.55665588378906 70.84031677246094 81.58542633056641 66.34834289550781 83.70066070556641 61.34737396240234 C 85.88994598388672 56.17134475708008 87 50.67128753662109 87 45 C 87 39.32871246337891 85.88994598388672 33.82865524291992 83.70066070556641 28.65262985229492 C 81.58542633056641 23.65165710449219 78.55665588378906 19.15968322753906 74.698486328125 15.301513671875 C 70.84031677246094 11.44334411621094 66.34834289550781 8.414573669433594 61.34737396240234 6.299339294433594 C 56.17134475708008 4.110054016113281 50.67128753662109 3 45 3 M 45 0 C 69.85281372070312 0 90 20.14718627929688 90 45 C 90 69.85281372070312 69.85281372070312 90 45 90 C 20.14718627929688 90 0 69.85281372070312 0 45 C 0 20.14718627929688 20.14718627929688 0 45 0 Z" stroke="none" fill="#6da4c3"/>
                  </g>
                </g>
              </g>
            </g>
          </g>
        </g>
      </g>
    </g>
    <g id="correo-electronico_1_" data-name="correo-electronico (1)" transform="translate(190 6584)">
      <path id="Trazado_997137" data-name="Trazado 997137" d="M16.574,163,10,168.279v24.4a4.084,4.084,0,0,0,4.084,4.084h40.84a4.084,4.084,0,0,0,4.084-4.084v-24.4l-6.574-5.12" transform="translate(-9.004 -146.764)" fill="#72d8ff"/>
      <rect id="Rectángulo_409897" data-name="Rectángulo 409897" width="35.063" height="37.957" transform="translate(7.969 0.996)" fill="#edf2fa"/>
      <path id="Trazado_997138" data-name="Trazado 997138" d="M41.178,233.889H27.285L10,216v24.4a4.084,4.084,0,0,0,4.084,4.084h40.84a4.084,4.084,0,0,0,4.084-4.084V216Z" transform="translate(-9.004 -194.484)" fill="#feda9b"/>
      <path id="Trazado_997139" data-name="Trazado 997139" d="M44.055,353.115,58.5,340a9.919,9.919,0,0,1,13.34,0l14.442,13.119Z" transform="translate(-39.667 -303.808)" fill="#ffb954"/>
      <g id="Grupo_1162736" data-name="Grupo 1162736" transform="translate(13.85 7.431)">
        <path id="Trazado_997140" data-name="Trazado 997140" d="M316.32,80.128a3.238,3.238,0,0,0-4.579-4.579Z" transform="translate(-294.538 -74.6)" fill="#ff5d5d"/>
        <path id="Trazado_997141" data-name="Trazado 997141" d="M150.265,196.337l-3.749,3.749a4.379,4.379,0,0,1-6.193,0h0a4.379,4.379,0,0,1,0-6.193l3.749-3.749Z" transform="translate(-139.04 -178.635)" fill="#ff5d5d"/>
      </g>
      <path id="Trazado_997142" data-name="Trazado 997142" d="M227.641,252.336l4.388,4.388-2.665,2.665-4.39-4.39Z" transform="translate(-202.564 -227.201)" fill="#6a80ff"/>
      <path id="Trazado_997143" data-name="Trazado 997143" d="M195.753,52.225l-6.194-6.195,6.788-15.943L211.691,45.43Z" transform="translate(-170.677 -27.09)" fill="#4dbaf6"/>
      <path id="Trazado_997144" data-name="Trazado 997144" d="M253.214,47.174l4.09-1.744L241.96,30.087l-1.742,4.092Z" transform="translate(-216.29 -27.09)" fill="#fff"/>
      <path id="Trazado_997145" data-name="Trazado 997145" d="M188.292,56.292A1,1,0,1,0,189,56,1,1,0,0,0,188.292,56.292Z" transform="translate(-169.273 -50.422)"/>
      <path id="Trazado_997146" data-name="Trazado 997146" d="M111.871,57.992h4a1,1,0,0,0,0-1.992h-4a1,1,0,0,0,0,1.992Z" transform="translate(-99.831 -50.422)"/>
      <path id="Trazado_997147" data-name="Trazado 997147" d="M111.871,113.992h4.8a1,1,0,1,0,0-1.992h-4.8a1,1,0,0,0,0,1.992Z" transform="translate(-99.831 -100.844)"/>
      <path id="Trazado_997148" data-name="Trazado 997148" d="M50.616,20.731h0l-6.574-5.12-.014-.01V14.543a1,1,0,0,0-1.992,0V28.057c0,.006,0,.012,0,.018l-8.242,8.242-.954-.867a10.891,10.891,0,0,0-5.257-2.636l2.586-2.586a1,1,0,0,0,0-1.409l-3.346-3.346L41.4,19.257a1,1,0,0,0,.314-1.621l-4.761-4.761a4.235,4.235,0,0,0-5.821-5.821L26.374,2.292a1,1,0,0,0-1.621.314L18.041,18.372l-3.613,3.613a5.375,5.375,0,1,0,7.6,7.6l.38-.38,3.412,3.412c-.107,0-.214-.005-.322-.005a10.893,10.893,0,0,0-7.34,2.836l-.954.867L8.964,28.074c0-.006,0-.012,0-.018V1.992H20.12A1,1,0,0,0,20.12,0H7.969a1,1,0,0,0-1,1V15.441l-.026.019L.372,20.739h0A.994.994,0,0,0,0,21.516v24.4A5.086,5.086,0,0,0,5.08,51H45.92A5.086,5.086,0,0,0,51,45.92v-24.4A.993.993,0,0,0,50.616,20.731ZM24.267,8.836l10.91,10.91L25.3,23.955l-5.243-5.243Zm9.075-.409a2.239,2.239,0,0,1,2.123,2.957L32.627,8.545A2.242,2.242,0,0,1,33.342,8.427ZM26.009,4.744l4.338,4.338h0l4.578,4.578h0L39.267,18l-2.115.9L25.108,6.86Zm-7.78,24.425a3.383,3.383,0,0,1-2.392-5.775l3.045-3.045,4.784,4.785-3.045,3.045A3.361,3.361,0,0,1,18.229,29.169Zm6.846-2.627,2.981,2.981L26.8,30.78,23.818,27.8Zm18.953-8.418L48.5,21.609l-4.475,4.475ZM19.5,36.924a8.889,8.889,0,0,1,12,0L44.8,49.008H6.2l3.29-2.988H16.8a1,1,0,0,0,0-1.992H11.681ZM6.973,17.994v8.09L2.486,21.6ZM1.992,45.92v-22L15.73,37.658,3.719,48.569a1.018,1.018,0,0,0-.079.081A3.09,3.09,0,0,1,1.992,45.92ZM47.36,48.65a1,1,0,0,0-.079-.081L35.27,37.658,49.008,23.92v22A3.09,3.09,0,0,1,47.36,48.65Z"/>
      <path id="Trazado_997149" data-name="Trazado 997149" d="M383,6.412a.993.993,0,0,0,.7-.292L387.724,2.1A1,1,0,0,0,386.316.688l-4.024,4.024a1,1,0,0,0,.7,1.7Z" transform="translate(-343.949 -0.357)"/>
      <path id="Trazado_997150" data-name="Trazado 997150" d="M345.408,3.993a1,1,0,0,0,1-1V1a1,1,0,0,0-1.992,0V3A1,1,0,0,0,345.408,3.993Z" transform="translate(-310.105)"/>
      <path id="Trazado_997151" data-name="Trazado 997151" d="M404.993,77.521h-2.068a1,1,0,0,0,0,1.992h2.068a1,1,0,0,0,0-1.992Z" transform="translate(-361.893 -69.799)"/>
      <path id="Trazado_997152" data-name="Trazado 997152" d="M200.656,443.992a.995.995,0,1,0-.705-.292A1,1,0,0,0,200.656,443.992Z" transform="translate(-179.772 -397.973)"/>
    </g>
  </g>
</svg>
