<svg xmlns="http://www.w3.org/2000/svg" xmlns:xlink="http://www.w3.org/1999/xlink" width="108" height="108" viewBox="0 0 108 108">
  <defs>
    <filter id="Trazado_982547" x="0" y="0" width="108" height="108" filterUnits="userSpaceOnUse">
      <feOffset dy="3" input="SourceAlpha"/>
      <feGaussianBlur stdDeviation="3" result="blur"/>
      <feFlood flood-opacity="0.161"/>
      <feComposite operator="in" in2="blur"/>
      <feComposite in="SourceGraphic"/>
    </filter>
  </defs>
  <g id="Grupo_1162959" data-name="Grupo 1162959" transform="translate(-165 -6152)">
    <g id="Grupo_1162554" data-name="Grupo 1162554" transform="translate(-8 -360)">
      <g id="Grupo_1159770" data-name="Grupo 1159770" transform="translate(12 5060)">
        <g id="Grupo_1153117" data-name="Grupo 1153117" transform="translate(-93 939)">
          <g id="Grupo_1149598" data-name="Grupo 1149598" transform="translate(80 315)">
            <g id="Grupo_1148770" data-name="Grupo 1148770" transform="translate(-27 -2583)">
              <g id="Grupo_1146954" data-name="Grupo 1146954" transform="translate(-415 -1202)">
                <g transform="matrix(1, 0, 0, 1, 616, 3983)" filter="url(#Trazado_982547)">
                  <g id="Trazado_982547-2" data-name="Trazado 982547" transform="translate(9 6)" fill="#eff5f8">
                    <path d="M 45 88.5 C 39.12687683105469 88.5 33.43022537231445 87.35007476806641 28.06830024719238 85.08217620849609 C 22.88852500915527 82.89131164550781 18.23629951477051 79.75458526611328 14.2408504486084 75.75914764404297 C 10.24541282653809 71.76370239257812 7.108687400817871 67.11147308349609 4.917825222015381 61.93170166015625 C 2.649924993515015 56.56977462768555 1.5 50.87312316894531 1.5 45 C 1.5 39.12687683105469 2.649924993515015 33.43022537231445 4.917825222015381 28.06830024719238 C 7.108687400817871 22.88852500915527 10.24541282653809 18.23629951477051 14.2408504486084 14.2408504486084 C 18.23629951477051 10.24541282653809 22.88852500915527 7.108687400817871 28.06830024719238 4.917825222015381 C 33.43022537231445 2.649924993515015 39.12687683105469 1.5 45 1.5 C 50.87312316894531 1.5 56.56977462768555 2.649924993515015 61.93170166015625 4.917825222015381 C 67.11147308349609 7.108687400817871 71.76370239257812 10.24541282653809 75.75914764404297 14.2408504486084 C 79.75458526611328 18.23629951477051 82.89131164550781 22.88852500915527 85.08217620849609 28.06830024719238 C 87.35007476806641 33.43022537231445 88.5 39.12687683105469 88.5 45 C 88.5 50.87312316894531 87.35007476806641 56.56977462768555 85.08217620849609 61.93170166015625 C 82.89131164550781 67.11147308349609 79.75458526611328 71.76370239257812 75.75914764404297 75.75914764404297 C 71.76370239257812 79.75458526611328 67.11147308349609 82.89131164550781 61.93170166015625 85.08217620849609 C 56.56977462768555 87.35007476806641 50.87312316894531 88.5 45 88.5 Z" stroke="none"/>
                    <path d="M 45 3 C 39.32871246337891 3 33.82865524291992 4.110054016113281 28.65262985229492 6.299339294433594 C 23.65165710449219 8.414573669433594 19.15968322753906 11.44334411621094 15.301513671875 15.301513671875 C 11.44334411621094 19.15968322753906 8.414573669433594 23.65165710449219 6.299339294433594 28.65262985229492 C 4.110054016113281 33.82865524291992 3 39.32871246337891 3 45 C 3 50.67128753662109 4.110054016113281 56.17134475708008 6.299339294433594 61.34737396240234 C 8.414573669433594 66.34834289550781 11.44334411621094 70.84031677246094 15.301513671875 74.698486328125 C 19.15968322753906 78.55665588378906 23.65165710449219 81.58542633056641 28.65262985229492 83.70066070556641 C 33.82865524291992 85.88994598388672 39.32871246337891 87 45 87 C 50.67128753662109 87 56.17134475708008 85.88994598388672 61.34737396240234 83.70066070556641 C 66.34834289550781 81.58542633056641 70.84031677246094 78.55665588378906 74.698486328125 74.698486328125 C 78.55665588378906 70.84031677246094 81.58542633056641 66.34834289550781 83.70066070556641 61.34737396240234 C 85.88994598388672 56.17134475708008 87 50.67128753662109 87 45 C 87 39.32871246337891 85.88994598388672 33.82865524291992 83.70066070556641 28.65262985229492 C 81.58542633056641 23.65165710449219 78.55665588378906 19.15968322753906 74.698486328125 15.301513671875 C 70.84031677246094 11.44334411621094 66.34834289550781 8.414573669433594 61.34737396240234 6.299339294433594 C 56.17134475708008 4.110054016113281 50.67128753662109 3 45 3 M 45 0 C 69.85281372070312 0 90 20.14718627929688 90 45 C 90 69.85281372070312 69.85281372070312 90 45 90 C 20.14718627929688 90 0 69.85281372070312 0 45 C 0 20.14718627929688 20.14718627929688 0 45 0 Z" stroke="none" fill="#3b596a"/>
                  </g>
                </g>
              </g>
            </g>
          </g>
        </g>
      </g>
    </g>
    <g id="medios-de-comunicacion-social_2_" data-name="medios-de-comunicacion-social (2)" transform="translate(186 6170)">
      <g id="Grupo_1162941" data-name="Grupo 1162941" transform="translate(32.376 34.323)">
        <g id="Grupo_1162940" data-name="Grupo 1162940">
          <g id="Grupo_1162939" data-name="Grupo 1162939">
            <path id="Trazado_997590" data-name="Trazado 997590" d="M250.35,291.813l1.073-2.374a2.239,2.239,0,0,0-.064-1.984,15.566,15.566,0,1,1,6.33,6.33,2.239,2.239,0,0,0-1.984-.064l-2.374,1.073a2.252,2.252,0,0,1-2.98-2.98Z" transform="translate(-249.499 -264.5)" fill="#ffee6e"/>
          </g>
        </g>
      </g>
      <g id="Grupo_1162942" data-name="Grupo 1162942" transform="translate(32.377 34.323)">
        <path id="Trazado_997591" data-name="Trazado 997591" d="M261.179,280.087a15.576,15.576,0,0,1,9.733-14.454,15.576,15.576,0,0,0-19.552,21.822,2.239,2.239,0,0,1,.064,1.984l-1.073,2.374a2.252,2.252,0,0,0,2.98,2.98l2.374-1.073a2.239,2.239,0,0,1,1.984.064,15.54,15.54,0,0,0,13.222.715A15.627,15.627,0,0,1,261.179,280.087Z" transform="translate(-249.5 -264.5)" fill="#ffda45"/>
      </g>
      <g id="Grupo_1162943" data-name="Grupo 1162943" transform="translate(38.865 39.514)">
        <path id="Trazado_997592" data-name="Trazado 997592" d="M315.4,317.314v-6a6.813,6.813,0,0,0-13.625,0v6a2.271,2.271,0,1,0,0,4.542h3.406a3.406,3.406,0,0,0,6.813,0H315.4a2.271,2.271,0,1,0,0-4.542Z" transform="translate(-299.5 -304.5)" fill="#f5fafc"/>
      </g>
      <g id="Grupo_1162944" data-name="Grupo 1162944" transform="translate(38.865 39.514)">
        <path id="Trazado_997593" data-name="Trazado 997593" d="M306.313,319.585a2.271,2.271,0,0,1,2.271-2.271v-6a6.808,6.808,0,0,1,3.406-5.9,6.811,6.811,0,0,0-10.219,5.9v6a2.271,2.271,0,0,0,0,4.542h3.406a3.406,3.406,0,0,0,6.813,0h-3.406A2.271,2.271,0,0,1,306.313,319.585Z" transform="translate(-299.5 -304.5)" fill="#e1f1fa"/>
      </g>
      <g id="Grupo_1162947" data-name="Grupo 1162947" transform="translate(0.973 15.053)">
        <g id="Grupo_1162946" data-name="Grupo 1162946">
          <g id="Grupo_1162945" data-name="Grupo 1162945">
            <path id="Trazado_997594" data-name="Trazado 997594" d="M42.842,147.865l-1.251-2.77a2.612,2.612,0,0,1,.075-2.315,18.16,18.16,0,1,0-7.385,7.385,2.612,2.612,0,0,1,2.315-.075l2.77,1.251a2.628,2.628,0,0,0,3.477-3.477Z" transform="translate(-7.5 -116)" fill="#ff808c"/>
          </g>
        </g>
      </g>
      <g id="Grupo_1162948" data-name="Grupo 1162948" transform="translate(0.973 15.053)">
        <path id="Trazado_997595" data-name="Trazado 997595" d="M17.881,134.184a18.174,18.174,0,0,1,12.964-17.427A18.155,18.155,0,0,0,7.5,134.184a18.176,18.176,0,0,0,23.37,17.392A18.238,18.238,0,0,1,17.881,134.184Z" transform="translate(-7.5 -116)" fill="#ff6e7c"/>
      </g>
      <g id="Grupo_1162949" data-name="Grupo 1162949" transform="translate(8.759 25.039)">
        <path id="Trazado_997596" data-name="Trazado 997596" d="M85.181,193.45c-4.033-1.792-7.3,1.856-7.3,1.856s-3.265-3.649-7.3-1.856-4.033,7.746-.448,11.715a24.883,24.883,0,0,0,6.7,5.191,2.242,2.242,0,0,0,2.092,0,24.885,24.885,0,0,0,6.7-5.191C89.214,201.2,89.214,195.242,85.181,193.45Z" transform="translate(-67.501 -192.955)" fill="#f5fafc"/>
      </g>
      <g id="Grupo_1162950" data-name="Grupo 1162950" transform="translate(8.759 25.039)">
        <path id="Trazado_997597" data-name="Trazado 997597" d="M76.656,201.784a17.615,17.615,0,0,1,1.226-6.478s-3.265-3.649-7.3-1.856-4.033,7.746-.448,11.715a24.884,24.884,0,0,0,6.7,5.191,2.242,2.242,0,0,0,2.049.021A17.577,17.577,0,0,1,76.656,201.784Z" transform="translate(-67.5 -192.954)" fill="#e1f1fa"/>
      </g>
      <g id="Grupo_1162953" data-name="Grupo 1162953" transform="translate(23.942 0.973)">
        <g id="Grupo_1162952" data-name="Grupo 1162952">
          <g id="Grupo_1162951" data-name="Grupo 1162951">
            <path id="Trazado_997598" data-name="Trazado 997598" d="M185.635,43.917l1.43-3.165a2.986,2.986,0,0,0-.086-2.646,20.754,20.754,0,1,1,8.44,8.44,2.985,2.985,0,0,0-2.646-.086l-3.165,1.43a3,3,0,0,1-3.973-3.974Z" transform="translate(-184.501 -7.5)" fill="#69a8ff"/>
          </g>
        </g>
      </g>
      <g id="Grupo_1162954" data-name="Grupo 1162954" transform="translate(23.942 0.973)">
        <path id="Trazado_997599" data-name="Trazado 997599" d="M196.179,28.281A20.771,20.771,0,0,1,211.1,8.333a20.769,20.769,0,0,0-24.123,29.773,2.985,2.985,0,0,1,.086,2.646l-1.43,3.165a3,3,0,0,0,3.974,3.974l3.165-1.43a2.986,2.986,0,0,1,2.646.086A20.736,20.736,0,0,0,211.1,48.181a20.843,20.843,0,0,1-14.923-19.9Z" transform="translate(-184.5 -7.499)" fill="#549cff"/>
      </g>
      <g id="Grupo_1162955" data-name="Grupo 1162955" transform="translate(39.81 8.435)">
        <path id="Trazado_997600" data-name="Trazado 997600" d="M325.416,76.178a4.38,4.38,0,0,0-4.38-4.38h-4.32l2.395-3.455a2.142,2.142,0,0,0-.132-2.649,2.1,2.1,0,0,0-2.965-.153l-7.782,7.023a4.379,4.379,0,0,0-1.445,3.251v8.164a4.38,4.38,0,0,0,4.38,4.38h9.871a4.38,4.38,0,0,0,4.38-4.38v-7.8Z" transform="translate(-306.786 -65.001)" fill="#f5fafc"/>
      </g>
      <g id="Grupo_1162956" data-name="Grupo 1162956" transform="translate(39.81 8.435)">
        <path id="Trazado_997601" data-name="Trazado 997601" d="M316.716,71.8l2.395-3.455a2.141,2.141,0,0,0-.132-2.649,2.1,2.1,0,0,0-2.965-.153l-7.782,7.023a4.379,4.379,0,0,0-1.445,3.251v8.164a4.38,4.38,0,0,0,4.38,4.38h5.551a4.38,4.38,0,0,1-4.379-4.38v-7.8A4.38,4.38,0,0,1,316.716,71.8Z" transform="translate(-306.785 -65)" fill="#e1f1fa"/>
      </g>
      <g id="Grupo_1162957" data-name="Grupo 1162957" transform="translate(32.511 14.274)">
        <path id="Trazado_997602" data-name="Trazado 997602" d="M253.13,127.518H256.7a2.6,2.6,0,0,0,2.6-2.6V112.6a2.6,2.6,0,0,0-2.6-2.6H253.13a2.6,2.6,0,0,0-2.6,2.6v12.328A2.6,2.6,0,0,0,253.13,127.518Z" transform="translate(-250.535 -110)" fill="#f5fafc"/>
      </g>
      <g id="Grupo_1162958" data-name="Grupo 1162958" transform="translate(0)">
        <path id="Trazado_997603" data-name="Trazado 997603" d="M59.272,37.833q.381-.346.75-.712A21.718,21.718,0,0,0,44.7,0h-.021A21.855,21.855,0,0,0,24.124,14.742a19.007,19.007,0,0,0-4.965-.663H19.14a19.141,19.141,0,0,0,0,38.281h.07a19.167,19.167,0,0,0,9.006-2.285,1.648,1.648,0,0,1,1.452-.045l1.761.8a16.332,16.332,0,0,0,1.949,6.914,1.272,1.272,0,0,1,.034,1.121L32.34,61.236A3.226,3.226,0,0,0,36.608,65.5l2.374-1.073a1.272,1.272,0,0,1,1.121.034,16.571,16.571,0,0,0,7.785,1.976h.061A16.545,16.545,0,0,0,59.272,37.833ZM30.7,7.792A19.643,19.643,0,0,1,44.685,1.946H44.7a19.764,19.764,0,0,1,13.944,33.8A19.647,19.647,0,0,1,44.7,41.525h-.072a19.816,19.816,0,0,1-9.309-2.362,3.98,3.98,0,0,0-3.508-.116l-3.165,1.43a2.03,2.03,0,0,1-2.686-2.686l1.43-3.165a.973.973,0,1,0-1.774-.8l-1.43,3.165a3.957,3.957,0,0,0-.343,1.825,24.076,24.076,0,0,1-4.114,2.764,1.271,1.271,0,0,1-1.185,0A23.923,23.923,0,0,1,12.117,36.6a8.5,8.5,0,0,1-2.255-7.1,4.155,4.155,0,0,1,2.376-3.069c3.322-1.476,6.064,1.491,6.177,1.616a.974.974,0,0,0,.723.323h0a.976.976,0,0,0,.722-.321A6.964,6.964,0,0,1,23.4,26.077a21.53,21.53,0,0,0,1.579,4.8.973.973,0,0,0,1.765-.82,19.819,19.819,0,0,1-1.068-13.768c0-.013.01-.025.015-.038a.976.976,0,0,0,.029-.115A19.761,19.761,0,0,1,30.7,7.792Zm23.09,38.535v6a.973.973,0,0,0,.973.973,1.3,1.3,0,1,1,0,2.6H51.355a.973.973,0,0,0-.973.973,2.432,2.432,0,0,1-4.662.973h1.742a.973.973,0,0,0,0-1.946H41.136a1.3,1.3,0,1,1,0-2.6.973.973,0,0,0,.973-.973v-6a5.809,5.809,0,0,1,.789-2.933c.574.048,1.15.076,1.727.078H44.7a21.607,21.607,0,0,0,7.362-1.284A5.853,5.853,0,0,1,53.788,46.327Zm-26.5,2.036A17.214,17.214,0,0,1,19.2,50.414h-.063a17.194,17.194,0,1,1,0-34.388h.017a17.066,17.066,0,0,1,4.422.588,21.724,21.724,0,0,0-.61,5.2,22.105,22.105,0,0,0,.132,2.338,8.5,8.5,0,0,0-3.959,1.9,7.241,7.241,0,0,0-7.695-1.413,6.077,6.077,0,0,0-3.49,4.444A10.355,10.355,0,0,0,10.672,37.9a25.922,25.922,0,0,0,6.969,5.4,3.217,3.217,0,0,0,3,0,25.954,25.954,0,0,0,3.847-2.5,3.921,3.921,0,0,0,.515.639,4,4,0,0,0,4.449.812l3.165-1.43a2.022,2.022,0,0,1,1.783.055l.111.058c-.074.147-.149.294-.227.438a3.605,3.605,0,0,0-.105,3.178l1.251,2.77a1.655,1.655,0,0,1-2.189,2.189l-2.77-1.251a3.606,3.606,0,0,0-3.178.105ZM58.235,60.227a14.492,14.492,0,0,1-10.287,4.266H47.9a14.616,14.616,0,0,1-6.867-1.742,3.23,3.23,0,0,0-2.847-.095l-2.374,1.073a1.279,1.279,0,0,1-1.692-1.692l1.072-2.374a3.229,3.229,0,0,0-.094-2.847,14.386,14.386,0,0,1-1.648-5.25A3.6,3.6,0,0,0,37.2,46.518l-1.251-2.77A1.647,1.647,0,0,1,36,42.3c.094-.173.184-.349.273-.526a21.793,21.793,0,0,0,4.583,1.355,7.757,7.757,0,0,0-.688,3.2V51.5a3.244,3.244,0,0,0,.973,6.339h2.542a4.38,4.38,0,0,0,8.541,0h2.542a3.244,3.244,0,0,0,.973-6.339V46.327a7.8,7.8,0,0,0-1.765-4.933,21.666,21.666,0,0,0,3.791-2.307,14.566,14.566,0,0,1,.474,21.14Z" transform="translate(0)"/>
        <path id="Trazado_997604" data-name="Trazado 997604" d="M246.6,82.824h3.569a3.555,3.555,0,0,0,2.442-.97,5.314,5.314,0,0,0,3.073.97h9.871a5.359,5.359,0,0,0,5.353-5.353v-7.8a5.359,5.359,0,0,0-5.353-5.353H263.1l1.336-1.928a3.132,3.132,0,0,0-.211-3.856,3.079,3.079,0,0,0-4.338-.222l-6.992,6.309a3.561,3.561,0,0,0-2.719-1.261H246.6a3.573,3.573,0,0,0-3.569,3.569V79.255A3.573,3.573,0,0,0,246.6,82.824Zm14.584-23.068a1.129,1.129,0,0,1,1.592.084,1.171,1.171,0,0,1,.054,1.441l-2.395,3.455a.973.973,0,0,0,.8,1.528h4.32a3.41,3.41,0,0,1,3.406,3.406v7.8a3.41,3.41,0,0,1-3.406,3.406h-9.871a3.38,3.38,0,0,1-2.068-.7,3.561,3.561,0,0,0,.121-.922V66.928a3.588,3.588,0,0,0-.027-.428Zm-16.206,7.172a1.624,1.624,0,0,1,1.622-1.622h3.569a1.624,1.624,0,0,1,1.622,1.622V79.255a1.624,1.624,0,0,1-1.622,1.622H246.6a1.624,1.624,0,0,1-1.622-1.622Z" transform="translate(-211.497 -50.058)"/>
      </g>
    </g>
  </g>
</svg>
