<svg xmlns="http://www.w3.org/2000/svg" xmlns:xlink="http://www.w3.org/1999/xlink" width="108" height="108" viewBox="0 0 108 108">
  <defs>
    <filter id="Trazado_982547" x="0" y="0" width="108" height="108" filterUnits="userSpaceOnUse">
      <feOffset dy="3" input="SourceAlpha"/>
      <feGaussianBlur stdDeviation="3" result="blur"/>
      <feFlood flood-opacity="0.161"/>
      <feComposite operator="in" in2="blur"/>
      <feComposite in="SourceGraphic"/>
    </filter>
  </defs>
  <g id="Grupo_1162777" data-name="Grupo 1162777" transform="translate(-172 -8086)">
    <g id="Grupo_1161177" data-name="Grupo 1161177" transform="translate(-1 1574)">
      <g id="Grupo_1159770" data-name="Grupo 1159770" transform="translate(12 5060)">
        <g id="Grupo_1153117" data-name="Grupo 1153117" transform="translate(-93 939)">
          <g id="Grupo_1149598" data-name="Grupo 1149598" transform="translate(80 315)">
            <g id="Grupo_1148770" data-name="Grupo 1148770" transform="translate(-27 -2583)">
              <g id="Grupo_1146954" data-name="Grupo 1146954" transform="translate(-415 -1202)">
                <g transform="matrix(1, 0, 0, 1, 616, 3983)" filter="url(#Trazado_982547)">
                  <g id="Trazado_982547-2" data-name="Trazado 982547" transform="translate(9 6)" fill="#fff9ee">
                    <path d="M 45 88.5 C 39.12687683105469 88.5 33.43022537231445 87.35007476806641 28.06830024719238 85.08217620849609 C 22.88852500915527 82.89131164550781 18.23629951477051 79.75458526611328 14.2408504486084 75.75914764404297 C 10.24541282653809 71.76370239257812 7.108687400817871 67.11147308349609 4.917825222015381 61.93170166015625 C 2.649924993515015 56.56977462768555 1.5 50.87312316894531 1.5 45 C 1.5 39.12687683105469 2.649924993515015 33.43022537231445 4.917825222015381 28.06830024719238 C 7.108687400817871 22.88852500915527 10.24541282653809 18.23629951477051 14.2408504486084 14.2408504486084 C 18.23629951477051 10.24541282653809 22.88852500915527 7.108687400817871 28.06830024719238 4.917825222015381 C 33.43022537231445 2.649924993515015 39.12687683105469 1.5 45 1.5 C 50.87312316894531 1.5 56.56977462768555 2.649924993515015 61.93170166015625 4.917825222015381 C 67.11147308349609 7.108687400817871 71.76370239257812 10.24541282653809 75.75914764404297 14.2408504486084 C 79.75458526611328 18.23629951477051 82.89131164550781 22.88852500915527 85.08217620849609 28.06830024719238 C 87.35007476806641 33.43022537231445 88.5 39.12687683105469 88.5 45 C 88.5 50.87312316894531 87.35007476806641 56.56977462768555 85.08217620849609 61.93170166015625 C 82.89131164550781 67.11147308349609 79.75458526611328 71.76370239257812 75.75914764404297 75.75914764404297 C 71.76370239257812 79.75458526611328 67.11147308349609 82.89131164550781 61.93170166015625 85.08217620849609 C 56.56977462768555 87.35007476806641 50.87312316894531 88.5 45 88.5 Z" stroke="none"/>
                    <path d="M 45 3 C 39.32871246337891 3 33.82865524291992 4.110054016113281 28.65262985229492 6.299339294433594 C 23.65165710449219 8.414573669433594 19.15968322753906 11.44334411621094 15.301513671875 15.301513671875 C 11.44334411621094 19.15968322753906 8.414573669433594 23.65165710449219 6.299339294433594 28.65262985229492 C 4.110054016113281 33.82865524291992 3 39.32871246337891 3 45 C 3 50.67128753662109 4.110054016113281 56.17134475708008 6.299339294433594 61.34737396240234 C 8.414573669433594 66.34834289550781 11.44334411621094 70.84031677246094 15.301513671875 74.698486328125 C 19.15968322753906 78.55665588378906 23.65165710449219 81.58542633056641 28.65262985229492 83.70066070556641 C 33.82865524291992 85.88994598388672 39.32871246337891 87 45 87 C 50.67128753662109 87 56.17134475708008 85.88994598388672 61.34737396240234 83.70066070556641 C 66.34834289550781 81.58542633056641 70.84031677246094 78.55665588378906 74.698486328125 74.698486328125 C 78.55665588378906 70.84031677246094 81.58542633056641 66.34834289550781 83.70066070556641 61.34737396240234 C 85.88994598388672 56.17134475708008 87 50.67128753662109 87 45 C 87 39.32871246337891 85.88994598388672 33.82865524291992 83.70066070556641 28.65262985229492 C 81.58542633056641 23.65165710449219 78.55665588378906 19.15968322753906 74.698486328125 15.301513671875 C 70.84031677246094 11.44334411621094 66.34834289550781 8.414573669433594 61.34737396240234 6.299339294433594 C 56.17134475708008 4.110054016113281 50.67128753662109 3 45 3 M 45 0 C 69.85281372070312 0 90 20.14718627929688 90 45 C 90 69.85281372070312 69.85281372070312 90 45 90 C 20.14718627929688 90 0 69.85281372070312 0 45 C 0 20.14718627929688 20.14718627929688 0 45 0 Z" stroke="none" fill="#ffc965"/>
                  </g>
                </g>
              </g>
            </g>
          </g>
        </g>
      </g>
    </g>
    <g id="estrategia-de-contenido" transform="translate(193.2 8104.634)">
      <rect id="Rectángulo_409902" data-name="Rectángulo 409902" width="12.418" height="8.365" transform="translate(26.953 51.385)" fill="#6288cc"/>
      <rect id="Rectángulo_409903" data-name="Rectángulo 409903" width="53.254" height="34.651" rx="5.59" transform="translate(6.504 18.288)" fill="#a8b7ee"/>
      <path id="Trazado_997223" data-name="Trazado 997223" d="M60.559,35.505V60.5H7.3V35.505A2.625,2.625,0,0,1,9.925,32.88H57.934A2.625,2.625,0,0,1,60.559,35.505Z" transform="translate(-0.796 -14.592)" fill="#3b579f"/>
      <circle id="Elipse_11808" data-name="Elipse 11808" cx="8.144" cy="8.144" r="8.144" transform="translate(34.397 6.279)" fill="#6288cc"/>
      <path id="Trazado_997224" data-name="Trazado 997224" d="M82.328,19.054H79.656a.578.578,0,0,1-.545-.756l.5-1.526a1.165,1.165,0,0,0-1.108-1.531h0a1.16,1.16,0,0,0-1.1.8l-.709,2.2a5.3,5.3,0,0,0-.272,1.667v3.175a1,1,0,0,0,1,1h4.913A1.273,1.273,0,0,0,83.6,22.806v-2.48A1.273,1.273,0,0,0,82.328,19.054Z" transform="translate(-37.453 -5.237)" fill="#dbdfee"/>
      <circle id="Elipse_11809" data-name="Elipse 11809" cx="8.144" cy="8.144" r="8.144" transform="translate(15.63 6.279)" fill="#fa77c8"/>
      <rect id="Rectángulo_409904" data-name="Rectángulo 409904" width="7.792" height="7.792" rx="2.97" transform="translate(19.876 10.525)" fill="#dbdfee"/>
      <path id="Trazado_997225" data-name="Trazado 997225" d="M43.54,26.231V26.9a1.409,1.409,0,0,1-1.409,1.409H37.139A1.409,1.409,0,0,1,35.73,26.9V26.24l2.475-2.09,1.879,1.968,1.7-1.362Z" transform="translate(-15.873 -9.962)" fill="#6faf45"/>
      <path id="Trazado_997226" data-name="Trazado 997226" d="M63.2,63.52v9.107h-3.32l-2.264,1.832a.371.371,0,0,1-.6-.315V72.627H50.84V63.52Z" transform="translate(-23.887 -30.842)" fill="#ffdc41"/>
      <circle id="Elipse_11810" data-name="Elipse 11810" cx="8.144" cy="8.144" r="8.144" transform="translate(43.495 23.107)" fill="#e10459"/>
      <path id="Trazado_997227" data-name="Trazado 997227" d="M109.472,56.1v3.715a.376.376,0,0,1-.554.329L106.8,58.963v-2.02l2.118-1.174a.376.376,0,0,1,.554.329Z" transform="translate(-53.565 -26.707)" fill="#bdcbf5"/>
      <rect id="Rectángulo_409905" data-name="Rectángulo 409905" width="5.866" height="5.866" rx="1.52" transform="translate(47.369 28.315)" fill="#dbdfee"/>
      <circle id="Elipse_11811" data-name="Elipse 11811" cx="8.144" cy="8.144" r="8.144" transform="translate(6.486 23.107)" fill="#49b2f7"/>
      <path id="Trazado_997228" data-name="Trazado 997228" d="M22.8,52.58H16.729a1.249,1.249,0,0,0-1.249,1.249V57.2a1.254,1.254,0,0,0,1.249,1.254h1.193l2.156,1.437a.653.653,0,0,0,1.014-.535V58.46h1.714a1.254,1.254,0,0,0,1.249-1.254V53.829A1.249,1.249,0,0,0,22.8,52.58Z" transform="translate(-5.134 -25.04)" fill="#dbdfee"/>
      <path id="Trazado_997229" data-name="Trazado 997229" d="M95.1,91.589a.7.7,0,1,0,0-1.409H89.2a.7.7,0,0,0,0,1.409Z" transform="translate(-43.859 -44.981)"/>
      <path id="Trazado_997230" data-name="Trazado 997230" d="M62.914,99.279a.7.7,0,1,0,0-1.409h-4.5a.7.7,0,0,0,0,1.409Z" transform="translate(-27.53 -49.059)"/>
      <path id="Trazado_997231" data-name="Trazado 997231" d="M57.114,70.169h.775a.7.7,0,1,0,0-1.409h-.775a.7.7,0,1,0,0,1.409Z" transform="translate(-26.841 -33.621)"/>
      <path id="Trazado_997232" data-name="Trazado 997232" d="M62.45,69.464a.7.7,0,0,0,.7.7h2.884a.7.7,0,0,0,0-1.409h-2.86a.7.7,0,0,0-.728.7Z" transform="translate(-30.044 -33.62)"/>
      <path id="Trazado_997233" data-name="Trazado 997233" d="M68.419,75.14h-.775a.7.7,0,1,0,0,1.409h.775a.7.7,0,0,0,0-1.409Z" transform="translate(-32.425 -37.004)"/>
      <path id="Trazado_997234" data-name="Trazado 997234" d="M60,75.14H57.114a.7.7,0,0,0,0,1.409H60a.7.7,0,0,0,0-1.409Z" transform="translate(-26.841 -37.004)"/>
      <path id="Trazado_997235" data-name="Trazado 997235" d="M60.487,31.25V20.913a3.335,3.335,0,0,0-3.33-3.33h-6.35a8.952,8.952,0,0,0,.582-3.161,8.853,8.853,0,1,0-17.7,0,8.952,8.952,0,0,0,.582,3.161H32.04a8.952,8.952,0,0,0,.582-3.161,8.853,8.853,0,1,0-17.7,0,8.952,8.952,0,0,0,.582,3.161H9.13a3.335,3.335,0,0,0-3.33,3.33v29.4a3.335,3.335,0,0,0,3.33,3.33h3.457a.7.7,0,0,0,0-1.409H9.13a1.921,1.921,0,0,1-1.921-1.921V46.608H40.724a.7.7,0,1,0,0-1.409H7.209V36.055a8.844,8.844,0,0,0,16.269-4.8,4.974,4.974,0,0,0-.038-.751h8.994v1.475H26.953a.7.7,0,0,0-.7.7v9.107a.7.7,0,0,0,.7.7h5.476V43.3a1.094,1.094,0,0,0,.62,1,1.052,1.052,0,0,0,1.122-.122L36.243,42.5h3.072a.7.7,0,0,0,.7-.7V32.678a.7.7,0,0,0-.7-.7H33.862V30.5h8.966c0,.244-.038.5-.038.751a8.844,8.844,0,0,0,16.269,4.8V45.2H55.875a.7.7,0,0,0,0,1.409h3.184v3.706a1.921,1.921,0,0,1-1.921,1.921H17.166a.7.7,0,0,0,0,1.409h9.083v5.4h-3.8a.7.7,0,1,0,0,1.409H43.875a.7.7,0,1,0,0-1.409h-3.8v-5.4H57.138a3.335,3.335,0,0,0,3.33-3.33V31.654C60.473,31.518,60.487,31.387,60.487,31.25ZM38.61,41.08H35.994a.723.723,0,0,0-.441.155l-1.714,1.409v-.859a.7.7,0,0,0-.7-.7H27.658V33.373H38.61Zm.056,17.964H27.658v-5.4H38.667ZM42.527,6.979a7.449,7.449,0,1,1-7.43,7.444,7.449,7.449,0,0,1,7.43-7.444ZM31.349,18.992h3.612A8.872,8.872,0,0,0,38.3,22.177l-5.166,6.5L27.968,22.21A8.787,8.787,0,0,0,31.349,18.992ZM23.774,6.979a7.449,7.449,0,1,1-7.444,7.446,7.449,7.449,0,0,1,7.444-7.446ZM14.63,38.69a7.444,7.444,0,0,1-7.421-7.045v-.8A7.435,7.435,0,1,1,14.63,38.69Zm0-16.292a8.844,8.844,0,0,0-7.421,4.044V20.913A1.921,1.921,0,0,1,9.13,18.992h7.045a8.858,8.858,0,0,0,10.469,3.795l5.03,6.3H23.22A8.858,8.858,0,0,0,14.63,22.4ZM34.595,29.09l5.021-6.317a8.848,8.848,0,0,0,10.5-3.757h7.045a1.921,1.921,0,0,1,1.921,1.921v5.5A8.834,8.834,0,0,0,43.114,29.09Zm17.044,9.6a7.444,7.444,0,1,1,7.421-7.848v.813a7.444,7.444,0,0,1-7.421,7.035Z"/>
      <path id="Trazado_997236" data-name="Trazado 997236" d="M76.6,24.145h4.931a1.982,1.982,0,0,0,1.977-1.977v-2.48a1.982,1.982,0,0,0-1.977-1.977H79.039l.47-1.357a1.879,1.879,0,0,0-3.555-1.174l-.728,2.2a6,6,0,0,0-.305,1.879v3.175A1.7,1.7,0,0,0,76.6,24.145ZM76.31,19.27a4.6,4.6,0,0,1,.235-1.447l.728-2.2a.47.47,0,0,1,.878.277l-.507,1.526a1.282,1.282,0,0,0,1.216,1.681h2.672a.568.568,0,0,1,.568.568v2.48a.568.568,0,0,1-.568.582H76.6a.291.291,0,0,1-.291-.291Z" transform="translate(-36.657 -4.598)" fill="#231f20"/>
      <path id="Trazado_997237" data-name="Trazado 997237" d="M36.365,24.051h5.011a2.1,2.1,0,0,0,2.095-2.085V16.949a2.1,2.1,0,0,0-2.095-2.1H36.365a2.1,2.1,0,0,0-2.095,2.1v5.016A2.1,2.1,0,0,0,36.365,24.051Zm-.686-7.1a.69.69,0,0,1,.686-.69h5.011a.69.69,0,0,1,.686.69v2.841l-.606-.507a.7.7,0,0,0-.892,0l-1.193.939-1.437-1.5a.7.7,0,0,0-.939-.047L35.7,19.767Zm0,4.7,1.7-1.442,1.409,1.489a.709.709,0,0,0,.939.061l1.245-1,1.066.892v.319a.686.686,0,0,1-.686.686H36.365a.686.686,0,0,1-.686-.686Z" transform="translate(-15.099 -5.03)" fill="#231f20"/>
      <path id="Trazado_997238" data-name="Trazado 997238" d="M102.237,53.623a1.057,1.057,0,0,0-1.066,0l-1.076.6h0a1.409,1.409,0,0,0-1.409-1.409H94.239a1.409,1.409,0,0,0-1.409,1.409v4.41a1.409,1.409,0,0,0,1.409,1.409h4.438a1.409,1.409,0,0,0,1.409-1.409h0l1.071.6a1.08,1.08,0,0,0,1.6-.939V54.552a1.071,1.071,0,0,0-.521-.93Zm-3.56,5.016H94.23V54.191h4.438Zm2.682-.939L100.1,57V55.816l1.268-.7Z" transform="translate(-46.156 -25.162)" fill="#231f20"/>
      <path id="Trazado_997239" data-name="Trazado 997239" d="M15.944,58.36h.977l1.982,1.32a1.353,1.353,0,0,0,2.109-1.122v-.178h1a1.958,1.958,0,0,0,1.954-1.958V53.034a1.954,1.954,0,0,0-1.954-1.954H15.944A1.954,1.954,0,0,0,14,53.034V56.4a1.958,1.958,0,0,0,1.944,1.958Zm-.535-5.326a.545.545,0,0,1,.545-.545h6.059a.545.545,0,0,1,.545.545V56.4a.549.549,0,0,1-.545.549H20.3a.7.7,0,0,0-.7.709v.789l-2.076-1.381a.69.69,0,0,0-.39-.117H15.944a.55.55,0,0,1-.535-.549Z" transform="translate(-4.349 -24.244)" fill="#231f20"/>
    </g>
  </g>
</svg>
