<svg xmlns="http://www.w3.org/2000/svg" xmlns:xlink="http://www.w3.org/1999/xlink" width="113" height="113" viewBox="0 0 113 113">
  <defs>
    <filter id="Trazado_982547" x="0" y="0" width="113" height="113" filterUnits="userSpaceOnUse">
      <feOffset dy="3" input="SourceAlpha"/>
      <feGaussianBlur stdDeviation="3" result="blur"/>
      <feFlood flood-opacity="0.161"/>
      <feComposite operator="in" in2="blur"/>
      <feComposite in="SourceGraphic"/>
    </filter>
  </defs>
  <g id="Grupo_1162797" data-name="Grupo 1162797" transform="translate(-325 -9072)">
    <g id="Grupo_1161178" data-name="Grupo 1161178" transform="translate(0 3360)">
      <g id="Grupo_1159745" data-name="Grupo 1159745" transform="translate(0 1505)">
        <g id="Grupo_1158168" data-name="Grupo 1158168" transform="translate(-1 -1314)">
          <g id="Grupo_1152576" data-name="Grupo 1152576" transform="translate(-0.454 1205.621)">
            <g id="Grupo_1148633" data-name="Grupo 1148633" transform="translate(71.408 600.047)">
              <g id="Grupo_1148525" data-name="Grupo 1148525" transform="translate(264.046 3721.333)">
                <g transform="matrix(1, 0, 0, 1, -9, -6)" filter="url(#Trazado_982547)">
                  <g id="Trazado_982547-2" data-name="Trazado 982547" transform="translate(9 6)" fill="#fef2ec">
                    <path d="M 47.5 93.5 C 41.28937149047852 93.5 35.26533508300781 92.28397369384766 29.59518623352051 89.88570404052734 C 24.11771965026855 87.56893157958984 19.19813346862793 84.25196075439453 14.97309303283691 80.02691650390625 C 10.74804019927979 75.80186462402344 7.431066513061523 70.88229370117188 5.114293098449707 65.40481567382812 C 2.716026782989502 59.73468017578125 1.5 53.71062850952148 1.5 47.5 C 1.5 41.28937149047852 2.716026782989502 35.26533508300781 5.114293098449707 29.59518623352051 C 7.431066513061523 24.11771965026855 10.74804019927979 19.19813346862793 14.97309303283691 14.97309303283691 C 19.19813346862793 10.74804019927979 24.11771965026855 7.431066513061523 29.59518623352051 5.114293098449707 C 35.26533508300781 2.716026782989502 41.28937149047852 1.5 47.5 1.5 C 53.71062850952148 1.5 59.73468017578125 2.716026782989502 65.40481567382812 5.114293098449707 C 70.88229370117188 7.431066513061523 75.80186462402344 10.74804019927979 80.02691650390625 14.97309303283691 C 84.25196075439453 19.19813346862793 87.56893157958984 24.11771965026855 89.88570404052734 29.59518623352051 C 92.28397369384766 35.26533508300781 93.5 41.28937149047852 93.5 47.5 C 93.5 53.71062850952148 92.28397369384766 59.73468017578125 89.88570404052734 65.40481567382812 C 87.56893157958984 70.88229370117188 84.25196075439453 75.80186462402344 80.02691650390625 80.02691650390625 C 75.80186462402344 84.25196075439453 70.88229370117188 87.56893157958984 65.40481567382812 89.88570404052734 C 59.73468017578125 92.28397369384766 53.71062850952148 93.5 47.5 93.5 Z" stroke="none"/>
                    <path d="M 47.5 3 C 41.49121475219727 3 35.66376876831055 4.176155090332031 30.17950439453125 6.495796203613281 C 24.88084411621094 8.736953735351562 20.12152099609375 11.94598388671875 16.03375244140625 16.03375244140625 C 11.94598388671875 20.12152099609375 8.736953735351562 24.88084411621094 6.495796203613281 30.17950439453125 C 4.176155090332031 35.66376876831055 3 41.49121475219727 3 47.5 C 3 53.50878524780273 4.176155090332031 59.33623123168945 6.495796203613281 64.82049560546875 C 8.736953735351562 70.11915588378906 11.94598388671875 74.87847900390625 16.03375244140625 78.96624755859375 C 20.12152099609375 83.05401611328125 24.88084411621094 86.26304626464844 30.17950439453125 88.50419616699219 C 35.66376876831055 90.82384490966797 41.49121475219727 92 47.5 92 C 53.50878524780273 92 59.33623123168945 90.82384490966797 64.82049560546875 88.50419616699219 C 70.11915588378906 86.26304626464844 74.87847900390625 83.05401611328125 78.96624755859375 78.96624755859375 C 83.05401611328125 74.87847900390625 86.26304626464844 70.11915588378906 88.50419616699219 64.82049560546875 C 90.82384490966797 59.33623123168945 92 53.50878524780273 92 47.5 C 92 41.49121475219727 90.82384490966797 35.66376876831055 88.50419616699219 30.17950439453125 C 86.26304626464844 24.88084411621094 83.05401611328125 20.12152099609375 78.96624755859375 16.03375244140625 C 74.87847900390625 11.94598388671875 70.11915588378906 8.736953735351562 64.82049560546875 6.495796203613281 C 59.33623123168945 4.176155090332031 53.50878524780273 3 47.5 3 M 47.5 0 C 73.7335205078125 0 95 21.2664794921875 95 47.5 C 95 73.7335205078125 73.7335205078125 95 47.5 95 C 21.2664794921875 95 0 73.7335205078125 0 47.5 C 0 21.2664794921875 21.2664794921875 0 47.5 0 Z" stroke="none" fill="#fe8953"/>
                  </g>
                </g>
              </g>
            </g>
          </g>
        </g>
      </g>
    </g>
    <g id="carretes" transform="translate(354 9097)">
      <g id="Grupo_1162793" data-name="Grupo 1162793" transform="translate(1.074 1.074)">
        <path id="Trazado_997305" data-name="Trazado 997305" d="M55.958,62.83H16.872A6.872,6.872,0,0,1,10,55.958V16.872A6.872,6.872,0,0,1,16.872,10H55.958a6.872,6.872,0,0,1,6.872,6.872V55.958A6.872,6.872,0,0,1,55.958,62.83Z" transform="translate(-10 -10)" fill="#ff7d97"/>
      </g>
      <g id="Grupo_1162794" data-name="Grupo 1162794" transform="translate(1.074 1.074)">
        <path id="Trazado_997306" data-name="Trazado 997306" d="M55.958,10H16.872A6.872,6.872,0,0,0,10,16.872v6.872H62.83V16.872A6.872,6.872,0,0,0,55.958,10Z" transform="translate(-10 -10)" fill="#ff7d97"/>
      </g>
      <g id="Grupo_1162795" data-name="Grupo 1162795" transform="translate(20.462 24.283)">
        <path id="Trazado_997307" data-name="Trazado 997307" d="M205.5,233.616l-9.974-6.906a3.167,3.167,0,0,0-4.97,2.6v13.811a3.167,3.167,0,0,0,4.97,2.6l9.974-6.906A3.167,3.167,0,0,0,205.5,233.616Z" transform="translate(-190.555 -226.142)" fill="#fff"/>
      </g>
      <g id="Grupo_1162796" data-name="Grupo 1162796">
        <path id="Trazado_997308" data-name="Trazado 997308" d="M47.032,0H7.946A7.955,7.955,0,0,0,0,7.946V47.032a7.955,7.955,0,0,0,7.946,7.946H22.657a1.074,1.074,0,1,0,0-2.148H7.946a5.805,5.805,0,0,1-5.8-5.8V15.892H52.83v31.14a5.805,5.805,0,0,1-5.8,5.8H32.321a1.074,1.074,0,0,0,0,2.148H47.032a7.955,7.955,0,0,0,7.946-7.946V7.946A7.955,7.955,0,0,0,47.032,0ZM31.984,13.744l-6.7-11.6H37.766l6.7,11.6Zm-14.973,0-6.7-11.6H22.808l6.7,11.6ZM2.148,7.946a5.8,5.8,0,0,1,5.689-5.8L14.53,13.744H2.148Zm44.793,5.8-6.7-11.6h6.786a5.805,5.805,0,0,1,5.8,5.8v5.8Z"/>
        <path id="Trazado_997309" data-name="Trazado 997309" d="M199.011,227.321a4.242,4.242,0,0,0-1.827-3.487l-9.974-6.906a4.241,4.241,0,0,0-6.655,3.487v13.811a4.239,4.239,0,0,0,6.655,3.487l9.974-6.906A4.241,4.241,0,0,0,199.011,227.321Zm-3.049,1.721-9.974,6.906a2.094,2.094,0,0,1-3.285-1.721V220.415a2.061,2.061,0,0,1,1.122-1.855,2.1,2.1,0,0,1,.976-.244,2.078,2.078,0,0,1,1.187.378l9.974,6.906a2.094,2.094,0,0,1,0,3.443Z" transform="translate(-161.167 -192.96)"/>
        <ellipse id="Elipse_11832" data-name="Elipse 11832" cx="0.879" cy="1.319" rx="0.879" ry="1.319" transform="translate(26.384 52.768)"/>
      </g>
    </g>
  </g>
</svg>
