<svg xmlns="http://www.w3.org/2000/svg" xmlns:xlink="http://www.w3.org/1999/xlink" width="113" height="113" viewBox="0 0 113 113">
  <defs>
    <filter id="Trazado_982547" x="0" y="0" width="113" height="113" filterUnits="userSpaceOnUse">
      <feOffset dy="3" input="SourceAlpha"/>
      <feGaussianBlur stdDeviation="3" result="blur"/>
      <feFlood flood-opacity="0.161"/>
      <feComposite operator="in" in2="blur"/>
      <feComposite in="SourceGraphic"/>
    </filter>
  </defs>
  <g id="Grupo_1162833" data-name="Grupo 1162833" transform="translate(-1163 -9072)">
    <g id="Grupo_1161180" data-name="Grupo 1161180" transform="translate(0 3360)">
      <g id="Grupo_1159769" data-name="Grupo 1159769" transform="translate(0 1505)">
        <g id="Grupo_1158170" data-name="Grupo 1158170" transform="translate(-1 -1314)">
          <g id="Grupo_1152578" data-name="Grupo 1152578" transform="translate(0.046 1205.621)">
            <g id="Grupo_1148635" data-name="Grupo 1148635" transform="translate(908.908 600.047)">
              <g id="Grupo_1148525" data-name="Grupo 1148525" transform="translate(264.046 3721.333)">
                <g transform="matrix(1, 0, 0, 1, -9, -6)" filter="url(#Trazado_982547)">
                  <g id="Trazado_982547-2" data-name="Trazado 982547" transform="translate(9 6)" fill="#fef2ec">
                    <path d="M 47.5 93.5 C 41.28937149047852 93.5 35.26533508300781 92.28397369384766 29.59518623352051 89.88570404052734 C 24.11771965026855 87.56893157958984 19.19813346862793 84.25196075439453 14.97309303283691 80.02691650390625 C 10.74804019927979 75.80186462402344 7.431066513061523 70.88229370117188 5.114293098449707 65.40481567382812 C 2.716026782989502 59.73468017578125 1.5 53.71062850952148 1.5 47.5 C 1.5 41.28937149047852 2.716026782989502 35.26533508300781 5.114293098449707 29.59518623352051 C 7.431066513061523 24.11771965026855 10.74804019927979 19.19813346862793 14.97309303283691 14.97309303283691 C 19.19813346862793 10.74804019927979 24.11771965026855 7.431066513061523 29.59518623352051 5.114293098449707 C 35.26533508300781 2.716026782989502 41.28937149047852 1.5 47.5 1.5 C 53.71062850952148 1.5 59.73468017578125 2.716026782989502 65.40481567382812 5.114293098449707 C 70.88229370117188 7.431066513061523 75.80186462402344 10.74804019927979 80.02691650390625 14.97309303283691 C 84.25196075439453 19.19813346862793 87.56893157958984 24.11771965026855 89.88570404052734 29.59518623352051 C 92.28397369384766 35.26533508300781 93.5 41.28937149047852 93.5 47.5 C 93.5 53.71062850952148 92.28397369384766 59.73468017578125 89.88570404052734 65.40481567382812 C 87.56893157958984 70.88229370117188 84.25196075439453 75.80186462402344 80.02691650390625 80.02691650390625 C 75.80186462402344 84.25196075439453 70.88229370117188 87.56893157958984 65.40481567382812 89.88570404052734 C 59.73468017578125 92.28397369384766 53.71062850952148 93.5 47.5 93.5 Z" stroke="none"/>
                    <path d="M 47.5 3 C 41.49121475219727 3 35.66376876831055 4.176155090332031 30.17950439453125 6.495796203613281 C 24.88084411621094 8.736953735351562 20.12152099609375 11.94598388671875 16.03375244140625 16.03375244140625 C 11.94598388671875 20.12152099609375 8.736953735351562 24.88084411621094 6.495796203613281 30.17950439453125 C 4.176155090332031 35.66376876831055 3 41.49121475219727 3 47.5 C 3 53.50878524780273 4.176155090332031 59.33623123168945 6.495796203613281 64.82049560546875 C 8.736953735351562 70.11915588378906 11.94598388671875 74.87847900390625 16.03375244140625 78.96624755859375 C 20.12152099609375 83.05401611328125 24.88084411621094 86.26304626464844 30.17950439453125 88.50419616699219 C 35.66376876831055 90.82384490966797 41.49121475219727 92 47.5 92 C 53.50878524780273 92 59.33623123168945 90.82384490966797 64.82049560546875 88.50419616699219 C 70.11915588378906 86.26304626464844 74.87847900390625 83.05401611328125 78.96624755859375 78.96624755859375 C 83.05401611328125 74.87847900390625 86.26304626464844 70.11915588378906 88.50419616699219 64.82049560546875 C 90.82384490966797 59.33623123168945 92 53.50878524780273 92 47.5 C 92 41.49121475219727 90.82384490966797 35.66376876831055 88.50419616699219 30.17950439453125 C 86.26304626464844 24.88084411621094 83.05401611328125 20.12152099609375 78.96624755859375 16.03375244140625 C 74.87847900390625 11.94598388671875 70.11915588378906 8.736953735351562 64.82049560546875 6.495796203613281 C 59.33623123168945 4.176155090332031 53.50878524780273 3 47.5 3 M 47.5 0 C 73.7335205078125 0 95 21.2664794921875 95 47.5 C 95 73.7335205078125 73.7335205078125 95 47.5 95 C 21.2664794921875 95 0 73.7335205078125 0 47.5 C 0 21.2664794921875 21.2664794921875 0 47.5 0 Z" stroke="none" fill="#fe8953"/>
                  </g>
                </g>
              </g>
            </g>
          </g>
        </g>
      </g>
    </g>
    <g id="visualizacion-interactiva" transform="translate(1184 9091)">
      <path id="Trazado_997334" data-name="Trazado 997334" d="M41.926,10.181a6.691,6.691,0,0,0-3.055-.741h-.008a6.632,6.632,0,0,0-2.692.586,6.632,6.632,0,0,0-2.692-.586h-.008a6.691,6.691,0,0,0-3.055.741.778.778,0,0,0-.417.687v6.38a.763.763,0,0,0,.771.771.97.97,0,0,0,.255-.039,7.2,7.2,0,0,1,2.422-.417,12.914,12.914,0,0,1,2.468.417,1.624,1.624,0,0,0,.247.015,1.794,1.794,0,0,0,.262-.015,12.8,12.8,0,0,1,2.468-.417,7.2,7.2,0,0,1,2.422.417.97.97,0,0,0,.255.039.763.763,0,0,0,.771-.771v-6.38a.778.778,0,0,0-.417-.687ZM35.4,16.228a9,9,0,0,0-1.929-.208H33.44a8.722,8.722,0,0,0-1.9.208V11.361a5.119,5.119,0,0,1,1.929-.378,5.655,5.655,0,0,1,1.929.378Zm5.4,0a9.03,9.03,0,0,0-3.857,0V11.361a5.108,5.108,0,0,1,1.921-.378h.008a5.119,5.119,0,0,1,1.929.378Z" transform="translate(-5.715 -1.015)"/>
      <path id="Trazado_997335" data-name="Trazado 997335" d="M78.314,45A2.317,2.317,0,0,0,76,47.314v6.943a2.314,2.314,0,0,0,4.628,0V47.314A2.317,2.317,0,0,0,78.314,45Zm.771,9.257a.771.771,0,1,1-1.543,0V47.314a.771.771,0,1,1,1.543,0Z" transform="translate(-16.23 -9.144)"/>
      <path id="Trazado_997336" data-name="Trazado 997336" d="M9.771,49A.771.771,0,0,0,9,49.771v3.857a.771.771,0,0,0,1.543,0V49.771A.771.771,0,0,0,9.771,49Z" transform="translate(-0.914 -10.058)"/>
      <path id="Trazado_997337" data-name="Trazado 997337" d="M64.4,18.114H44.342a2.321,2.321,0,0,0-2.314,2.314v1.543h-10.8V20.428H38.17a2.321,2.321,0,0,0,2.314-2.314V7.314A2.321,2.321,0,0,0,38.17,5H22.742a2.321,2.321,0,0,0-2.314,2.314v10.8a2.321,2.321,0,0,0,2.314,2.314h6.943v1.543H8.857A3.858,3.858,0,0,0,5,25.828V57.456a3.858,3.858,0,0,0,3.857,3.857H28.142v1.543a.774.774,0,0,0,.771.771H38.17a.774.774,0,0,0,.771-.771V61.313H62.855a3.858,3.858,0,0,0,3.857-3.857V20.428A2.321,2.321,0,0,0,64.4,18.114Zm-22.209,12.4-8.57,7a4.556,4.556,0,0,0-2.391-1.2V26.6h10.8v3.086A2.289,2.289,0,0,0,42.189,30.518Zm-.162-7v1.543h-10.8V23.514ZM22.742,18.885a.774.774,0,0,1-.771-.771V7.314a.774.774,0,0,1,.771-.771H38.17a.774.774,0,0,1,.771.771v10.8a.774.774,0,0,1-.771.771Zm7.714,18.907a3.081,3.081,0,0,1,3.078,3.078,2.9,2.9,0,0,1-.1.771v.077a1.91,1.91,0,0,0-.663.123v-.849a2.27,2.27,0,0,0-2.26-2.268H30.4a2.27,2.27,0,0,0-2.26,2.268v1.9a3.03,3.03,0,0,1-.764-2.021A3.081,3.081,0,0,1,30.456,37.792ZM28.142,59.77H8.857a2.321,2.321,0,0,1-2.314-2.314V25.828a2.321,2.321,0,0,1,2.314-2.314H29.685v1.543H11.943a.774.774,0,0,0-.771.771V57.456a.774.774,0,0,0,.771.771h16.2Zm0-3.857v.771H12.714V26.6H29.685v9.72a4.614,4.614,0,0,0-2.97,1.851l-3.163-1.828a5.127,5.127,0,0,0,.471-2.145,5.231,5.231,0,1,0-1.311,3.44l3.317,1.921a4.592,4.592,0,0,0,2.114,5.3v2.53l-.309-.116c-1.373-.532-2.461-.494-3.217.123-1.227,1-.926,3.039-.887,3.263a.8.8,0,0,0,.579.625l1.4.332c1.443.594,2.245,1.952,2.438,4.15a.2.2,0,0,1,.015.054c0,.031-.015.062-.015.093ZM22.48,34.2a3.66,3.66,0,1,1-3.656-3.656A3.666,3.666,0,0,1,22.48,34.2ZM37.4,62.084H29.685v-5.4H37.4Zm0-6.943H29.616c-.339-2.538-1.473-4.22-3.394-4.976a.5.5,0,0,0-.1-.031l-.9-.224a1.767,1.767,0,0,1,.378-1.319c.285-.231.879-.193,1.689.123l1.358.509a.776.776,0,0,0,1.041-.725V40.994a.723.723,0,0,1,.717-.725h.108a.723.723,0,0,1,.717.725v7.2a.771.771,0,1,0,1.543,0V43.971a.721.721,0,0,1,.717-.717H33.6a.721.721,0,0,1,.717.717v5.77a.771.771,0,0,0,1.543,0v-3.88a.723.723,0,0,1,.717-.725h.108a.723.723,0,0,1,.717.725Zm-.717-11.548h-.108a2.14,2.14,0,0,0-.741.139,2.243,2.243,0,0,0-.949-1.612.519.519,0,0,0,.046-.093,4.49,4.49,0,0,0,.147-1.157,4.568,4.568,0,0,0-.525-2.121L43.2,31.683A2.227,2.227,0,0,0,44.342,32H57.456V56.684H38.942V45.861A2.27,2.27,0,0,0,36.682,43.593ZM65.17,57.456a2.321,2.321,0,0,1-2.314,2.314H38.942V58.227H58.227A.774.774,0,0,0,59,57.456V32h5.4a2.318,2.318,0,0,0,.771-.139Zm0-27.771a.774.774,0,0,1-.771.771H44.342a.775.775,0,0,1-.548-.231c-.008-.008-.008-.008-.008-.015h-.008a.8.8,0,0,1-.208-.525V20.428a.774.774,0,0,1,.771-.771H64.4a.774.774,0,0,1,.771.771Z"/>
      <path id="Trazado_997338" data-name="Trazado 997338" d="M43.39,56.313v9.28H35.607c-.339-2.538-1.473-4.22-3.394-4.976a.5.5,0,0,0-.1-.031l-.9-.224a1.767,1.767,0,0,1,.378-1.319c.285-.231.879-.193,1.689.123l1.358.509a.776.776,0,0,0,1.041-.725V51.445a.723.723,0,0,1,.717-.725H36.5a.723.723,0,0,1,.717.725v7.2a.771.771,0,1,0,1.543,0V54.423a.721.721,0,0,1,.717-.717h.108a.721.721,0,0,1,.717.717v5.77a.771.771,0,0,0,1.543,0v-3.88a.723.723,0,0,1,.717-.725h.108a.723.723,0,0,1,.717.725Z" transform="translate(-5.991 -10.451)" fill="#ffdec5"/>
      <path id="Trazado_997339" data-name="Trazado 997339" d="M37,72h7.714v5.4H37Z" transform="translate(-7.315 -15.316)" fill="#ff4949"/>
      <path id="Trazado_997340" data-name="Trazado 997340" d="M43.2,7H27.771A.774.774,0,0,0,27,7.771v10.8a.774.774,0,0,0,.771.771H43.2a.774.774,0,0,0,.771-.771V7.771A.774.774,0,0,0,43.2,7Zm-1.543,9.689a.763.763,0,0,1-.771.771.97.97,0,0,1-.255-.039,7.2,7.2,0,0,0-2.422-.417,12.8,12.8,0,0,0-2.468.417,1.794,1.794,0,0,1-.262.015,1.624,1.624,0,0,1-.247-.015,12.914,12.914,0,0,0-2.468-.417,7.2,7.2,0,0,0-2.422.417.97.97,0,0,1-.255.039.763.763,0,0,1-.771-.771v-6.38a.778.778,0,0,1,.417-.687,6.691,6.691,0,0,1,3.055-.741h.008a6.632,6.632,0,0,1,2.692.586,6.632,6.632,0,0,1,2.692-.586h.008a6.691,6.691,0,0,1,3.055.741.778.778,0,0,1,.417.687Z" transform="translate(-5.029 -0.457)" fill="#ff8d29"/>
      <path id="Trazado_997341" data-name="Trazado 997341" d="M75.828,24H55.771a.774.774,0,0,0-.771.771v9.257a.8.8,0,0,0,.208.525h.008c0,.008,0,.008.008.015a.775.775,0,0,0,.548.231H75.828a.774.774,0,0,0,.771-.771V24.771A.774.774,0,0,0,75.828,24ZM71.2,32.485H60.4a.771.771,0,1,1,0-1.543H71.2a.771.771,0,1,1,0,1.543Zm0-4.628H60.4a.771.771,0,1,1,0-1.543H71.2a.771.771,0,1,1,0,1.543Z" transform="translate(-11.43 -4.343)" fill="#ff8d29"/>
      <path id="Trazado_997342" data-name="Trazado 997342" d="M40.166,50.588a2.9,2.9,0,0,1-.1.771v.077a1.91,1.91,0,0,0-.663.123v-.849a2.27,2.27,0,0,0-2.26-2.268h-.108a2.27,2.27,0,0,0-2.26,2.268v1.9a3.03,3.03,0,0,1-.764-2.021,3.078,3.078,0,0,1,6.156,0Z" transform="translate(-6.632 -9.718)" fill="#ffcd38"/>
      <path id="Trazado_997343" data-name="Trazado 997343" d="M25.491,41.766a3.66,3.66,0,1,1-3.656-3.656A3.666,3.666,0,0,1,25.491,41.766Z" transform="translate(-3.011 -7.569)" fill="#ffcd38"/>
      <g id="Grupo_1162832" data-name="Grupo 1162832" transform="translate(12.714 26.599)">
        <path id="Trazado_997344" data-name="Trazado 997344" d="M49.962,36.919l-8.57,7A4.556,4.556,0,0,0,39,42.72V33H49.8v3.086A2.289,2.289,0,0,0,49.962,36.919Z" transform="translate(-20.486 -33)" fill="#752dc9"/>
        <path id="Trazado_997345" data-name="Trazado 997345" d="M66.213,39.906V64.591H47.7V53.768a2.27,2.27,0,0,0-2.26-2.268h-.108a2.14,2.14,0,0,0-.741.139,2.243,2.243,0,0,0-.949-1.612.519.519,0,0,0,.046-.093,4.49,4.49,0,0,0,.147-1.157,4.568,4.568,0,0,0-.525-2.121l8.647-7.066a2.227,2.227,0,0,0,1.142.316Z" transform="translate(-21.472 -34.506)" fill="#752dc9"/>
        <path id="Trazado_997346" data-name="Trazado 997346" d="M25.838,42.743a5.127,5.127,0,0,0,.471-2.145A5.231,5.231,0,1,0,25,44.039l3.317,1.921a4.592,4.592,0,0,0,2.114,5.3v2.53l-.309-.116c-1.373-.532-2.461-.494-3.217.123-1.227,1-.926,3.039-.887,3.263a.8.8,0,0,0,.579.625l1.4.332c1.443.594,2.245,1.952,2.438,4.15a.2.2,0,0,1,.015.054c0,.031-.015.062-.015.093v.771H15V33H31.971v9.72A4.614,4.614,0,0,0,29,44.571Z" transform="translate(-15 -33)" fill="#752dc9"/>
      </g>
      <path id="Trazado_997347" data-name="Trazado 997347" d="M73.342,27.771a.774.774,0,0,1-.771.771h-10.8a.771.771,0,1,1,0-1.543h10.8A.774.774,0,0,1,73.342,27.771Z" transform="translate(-12.801 -5.029)"/>
      <path id="Trazado_997348" data-name="Trazado 997348" d="M73.342,33.771a.774.774,0,0,1-.771.771h-10.8a.771.771,0,1,1,0-1.543h10.8A.774.774,0,0,1,73.342,33.771Z" transform="translate(-12.801 -6.401)"/>
    </g>
  </g>
</svg>
