<svg xmlns="http://www.w3.org/2000/svg" xmlns:xlink="http://www.w3.org/1999/xlink" width="108" height="108" viewBox="0 0 108 108">
  <defs>
    <filter id="Trazado_982547" x="0" y="0" width="108" height="108" filterUnits="userSpaceOnUse">
      <feOffset dy="3" input="SourceAlpha"/>
      <feGaussianBlur stdDeviation="3" result="blur"/>
      <feFlood flood-opacity="0.161"/>
      <feComposite operator="in" in2="blur"/>
      <feComposite in="SourceGraphic"/>
    </filter>
  </defs>
  <g id="Grupo_1162701" data-name="Grupo 1162701" transform="translate(-161 -1259)">
    <g id="Grupo_1161115" data-name="Grupo 1161115" transform="translate(5 -5253)">
      <g id="Grupo_1159770" data-name="Grupo 1159770" transform="translate(-5 5060)">
        <g id="Grupo_1153117" data-name="Grupo 1153117" transform="translate(-93 939)">
          <g id="Grupo_1149598" data-name="Grupo 1149598" transform="translate(80 315)">
            <g id="Grupo_1148770" data-name="Grupo 1148770" transform="translate(-27 -2583)">
              <g id="Grupo_1146954" data-name="Grupo 1146954" transform="translate(-415 -1202)">
                <g transform="matrix(1, 0, 0, 1, 616, 3983)" filter="url(#Trazado_982547)">
                  <g id="Trazado_982547-2" data-name="Trazado 982547" transform="translate(9 6)" fill="#f4ebee">
                    <path d="M 45 88.5 C 39.12687683105469 88.5 33.43022537231445 87.35007476806641 28.06830024719238 85.08217620849609 C 22.88852500915527 82.89131164550781 18.23629951477051 79.75458526611328 14.2408504486084 75.75914764404297 C 10.24541282653809 71.76370239257812 7.108687400817871 67.11147308349609 4.917825222015381 61.93170166015625 C 2.649924993515015 56.56977462768555 1.5 50.87312316894531 1.5 45 C 1.5 39.12687683105469 2.649924993515015 33.43022537231445 4.917825222015381 28.06830024719238 C 7.108687400817871 22.88852500915527 10.24541282653809 18.23629951477051 14.2408504486084 14.2408504486084 C 18.23629951477051 10.24541282653809 22.88852500915527 7.108687400817871 28.06830024719238 4.917825222015381 C 33.43022537231445 2.649924993515015 39.12687683105469 1.5 45 1.5 C 50.87312316894531 1.5 56.56977462768555 2.649924993515015 61.93170166015625 4.917825222015381 C 67.11147308349609 7.108687400817871 71.76370239257812 10.24541282653809 75.75914764404297 14.2408504486084 C 79.75458526611328 18.23629951477051 82.89131164550781 22.88852500915527 85.08217620849609 28.06830024719238 C 87.35007476806641 33.43022537231445 88.5 39.12687683105469 88.5 45 C 88.5 50.87312316894531 87.35007476806641 56.56977462768555 85.08217620849609 61.93170166015625 C 82.89131164550781 67.11147308349609 79.75458526611328 71.76370239257812 75.75914764404297 75.75914764404297 C 71.76370239257812 79.75458526611328 67.11147308349609 82.89131164550781 61.93170166015625 85.08217620849609 C 56.56977462768555 87.35007476806641 50.87312316894531 88.5 45 88.5 Z" stroke="none"/>
                    <path d="M 45 3 C 39.32871246337891 3 33.82865524291992 4.110054016113281 28.65262985229492 6.299339294433594 C 23.65165710449219 8.414573669433594 19.15968322753906 11.44334411621094 15.301513671875 15.301513671875 C 11.44334411621094 19.15968322753906 8.414573669433594 23.65165710449219 6.299339294433594 28.65262985229492 C 4.110054016113281 33.82865524291992 3 39.32871246337891 3 45 C 3 50.67128753662109 4.110054016113281 56.17134475708008 6.299339294433594 61.34737396240234 C 8.414573669433594 66.34834289550781 11.44334411621094 70.84031677246094 15.301513671875 74.698486328125 C 19.15968322753906 78.55665588378906 23.65165710449219 81.58542633056641 28.65262985229492 83.70066070556641 C 33.82865524291992 85.88994598388672 39.32871246337891 87 45 87 C 50.67128753662109 87 56.17134475708008 85.88994598388672 61.34737396240234 83.70066070556641 C 66.34834289550781 81.58542633056641 70.84031677246094 78.55665588378906 74.698486328125 74.698486328125 C 78.55665588378906 70.84031677246094 81.58542633056641 66.34834289550781 83.70066070556641 61.34737396240234 C 85.88994598388672 56.17134475708008 87 50.67128753662109 87 45 C 87 39.32871246337891 85.88994598388672 33.82865524291992 83.70066070556641 28.65262985229492 C 81.58542633056641 23.65165710449219 78.55665588378906 19.15968322753906 74.698486328125 15.301513671875 C 70.84031677246094 11.44334411621094 66.34834289550781 8.414573669433594 61.34737396240234 6.299339294433594 C 56.17134475708008 4.110054016113281 50.67128753662109 3 45 3 M 45 0 C 69.85281372070312 0 90 20.14718627929688 90 45 C 90 69.85281372070312 69.85281372070312 90 45 90 C 20.14718627929688 90 0 69.85281372070312 0 45 C 0 20.14718627929688 20.14718627929688 0 45 0 Z" stroke="none" fill="#9b4467"/>
                  </g>
                </g>
              </g>
            </g>
          </g>
        </g>
      </g>
    </g>
    <g id="media-monitor-screen-Digital_Marketing" data-name="media-monitor-screen-Digital Marketing" transform="translate(185 1280.001)">
      <path id="Trazado_996673" data-name="Trazado 996673" d="M4.867,16h50.4a1.867,1.867,0,0,1,1.867,1.867v28H3v-28A1.867,1.867,0,0,1,4.867,16Z" transform="translate(-0.067 -0.934)" fill="#3780ea"/>
      <path id="Trazado_996674" data-name="Trazado 996674" d="M7,28H31.266V42.933H7Z" transform="translate(-0.333 -1.734)" fill="#896ff7"/>
      <path id="Trazado_996675" data-name="Trazado 996675" d="M40.666,57v3.733H22V57H40.666Z" transform="translate(-1.334 -3.668)" fill="#e8e5fb"/>
      <path id="Trazado_996676" data-name="Trazado 996676" d="M29,51h5.6v5.6H29Z" transform="translate(-1.8 -3.267)" fill="#8e95a3"/>
      <path id="Trazado_996677" data-name="Trazado 996677" d="M57.132,48.933v.933a1.872,1.872,0,0,1-1.867,1.867H4.867A1.872,1.872,0,0,1,3,49.867V48H57.132Z" transform="translate(-0.067 -3.067)" fill="#e8e5fb"/>
      <path id="Trazado_996678" data-name="Trazado 996678" d="M21.6,13.8,16,16.6V11Z" transform="translate(-0.934 -0.6)" fill="#ec455a"/>
      <path id="Trazado_996679" data-name="Trazado 996679" d="M8,15.333V6H26.666V20.933H8Zm7.467.933,5.6-2.8-5.6-2.8Z" transform="translate(-0.4 -0.267)" fill="#78b9eb"/>
      <path id="Trazado_996680" data-name="Trazado 996680" d="M31.266,28,19.133,35.467,7,28Z" transform="translate(-0.333 -1.734)" fill="#b9b1f1"/>
      <path id="Trazado_996681" data-name="Trazado 996681" d="M36,7h6.533v7.467H36Z" transform="translate(-2.267 -0.333)" fill="#e8e5fb"/>
      <path id="Trazado_996682" data-name="Trazado 996682" d="M40.733,15,39.8,21.533H37V15Z" transform="translate(-2.334 -0.867)" fill="#c7bec5"/>
      <path id="Trazado_996683" data-name="Trazado 996683" d="M59.183,9.551a1.825,1.825,0,0,1,.551,1.316,1.872,1.872,0,0,1-1.867,1.867H56V9h1.867A1.825,1.825,0,0,1,59.183,9.551Z" transform="translate(-3.601 -0.467)" fill="#ec455a"/>
      <path id="Trazado_996684" data-name="Trazado 996684" d="M55.133,3V17.933L43,14.2V6.733Z" transform="translate(-2.734 -0.067)" fill="#f6cc4f"/>
      <path id="Trazado_996685" data-name="Trazado 996685" d="M33,9h2.8v3.733H33Z" transform="translate(-2.067 -0.467)" fill="#ec455a"/>
      <path id="Trazado_996686" data-name="Trazado 996686" d="M37,26H53.8V37.2H37Z" transform="translate(-2.334 -1.6)" fill="#9e2849"/>
      <path id="Trazado_996687" data-name="Trazado 996687" d="M55.866,30V41.2H40V30H55.866Z" transform="translate(-2.534 -1.867)" fill="#ec455a"/>
      <path id="Trazado_996688" data-name="Trazado 996688" d="M55.2,14.133H53.332V13.2h.933a2.8,2.8,0,0,0,0-5.6h-.933V2.933a.9.9,0,0,0-.383-.747.925.925,0,0,0-.821-.149l-12,3.7H33.733a.933.933,0,0,0-.933.933V7.6H30.933A.933.933,0,0,0,30,8.533v3.733a.933.933,0,0,0,.933.933H32.8v.933H27.2v-8.4a.933.933,0,0,0-.933-.933H7.6a.933.933,0,0,0-.933.933v8.4H4.8a2.808,2.808,0,0,0-2.8,2.8V46.8a2.808,2.808,0,0,0,2.8,2.8H26.266v2.8h-5.6a.933.933,0,0,0-.933.933v3.733a.933.933,0,0,0,.933.933H39.333a.933.933,0,0,0,.933-.933V53.332a.933.933,0,0,0-.933-.933h-5.6V49.6H55.2A2.808,2.808,0,0,0,58,46.8V16.933a2.808,2.808,0,0,0-2.8-2.8ZM53.332,9.466h.933a.933.933,0,0,1,0,1.867h-.933ZM41.2,7.357,51.466,4.193V16.606L41.2,13.442ZM34.666,7.6h4.667v5.6H34.666Zm2.66,7.467-.672,4.667H35.6V15.066Zm-5.46-3.733V9.466H32.8v1.867ZM8.533,6.667h16.8V19.733H8.533ZM38.4,54.266v1.867H21.6V54.266ZM28.133,52.4V49.6h3.733v2.8Zm28-5.6a.933.933,0,0,1-.933.933H4.8a.933.933,0,0,1-.933-.933v-.933H56.132Zm0-2.8H3.867V16.933A.933.933,0,0,1,4.8,16H6.667v4.667A.933.933,0,0,0,7.6,21.6H26.266a.933.933,0,0,0,.933-.933V16h6.533v4.667a.933.933,0,0,0,.933.933h2.8a.933.933,0,0,0,.924-.8l.821-5.731h.915l12,3.7a.863.863,0,0,0,.271.037.947.947,0,0,0,.933-.933V16H55.2a.933.933,0,0,1,.933.933Z" transform="translate(0 0)"/>
      <path id="Trazado_996689" data-name="Trazado 996689" d="M6.933,43.8H31.2a.933.933,0,0,0,.933-.933V27.933A.933.933,0,0,0,31.2,27H6.933A.933.933,0,0,0,6,27.933V42.866A.933.933,0,0,0,6.933,43.8Zm.933-1.867V29.6L18.577,36.2a.933.933,0,0,0,.978,0L30.266,29.6v12.33Zm2.364-13.066H27.9L19.066,34.3Z" transform="translate(-0.267 -1.667)"/>
      <path id="Trazado_996690" data-name="Trazado 996690" d="M36.933,38.066H38.8v2.8a.933.933,0,0,0,.933.933H55.6a.933.933,0,0,0,.933-.933v-11.2a.933.933,0,0,0-.933-.933h-.933v-2.8A.933.933,0,0,0,53.733,25h-16.8a.933.933,0,0,0-.933.933v11.2A.933.933,0,0,0,36.933,38.066Zm17.733,1.867h-14V30.6h14Zm-16.8-13.066H52.8v1.867H39.733a.933.933,0,0,0-.933.933V36.2h-.933Z" transform="translate(-2.267 -1.534)"/>
      <path id="Trazado_996691" data-name="Trazado 996691" d="M43,33h1.867v1.867H43Z" transform="translate(-2.734 -2.067)"/>
      <path id="Trazado_996692" data-name="Trazado 996692" d="M47,33h6.533v1.867H47Z" transform="translate(-3.001 -2.067)"/>
      <path id="Trazado_996693" data-name="Trazado 996693" d="M43,37h3.733v1.867H43Z" transform="translate(-2.734 -2.334)"/>
      <path id="Trazado_996694" data-name="Trazado 996694" d="M49,37h4.667v1.867H49Z" transform="translate(-3.134 -2.334)"/>
      <path id="Trazado_996695" data-name="Trazado 996695" d="M15.442,17.327a.933.933,0,0,0,.908.041l5.6-2.8a.933.933,0,0,0,0-1.671l-5.6-2.8A.933.933,0,0,0,15,10.933v5.6A.933.933,0,0,0,15.442,17.327Zm1.424-4.884,2.58,1.29-2.58,1.29Z" transform="translate(-0.867 -0.533)"/>
    </g>
  </g>
</svg>
