<svg xmlns="http://www.w3.org/2000/svg" xmlns:xlink="http://www.w3.org/1999/xlink" width="113" height="113" viewBox="0 0 113 113">
  <defs>
    <filter id="Trazado_982547" x="0" y="0" width="113" height="113" filterUnits="userSpaceOnUse">
      <feOffset dy="3" input="SourceAlpha"/>
      <feGaussianBlur stdDeviation="3" result="blur"/>
      <feFlood flood-opacity="0.161"/>
      <feComposite operator="in" in2="blur"/>
      <feComposite in="SourceGraphic"/>
    </filter>
  </defs>
  <g id="Grupo_1162732" data-name="Grupo 1162732" transform="translate(-325 -5335)">
    <g id="Grupo_1161173" data-name="Grupo 1161173" transform="translate(0 -377)">
      <g id="Grupo_1159745" data-name="Grupo 1159745" transform="translate(0 1505)">
        <g id="Grupo_1158168" data-name="Grupo 1158168" transform="translate(-1 -1314)">
          <g id="Grupo_1152576" data-name="Grupo 1152576" transform="translate(-0.454 1205.621)">
            <g id="Grupo_1148633" data-name="Grupo 1148633" transform="translate(71.408 600.047)">
              <g id="Grupo_1148525" data-name="Grupo 1148525" transform="translate(264.046 3721.333)">
                <g transform="matrix(1, 0, 0, 1, -9, -6)" filter="url(#Trazado_982547)">
                  <g id="Trazado_982547-2" data-name="Trazado 982547" transform="translate(9 6)" fill="#fef2ec">
                    <path d="M 47.5 93.5 C 41.28937149047852 93.5 35.26533508300781 92.28397369384766 29.59518623352051 89.88570404052734 C 24.11771965026855 87.56893157958984 19.19813346862793 84.25196075439453 14.97309303283691 80.02691650390625 C 10.74804019927979 75.80186462402344 7.431066513061523 70.88229370117188 5.114293098449707 65.40481567382812 C 2.716026782989502 59.73468017578125 1.5 53.71062850952148 1.5 47.5 C 1.5 41.28937149047852 2.716026782989502 35.26533508300781 5.114293098449707 29.59518623352051 C 7.431066513061523 24.11771965026855 10.74804019927979 19.19813346862793 14.97309303283691 14.97309303283691 C 19.19813346862793 10.74804019927979 24.11771965026855 7.431066513061523 29.59518623352051 5.114293098449707 C 35.26533508300781 2.716026782989502 41.28937149047852 1.5 47.5 1.5 C 53.71062850952148 1.5 59.73468017578125 2.716026782989502 65.40481567382812 5.114293098449707 C 70.88229370117188 7.431066513061523 75.80186462402344 10.74804019927979 80.02691650390625 14.97309303283691 C 84.25196075439453 19.19813346862793 87.56893157958984 24.11771965026855 89.88570404052734 29.59518623352051 C 92.28397369384766 35.26533508300781 93.5 41.28937149047852 93.5 47.5 C 93.5 53.71062850952148 92.28397369384766 59.73468017578125 89.88570404052734 65.40481567382812 C 87.56893157958984 70.88229370117188 84.25196075439453 75.80186462402344 80.02691650390625 80.02691650390625 C 75.80186462402344 84.25196075439453 70.88229370117188 87.56893157958984 65.40481567382812 89.88570404052734 C 59.73468017578125 92.28397369384766 53.71062850952148 93.5 47.5 93.5 Z" stroke="none"/>
                    <path d="M 47.5 3 C 41.49121475219727 3 35.66376876831055 4.176155090332031 30.17950439453125 6.495796203613281 C 24.88084411621094 8.736953735351562 20.12152099609375 11.94598388671875 16.03375244140625 16.03375244140625 C 11.94598388671875 20.12152099609375 8.736953735351562 24.88084411621094 6.495796203613281 30.17950439453125 C 4.176155090332031 35.66376876831055 3 41.49121475219727 3 47.5 C 3 53.50878524780273 4.176155090332031 59.33623123168945 6.495796203613281 64.82049560546875 C 8.736953735351562 70.11915588378906 11.94598388671875 74.87847900390625 16.03375244140625 78.96624755859375 C 20.12152099609375 83.05401611328125 24.88084411621094 86.26304626464844 30.17950439453125 88.50419616699219 C 35.66376876831055 90.82384490966797 41.49121475219727 92 47.5 92 C 53.50878524780273 92 59.33623123168945 90.82384490966797 64.82049560546875 88.50419616699219 C 70.11915588378906 86.26304626464844 74.87847900390625 83.05401611328125 78.96624755859375 78.96624755859375 C 83.05401611328125 74.87847900390625 86.26304626464844 70.11915588378906 88.50419616699219 64.82049560546875 C 90.82384490966797 59.33623123168945 92 53.50878524780273 92 47.5 C 92 41.49121475219727 90.82384490966797 35.66376876831055 88.50419616699219 30.17950439453125 C 86.26304626464844 24.88084411621094 83.05401611328125 20.12152099609375 78.96624755859375 16.03375244140625 C 74.87847900390625 11.94598388671875 70.11915588378906 8.736953735351562 64.82049560546875 6.495796203613281 C 59.33623123168945 4.176155090332031 53.50878524780273 3 47.5 3 M 47.5 0 C 73.7335205078125 0 95 21.2664794921875 95 47.5 C 95 73.7335205078125 73.7335205078125 95 47.5 95 C 21.2664794921875 95 0 73.7335205078125 0 47.5 C 0 21.2664794921875 21.2664794921875 0 47.5 0 Z" stroke="none" fill="#fe8953"/>
                  </g>
                </g>
              </g>
            </g>
          </g>
        </g>
      </g>
    </g>
    <g id="shopify" transform="translate(350.72 5290.058)">
      <path id="Trazado_997074" data-name="Trazado 997074" d="M67.7,122.615a3.524,3.524,0,0,1-3.524,3.524H11.608a3.524,3.524,0,0,1-3.524-3.524V88.55a3.524,3.524,0,0,1,3.524-3.524H64.176A3.524,3.524,0,0,1,67.7,88.55v34.065Z" transform="translate(-7.112 -7.112)" fill="#51b151"/>
      <path id="Trazado_997075" data-name="Trazado 997075" d="M57.064,120H4.5A4.5,4.5,0,0,1,0,115.5V81.438a4.5,4.5,0,0,1,4.5-4.5H57.064a4.5,4.5,0,0,1,4.5,4.5V85.22a.972.972,0,1,1-1.944,0V81.438a2.555,2.555,0,0,0-2.552-2.552H4.5a2.555,2.555,0,0,0-2.552,2.552V115.5A2.555,2.555,0,0,0,4.5,118.055H57.064a2.555,2.555,0,0,0,2.552-2.552V88.374a.972.972,0,0,1,1.944,0V115.5A4.5,4.5,0,0,1,57.064,120Z" fill="#202121"/>
      <g id="Grupo_1162729" data-name="Grupo 1162729" transform="translate(0.972 77.914)" opacity="0.15">
        <path id="Trazado_997076" data-name="Trazado 997076" d="M10.589,122.615V88.55a3.524,3.524,0,0,1,3.524-3.524H11.608A3.524,3.524,0,0,0,8.084,88.55v34.065a3.524,3.524,0,0,0,3.524,3.524h2.506A3.524,3.524,0,0,1,10.589,122.615Z" transform="translate(-8.084 -85.026)" fill="#202121"/>
      </g>
      <g id="Grupo_1162730" data-name="Grupo 1162730" transform="translate(7.34 90.943)">
        <path id="Trazado_997077" data-name="Trazado 997077" d="M61.608,229.527a5.021,5.021,0,0,0,2.06.564c.644,0,.982-.331.982-.729s-.258-.679-.982-1.044a2.545,2.545,0,0,1-1.658-2.154c0-1.691,1.433-2.8,3.461-2.8a4.3,4.3,0,0,1,2.012.414l-.547,1.69a3.814,3.814,0,0,0-1.578-.348c-.612,0-1.014.265-1.014.713,0,.332.322.613.95.912a2.667,2.667,0,0,1,1.771,2.238c0,1.856-1.529,2.867-3.622,2.851a4.558,4.558,0,0,1-2.4-.63Z" transform="translate(-61.044 -219.758)" fill="#fff"/>
        <path id="Trazado_997078" data-name="Trazado 997078" d="M111.628,207.7l2.173-11.767h2.318l-.885,4.707h.032a3.283,3.283,0,0,1,2.511-1.227,1.919,1.919,0,0,1,1.98,2.188,9.746,9.746,0,0,1-.145,1.459l-.853,4.641h-2.318l.821-4.442a5.083,5.083,0,0,0,.1-.995c0-.547-.209-.928-.789-.928-.821,0-1.642,1.028-1.932,2.652l-.692,3.712h-2.318Z" transform="translate(-105.546 -195.626)" fill="#fff"/>
        <path id="Trazado_997079" data-name="Trazado 997079" d="M185.842,231.833a3.163,3.163,0,0,1-3.349-3.348,4.811,4.811,0,0,1,4.7-5.121,3.181,3.181,0,0,1,3.349,3.348c0,2.95-1.98,5.121-4.685,5.121Zm.306-1.823c1.256,0,1.98-1.906,1.98-3.282,0-.762-.322-1.541-1.24-1.541-1.336,0-2.012,1.989-2.012,3.249,0,.945.467,1.574,1.256,1.574h.016Z" transform="translate(-167.891 -219.76)" fill="#fff"/>
        <path id="Trazado_997080" data-name="Trazado 997080" d="M241.467,235.516,243,227.262c.177-.961.354-2.37.451-3.2h2.077l-.145,1.243h.032a3.157,3.157,0,0,1,2.527-1.359c1.706,0,2.543,1.409,2.543,3.083,0,2.8-1.819,5.386-4.572,5.386a3.034,3.034,0,0,1-1.449-.331h-.048l-.628,3.431Zm3.316-5.287a1.516,1.516,0,0,0,1.063.381c1.24,0,2.206-1.807,2.206-3.4,0-.646-.274-1.326-1.014-1.326-.869,0-1.674.994-1.964,2.586Z" transform="translate(-219.774 -220.273)" fill="#fff"/>
        <path id="Trazado_997081" data-name="Trazado 997081" d="M316.445,206.063l1.5-8.1h2.3l-1.481,8.1Zm2.93-9.165a1.159,1.159,0,0,1-1.175-1.243,1.4,1.4,0,0,1,1.417-1.442,1.174,1.174,0,0,1,1.24,1.243,1.4,1.4,0,0,1-1.465,1.442Z" transform="translate(-285.737 -194.114)" fill="#fff"/>
        <path id="Trazado_997082" data-name="Trazado 997082" d="M348.7,205.341l1.159-6.281h-1.014l.322-1.823h1.03l.064-.414a4.491,4.491,0,0,1,1.336-2.668,3.477,3.477,0,0,1,2.254-.762,3.133,3.133,0,0,1,1.223.2l-.4,1.889a1.978,1.978,0,0,0-.741-.133c-.757,0-1.223.679-1.368,1.492l-.064.4h1.545l-.338,1.823h-1.529l-1.159,6.281Z" transform="translate(-314.117 -193.391)" fill="#fff"/>
        <path id="Trazado_997083" data-name="Trazado 997083" d="M391.036,225.668l.483,3.53c.113.845.193,1.425.258,1.939h.032c.177-.5.354-1.028.692-1.906l1.433-3.563h2.447l-2.817,5.817a16.221,16.221,0,0,1-3.027,4.641,5.205,5.205,0,0,1-2.527,1.376l-.515-2.038a4.618,4.618,0,0,0,1.336-.646,4.418,4.418,0,0,0,1.288-1.409.5.5,0,0,0,.032-.381l-1.545-7.359Z" transform="translate(-348.244 -221.787)" fill="#fff"/>
      </g>
      <g id="Grupo_1162731" data-name="Grupo 1162731" transform="translate(5.396 88.999)">
        <path id="Trazado_997084" data-name="Trazado 997084" d="M204.324,238.527c-1.336,0-2.012,1.989-2.012,3.248,0,.945.467,1.574,1.256,1.574h.016c1.256,0,1.98-1.906,1.98-3.282C205.564,239.306,205.242,238.527,204.324,238.527Z" transform="translate(-183.383 -231.156)" fill="#202121"/>
        <path id="Trazado_997085" data-name="Trazado 997085" d="M271.3,240.076c-.869,0-1.674.994-1.964,2.586l-.29,1.757a1.516,1.516,0,0,0,1.063.381c1.239,0,2.206-1.807,2.206-3.4C272.318,240.756,272.044,240.076,271.3,240.076Z" transform="translate(-242.097 -232.519)" fill="#202121"/>
        <path id="Trazado_997086" data-name="Trazado 997086" d="M94.961,181.1H92.512a1.944,1.944,0,0,0-1.449.648,1.942,1.942,0,0,0-1.449-.648H89.4l.284-1.333a1.944,1.944,0,0,0-1.1-2.178,5.007,5.007,0,0,0-2.022-.37,5.425,5.425,0,0,0-3.442,1.168,3.155,3.155,0,0,0-2.417-1.069,3.337,3.337,0,0,0-3.361,3.386,3.421,3.421,0,0,0,.13.933,4.329,4.329,0,0,0-2.485-.744,4.841,4.841,0,0,0-1.628.281,1.939,1.939,0,0,0-.786-.165H70.5a1.941,1.941,0,0,0-1.43.628,5.467,5.467,0,0,0-2.94-.815A6.414,6.414,0,0,0,62,182.285c-.022-.025-.043-.051-.066-.075a3.836,3.836,0,0,0-2.851-1.2l.212-1.126a1.946,1.946,0,0,0-1.9-2.355H55.077a1.944,1.944,0,0,0-1.912,1.591l-.345,1.867a7.573,7.573,0,0,0-1.571-.16c-3.132,0-5.405,2-5.405,4.745a3.829,3.829,0,0,0,.435,1.766,1.943,1.943,0,0,0-.736.978l-.564,1.674a1.944,1.944,0,0,0,.681,2.179,6.316,6.316,0,0,0,3.528,1.015h.083a6.866,6.866,0,0,0,2.431-.417,1.943,1.943,0,0,0,1.2.417h2.318a1.94,1.94,0,0,0,1.248-.453,1.944,1.944,0,0,0,1.248.453h2.318a1.943,1.943,0,0,0,1.643-.908,5.488,5.488,0,0,0,3.094.908h.016a6.642,6.642,0,0,0,2.034-.313l-.219,1.185a1.944,1.944,0,0,0,1.911,2.3h2.318a1.944,1.944,0,0,0,1.912-1.594l.276-1.506a6,6,0,0,0,3.05-.857,1.943,1.943,0,0,0,1.459.663h2.318a1.937,1.937,0,0,0,.78-.165,1.941,1.941,0,0,0,.78.165h2.318a1.947,1.947,0,0,0,.411-.046,1.918,1.918,0,0,0,.05.3l.515,2.038A1.942,1.942,0,0,0,86.9,196.8a7.159,7.159,0,0,0,3.574-1.9,17.912,17.912,0,0,0,3.421-5.186l2.8-5.775a1.945,1.945,0,0,0-1.726-2.836Zm-43.888,5.048q.089.046.178.095l.02.011q.082.045.163.094l.007,0a2.414,2.414,0,0,1,1.4,2.034,2.66,2.66,0,0,1-2.049,2.636l-.01,0q-.087.027-.176.05l-.031.008q-.082.021-.167.039l-.034.007q-.093.019-.189.035l-.012,0c-.069.011-.139.021-.211.03l-.029,0c-.058.007-.116.012-.175.017l-.071.005-.14.008-.081,0-.14,0h-.105a4.558,4.558,0,0,1-2.4-.63l.564-1.674a5.021,5.021,0,0,0,2.06.564c.644,0,.982-.331.982-.729s-.258-.679-.982-1.044a2.545,2.545,0,0,1-1.658-2.154c0-1.691,1.433-2.8,3.461-2.8q.173,0,.337.009h0a5.361,5.361,0,0,1,.88.119h0a2.9,2.9,0,0,1,.794.286l-.547,1.69a3.824,3.824,0,0,0-.574-.208c-.066-.018-.136-.035-.208-.051l-.023-.005c-.063-.014-.13-.025-.2-.036l-.049-.008c-.063-.009-.128-.016-.195-.022l-.064-.007c-.087-.006-.176-.01-.268-.01-.612,0-1.014.265-1.014.713C50.123,185.571,50.445,185.852,51.073,186.151Zm9.816.448-.853,4.641H57.718l.821-4.442a5.084,5.084,0,0,0,.1-.995c0-.547-.209-.928-.789-.928-.821,0-1.642,1.028-1.932,2.652l-.692,3.712H52.9l1.74-9.422.433-2.346H57.4l-.885,4.707h.032a3.283,3.283,0,0,1,2.511-1.227c.085,0,.167,0,.248.012l.069.009c.057.007.113.016.168.027l.07.016c.055.013.108.028.159.045l.055.019a1.847,1.847,0,0,1,.175.074l.022.01a2.041,2.041,0,0,1,1.014,1.977A9.73,9.73,0,0,1,60.889,186.6Zm6.367,3.936h0l0,0c-.079.05-.16.1-.242.143l-.056.03c-.073.039-.148.076-.224.111l-.039.019q-.134.06-.272.112l-.042.015c-.078.028-.156.054-.236.078l-.073.021c-.083.023-.167.045-.252.063l-.035.008c-.1.02-.194.037-.293.052l-.075.01q-.115.015-.232.024l-.086.007c-.1.006-.2.01-.307.01h-.016c-.066,0-.13,0-.194,0l-.061,0-.13-.009-.069-.008L64.2,191.2l-.07-.011-.112-.019-.068-.014-.11-.024-.064-.016-.11-.03-.059-.018-.111-.037-.052-.019-.115-.045-.043-.018-.121-.055-.032-.015c-.045-.022-.09-.046-.133-.07l-.013-.007a2.934,2.934,0,0,1-.78-.633h0a3.405,3.405,0,0,1-.784-2.279,5.37,5.37,0,0,1,1.454-3.776h0c.028-.028.057-.055.085-.083s.05-.05.077-.074.058-.052.088-.078.054-.048.081-.071l.09-.072.086-.068.092-.067.092-.065.095-.062.1-.06.1-.057.1-.056.1-.051.1-.051.1-.046.11-.047.1-.041.115-.041.1-.035.12-.036.1-.03.126-.031.1-.024c.044-.009.089-.017.133-.025l.1-.018c.048-.008.1-.013.144-.019l.1-.012c.054-.006.109-.009.164-.013l.084-.006q.125-.007.252-.007c.064,0,.127,0,.189,0l.064,0,.12.008.076.008.1.012.082.012.091.015.085.017.082.018.088.021.073.019.09.026.065.021.093.032.055.021.1.039.043.019c.035.015.07.031.1.047l.024.012a2.986,2.986,0,0,1,.708.486h0a3.357,3.357,0,0,1,1.017,2.507A5.109,5.109,0,0,1,67.256,190.535Zm7.878.154-.022.014c-.046.028-.092.055-.139.082l-.034.019a4.063,4.063,0,0,1-.422.2l-.072.029-.111.041-.095.032-.1.033-.122.034-.084.022c-.067.016-.136.03-.2.043l-.074.012c-.05.008-.1.016-.15.023l-.082.01-.156.014-.073.005c-.077,0-.154.007-.232.007a3.034,3.034,0,0,1-1.449-.331h-.048l-.628,3.431H68.516l1.529-8.254c.177-.961.354-2.37.451-3.2h2.077l-.145,1.243h.032a3.157,3.157,0,0,1,2.527-1.359q.08,0,.158,0l.039,0c.038,0,.077.005.114.009l.045.006.1.014.041.008.1.02.037.01.1.026.03.01c.035.011.069.021.1.033l.024.009c.035.013.07.026.1.041l.018.008c.036.016.071.032.105.049l.013.007c.035.018.07.037.1.057l.01.006c.035.02.069.042.1.064l.006,0q.052.035.1.073l0,0c.034.026.067.053.1.081h0a3.29,3.29,0,0,1,.977,2.538A5.6,5.6,0,0,1,75.134,190.689Zm4.714.426H77.53l1.422-7.7h0l.075-.407h2.3Zm.628-9.165H80.46a1.3,1.3,0,0,1-.2-.017h0c-.034-.005-.067-.012-.1-.02l-.007,0c-.032-.008-.064-.017-.095-.028l-.007,0c-.031-.011-.061-.023-.091-.036l0,0a1.083,1.083,0,0,1-.385-.293l-.013-.015c-.015-.018-.029-.038-.042-.057l-.023-.032c-.012-.018-.022-.036-.033-.055l-.024-.042c-.009-.018-.018-.035-.026-.054s-.015-.034-.022-.051-.014-.035-.02-.053-.013-.039-.019-.059-.011-.035-.015-.052-.01-.045-.015-.068-.007-.033-.01-.05-.008-.054-.011-.081,0-.029-.005-.043c0-.043-.005-.086-.005-.13a1.4,1.4,0,0,1,1.417-1.442,1.553,1.553,0,0,1,.173.011l.042.005a1.4,1.4,0,0,1,.151.03l.01,0a1.244,1.244,0,0,1,.154.053l.027.012a1.139,1.139,0,0,1,.135.07l0,0a1.092,1.092,0,0,1,.132.1l.009.008a1.1,1.1,0,0,1,.3.407h0a1.446,1.446,0,0,1-1.359,1.99Zm4.41,2.884-1.159,6.281H81.409l1.159-6.281H81.554l.322-1.823h1.03l.064-.414a4.75,4.75,0,0,1,1.1-2.441l.029-.03c.066-.068.134-.135.207-.2a3.477,3.477,0,0,1,2.254-.762,3.132,3.132,0,0,1,1.223.2l-.37,1.738-.032.151a1.882,1.882,0,0,0-.518-.122h0c-.071-.007-.145-.011-.223-.011-.757,0-1.223.679-1.368,1.492l-.064.4h1.545l-.338,1.823H84.886Zm1.373,3.271.448,2.132a2.827,2.827,0,0,1-.431.379l-.019.013a2.242,2.242,0,0,1-.513.269Zm5.882.759a16.221,16.221,0,0,1-3.027,4.641,5.205,5.205,0,0,1-2.527,1.376l-.515-2.038a4.618,4.618,0,0,0,1.336-.646,4.418,4.418,0,0,0,1.288-1.409.5.5,0,0,0,.032-.381l-1.545-7.359h2.431l.483,3.53c.113.845.193,1.425.258,1.939h.032c.177-.5.354-1.028.692-1.906l1.433-3.563h2.447Z" transform="translate(-44.879 -177.222)" fill="#202121"/>
      </g>
    </g>
  </g>
</svg>
