<svg xmlns="http://www.w3.org/2000/svg" xmlns:xlink="http://www.w3.org/1999/xlink" width="98" height="98" viewBox="0 0 98 98">
  <defs>
    <filter id="Trazado_982548" x="0" y="0" width="98" height="98" filterUnits="userSpaceOnUse">
      <feOffset dy="3" input="SourceAlpha"/>
      <feGaussianBlur stdDeviation="3" result="blur"/>
      <feFlood flood-opacity="0.161"/>
      <feComposite operator="in" in2="blur"/>
      <feComposite in="SourceGraphic"/>
    </filter>
  </defs>
  <g id="Grupo_1162936" data-name="Grupo 1162936" transform="translate(-813 -4132.88)">
    <g id="Grupo_1162514" data-name="Grupo 1162514" transform="translate(0 2039.839)">
      <g id="Grupo_1162329" data-name="Grupo 1162329" transform="translate(630 1078.041)">
        <g id="Grupo_1155642" data-name="Grupo 1155642" transform="translate(0 166)">
          <g id="Grupo_1154380" data-name="Grupo 1154380" transform="translate(-9 -1247)">
            <g id="Grupo_1149886" data-name="Grupo 1149886" transform="translate(0 -2463)">
              <g id="Grupo_1149694" data-name="Grupo 1149694" transform="translate(-9 4104)">
                <g id="Grupo_1149263" data-name="Grupo 1149263" transform="translate(210 461)">
                  <g transform="matrix(1, 0, 0, 1, -9, -6)" filter="url(#Trazado_982548)">
                    <g id="Trazado_982548-2" data-name="Trazado 982548" transform="translate(9 6)" fill="#fef2ec">
                      <path d="M 40 78.5 C 34.80187606811523 78.5 29.76003265380859 77.48227691650391 25.01452255249023 75.47509765625 C 20.43014526367188 73.53606414794922 16.31264495849609 70.75986480712891 12.77638912200928 67.22360992431641 C 9.240133285522461 63.68735504150391 6.46393346786499 59.56985473632812 4.524899959564209 54.98547744750977 C 2.517722129821777 50.23996734619141 1.5 45.19812393188477 1.5 40 C 1.5 34.80187606811523 2.517722129821777 29.76003265380859 4.524899959564209 25.01452255249023 C 6.46393346786499 20.43014526367188 9.240133285522461 16.31264495849609 12.77638912200928 12.77638912200928 C 16.31264495849609 9.240133285522461 20.43014526367188 6.46393346786499 25.01452255249023 4.524899959564209 C 29.76003265380859 2.517722129821777 34.80187606811523 1.5 40 1.5 C 45.19812393188477 1.5 50.23996734619141 2.517722129821777 54.98547744750977 4.524899959564209 C 59.56985473632812 6.46393346786499 63.68735504150391 9.240133285522461 67.22360992431641 12.77638912200928 C 70.75986480712891 16.31264495849609 73.53606414794922 20.43014526367188 75.47509765625 25.01452255249023 C 77.48227691650391 29.76003265380859 78.5 34.80187606811523 78.5 40 C 78.5 45.19812393188477 77.48227691650391 50.23996734619141 75.47509765625 54.98547744750977 C 73.53606414794922 59.56985473632812 70.75986480712891 63.68735504150391 67.22360992431641 67.22360992431641 C 63.68735504150391 70.75986480712891 59.56985473632812 73.53606414794922 54.98547744750977 75.47509765625 C 50.23996734619141 77.48227691650391 45.19812393188477 78.5 40 78.5 Z" stroke="none"/>
                      <path d="M 40 3 C 35.00370788574219 3 30.15846633911133 3.977851867675781 25.59885406494141 5.906410217285156 C 21.19326782226562 7.769813537597656 17.23602676391602 10.43806457519531 13.83704376220703 13.83705139160156 C 10.43806457519531 17.23603820800781 7.769813537597656 21.19327926635742 5.906410217285156 25.59885406494141 C 3.977851867675781 30.15846633911133 3 35.00370788574219 3 40 C 3 44.99629211425781 3.977851867675781 49.84153366088867 5.906410217285156 54.40114593505859 C 7.769813537597656 58.80672073364258 10.43806457519531 62.76396179199219 13.83704376220703 66.16294860839844 C 17.23602676391602 69.56193542480469 21.19326782226562 72.23018646240234 25.59885406494141 74.09358978271484 C 30.15846633911133 76.02214813232422 35.00370788574219 77 40 77 C 44.99629211425781 77 49.84153366088867 76.02214813232422 54.40114593505859 74.09358978271484 C 58.80672073364258 72.23018646240234 62.76396179199219 69.56193542480469 66.16294860839844 66.16294860839844 C 69.56193542480469 62.76396179199219 72.23018646240234 58.80672073364258 74.09358978271484 54.40114593505859 C 76.02214813232422 49.84153366088867 77 44.99629211425781 77 40 C 77 35.00370788574219 76.02214813232422 30.15846633911133 74.09358978271484 25.59885406494141 C 72.23018646240234 21.19327926635742 69.56193542480469 17.23603820800781 66.16294860839844 13.83705139160156 C 62.76396179199219 10.43806457519531 58.80672073364258 7.769813537597656 54.40114593505859 5.906410217285156 C 49.84153366088867 3.977851867675781 44.99629211425781 3 40 3 M 40 0 C 62.09138488769531 0 80 17.90861511230469 80 40 C 80 62.09138488769531 62.09138488769531 80 40 80 C 17.90859985351562 80 0 62.09138488769531 0 40 C 0 17.90861511230469 17.90859985351562 0 40 0 Z" stroke="none" fill="#fe8953"/>
                    </g>
                  </g>
                </g>
              </g>
            </g>
          </g>
        </g>
      </g>
    </g>
    <g id="Social_Media_Marketing" data-name="Social Media Marketing" transform="translate(837.979 4154)">
      <path id="Trazado_997537" data-name="Trazado 997537" d="M60.425,21.48V43.505a1.553,1.553,0,0,1-2.289,1.37c-3.933-2.126-6.47-3.6-11-4.907-4.943-1.411-4.857-1.2-12.875-1.2a2.624,2.624,0,0,1-2.629-2.619V28.829a2.629,2.629,0,0,1,2.629-2.624c5.613,0,7.957.2,11.383-.771,5.907-1.685,6.983-2.355,12.494-5.334a1.553,1.553,0,0,1,2.289,1.38Z" transform="translate(-15.578 -9.808)" fill="#ff7d3f"/>
      <path id="Trazado_997538" data-name="Trazado 997538" d="M74.028,21.5v16.93a1.553,1.553,0,0,1-2.289,1.37c-3.933-2.126-6.47-3.618-11-4.907l-.2-.061a1.761,1.761,0,0,1-1.284-1.7V26.314a1.147,1.147,0,0,1,.832-1.1c5.075-1.441,7.019-2.583,11.672-5.075A1.553,1.553,0,0,1,74.028,21.5Z" transform="translate(-29.181 -9.831)" fill="#ffba4e"/>
      <path id="Trazado_997539" data-name="Trazado 997539" d="M64.332,32.265c-1.248.436-2.319.746-3.172,1.015a.827.827,0,0,0-.6.8V34.9a.863.863,0,0,0,.832.944h3.157a.639.639,0,0,0,.639-.639V32.863a.639.639,0,0,0-.853-.6Z" transform="translate(-29.823 -15.873)" fill="#ffdd67"/>
      <path id="Trazado_997540" data-name="Trazado 997540" d="M72.41,30.368v3.6a.507.507,0,0,0,.507.507h.873a.507.507,0,0,0,.507-.507V29.988a.507.507,0,0,0-.705-.457l-.863.381A.507.507,0,0,0,72.41,30.368Z" transform="translate(-35.663 -14.525)" fill="#ffdd67"/>
      <path id="Trazado_997541" data-name="Trazado 997541" d="M65.133,32.55v.406a.467.467,0,0,1-.3.436c-1.522.548-2.761.919-3.735,1.193a.467.467,0,0,1-.594-.447v-.426a.467.467,0,0,1,.345-.452c.939-.264,2.182-.614,3.669-1.147a.462.462,0,0,1,.619.436Z" transform="translate(-29.797 -15.803)" fill="#fff"/>
      <path id="Trazado_997542" data-name="Trazado 997542" d="M41.612,32.19V44.877c-1.015-.081-1.116-.061-7.354-.061A2.624,2.624,0,0,1,31.63,42.2V34.875a2.634,2.634,0,0,1,2.629-2.624C40.953,32.251,40.648,32.266,41.612,32.19Z" transform="translate(-15.578 -15.854)" fill="#64a6ee"/>
      <path id="Trazado_997543" data-name="Trazado 997543" d="M35.391,32.306a2.624,2.624,0,0,0-1.761.558v3.73a1.568,1.568,0,0,0,.629,1.264.716.716,0,0,0,1.132-.584Z" transform="translate(-16.563 -15.91)" fill="#87ceff"/>
      <rect id="Rectángulo_409927" data-name="Rectángulo 409927" width="1.761" height="1.385" rx="0.693" transform="translate(17.067 17.539)" fill="#fff"/>
      <path id="Trazado_997544" data-name="Trazado 997544" transform="translate(0 0)" fill="#64a6ee"/>
      <path id="Trazado_997545" data-name="Trazado 997545" d="M41.612,44.92v4.9c-1.015-.081-1.116-.061-7.354-.061a2.624,2.624,0,0,1-2.629-2.619v-4.9a2.624,2.624,0,0,0,2.629,2.619C40.953,44.859,40.648,44.838,41.612,44.92Z" transform="translate(-15.578 -20.804)" fill="#4b79df"/>
      <rect id="Rectángulo_409928" data-name="Rectángulo 409928" width="2.913" height="14.961" rx="1.456" transform="translate(26.029 15.199)" fill="#352d5b"/>
      <rect id="Rectángulo_409929" data-name="Rectángulo 409929" width="2.913" height="12.215" rx="1.456" transform="translate(26.029 15.199)" fill="#3f416a"/>
      <rect id="Rectángulo_409930" data-name="Rectángulo 409930" width="1.274" height="4.527" rx="0.637" transform="translate(26.851 16.778)" fill="#536997"/>
      <rect id="Rectángulo_409931" data-name="Rectángulo 409931" width="1.274" height="1.934" rx="0.637" transform="translate(26.851 17.98)" fill="#6291c9"/>
      <path id="Trazado_997546" data-name="Trazado 997546" d="M38.87,32.31h3.314V44.87H38.87Z" transform="translate(-19.144 -15.913)" fill="#8c97e4"/>
      <path id="Trazado_997547" data-name="Trazado 997547" d="M38.87,32.31h3.314v7.719H38.87Z" transform="translate(-19.144 -15.913)" fill="#e1e7f8"/>
      <path id="Trazado_997548" data-name="Trazado 997548" d="M28.468,37.48V44.8l-2.674-1.162a.939.939,0,0,1-.584-.878V39.515a.949.949,0,0,1,.584-.878Z" transform="translate(-12.416 -18.459)" fill="#ff7d3f"/>
      <path id="Trazado_997549" data-name="Trazado 997549" d="M27.5,38.3l-1.71.741a.949.949,0,0,0-.584.878v.7a.949.949,0,0,0,.584.878l.579.249A.807.807,0,0,0,27.5,41Z" transform="translate(-12.416 -18.863)" fill="#ffba4e"/>
      <path id="Trazado_997550" data-name="Trazado 997550" d="M51.29,44.69H54.2v2.872H51.29Z" transform="translate(-25.261 -22.01)" fill="#4e5fb6"/>
      <path id="Trazado_997551" data-name="Trazado 997551" d="M51.29,44.69H54.2v1.533H51.29Z" transform="translate(-25.261 -22.01)" fill="#6782cf"/>
      <path id="Trazado_997552" data-name="Trazado 997552" d="M89.948,44.292,88.37,44.8V38.07l1.578.507a1.3,1.3,0,0,1,.913,1.243v3.248A1.294,1.294,0,0,1,89.948,44.292Z" transform="translate(-43.523 -18.75)" fill="#ff2353"/>
      <path id="Trazado_997553" data-name="Trazado 997553" d="M37.63,57.06h5.44v2a.741.741,0,0,1-.741.741H38.371a.741.741,0,0,1-.741-.741v-2Z" transform="translate(-18.533 -28.103)" fill="#3f416a"/>
      <path id="Trazado_997554" data-name="Trazado 997554" d="M37.63,57.06h5.44v1.223H37.63Z" transform="translate(-18.533 -28.103)" fill="#3a3256"/>
      <path id="Trazado_997555" data-name="Trazado 997555" d="M45.92,69.7a1.675,1.675,0,0,1-2.888,1.157A12.6,12.6,0,0,1,39.8,62.46h3.334a9.241,9.241,0,0,0,2.35,6.161A1.66,1.66,0,0,1,45.92,69.7Z" transform="translate(-19.602 -30.762)" fill="#4e5fb6"/>
      <path id="Trazado_997556" data-name="Trazado 997556" d="M45.92,69.7a1.675,1.675,0,0,1-2.888,1.157A12.6,12.6,0,0,1,39.8,62.46h3.334a9.241,9.241,0,0,0,2.35,6.161A1.66,1.66,0,0,1,45.92,69.7Z" transform="translate(-19.602 -30.762)" fill="#e1e7f8"/>
      <path id="Trazado_997557" data-name="Trazado 997557" d="M45.634,69.865a1.654,1.654,0,0,1-.853-.507A12.6,12.6,0,0,1,41.64,62.43h2.4a9.241,9.241,0,0,0,2.35,6.176.782.782,0,0,1-.756,1.259Z" transform="translate(-20.508 -30.747)" fill="#c8cef8"/>
      <path id="Trazado_997558" data-name="Trazado 997558" d="M83.275,44.784a1.045,1.045,0,0,1-1.045-1.045V39.125a1.045,1.045,0,1,1,2.091,0v4.613a1.045,1.045,0,0,1-1.045,1.045Z" transform="translate(-40.499 -18.755)" fill="#ffd36c"/>
      <path id="Trazado_997559" data-name="Trazado 997559" d="M47.06,32.31h1.284v5.582a.335.335,0,0,1-.335.335H47.4a.335.335,0,0,1-.335-.335V32.31Z" transform="translate(-23.178 -15.913)" fill="#87ceff"/>
      <path id="Trazado_997560" data-name="Trazado 997560" d="M47.446,34.56h.507a.386.386,0,0,1,.386.386v.974a.335.335,0,0,1-.335.335h-.609a.335.335,0,0,1-.335-.335v-.979a.386.386,0,0,1,.386-.381Z" transform="translate(-23.178 -17.021)" fill="#fff"/>
      <circle id="Elipse_11856" data-name="Elipse 11856" cx="6.43" cy="6.43" r="6.43" transform="translate(28.907 35.352)" fill="#ff2353"/>
      <path id="Trazado_997561" data-name="Trazado 997561" d="M66.56,82.172V77.1a.507.507,0,0,1,.782-.386l3.268,2.537a.507.507,0,0,1,0,.766l-3.268,2.537a.507.507,0,0,1-.782-.381Z" transform="translate(-32.782 -37.741)" fill="#fff"/>
      <path id="Trazado_997562" data-name="Trazado 997562" d="M60.313,6.689a5.679,5.679,0,0,1-6.237,5.653l-4.684.573,1.522-1.928a5.689,5.689,0,1,1,9.4-4.3Z" transform="translate(-24.103 -0.487)" fill="#00a98c"/>
      <path id="Trazado_997563" data-name="Trazado 997563" d="M60.262,8.372a4.166,4.166,0,1,0-8.323-.218,2.177,2.177,0,0,0,2.208,2.111h4.1a2.03,2.03,0,0,0,2.02-1.893Z" transform="translate(-25.581 -1.932)" fill="#00c28c"/>
      <path id="Trazado_997564" data-name="Trazado 997564" d="M19.306,65.163H18.047V60.839a1.086,1.086,0,0,0-2.121-.315l-.507,1.614A3,3,0,0,1,14.4,63.625L13.043,64.7a2.157,2.157,0,0,1-1.345.467H8.75v7.166a18.906,18.906,0,0,1,4.882.284c1.847.457,2.03.381,5.674.381Z" transform="translate(-4.309 -29.435)" fill="#ffd8b2"/>
      <path id="Trazado_997565" data-name="Trazado 997565" d="M16.093,75a2.568,2.568,0,0,1-.766.183v1.629A1.426,1.426,0,0,1,13.9,78.238H8.75v1.573c3.146,0,3.426-.081,5.253.376,1.522.376,2.35.289,5.953.289a1.015,1.015,0,0,0,1.015-.817.985.985,0,0,0-.929-1.106.98.98,0,1,0,.041-1.959h1.142A.979.979,0,0,0,22.072,75Z" transform="translate(-4.309 -36.938)" fill="#ffba8a"/>
      <path id="Trazado_997566" data-name="Trazado 997566" d="M24.49,69.907a3.552,3.552,0,0,1-3.375,3.552.517.517,0,1,1-.193-1.015,2.537,2.537,0,0,0,2.537-2.537.507.507,0,1,1,1.015,0Z" transform="translate(-10.097 -34.18)" fill="#ffba8a"/>
      <path id="Trazado_997567" data-name="Trazado 997567" d="M29.719,82.542a1.116,1.116,0,0,1-1.111,1.116H26.035a1.122,1.122,0,0,1,0-2.238h2.573a1.111,1.111,0,0,1,1.111,1.122Z" transform="translate(-12.307 -40.1)" fill="#ffd8b2"/>
      <path id="Trazado_997568" data-name="Trazado 997568" d="M31.7,78.132a1.116,1.116,0,0,1-1.116,1.116H27.535a1.122,1.122,0,0,1,0-2.238H30.58A1.127,1.127,0,0,1,31.7,78.132Z" transform="translate(-13.046 -37.928)" fill="#ffd8b2"/>
      <path id="Trazado_997569" data-name="Trazado 997569" d="M31.247,69.316a1.116,1.116,0,0,1-1.116,1.116H27.466a1.116,1.116,0,0,1,0-2.233h2.659a1.122,1.122,0,0,1,1.122,1.116Z" transform="translate(-12.978 -33.589)" fill="#ffd8b2"/>
      <path id="Trazado_997570" data-name="Trazado 997570" d="M31.693,73.717a1.116,1.116,0,0,1-1.116,1.111H27.065a1.122,1.122,0,0,1,0-2.238h3.512A1.127,1.127,0,0,1,31.693,73.717Z" transform="translate(-12.814 -35.751)" fill="#ffd8b2"/>
      <path id="Trazado_997571" data-name="Trazado 997571" d="M27.628,82.542a1.116,1.116,0,0,1-1.111,1.116h-.482a1.122,1.122,0,0,1,0-2.238h.482a1.122,1.122,0,0,1,1.111,1.122Z" transform="translate(-12.307 -40.1)" fill="#ffc999"/>
      <path id="Trazado_997572" data-name="Trazado 997572" d="M29.6,78.132a1.116,1.116,0,0,1-1.116,1.116h-.949a1.122,1.122,0,0,1,0-2.238h.949A1.127,1.127,0,0,1,29.6,78.132Z" transform="translate(-13.046 -37.928)" fill="#ffc999"/>
      <path id="Trazado_997573" data-name="Trazado 997573" d="M29.151,69.316a1.122,1.122,0,0,1-1.127,1.116h-.558a1.116,1.116,0,1,1,0-2.233h.558a1.122,1.122,0,0,1,1.127,1.116Z" transform="translate(-12.978 -33.589)" fill="#ffc999"/>
      <path id="Trazado_997574" data-name="Trazado 997574" d="M29.6,73.717a1.116,1.116,0,0,1-1.122,1.111H27.065a1.122,1.122,0,0,1,0-2.238h1.416A1.127,1.127,0,0,1,29.6,73.717Z" transform="translate(-12.814 -35.751)" fill="#ffc999"/>
      <rect id="Rectángulo_409932" data-name="Rectángulo 409932" width="4.441" height="8.546" rx="1.75" transform="translate(2.507 35.012)" fill="#e1e7f8"/>
      <rect id="Rectángulo_409933" data-name="Rectángulo 409933" width="4.441" height="5.055" rx="1.75" transform="translate(2.507 38.503)" fill="#b4c4f8"/>
      <circle id="Elipse_11857" data-name="Elipse 11857" cx="0.979" cy="0.979" r="0.979" transform="translate(3.745 40.34)" fill="#3f416a"/>
      <path id="Trazado_997575" data-name="Trazado 997575" d="M8.949,13.114l3.126,3.111a1.137,1.137,0,0,0,1.939-.8V13.114h.452a2.1,2.1,0,0,0,2.1-2.1V3.1a2.1,2.1,0,0,0-2.1-2.1H4.316A2.1,2.1,0,0,0,2.21,3.1v7.922a2.1,2.1,0,0,0,2.1,2.1Z" transform="translate(-1.088 -0.493)" fill="#e1e7f8"/>
      <path id="Trazado_997576" data-name="Trazado 997576" d="M16.506,7.408V5.1a.919.919,0,0,0-.924-.924H6.864A.919.919,0,0,0,5.94,5.1V7.413a.65.65,0,0,0,.65.65h9.272a.645.645,0,0,0,.645-.655Z" transform="translate(-2.925 -2.059)" fill="#fff"/>
      <path id="Trazado_997577" data-name="Trazado 997577" d="M14.009,21.56v1.827a1.132,1.132,0,0,1-1.934.787L8.955,21.063H4.311a2.1,2.1,0,0,1-2.1-2.1V17.14a2.1,2.1,0,0,0,2.1,2.1H8.955l3.121,3.126a1.132,1.132,0,0,0,1.934-.8Z" transform="translate(-1.088 -8.442)" fill="#bec9f8"/>
      <path id="Trazado_997578" data-name="Trazado 997578" d="M28.013,17.14v1.827a2.1,2.1,0,0,1-2.091,2.1H25.46V19.236h.462a2.1,2.1,0,0,0,2.091-2.1Z" transform="translate(-12.539 -8.442)" fill="#bec9f8"/>
      <path id="Trazado_997579" data-name="Trazado 997579" d="M13.545,12.464a2.9,2.9,0,0,1-1.913-5.075,2.877,2.877,0,0,0,1.193.766,2.766,2.766,0,0,1,.848-3.045c.274,1.619,1.38,1.847,1.994,2.5a2.9,2.9,0,0,1-2.121,4.852Z" transform="translate(-5.247 -2.517)" fill="#ff2353"/>
      <g id="Grupo_1162934" data-name="Grupo 1162934" transform="translate(0.675 0)">
        <path id="Trazado_997580" data-name="Trazado 997580" d="M79.057,33.46a.507.507,0,0,0-.507.507v9.7a.507.507,0,0,0,1.015,0v-9.7A.507.507,0,0,0,79.057,33.46Z" transform="translate(-39.362 -16.479)" fill="#302d3d"/>
        <path id="Trazado_997581" data-name="Trazado 997581" d="M58.748,28.691l-1.223-.381V21A2.065,2.065,0,0,0,54.48,19.18c-5.273,2.862-6.364,3.552-12.433,5.313-.249.071-.507.137-.751.2a1.522,1.522,0,0,0-1.243-.65h-.924a1.522,1.522,0,0,0-1.477,1.177c-.685.041-.335.03-6.9.03a3.146,3.146,0,0,0-3.121,2.791l-2.411,1.045a1.462,1.462,0,0,0-.888,1.345v3.253a1.472,1.472,0,0,0,.888,1.345l2.411,1.045a3.136,3.136,0,0,0,3.045,2.786v1.522a1.248,1.248,0,0,0,1.1,1.213,13.159,13.159,0,0,0,3.36,8.277,2.167,2.167,0,0,0,3.268-.081l.03-.036a2.137,2.137,0,0,0-.061-2.806,8.764,8.764,0,0,1-2.228-5.374,1.243,1.243,0,0,0,1.015-1.223V38.871h.507a1.522,1.522,0,0,0,1.477,1.177h.924a1.522,1.522,0,0,0,1.238-.645c.507.117.812.218,2.248.624,4.6,1.309,7.267,2.9,10.936,4.882a2.071,2.071,0,0,0,3.045-1.817v-7.3l1.223-.381a1.8,1.8,0,0,0,1.269-1.725V30.421A1.8,1.8,0,0,0,58.748,28.691ZM38.631,32.558h1.908v1.868H38.631Zm.507-7.511h.924a.507.507,0,0,1,.507.507v5.988H38.631V25.565a.508.508,0,0,1,.5-.507Zm-1.522,1.182V37.871c-.69-.03-.959,0-1.979,0V26.255c.954,0,1.264.005,1.979-.025Zm-2.994,6.562H32.308V31.309h2.314Zm-2.314,1.015h2.314v1.482H32.308Zm2.314-3.512H32.308V28.812h2.314ZM32.308,36.3h2.314v1.522H32.308Zm2.314-10.048v1.522H32.308V26.255Zm-9.277,7.43V30.421a.472.472,0,0,1,.274-.416l1.994-.858v5.806L25.619,34.1A.472.472,0,0,1,25.345,33.684Zm3.283,2.03V28.376a2.121,2.121,0,0,1,2.131-2.121H31.3V37.846H30.76a2.121,2.121,0,0,1-2.131-2.131Zm3.045,4.628V38.861h4.441v1.492a.223.223,0,0,1-.228.233H31.907a.223.223,0,0,1-.228-.233Zm5.938,7.272a1.164,1.164,0,1,1-1.72,1.568,12.124,12.124,0,0,1-3.1-7.572h2.34a9.749,9.749,0,0,0,2.487,6.014Zm1.522-8.571a.507.507,0,0,1-.507-.507v-3.1h1.908v3.126a.507.507,0,0,1-.507.507ZM56.515,43.1a1.05,1.05,0,0,1-1.553.924l-2.1-1.132V40.129a.507.507,0,1,0-1.015,0v2.223A42.777,42.777,0,0,0,41.559,38.44V36.648a44.785,44.785,0,0,1,5.638,1.8.508.508,0,0,0,.376-.944,47.577,47.577,0,0,0-6.014-1.9V25.656c.254-.061.507-.127.756-.2a40.71,40.71,0,0,0,9.536-3.71v2.147a.507.507,0,1,0,1.015,0V21.2l2.1-1.132A1.056,1.056,0,0,1,56.51,21Zm2.5-9.419a.787.787,0,0,1-.563.761l-.924.289V29.371l.924.289a.787.787,0,0,1,.563.761Z" transform="translate(-12.658 -9.325)" fill="#302d3d"/>
        <path id="Trazado_997582" data-name="Trazado 997582" d="M63.012,68.65a6.942,6.942,0,1,0,6.942,6.942,6.942,6.942,0,0,0-6.942-6.942Zm0,12.865a5.927,5.927,0,1,1,5.927-5.922A5.927,5.927,0,0,1,63.012,81.515Z" transform="translate(-28.29 -33.811)" fill="#302d3d"/>
        <path id="Trazado_997583" data-name="Trazado 997583" d="M70.547,78.358,67.279,75.82a1.015,1.015,0,0,0-1.6.782v5.075a1.015,1.015,0,0,0,1.6.787l3.268-2.537a.985.985,0,0,0,0-1.568Zm-3.852,3.329h0l-.036-5.075,3.268,2.507Z" transform="translate(-33.023 -37.251)" fill="#302d3d"/>
        <path id="Trazado_997584" data-name="Trazado 997584" d="M48.648,12.14a.507.507,0,0,0,.421.822c.122,0,3.8-.462,4.689-.568A6.181,6.181,0,1,0,49.9,10.582ZM49.1,6.223a5.176,5.176,0,1,1,4.684,5.156c-.086,0,.228-.041-3.552.421l.756-.959a.507.507,0,0,0-.076-.7A5.2,5.2,0,0,1,49.1,6.223Z" transform="translate(-24.37 -0.027)" fill="#302d3d"/>
        <path id="Trazado_997585" data-name="Trazado 997585" d="M55.359,11.9a3.634,3.634,0,0,0,1.456.507,1.553,1.553,0,0,0,1.106-.457l2.126-2.121a1.594,1.594,0,0,0,.32-1.761l-.37-.8a.5.5,0,1,0-.9.416c.1.228.03.071.37.8a.558.558,0,0,1-.117.624l-2.121,2.121a.553.553,0,0,1-.619.112l-.807-.365a.513.513,0,0,0-.447.924Z" transform="translate(-27.802 -3.432)" fill="#302d3d"/>
        <path id="Trazado_997586" data-name="Trazado 997586" d="M20.609,65.5A1.624,1.624,0,0,0,19.2,63.06H16.3v-2.7a1.588,1.588,0,0,0-3.106-.447l-.507,1.614a2.466,2.466,0,0,1-.848,1.233l-1.36,1.071a1.649,1.649,0,0,1-1.015.36H9.323a1.385,1.385,0,0,0-1.2-.726H5.456a1.4,1.4,0,0,0-1.4,1.4v6.765a1.4,1.4,0,0,0,1.4,1.4H8.12a1.38,1.38,0,0,0,1.177-.66,9.429,9.429,0,0,1,1.964.264c1.857.507,2.106.4,7.1.4a1.629,1.629,0,0,0,1.492-2.263,1.624,1.624,0,0,0,1.015-2.6,1.619,1.619,0,0,0-.264-2.664Zm-4.3,2.03a.614.614,0,0,1,0-1.223h3.512a.614.614,0,0,1,0,1.223Zm.239-3.456H19.2a.619.619,0,0,1,.507.294.609.609,0,0,1-.442.919H16.534a.548.548,0,0,1-.289-.076H16.2a.6.6,0,0,1-.122-.913.614.614,0,0,1,.467-.218ZM5.456,72.007a.381.381,0,0,1-.381-.381v-6.77a.381.381,0,0,1,.381-.376H8.12a.386.386,0,0,1,.381.381v6.765a.386.386,0,0,1-.381.381Zm4.06-.65V65.192a2.73,2.73,0,0,0,1.619-.573c2.35-1.852,2.142-1.477,3.045-4.425a.573.573,0,0,1,1.127.167v3.3a1.6,1.6,0,0,0-.152,1.837,2.537,2.537,0,0,1-2.411,1.725.507.507,0,0,0,0,1.015,3.522,3.522,0,0,0,2.081-.68,1.522,1.522,0,0,0,.441.594,1.6,1.6,0,0,0-.147,1.756A1.634,1.634,0,0,0,14.276,72c-2.37.01-2.664-.558-4.76-.639Zm6.273.65a.614.614,0,1,1,0-1.223h2.573a.614.614,0,0,1,0,1.223Zm3.806-2.238c-3.329,0-3.162.03-3.349-.086a.609.609,0,0,1,0-1.05c.193-.122,0-.086,3.349-.086a.614.614,0,0,1,0,1.223Z" transform="translate(-2.675 -28.957)" fill="#302d3d"/>
        <path id="Trazado_997587" data-name="Trazado 997587" d="M7.982,78.49a1.487,1.487,0,1,0,1.055.434A1.492,1.492,0,0,0,7.982,78.49Zm0,1.964a.477.477,0,1,1,.477-.477A.477.477,0,0,1,7.982,80.454Z" transform="translate(-3.871 -38.657)" fill="#302d3d"/>
        <path id="Trazado_997588" data-name="Trazado 997588" d="M8.364,13.129l2.979,2.979a1.639,1.639,0,0,0,2.8-1.162V13.129a2.608,2.608,0,0,0,2.537-2.6V2.6A2.6,2.6,0,0,0,14.1,0H3.949A2.6,2.6,0,0,0,1.33,2.6v7.922a2.6,2.6,0,0,0,2.6,2.6Zm-6.019-2.6V2.6A1.588,1.588,0,0,1,3.933,1.015h10.15A1.588,1.588,0,0,1,15.667,2.6v7.922a1.594,1.594,0,0,1-1.583,1.588h-.462a.507.507,0,0,0-.507.507v2.324a.619.619,0,0,1-1.061.442L8.917,12.261a.507.507,0,0,0-.35-.147H3.933a1.594,1.594,0,0,1-1.588-1.588Z" transform="translate(-1.33 0)" fill="#302d3d"/>
        <path id="Trazado_997589" data-name="Trazado 997589" d="M13.143,12.45a3.41,3.41,0,0,0,2.492-5.74c-.7-.741-1.624-.842-1.862-2.238a.507.507,0,0,0-.822-.3,3.253,3.253,0,0,0-1.188,2.5,1.1,1.1,0,0,1-.157-.147.507.507,0,0,0-.726-.036,3.41,3.41,0,0,0,2.263,5.968ZM11.26,7.578a3.456,3.456,0,0,0,1.015.538.507.507,0,0,0,.634-.66,2.238,2.238,0,0,1,.157-1.873c.507,1.061,1.421,1.385,1.832,1.822a2.436,2.436,0,0,1,.639,1.817A2.4,2.4,0,1,1,11.26,7.578Z" transform="translate(-5.464 -1.996)" fill="#302d3d"/>
      </g>
    </g>
  </g>
</svg>
